M48
;DRILL file {KiCad 4.0.7} date 04/11/18 17:00:36
;FORMAT={-:-/ absolute / metric / decimal}
FMAT,2
METRIC,TZ
T1C0.406
T2C0.762
T3C0.800
T4C0.890
T5C0.914
T6C1.200
T7C1.600
T8C3.250
T9C0.900
%
G90
G05
M71
T1
X1.045Y9.554
X1.25Y41.93
X1.25Y24.35
X1.35Y25.7
X3.1Y30.6
X3.65Y7.15
X4.41Y25.348
X4.718Y39.2
X6.15Y9.564
X6.187Y24.51
X7.9Y7.05
X8.172Y12.008
X8.6Y15.2
X8.6Y13.
X9.025Y36.825
X9.525Y29.2
X10.171Y33.305
X10.582Y6.536
X10.846Y1.625
X10.872Y32.214
X11.25Y19.85
X11.35Y12.025
X11.802Y7.857
X11.95Y31.85
X12.012Y33.091
X12.5Y9.5
X12.591Y22.882
X12.75Y26.75
X13.013Y38.783
X13.8Y21.2
X13.8Y10.85
X14.125Y36.8
X14.37Y33.571
X14.676Y18.793
X14.725Y29.025
X14.801Y27.428
X15.453Y24.77
X15.561Y26.247
X15.835Y34.94
X16.4Y23.7
X16.498Y9.677
X16.645Y29.496
X16.673Y18.554
X17.05Y11.3
X17.3Y16.15
X17.531Y31.801
X18.1Y28.85
X18.402Y30.44
X19.2Y7.677
X19.4Y20.8
X20.05Y24.9
X20.5Y21.9
X20.686Y29.756
X21.225Y35.275
X21.23Y32.415
X21.434Y23.658
X21.9Y34.2
X21.988Y8.414
X22.118Y7.413
X22.156Y16.329
X22.646Y39.362
X22.984Y21.864
X23.3Y28.15
X23.436Y13.08
X23.462Y20.319
X24.148Y28.748
X24.212Y27.635
X24.27Y21.486
X24.475Y37.825
X24.55Y8.
X24.95Y25.85
X24.99Y16.371
X25.1Y35.718
X25.6Y9.05
X25.743Y26.483
X25.881Y6.739
X25.986Y17.911
X26.095Y22.967
X26.243Y30.428
X26.5Y13.8
X26.593Y6.034
X26.594Y24.019
X26.9Y26.25
X27.268Y17.175
X27.452Y6.739
X27.522Y18.649
X27.55Y9.2
X28.389Y21.457
X28.405Y19.171
X28.65Y8.2
X28.821Y33.628
X28.891Y43.583
X29.015Y20.035
X29.85Y32.9
X30.149Y18.477
X30.383Y6.872
X30.426Y22.526
X31.174Y8.334
X31.611Y0.788
X31.7Y18.6
X31.95Y23.95
X32.06Y10.232
X32.075Y33.525
X32.075Y31.65
X32.086Y20.502
X33.079Y21.536
X33.1Y24.7
X33.25Y28.4
X33.525Y35.987
X33.886Y8.509
X34.625Y32.6
X34.8Y27.8
X35.017Y36.67
X35.164Y9.987
X35.503Y41.467
X35.696Y43.258
X35.71Y10.961
X35.8Y34.7
X37.561Y24.725
X39.303Y31.685
X39.825Y29.275
X40.875Y36.025
X40.925Y32.459
X41.25Y16.7
X41.25Y15.45
T2
X37.7Y12.9
T3
X16.08Y40.85
X18.62Y40.85
X21.16Y40.85
X23.7Y40.85
T4
X35.16Y21.79
X35.16Y19.25
X35.16Y16.71
X35.16Y14.17
X37.7Y20.52
X37.7Y17.98
X37.7Y15.44
X48.11Y23.97
X48.11Y21.43
X48.11Y13.26
X48.11Y10.72
T5
X4.7Y47.44
X4.7Y44.9
X4.7Y5.04
X4.7Y2.5
X7.24Y47.44
X7.24Y44.9
X7.24Y5.04
X7.24Y2.5
X9.78Y47.44
X9.78Y44.9
X9.78Y5.04
X9.78Y2.5
X12.32Y47.44
X12.32Y44.9
X12.32Y5.04
X12.32Y2.5
X14.86Y47.44
X14.86Y44.9
X14.86Y5.04
X14.86Y2.5
X17.4Y47.44
X17.4Y44.9
X17.4Y5.04
X17.4Y2.5
X19.2Y14.54
X19.2Y12.
X19.94Y47.44
X19.94Y44.9
X19.94Y5.04
X19.94Y2.5
X22.48Y47.44
X22.48Y44.9
X22.48Y5.04
X22.48Y2.5
X25.02Y47.44
X25.02Y44.9
X25.02Y5.04
X25.02Y2.5
X27.56Y47.44
X27.56Y44.9
X27.56Y5.04
X27.56Y2.5
X30.1Y47.44
X30.1Y44.9
X30.1Y5.04
X30.1Y2.5
X32.64Y47.44
X32.64Y44.9
X32.64Y5.04
X32.64Y2.5
X35.18Y47.44
X35.18Y44.9
X35.18Y5.04
X35.18Y2.5
X37.72Y47.44
X37.72Y44.9
X37.72Y5.04
X37.72Y2.5
X40.26Y47.44
X40.26Y44.9
X40.26Y5.04
X40.26Y2.5
X42.8Y47.44
X42.8Y44.9
X42.8Y5.04
X42.8Y2.5
X45.34Y47.44
X45.34Y44.9
X45.34Y5.04
X45.34Y2.5
X45.6Y29.3
X48.14Y29.3
T6
X1.4Y40.05
X1.4Y32.75
X6.7Y40.05
X6.7Y32.75
X43.2Y40.05
X43.2Y32.75
X48.5Y40.05
X48.5Y32.75
T7
X41.Y25.09
X41.Y9.6
T8
X44.05Y23.06
X44.05Y11.63
T9
X4.7Y38.15
X4.7Y34.65
X45.2Y38.15
X45.2Y34.65
T0
M30
