G04 #@! TF.FileFunction,Soldermask,Bot*
%FSLAX46Y46*%
G04 Gerber Fmt 4.6, Leading zero omitted, Abs format (unit mm)*
G04 Created by KiCad (PCBNEW 4.0.7) date 04/11/18 17:00:27*
%MOMM*%
%LPD*%
G01*
G04 APERTURE LIST*
%ADD10C,0.100000*%
%ADD11R,2.300000X1.800000*%
%ADD12R,1.900000X1.200000*%
%ADD13R,1.500000X2.200000*%
%ADD14C,1.924000*%
%ADD15C,2.000000*%
%ADD16C,4.000000*%
%ADD17C,2.400000*%
%ADD18C,1.300000*%
%ADD19C,1.900000*%
%ADD20R,1.924000X1.924000*%
%ADD21R,1.000000X1.300000*%
%ADD22R,1.300000X1.000000*%
%ADD23R,1.900000X1.900000*%
%ADD24C,2.940000*%
G04 APERTURE END LIST*
D10*
D11*
X2600000Y9950000D03*
X1200000Y22850000D03*
D12*
X5400000Y10750000D03*
X5400000Y11850000D03*
X5200000Y12950000D03*
X5400000Y14050000D03*
X5200000Y15150000D03*
X5400000Y16250000D03*
X5800000Y17350000D03*
X5400000Y18450000D03*
D13*
X15700000Y11300000D03*
X15700000Y17000000D03*
D10*
G36*
X19974264Y29793503D02*
X20893503Y28874264D01*
X20186396Y28167157D01*
X19267157Y29086396D01*
X19974264Y29793503D01*
X19974264Y29793503D01*
G37*
G36*
X18913604Y28732843D02*
X19832843Y27813604D01*
X19125736Y27106497D01*
X18206497Y28025736D01*
X18913604Y28732843D01*
X18913604Y28732843D01*
G37*
G36*
X23200736Y23206497D02*
X22281497Y24125736D01*
X22988604Y24832843D01*
X23907843Y23913604D01*
X23200736Y23206497D01*
X23200736Y23206497D01*
G37*
G36*
X24261396Y24267157D02*
X23342157Y25186396D01*
X24049264Y25893503D01*
X24968503Y24974264D01*
X24261396Y24267157D01*
X24261396Y24267157D01*
G37*
D14*
X37700000Y12900000D03*
D15*
X35160000Y14170000D03*
X37700000Y15440000D03*
X35160000Y16710000D03*
X37700000Y17980000D03*
X35160000Y19250000D03*
X37700000Y20520000D03*
X35160000Y21790000D03*
X48110000Y10720000D03*
X48110000Y13260000D03*
X48110000Y21430000D03*
X48110000Y23970000D03*
D16*
X44050000Y11630000D03*
X44050000Y23060000D03*
D17*
X41000000Y9600000D03*
X41000000Y25090000D03*
D18*
X45200000Y34650000D03*
X45200000Y38150000D03*
D19*
X43200000Y32750000D03*
X43200000Y40050000D03*
X48500000Y32750000D03*
X48500000Y40050000D03*
D18*
X4700000Y38150000D03*
X4700000Y34650000D03*
D19*
X6700000Y40050000D03*
X6700000Y32750000D03*
X1400000Y40050000D03*
X1400000Y32750000D03*
D10*
G36*
X20226171Y27896842D02*
X21353158Y29023829D01*
X22623829Y27753158D01*
X21496842Y26626171D01*
X20226171Y27896842D01*
X20226171Y27896842D01*
G37*
G36*
X21788736Y26334277D02*
X22915723Y27461264D01*
X24186394Y26190593D01*
X23059407Y25063606D01*
X21788736Y26334277D01*
X21788736Y26334277D01*
G37*
G36*
X20585381Y25130923D02*
X21712368Y26257910D01*
X22983039Y24987239D01*
X21856052Y23860252D01*
X20585381Y25130923D01*
X20585381Y25130923D01*
G37*
G36*
X19022817Y26693488D02*
X20149804Y27820475D01*
X21420475Y26549804D01*
X20293488Y25422817D01*
X19022817Y26693488D01*
X19022817Y26693488D01*
G37*
D14*
X4700000Y5040000D03*
D20*
X4700000Y2500000D03*
D14*
X7240000Y5040000D03*
X7240000Y2500000D03*
X9780000Y5040000D03*
X9780000Y2500000D03*
X12320000Y5040000D03*
X12320000Y2500000D03*
X14860000Y5040000D03*
X14860000Y2500000D03*
X17400000Y5040000D03*
X17400000Y2500000D03*
X19940000Y5040000D03*
X19940000Y2500000D03*
X22480000Y5040000D03*
X22480000Y2500000D03*
X25020000Y5040000D03*
X25020000Y2500000D03*
X27560000Y5040000D03*
X27560000Y2500000D03*
X30100000Y5040000D03*
X30100000Y2500000D03*
X32640000Y5040000D03*
X32640000Y2500000D03*
X35180000Y5040000D03*
X35180000Y2500000D03*
X37720000Y5040000D03*
X37720000Y2500000D03*
X40260000Y5040000D03*
X40260000Y2500000D03*
X42800000Y5040000D03*
X42800000Y2500000D03*
X45340000Y5040000D03*
X45340000Y2500000D03*
X4700000Y47440000D03*
D20*
X4700000Y44900000D03*
D14*
X7240000Y47440000D03*
X7240000Y44900000D03*
X9780000Y47440000D03*
X9780000Y44900000D03*
X12320000Y47440000D03*
X12320000Y44900000D03*
X14860000Y47440000D03*
X14860000Y44900000D03*
X17400000Y47440000D03*
X17400000Y44900000D03*
X19940000Y47440000D03*
X19940000Y44900000D03*
X22480000Y47440000D03*
X22480000Y44900000D03*
X25020000Y47440000D03*
X25020000Y44900000D03*
X27560000Y47440000D03*
X27560000Y44900000D03*
X30100000Y47440000D03*
X30100000Y44900000D03*
X32640000Y47440000D03*
X32640000Y44900000D03*
X35180000Y47440000D03*
X35180000Y44900000D03*
X37720000Y47440000D03*
X37720000Y44900000D03*
X40260000Y47440000D03*
X40260000Y44900000D03*
X42800000Y47440000D03*
X42800000Y44900000D03*
X45340000Y47440000D03*
X45340000Y44900000D03*
D21*
X39750000Y14200000D03*
X41250000Y14200000D03*
D10*
G36*
X24624264Y10743503D02*
X25543503Y9824264D01*
X24836396Y9117157D01*
X23917157Y10036396D01*
X24624264Y10743503D01*
X24624264Y10743503D01*
G37*
G36*
X23563604Y9682843D02*
X24482843Y8763604D01*
X23775736Y8056497D01*
X22856497Y8975736D01*
X23563604Y9682843D01*
X23563604Y9682843D01*
G37*
G36*
X23424264Y11943503D02*
X24343503Y11024264D01*
X23636396Y10317157D01*
X22717157Y11236396D01*
X23424264Y11943503D01*
X23424264Y11943503D01*
G37*
G36*
X22363604Y10882843D02*
X23282843Y9963604D01*
X22575736Y9256497D01*
X21656497Y10175736D01*
X22363604Y10882843D01*
X22363604Y10882843D01*
G37*
D21*
X39750000Y17950000D03*
X41250000Y17950000D03*
D10*
G36*
X28856497Y11174264D02*
X29775736Y12093503D01*
X30482843Y11386396D01*
X29563604Y10467157D01*
X28856497Y11174264D01*
X28856497Y11174264D01*
G37*
G36*
X29917157Y10113604D02*
X30836396Y11032843D01*
X31543503Y10325736D01*
X30624264Y9406497D01*
X29917157Y10113604D01*
X29917157Y10113604D01*
G37*
G36*
X27656497Y10024264D02*
X28575736Y10943503D01*
X29282843Y10236396D01*
X28363604Y9317157D01*
X27656497Y10024264D01*
X27656497Y10024264D01*
G37*
G36*
X28717157Y8963604D02*
X29636396Y9882843D01*
X30343503Y9175736D01*
X29424264Y8256497D01*
X28717157Y8963604D01*
X28717157Y8963604D01*
G37*
G36*
X31556497Y27474264D02*
X32475736Y28393503D01*
X33182843Y27686396D01*
X32263604Y26767157D01*
X31556497Y27474264D01*
X31556497Y27474264D01*
G37*
G36*
X32617157Y26413604D02*
X33536396Y27332843D01*
X34243503Y26625736D01*
X33324264Y25706497D01*
X32617157Y26413604D01*
X32617157Y26413604D01*
G37*
G36*
X22150736Y35731497D02*
X21231497Y36650736D01*
X21938604Y37357843D01*
X22857843Y36438604D01*
X22150736Y35731497D01*
X22150736Y35731497D01*
G37*
G36*
X23211396Y36792157D02*
X22292157Y37711396D01*
X22999264Y38418503D01*
X23918503Y37499264D01*
X23211396Y36792157D01*
X23211396Y36792157D01*
G37*
G36*
X12143503Y27500736D02*
X11224264Y26581497D01*
X10517157Y27288604D01*
X11436396Y28207843D01*
X12143503Y27500736D01*
X12143503Y27500736D01*
G37*
G36*
X11082843Y28561396D02*
X10163604Y27642157D01*
X9456497Y28349264D01*
X10375736Y29268503D01*
X11082843Y28561396D01*
X11082843Y28561396D01*
G37*
G36*
X20475736Y19156497D02*
X19556497Y20075736D01*
X20263604Y20782843D01*
X21182843Y19863604D01*
X20475736Y19156497D01*
X20475736Y19156497D01*
G37*
G36*
X21536396Y20217157D02*
X20617157Y21136396D01*
X21324264Y21843503D01*
X22243503Y20924264D01*
X21536396Y20217157D01*
X21536396Y20217157D01*
G37*
G36*
X30456497Y26349264D02*
X31375736Y27268503D01*
X32082843Y26561396D01*
X31163604Y25642157D01*
X30456497Y26349264D01*
X30456497Y26349264D01*
G37*
G36*
X31517157Y25288604D02*
X32436396Y26207843D01*
X33143503Y25500736D01*
X32224264Y24581497D01*
X31517157Y25288604D01*
X31517157Y25288604D01*
G37*
G36*
X21050736Y36831497D02*
X20131497Y37750736D01*
X20838604Y38457843D01*
X21757843Y37538604D01*
X21050736Y36831497D01*
X21050736Y36831497D01*
G37*
G36*
X22111396Y37892157D02*
X21192157Y38811396D01*
X21899264Y39518503D01*
X22818503Y38599264D01*
X22111396Y37892157D01*
X22111396Y37892157D01*
G37*
G36*
X11043503Y26400736D02*
X10124264Y25481497D01*
X9417157Y26188604D01*
X10336396Y27107843D01*
X11043503Y26400736D01*
X11043503Y26400736D01*
G37*
G36*
X9982843Y27461396D02*
X9063604Y26542157D01*
X8356497Y27249264D01*
X9275736Y28168503D01*
X9982843Y27461396D01*
X9982843Y27461396D01*
G37*
G36*
X21575736Y18056497D02*
X20656497Y18975736D01*
X21363604Y19682843D01*
X22282843Y18763604D01*
X21575736Y18056497D01*
X21575736Y18056497D01*
G37*
G36*
X22636396Y19117157D02*
X21717157Y20036396D01*
X22424264Y20743503D01*
X23343503Y19824264D01*
X22636396Y19117157D01*
X22636396Y19117157D01*
G37*
G36*
X29643503Y26175736D02*
X28724264Y25256497D01*
X28017157Y25963604D01*
X28936396Y26882843D01*
X29643503Y26175736D01*
X29643503Y26175736D01*
G37*
G36*
X28582843Y27236396D02*
X27663604Y26317157D01*
X26956497Y27024264D01*
X27875736Y27943503D01*
X28582843Y27236396D01*
X28582843Y27236396D01*
G37*
G36*
X23300736Y34656497D02*
X22381497Y35575736D01*
X23088604Y36282843D01*
X24007843Y35363604D01*
X23300736Y34656497D01*
X23300736Y34656497D01*
G37*
G36*
X24361396Y35717157D02*
X23442157Y36636396D01*
X24149264Y37343503D01*
X25068503Y36424264D01*
X24361396Y35717157D01*
X24361396Y35717157D01*
G37*
G36*
X32743503Y11475736D02*
X31824264Y10556497D01*
X31117157Y11263604D01*
X32036396Y12182843D01*
X32743503Y11475736D01*
X32743503Y11475736D01*
G37*
G36*
X31682843Y12536396D02*
X30763604Y11617157D01*
X30056497Y12324264D01*
X30975736Y13243503D01*
X31682843Y12536396D01*
X31682843Y12536396D01*
G37*
D14*
X19200000Y14540000D03*
D20*
X19200000Y12000000D03*
D14*
X48140000Y29300000D03*
D20*
X45600000Y29300000D03*
D21*
X46600000Y15600000D03*
X48100000Y15600000D03*
X46600000Y19200000D03*
X48100000Y19200000D03*
D15*
X23700000Y40850000D03*
X21160000Y40850000D03*
X18620000Y40850000D03*
X16080000Y40850000D03*
D21*
X2850000Y28600000D03*
X1350000Y28600000D03*
D22*
X33575000Y31600000D03*
X33575000Y30100000D03*
X33525000Y33575000D03*
X33525000Y35075000D03*
D21*
X1350000Y27000000D03*
X2850000Y27000000D03*
D23*
X38250000Y29300000D03*
X41750000Y29300000D03*
D24*
X1500000Y1500000D03*
X48500000Y48500000D03*
D10*
G36*
X11931497Y30949264D02*
X12850736Y31868503D01*
X13557843Y31161396D01*
X12638604Y30242157D01*
X11931497Y30949264D01*
X11931497Y30949264D01*
G37*
G36*
X12992157Y29888604D02*
X13911396Y30807843D01*
X14618503Y30100736D01*
X13699264Y29181497D01*
X12992157Y29888604D01*
X12992157Y29888604D01*
G37*
G36*
X14806497Y28224264D02*
X15725736Y29143503D01*
X16432843Y28436396D01*
X15513604Y27517157D01*
X14806497Y28224264D01*
X14806497Y28224264D01*
G37*
G36*
X15867157Y27163604D02*
X16786396Y28082843D01*
X17493503Y27375736D01*
X16574264Y26456497D01*
X15867157Y27163604D01*
X15867157Y27163604D01*
G37*
M02*
