G04 #@! TF.FileFunction,Copper,L3,Inr,Plane*
%FSLAX46Y46*%
G04 Gerber Fmt 4.6, Leading zero omitted, Abs format (unit mm)*
G04 Created by KiCad (PCBNEW 4.0.7) date 04/11/18 17:00:27*
%MOMM*%
%LPD*%
G01*
G04 APERTURE LIST*
%ADD10C,0.100000*%
%ADD11C,1.524000*%
%ADD12C,1.600000*%
%ADD13C,3.600000*%
%ADD14C,2.000000*%
%ADD15C,1.500000*%
%ADD16R,1.524000X1.524000*%
%ADD17C,0.812800*%
%ADD18C,0.200000*%
G04 APERTURE END LIST*
D10*
D11*
X37700000Y12900000D03*
D12*
X35160000Y14170000D03*
X37700000Y15440000D03*
X35160000Y16710000D03*
X37700000Y17980000D03*
X35160000Y19250000D03*
X37700000Y20520000D03*
X35160000Y21790000D03*
X48110000Y10720000D03*
X48110000Y13260000D03*
X48110000Y21430000D03*
X48110000Y23970000D03*
D13*
X44050000Y11630000D03*
X44050000Y23060000D03*
D14*
X41000000Y9600000D03*
X41000000Y25090000D03*
D15*
X43200000Y32750000D03*
X43200000Y40050000D03*
X48500000Y32750000D03*
X48500000Y40050000D03*
X6700000Y40050000D03*
X6700000Y32750000D03*
X1400000Y40050000D03*
X1400000Y32750000D03*
D11*
X4700000Y5040000D03*
D16*
X4700000Y2500000D03*
D11*
X7240000Y5040000D03*
X7240000Y2500000D03*
X9780000Y5040000D03*
X9780000Y2500000D03*
X12320000Y5040000D03*
X12320000Y2500000D03*
X14860000Y5040000D03*
X14860000Y2500000D03*
X17400000Y5040000D03*
X17400000Y2500000D03*
X19940000Y5040000D03*
X19940000Y2500000D03*
X22480000Y5040000D03*
X22480000Y2500000D03*
X25020000Y5040000D03*
X25020000Y2500000D03*
X27560000Y5040000D03*
X27560000Y2500000D03*
X30100000Y5040000D03*
X30100000Y2500000D03*
X32640000Y5040000D03*
X32640000Y2500000D03*
X35180000Y5040000D03*
X35180000Y2500000D03*
X37720000Y5040000D03*
X37720000Y2500000D03*
X40260000Y5040000D03*
X40260000Y2500000D03*
X42800000Y5040000D03*
X42800000Y2500000D03*
X45340000Y5040000D03*
X45340000Y2500000D03*
X4700000Y47440000D03*
D16*
X4700000Y44900000D03*
D11*
X7240000Y47440000D03*
X7240000Y44900000D03*
X9780000Y47440000D03*
X9780000Y44900000D03*
X12320000Y47440000D03*
X12320000Y44900000D03*
X14860000Y47440000D03*
X14860000Y44900000D03*
X17400000Y47440000D03*
X17400000Y44900000D03*
X19940000Y47440000D03*
X19940000Y44900000D03*
X22480000Y47440000D03*
X22480000Y44900000D03*
X25020000Y47440000D03*
X25020000Y44900000D03*
X27560000Y47440000D03*
X27560000Y44900000D03*
X30100000Y47440000D03*
X30100000Y44900000D03*
X32640000Y47440000D03*
X32640000Y44900000D03*
X35180000Y47440000D03*
X35180000Y44900000D03*
X37720000Y47440000D03*
X37720000Y44900000D03*
X40260000Y47440000D03*
X40260000Y44900000D03*
X42800000Y47440000D03*
X42800000Y44900000D03*
X45340000Y47440000D03*
X45340000Y44900000D03*
X19200000Y14540000D03*
D16*
X19200000Y12000000D03*
D11*
X48140000Y29300000D03*
D16*
X45600000Y29300000D03*
D12*
X23700000Y40850000D03*
X21160000Y40850000D03*
X18620000Y40850000D03*
X16080000Y40850000D03*
D17*
X34625000Y32600000D03*
X34800000Y27800000D03*
X20500000Y21900000D03*
X16400000Y23700000D03*
X8600000Y13000000D03*
X18100000Y28850000D03*
X24950000Y25850000D03*
X26900000Y26250000D03*
X41250000Y16700000D03*
X41250000Y15450000D03*
X28650000Y8200000D03*
X24550000Y8000000D03*
X31700000Y18600000D03*
X17300000Y16150000D03*
X17050000Y11300000D03*
X1250000Y24350000D03*
X11350000Y12025000D03*
X14125000Y36800000D03*
X24475000Y37825000D03*
X33100000Y24700000D03*
X9525000Y29200000D03*
X11250000Y19850000D03*
X26500000Y13800000D03*
X22155700Y16328700D03*
X1044700Y9554000D03*
X23300000Y28150000D03*
X20050000Y24900000D03*
X26243200Y30427900D03*
X35800000Y34700000D03*
X35016800Y36670500D03*
X39302600Y31685200D03*
X25099800Y35718000D03*
X13013000Y38782900D03*
X12012200Y33090700D03*
X21230000Y32415400D03*
X25743100Y26483400D03*
X28891000Y43582700D03*
X14800900Y27428200D03*
X15561500Y26247100D03*
X15452600Y24770100D03*
X20685900Y29756100D03*
X22645800Y39361900D03*
X7900000Y7050000D03*
X14675800Y18793400D03*
X16673300Y18554000D03*
X10582200Y6536500D03*
X8171800Y12008500D03*
X21434200Y23657900D03*
X23462300Y20319100D03*
X25986000Y17911200D03*
X4410400Y25347700D03*
X16645300Y29495900D03*
X27268400Y17175100D03*
X27521600Y18648800D03*
X30382800Y6872000D03*
X28405300Y19170900D03*
X26094800Y22967400D03*
X28389300Y21456800D03*
X30426200Y22526400D03*
X35710500Y10961100D03*
X26594400Y24018600D03*
X4717700Y39199800D03*
X10170700Y33304600D03*
X10872200Y32213700D03*
X12590900Y22882100D03*
X6186800Y24509600D03*
X14369700Y33571300D03*
X15834600Y34940200D03*
X17531200Y31800600D03*
X18402200Y30440000D03*
X40925000Y32459400D03*
X37561500Y24724600D03*
X33079100Y21535900D03*
X29850000Y32900000D03*
X32075000Y33525000D03*
X32075000Y31650000D03*
X28820800Y33627700D03*
X35503300Y41467300D03*
X35696000Y43257800D03*
X29014900Y20034700D03*
X24212100Y27634600D03*
X16497600Y9677400D03*
X11802100Y7857200D03*
X10846000Y1624600D03*
X31611000Y787900D03*
X35164100Y9987200D03*
X32086400Y20502500D03*
X23436000Y13080100D03*
X24269700Y21485800D03*
X21987500Y8414200D03*
X22983900Y21863800D03*
X24148500Y28748000D03*
X31950000Y23950000D03*
X21900000Y34200000D03*
X25600000Y9050000D03*
X27550000Y9200000D03*
X19400000Y20800000D03*
X13800000Y21200000D03*
X8600000Y15200000D03*
X11950000Y31850000D03*
X13800000Y10850000D03*
X12500000Y9500000D03*
X1350000Y25700000D03*
X9025000Y36825000D03*
X21225000Y35275000D03*
X40875000Y36025000D03*
X39825000Y29275000D03*
X33250000Y28400000D03*
X12750000Y26750000D03*
X33525000Y35987400D03*
X1250000Y41929700D03*
X32060300Y10232000D03*
X24989800Y16370800D03*
X19200000Y7676600D03*
X22118400Y7413500D03*
X25881100Y6739300D03*
X27452200Y6739300D03*
X33886200Y8509000D03*
X3650000Y7150000D03*
X6149900Y9563600D03*
X26593200Y6034500D03*
X3100000Y30600000D03*
X31174400Y8334200D03*
X30149100Y18477200D03*
X14725000Y29025000D03*
D18*
G36*
X49325000Y41092791D02*
X49255860Y41023651D01*
X49184212Y41253738D01*
X48671479Y41423945D01*
X48132640Y41384982D01*
X47815788Y41253738D01*
X47744140Y41023649D01*
X48500000Y40267789D01*
X48514142Y40281931D01*
X48731931Y40064142D01*
X48717789Y40050000D01*
X48731931Y40035858D01*
X48514142Y39818069D01*
X48500000Y39832211D01*
X47744140Y39076351D01*
X47815788Y38846262D01*
X48328521Y38676055D01*
X48867360Y38715018D01*
X49184212Y38846262D01*
X49255860Y39076349D01*
X49325000Y39007209D01*
X49325000Y33792791D01*
X49255860Y33723651D01*
X49184212Y33953738D01*
X48671479Y34123945D01*
X48132640Y34084982D01*
X47815788Y33953738D01*
X47744140Y33723649D01*
X48500000Y32967789D01*
X48514142Y32981931D01*
X48731931Y32764142D01*
X48717789Y32750000D01*
X48731931Y32735858D01*
X48514142Y32518069D01*
X48500000Y32532211D01*
X47744140Y31776351D01*
X47815788Y31546262D01*
X48328521Y31376055D01*
X48867360Y31415018D01*
X49184212Y31546262D01*
X49255860Y31776349D01*
X49325000Y31707209D01*
X49325000Y29998674D01*
X49295321Y30070503D01*
X48912518Y30453974D01*
X48412107Y30661763D01*
X47870270Y30662236D01*
X47369497Y30455321D01*
X46986026Y30072518D01*
X46973754Y30042964D01*
X46973754Y30062000D01*
X46931917Y30284346D01*
X46800510Y30488558D01*
X46600007Y30625556D01*
X46362000Y30673754D01*
X44838000Y30673754D01*
X44615654Y30631917D01*
X44411442Y30500510D01*
X44274444Y30300007D01*
X44226246Y30062000D01*
X44226246Y28538000D01*
X44268083Y28315654D01*
X44399490Y28111442D01*
X44599993Y27974444D01*
X44838000Y27926246D01*
X46362000Y27926246D01*
X46584346Y27968083D01*
X46788558Y28099490D01*
X46925556Y28299993D01*
X46973754Y28538000D01*
X46973754Y28555938D01*
X46984679Y28529497D01*
X47367482Y28146026D01*
X47867893Y27938237D01*
X48409730Y27937764D01*
X48910503Y28144679D01*
X49293974Y28527482D01*
X49325000Y28602201D01*
X49325000Y24695578D01*
X49297555Y24762000D01*
X48904072Y25156170D01*
X48389699Y25369757D01*
X47832744Y25370243D01*
X47318000Y25157555D01*
X46923830Y24764072D01*
X46710243Y24249699D01*
X46709757Y23692744D01*
X46922445Y23178000D01*
X47315928Y22783830D01*
X47517673Y22700058D01*
X47318000Y22617555D01*
X46923830Y22224072D01*
X46710243Y21709699D01*
X46709757Y21152744D01*
X46922445Y20638000D01*
X47315928Y20243830D01*
X47830301Y20030243D01*
X48387256Y20029757D01*
X48902000Y20242445D01*
X49296170Y20635928D01*
X49325000Y20705358D01*
X49325000Y13985578D01*
X49297555Y14052000D01*
X48904072Y14446170D01*
X48389699Y14659757D01*
X47832744Y14660243D01*
X47318000Y14447555D01*
X46923830Y14054072D01*
X46710243Y13539699D01*
X46709757Y12982744D01*
X46922445Y12468000D01*
X47315928Y12073830D01*
X47517673Y11990058D01*
X47318000Y11907555D01*
X46923830Y11514072D01*
X46710243Y10999699D01*
X46709757Y10442744D01*
X46922445Y9928000D01*
X47315928Y9533830D01*
X47830301Y9320243D01*
X48387256Y9319757D01*
X48902000Y9532445D01*
X49296170Y9925928D01*
X49325000Y9995358D01*
X49325000Y675000D01*
X32617302Y675000D01*
X32617575Y987207D01*
X32555238Y1138073D01*
X32909730Y1137764D01*
X33410503Y1344679D01*
X33793974Y1727482D01*
X33910029Y2006972D01*
X34024679Y1729497D01*
X34407482Y1346026D01*
X34907893Y1138237D01*
X35449730Y1137764D01*
X35950503Y1344679D01*
X36333974Y1727482D01*
X36450029Y2006972D01*
X36564679Y1729497D01*
X36947482Y1346026D01*
X37447893Y1138237D01*
X37989730Y1137764D01*
X38490503Y1344679D01*
X38873974Y1727482D01*
X38990029Y2006972D01*
X39104679Y1729497D01*
X39487482Y1346026D01*
X39987893Y1138237D01*
X40529730Y1137764D01*
X41030503Y1344679D01*
X41413974Y1727482D01*
X41530029Y2006972D01*
X41644679Y1729497D01*
X42027482Y1346026D01*
X42527893Y1138237D01*
X43069730Y1137764D01*
X43570503Y1344679D01*
X43743757Y1517632D01*
X44575421Y1517632D01*
X44648551Y1286302D01*
X45165647Y1114083D01*
X45709287Y1152858D01*
X46031449Y1286302D01*
X46104579Y1517632D01*
X45340000Y2282211D01*
X44575421Y1517632D01*
X43743757Y1517632D01*
X43953974Y1727482D01*
X44057055Y1975728D01*
X44126302Y1808551D01*
X44357632Y1735421D01*
X45122211Y2500000D01*
X45557789Y2500000D01*
X46322368Y1735421D01*
X46553698Y1808551D01*
X46725917Y2325647D01*
X46687142Y2869287D01*
X46553698Y3191449D01*
X46322368Y3264579D01*
X45557789Y2500000D01*
X45122211Y2500000D01*
X44357632Y3264579D01*
X44126302Y3191449D01*
X44064571Y3006098D01*
X43955321Y3270503D01*
X43572518Y3653974D01*
X43293028Y3770029D01*
X43570503Y3884679D01*
X43743757Y4057632D01*
X44575421Y4057632D01*
X44648551Y3826302D01*
X44799239Y3776115D01*
X44648551Y3713698D01*
X44575421Y3482368D01*
X45340000Y2717789D01*
X46104579Y3482368D01*
X46031449Y3713698D01*
X45880761Y3763885D01*
X46031449Y3826302D01*
X46104579Y4057632D01*
X45340000Y4822211D01*
X44575421Y4057632D01*
X43743757Y4057632D01*
X43953974Y4267482D01*
X44057055Y4515728D01*
X44126302Y4348551D01*
X44357632Y4275421D01*
X45122211Y5040000D01*
X45557789Y5040000D01*
X46322368Y4275421D01*
X46553698Y4348551D01*
X46725917Y4865647D01*
X46687142Y5409287D01*
X46553698Y5731449D01*
X46322368Y5804579D01*
X45557789Y5040000D01*
X45122211Y5040000D01*
X44357632Y5804579D01*
X44126302Y5731449D01*
X44064571Y5546098D01*
X43955321Y5810503D01*
X43743826Y6022368D01*
X44575421Y6022368D01*
X45340000Y5257789D01*
X46104579Y6022368D01*
X46031449Y6253698D01*
X45514353Y6425917D01*
X44970713Y6387142D01*
X44648551Y6253698D01*
X44575421Y6022368D01*
X43743826Y6022368D01*
X43572518Y6193974D01*
X43072107Y6401763D01*
X42530270Y6402236D01*
X42029497Y6195321D01*
X41646026Y5812518D01*
X41529971Y5533028D01*
X41415321Y5810503D01*
X41032518Y6193974D01*
X40532107Y6401763D01*
X39990270Y6402236D01*
X39489497Y6195321D01*
X39106026Y5812518D01*
X38989971Y5533028D01*
X38875321Y5810503D01*
X38492518Y6193974D01*
X37992107Y6401763D01*
X37450270Y6402236D01*
X36949497Y6195321D01*
X36566026Y5812518D01*
X36449971Y5533028D01*
X36335321Y5810503D01*
X35952518Y6193974D01*
X35452107Y6401763D01*
X34910270Y6402236D01*
X34409497Y6195321D01*
X34026026Y5812518D01*
X33909971Y5533028D01*
X33795321Y5810503D01*
X33412518Y6193974D01*
X32912107Y6401763D01*
X32370270Y6402236D01*
X31869497Y6195321D01*
X31486026Y5812518D01*
X31369971Y5533028D01*
X31255321Y5810503D01*
X31000085Y6066184D01*
X31235487Y6301176D01*
X31389025Y6670936D01*
X31389375Y7071307D01*
X31283434Y7327704D01*
X31373707Y7327625D01*
X31743735Y7480518D01*
X32027087Y7763376D01*
X32180625Y8133136D01*
X32180779Y8309693D01*
X32879625Y8309693D01*
X33032518Y7939665D01*
X33315376Y7656313D01*
X33685136Y7502775D01*
X34085507Y7502425D01*
X34455535Y7655318D01*
X34738887Y7938176D01*
X34892425Y8307936D01*
X34892775Y8708307D01*
X34742225Y9072664D01*
X34963036Y8980975D01*
X35363407Y8980625D01*
X35733435Y9133518D01*
X35883315Y9283137D01*
X39399723Y9283137D01*
X39642795Y8694857D01*
X40092489Y8244377D01*
X40680344Y8000278D01*
X41316863Y7999723D01*
X41905143Y8242795D01*
X42355623Y8692489D01*
X42599722Y9280344D01*
X42600075Y9685379D01*
X42688734Y9596565D01*
X43570516Y9230417D01*
X44525295Y9229584D01*
X45407715Y9594192D01*
X46083435Y10268734D01*
X46449583Y11150516D01*
X46450416Y12105295D01*
X46085808Y12987715D01*
X45411266Y13663435D01*
X44529484Y14029583D01*
X43574705Y14030416D01*
X42692285Y13665808D01*
X42016565Y12991266D01*
X41650417Y12109484D01*
X41649584Y11154705D01*
X41695461Y11043674D01*
X41319656Y11199722D01*
X40683137Y11200277D01*
X40094857Y10957205D01*
X39644377Y10507511D01*
X39400278Y9919656D01*
X39399723Y9283137D01*
X35883315Y9283137D01*
X36016787Y9416376D01*
X36170325Y9786136D01*
X36170566Y10062269D01*
X36279835Y10107418D01*
X36563187Y10390276D01*
X36716725Y10760036D01*
X36717075Y11160407D01*
X36564182Y11530435D01*
X36281324Y11813787D01*
X35911564Y11967325D01*
X35511193Y11967675D01*
X35141165Y11814782D01*
X34857813Y11531924D01*
X34704275Y11162164D01*
X34704034Y10886031D01*
X34594765Y10840882D01*
X34311413Y10558024D01*
X34157875Y10188264D01*
X34157525Y9787893D01*
X34308075Y9423536D01*
X34087264Y9515225D01*
X33686893Y9515575D01*
X33316865Y9362682D01*
X33033513Y9079824D01*
X32879975Y8710064D01*
X32879625Y8309693D01*
X32180779Y8309693D01*
X32180975Y8533507D01*
X32028082Y8903535D01*
X31745224Y9186887D01*
X31375464Y9340425D01*
X30975093Y9340775D01*
X30605065Y9187882D01*
X30321713Y8905024D01*
X30168175Y8535264D01*
X30167825Y8134893D01*
X30273766Y7878496D01*
X30183493Y7878575D01*
X29813465Y7725682D01*
X29530113Y7442824D01*
X29376575Y7073064D01*
X29376225Y6672693D01*
X29529118Y6302665D01*
X29546689Y6285063D01*
X29329497Y6195321D01*
X28946026Y5812518D01*
X28829971Y5533028D01*
X28715321Y5810503D01*
X28332518Y6193974D01*
X28317981Y6200010D01*
X28458425Y6538236D01*
X28458775Y6938607D01*
X28305882Y7308635D01*
X28023024Y7591987D01*
X27653264Y7745525D01*
X27252893Y7745875D01*
X26882865Y7592982D01*
X26666521Y7377015D01*
X26451924Y7591987D01*
X26082164Y7745525D01*
X25681793Y7745875D01*
X25311765Y7592982D01*
X25028413Y7310124D01*
X24874875Y6940364D01*
X24874525Y6539993D01*
X24931511Y6402078D01*
X24750270Y6402236D01*
X24249497Y6195321D01*
X23866026Y5812518D01*
X23749971Y5533028D01*
X23635321Y5810503D01*
X23252518Y6193974D01*
X22752107Y6401763D01*
X22210270Y6402236D01*
X21709497Y6195321D01*
X21326026Y5812518D01*
X21209971Y5533028D01*
X21095321Y5810503D01*
X20712518Y6193974D01*
X20212107Y6401763D01*
X19670270Y6402236D01*
X19169497Y6195321D01*
X18786026Y5812518D01*
X18669971Y5533028D01*
X18555321Y5810503D01*
X18172518Y6193974D01*
X17672107Y6401763D01*
X17130270Y6402236D01*
X16629497Y6195321D01*
X16246026Y5812518D01*
X16129971Y5533028D01*
X16015321Y5810503D01*
X15632518Y6193974D01*
X15132107Y6401763D01*
X14590270Y6402236D01*
X14089497Y6195321D01*
X13706026Y5812518D01*
X13589971Y5533028D01*
X13475321Y5810503D01*
X13092518Y6193974D01*
X12592107Y6401763D01*
X12050270Y6402236D01*
X11549497Y6195321D01*
X11516613Y6162495D01*
X11588425Y6335436D01*
X11588775Y6735807D01*
X11528794Y6880973D01*
X11601036Y6850975D01*
X12001407Y6850625D01*
X12371435Y7003518D01*
X12654787Y7286376D01*
X12734062Y7477293D01*
X18193425Y7477293D01*
X18346318Y7107265D01*
X18629176Y6823913D01*
X18998936Y6670375D01*
X19399307Y6670025D01*
X19769335Y6822918D01*
X20052687Y7105776D01*
X20206225Y7475536D01*
X20206575Y7875907D01*
X20066509Y8214893D01*
X20980925Y8214893D01*
X21133818Y7844865D01*
X21186070Y7792522D01*
X21112175Y7614564D01*
X21111825Y7214193D01*
X21264718Y6844165D01*
X21547576Y6560813D01*
X21917336Y6407275D01*
X22317707Y6406925D01*
X22687735Y6559818D01*
X22971087Y6842676D01*
X23124625Y7212436D01*
X23124975Y7612807D01*
X22972082Y7982835D01*
X22919830Y8035178D01*
X22993725Y8213136D01*
X22994075Y8613507D01*
X22896072Y8850693D01*
X24593425Y8850693D01*
X24746318Y8480665D01*
X25029176Y8197313D01*
X25398936Y8043775D01*
X25799307Y8043425D01*
X26169335Y8196318D01*
X26452687Y8479176D01*
X26606177Y8848821D01*
X26696318Y8630665D01*
X26979176Y8347313D01*
X27348936Y8193775D01*
X27749307Y8193425D01*
X28119335Y8346318D01*
X28402687Y8629176D01*
X28556225Y8998936D01*
X28556575Y9399307D01*
X28403682Y9769335D01*
X28140784Y10032693D01*
X31053725Y10032693D01*
X31206618Y9662665D01*
X31489476Y9379313D01*
X31859236Y9225775D01*
X32259607Y9225425D01*
X32629635Y9378318D01*
X32912987Y9661176D01*
X33066525Y10030936D01*
X33066875Y10431307D01*
X32913982Y10801335D01*
X32631124Y11084687D01*
X32261364Y11238225D01*
X31860993Y11238575D01*
X31490965Y11085682D01*
X31207613Y10802824D01*
X31054075Y10433064D01*
X31053725Y10032693D01*
X28140784Y10032693D01*
X28120824Y10052687D01*
X27751064Y10206225D01*
X27350693Y10206575D01*
X26980665Y10053682D01*
X26697313Y9770824D01*
X26543823Y9401179D01*
X26453682Y9619335D01*
X26170824Y9902687D01*
X25801064Y10056225D01*
X25400693Y10056575D01*
X25030665Y9903682D01*
X24747313Y9620824D01*
X24593775Y9251064D01*
X24593425Y8850693D01*
X22896072Y8850693D01*
X22841182Y8983535D01*
X22558324Y9266887D01*
X22188564Y9420425D01*
X21788193Y9420775D01*
X21418165Y9267882D01*
X21134813Y8985024D01*
X20981275Y8615264D01*
X20980925Y8214893D01*
X20066509Y8214893D01*
X20053682Y8245935D01*
X19770824Y8529287D01*
X19401064Y8682825D01*
X19000693Y8683175D01*
X18630665Y8530282D01*
X18347313Y8247424D01*
X18193775Y7877664D01*
X18193425Y7477293D01*
X12734062Y7477293D01*
X12808325Y7656136D01*
X12808675Y8056507D01*
X12655782Y8426535D01*
X12588912Y8493522D01*
X12699307Y8493425D01*
X13069335Y8646318D01*
X13352687Y8929176D01*
X13506225Y9298936D01*
X13506381Y9478093D01*
X15491025Y9478093D01*
X15643918Y9108065D01*
X15926776Y8824713D01*
X16296536Y8671175D01*
X16696907Y8670825D01*
X17066935Y8823718D01*
X17350287Y9106576D01*
X17503825Y9476336D01*
X17504175Y9876707D01*
X17351282Y10246735D01*
X17068424Y10530087D01*
X16698664Y10683625D01*
X16298293Y10683975D01*
X15928265Y10531082D01*
X15644913Y10248224D01*
X15491375Y9878464D01*
X15491025Y9478093D01*
X13506381Y9478093D01*
X13506575Y9699307D01*
X13415390Y9919990D01*
X13598936Y9843775D01*
X13999307Y9843425D01*
X14369335Y9996318D01*
X14652687Y10279176D01*
X14806225Y10648936D01*
X14806575Y11049307D01*
X14653682Y11419335D01*
X14370824Y11702687D01*
X14001064Y11856225D01*
X13600693Y11856575D01*
X13230665Y11703682D01*
X12947313Y11420824D01*
X12793775Y11051064D01*
X12793425Y10650693D01*
X12884610Y10430010D01*
X12701064Y10506225D01*
X12300693Y10506575D01*
X11930665Y10353682D01*
X11647313Y10070824D01*
X11493775Y9701064D01*
X11493425Y9300693D01*
X11646318Y8930665D01*
X11713188Y8863678D01*
X11602793Y8863775D01*
X11232765Y8710882D01*
X10949413Y8428024D01*
X10795875Y8058264D01*
X10795525Y7657893D01*
X10855506Y7512727D01*
X10783264Y7542725D01*
X10382893Y7543075D01*
X10012865Y7390182D01*
X9729513Y7107324D01*
X9575975Y6737564D01*
X9575682Y6402179D01*
X9510270Y6402236D01*
X9009497Y6195321D01*
X8626026Y5812518D01*
X8509971Y5533028D01*
X8395321Y5810503D01*
X8144262Y6062000D01*
X8469335Y6196318D01*
X8752687Y6479176D01*
X8906225Y6848936D01*
X8906575Y7249307D01*
X8753682Y7619335D01*
X8470824Y7902687D01*
X8101064Y8056225D01*
X7700693Y8056575D01*
X7330665Y7903682D01*
X7047313Y7620824D01*
X6893775Y7251064D01*
X6893425Y6850693D01*
X7046318Y6480665D01*
X7124745Y6402101D01*
X6970270Y6402236D01*
X6469497Y6195321D01*
X6086026Y5812518D01*
X5969971Y5533028D01*
X5855321Y5810503D01*
X5472518Y6193974D01*
X4972107Y6401763D01*
X4430270Y6402236D01*
X4251402Y6328329D01*
X4502687Y6579176D01*
X4656225Y6948936D01*
X4656575Y7349307D01*
X4503682Y7719335D01*
X4220824Y8002687D01*
X3851064Y8156225D01*
X3450693Y8156575D01*
X3080665Y8003682D01*
X2797313Y7720824D01*
X2643775Y7351064D01*
X2643425Y6950693D01*
X2796318Y6580665D01*
X3079176Y6297313D01*
X3448936Y6143775D01*
X3849307Y6143425D01*
X3897429Y6163309D01*
X3546026Y5812518D01*
X3338237Y5312107D01*
X3337764Y4770270D01*
X3544679Y4269497D01*
X3927482Y3886026D01*
X3957036Y3873754D01*
X3938000Y3873754D01*
X3715654Y3831917D01*
X3511442Y3700510D01*
X3374444Y3500007D01*
X3326246Y3262000D01*
X3326246Y1738000D01*
X3368083Y1515654D01*
X3499490Y1311442D01*
X3699993Y1174444D01*
X3938000Y1126246D01*
X5462000Y1126246D01*
X5684346Y1168083D01*
X5888558Y1299490D01*
X6025556Y1499993D01*
X6073754Y1738000D01*
X6073754Y1755938D01*
X6084679Y1729497D01*
X6467482Y1346026D01*
X6967893Y1138237D01*
X7509730Y1137764D01*
X8010503Y1344679D01*
X8393974Y1727482D01*
X8510029Y2006972D01*
X8624679Y1729497D01*
X9007482Y1346026D01*
X9507893Y1138237D01*
X9958197Y1137844D01*
X9992318Y1055265D01*
X10275176Y771913D01*
X10508568Y675000D01*
X675000Y675000D01*
X675000Y9364293D01*
X5143325Y9364293D01*
X5296218Y8994265D01*
X5579076Y8710913D01*
X5948836Y8557375D01*
X6349207Y8557025D01*
X6719235Y8709918D01*
X7002587Y8992776D01*
X7156125Y9362536D01*
X7156475Y9762907D01*
X7003582Y10132935D01*
X6720724Y10416287D01*
X6350964Y10569825D01*
X5950593Y10570175D01*
X5580565Y10417282D01*
X5297213Y10134424D01*
X5143675Y9764664D01*
X5143325Y9364293D01*
X675000Y9364293D01*
X675000Y11809193D01*
X7165225Y11809193D01*
X7318118Y11439165D01*
X7600976Y11155813D01*
X7970736Y11002275D01*
X8371107Y11001925D01*
X8741135Y11154818D01*
X9024487Y11437676D01*
X9178025Y11807436D01*
X9178375Y12207807D01*
X9025482Y12577835D01*
X8841639Y12762000D01*
X17826246Y12762000D01*
X17826246Y11238000D01*
X17868083Y11015654D01*
X17999490Y10811442D01*
X18199993Y10674444D01*
X18438000Y10626246D01*
X19962000Y10626246D01*
X20184346Y10668083D01*
X20388558Y10799490D01*
X20525556Y10999993D01*
X20573754Y11238000D01*
X20573754Y12762000D01*
X20551402Y12880793D01*
X22429425Y12880793D01*
X22582318Y12510765D01*
X22865176Y12227413D01*
X23234936Y12073875D01*
X23635307Y12073525D01*
X24005335Y12226418D01*
X24288687Y12509276D01*
X24442225Y12879036D01*
X24442575Y13279407D01*
X24289682Y13649435D01*
X24006824Y13932787D01*
X23637064Y14086325D01*
X23236693Y14086675D01*
X22866665Y13933782D01*
X22583313Y13650924D01*
X22429775Y13281164D01*
X22429425Y12880793D01*
X20551402Y12880793D01*
X20531917Y12984346D01*
X20400510Y13188558D01*
X20200007Y13325556D01*
X19962000Y13373754D01*
X19944062Y13373754D01*
X19970503Y13384679D01*
X20353974Y13767482D01*
X20561763Y14267893D01*
X20562236Y14809730D01*
X20355321Y15310503D01*
X19972518Y15693974D01*
X19472107Y15901763D01*
X18930270Y15902236D01*
X18429497Y15695321D01*
X18046026Y15312518D01*
X17838237Y14812107D01*
X17837764Y14270270D01*
X18044679Y13769497D01*
X18427482Y13386026D01*
X18457036Y13373754D01*
X18438000Y13373754D01*
X18215654Y13331917D01*
X18011442Y13200510D01*
X17874444Y13000007D01*
X17826246Y12762000D01*
X8841639Y12762000D01*
X8742624Y12861187D01*
X8372864Y13014725D01*
X7972493Y13015075D01*
X7602465Y12862182D01*
X7319113Y12579324D01*
X7165575Y12209564D01*
X7165225Y11809193D01*
X675000Y11809193D01*
X675000Y15000693D01*
X7593425Y15000693D01*
X7746318Y14630665D01*
X8029176Y14347313D01*
X8398936Y14193775D01*
X8799307Y14193425D01*
X9169335Y14346318D01*
X9452687Y14629176D01*
X9606225Y14998936D01*
X9606575Y15399307D01*
X9453682Y15769335D01*
X9170824Y16052687D01*
X8884708Y16171493D01*
X23983225Y16171493D01*
X24136118Y15801465D01*
X24418976Y15518113D01*
X24788736Y15364575D01*
X25189107Y15364225D01*
X25559135Y15517118D01*
X25842487Y15799976D01*
X25996025Y16169736D01*
X25996375Y16570107D01*
X25858036Y16904911D01*
X26185307Y16904625D01*
X26275784Y16942010D01*
X26414718Y16605765D01*
X26697576Y16322413D01*
X27067336Y16168875D01*
X27467707Y16168525D01*
X27837735Y16321418D01*
X28121087Y16604276D01*
X28274625Y16974036D01*
X28274975Y17374407D01*
X28122082Y17744435D01*
X28077166Y17789429D01*
X28090935Y17795118D01*
X28374287Y18077976D01*
X28410213Y18164495D01*
X28604607Y18164325D01*
X28974635Y18317218D01*
X29142706Y18484996D01*
X29142525Y18277893D01*
X29295418Y17907865D01*
X29578276Y17624513D01*
X29948036Y17470975D01*
X30348407Y17470625D01*
X30718435Y17623518D01*
X31001787Y17906376D01*
X31155325Y18276136D01*
X31155675Y18676507D01*
X31033272Y18972744D01*
X33759757Y18972744D01*
X33972445Y18458000D01*
X34365928Y18063830D01*
X34567673Y17980058D01*
X34368000Y17897555D01*
X33973830Y17504072D01*
X33760243Y16989699D01*
X33759757Y16432744D01*
X33972445Y15918000D01*
X34365928Y15523830D01*
X34567673Y15440058D01*
X34368000Y15357555D01*
X33973830Y14964072D01*
X33760243Y14449699D01*
X33759757Y13892744D01*
X33972445Y13378000D01*
X34365928Y12983830D01*
X34880301Y12770243D01*
X35437256Y12769757D01*
X35952000Y12982445D01*
X36346170Y13375928D01*
X36559757Y13890301D01*
X36560243Y14447256D01*
X36347555Y14962000D01*
X35954072Y15356170D01*
X35752327Y15439942D01*
X35952000Y15522445D01*
X36346170Y15915928D01*
X36559757Y16430301D01*
X36560243Y16987256D01*
X36347555Y17502000D01*
X35954072Y17896170D01*
X35752327Y17979942D01*
X35952000Y18062445D01*
X36346170Y18455928D01*
X36559757Y18970301D01*
X36560243Y19527256D01*
X36347555Y20042000D01*
X36147161Y20242744D01*
X36299757Y20242744D01*
X36512445Y19728000D01*
X36905928Y19333830D01*
X37107673Y19250058D01*
X36908000Y19167555D01*
X36513830Y18774072D01*
X36300243Y18259699D01*
X36299757Y17702744D01*
X36512445Y17188000D01*
X36905928Y16793830D01*
X37107673Y16710058D01*
X36908000Y16627555D01*
X36513830Y16234072D01*
X36300243Y15719699D01*
X36299757Y15162744D01*
X36512445Y14648000D01*
X36905928Y14253830D01*
X37157304Y14149449D01*
X36929497Y14055321D01*
X36546026Y13672518D01*
X36338237Y13172107D01*
X36337764Y12630270D01*
X36544679Y12129497D01*
X36927482Y11746026D01*
X37427893Y11538237D01*
X37969730Y11537764D01*
X38470503Y11744679D01*
X38853974Y12127482D01*
X39061763Y12627893D01*
X39062236Y13169730D01*
X38855321Y13670503D01*
X38472518Y14053974D01*
X38242660Y14149420D01*
X38492000Y14252445D01*
X38886170Y14645928D01*
X39099757Y15160301D01*
X39100243Y15717256D01*
X38887555Y16232000D01*
X38494072Y16626170D01*
X38292327Y16709942D01*
X38492000Y16792445D01*
X38886170Y17185928D01*
X39099757Y17700301D01*
X39100243Y18257256D01*
X38887555Y18772000D01*
X38494072Y19166170D01*
X38292327Y19249942D01*
X38492000Y19332445D01*
X38886170Y19725928D01*
X39099757Y20240301D01*
X39100243Y20797256D01*
X38887555Y21312000D01*
X38494072Y21706170D01*
X37979699Y21919757D01*
X37422744Y21920243D01*
X36908000Y21707555D01*
X36513830Y21314072D01*
X36300243Y20799699D01*
X36299757Y20242744D01*
X36147161Y20242744D01*
X35954072Y20436170D01*
X35783333Y20507067D01*
X35874357Y20544771D01*
X35952180Y20780031D01*
X35160000Y21572211D01*
X34367820Y20780031D01*
X34445643Y20544771D01*
X34545880Y20511053D01*
X34368000Y20437555D01*
X33973830Y20044072D01*
X33760243Y19529699D01*
X33759757Y18972744D01*
X31033272Y18972744D01*
X31002782Y19046535D01*
X30719924Y19329887D01*
X30350164Y19483425D01*
X29949793Y19483775D01*
X29843542Y19439873D01*
X29867587Y19463876D01*
X30021125Y19833636D01*
X30021475Y20234007D01*
X29992888Y20303193D01*
X31079825Y20303193D01*
X31232718Y19933165D01*
X31515576Y19649813D01*
X31885336Y19496275D01*
X32285707Y19495925D01*
X32655735Y19648818D01*
X32939087Y19931676D01*
X33092625Y20301436D01*
X33092824Y20529487D01*
X33278407Y20529325D01*
X33648435Y20682218D01*
X33931787Y20965076D01*
X33970099Y21057341D01*
X34150031Y20997820D01*
X34942211Y21790000D01*
X35377789Y21790000D01*
X36169969Y20997820D01*
X36405229Y21075643D01*
X36583815Y21606548D01*
X36545637Y22165382D01*
X36405229Y22504357D01*
X36169969Y22582180D01*
X35377789Y21790000D01*
X34942211Y21790000D01*
X34150031Y22582180D01*
X33914771Y22504357D01*
X33818892Y22219324D01*
X33649924Y22388587D01*
X33280164Y22542125D01*
X32879793Y22542475D01*
X32509765Y22389582D01*
X32226413Y22106724D01*
X32072875Y21736964D01*
X32072676Y21508913D01*
X31887093Y21509075D01*
X31517065Y21356182D01*
X31233713Y21073324D01*
X31080175Y20703564D01*
X31079825Y20303193D01*
X29992888Y20303193D01*
X29868582Y20604035D01*
X29585724Y20887387D01*
X29293038Y21008921D01*
X29395525Y21255736D01*
X29395875Y21656107D01*
X29242982Y22026135D01*
X28960124Y22309487D01*
X28917725Y22327093D01*
X29419625Y22327093D01*
X29572518Y21957065D01*
X29855376Y21673713D01*
X30225136Y21520175D01*
X30625507Y21519825D01*
X30995535Y21672718D01*
X31278887Y21955576D01*
X31432425Y22325336D01*
X31432775Y22725707D01*
X31402091Y22799969D01*
X34367820Y22799969D01*
X35160000Y22007789D01*
X35952180Y22799969D01*
X35874357Y23035229D01*
X35343452Y23213815D01*
X34784618Y23175637D01*
X34445643Y23035229D01*
X34367820Y22799969D01*
X31402091Y22799969D01*
X31279882Y23095735D01*
X30997024Y23379087D01*
X30627264Y23532625D01*
X30226893Y23532975D01*
X29856865Y23380082D01*
X29573513Y23097224D01*
X29419975Y22727464D01*
X29419625Y22327093D01*
X28917725Y22327093D01*
X28590364Y22463025D01*
X28189993Y22463375D01*
X27819965Y22310482D01*
X27536613Y22027624D01*
X27383075Y21657864D01*
X27382725Y21257493D01*
X27535618Y20887465D01*
X27818476Y20604113D01*
X28111162Y20482579D01*
X28008675Y20235764D01*
X28008553Y20095894D01*
X27835965Y20024582D01*
X27552613Y19741724D01*
X27516687Y19655205D01*
X27322293Y19655375D01*
X26952265Y19502482D01*
X26668913Y19219624D01*
X26515375Y18849864D01*
X26515315Y18781123D01*
X26187064Y18917425D01*
X25786693Y18917775D01*
X25416665Y18764882D01*
X25133313Y18482024D01*
X24979775Y18112264D01*
X24979425Y17711893D01*
X25117764Y17377089D01*
X24790493Y17377375D01*
X24420465Y17224482D01*
X24137113Y16941624D01*
X23983575Y16571864D01*
X23983225Y16171493D01*
X8884708Y16171493D01*
X8801064Y16206225D01*
X8400693Y16206575D01*
X8030665Y16053682D01*
X7747313Y15770824D01*
X7593775Y15401064D01*
X7593425Y15000693D01*
X675000Y15000693D01*
X675000Y18594093D01*
X13669225Y18594093D01*
X13822118Y18224065D01*
X14104976Y17940713D01*
X14474736Y17787175D01*
X14875107Y17786825D01*
X15245135Y17939718D01*
X15528487Y18222576D01*
X15666901Y18555913D01*
X15666725Y18354693D01*
X15819618Y17984665D01*
X16102476Y17701313D01*
X16472236Y17547775D01*
X16872607Y17547425D01*
X17242635Y17700318D01*
X17525987Y17983176D01*
X17679525Y18352936D01*
X17679875Y18753307D01*
X17526982Y19123335D01*
X17244124Y19406687D01*
X16874364Y19560225D01*
X16473993Y19560575D01*
X16103965Y19407682D01*
X15820613Y19124824D01*
X15682199Y18791487D01*
X15682375Y18992707D01*
X15529482Y19362735D01*
X15246624Y19646087D01*
X14876864Y19799625D01*
X14476493Y19799975D01*
X14106465Y19647082D01*
X13823113Y19364224D01*
X13669575Y18994464D01*
X13669225Y18594093D01*
X675000Y18594093D01*
X675000Y21000693D01*
X12793425Y21000693D01*
X12946318Y20630665D01*
X13229176Y20347313D01*
X13598936Y20193775D01*
X13999307Y20193425D01*
X14369335Y20346318D01*
X14624154Y20600693D01*
X18393425Y20600693D01*
X18546318Y20230665D01*
X18829176Y19947313D01*
X19198936Y19793775D01*
X19599307Y19793425D01*
X19969335Y19946318D01*
X20252687Y20229176D01*
X20406225Y20598936D01*
X20406575Y20999307D01*
X20253682Y21369335D01*
X19970824Y21652687D01*
X19942393Y21664493D01*
X21977325Y21664493D01*
X22130218Y21294465D01*
X22413076Y21011113D01*
X22637614Y20917876D01*
X22609613Y20889924D01*
X22456075Y20520164D01*
X22455725Y20119793D01*
X22608618Y19749765D01*
X22891476Y19466413D01*
X23261236Y19312875D01*
X23661607Y19312525D01*
X24031635Y19465418D01*
X24314987Y19748276D01*
X24468525Y20118036D01*
X24468841Y20479225D01*
X24469007Y20479225D01*
X24839035Y20632118D01*
X25122387Y20914976D01*
X25275925Y21284736D01*
X25276275Y21685107D01*
X25123382Y22055135D01*
X24840524Y22338487D01*
X24470764Y22492025D01*
X24070393Y22492375D01*
X23850625Y22401568D01*
X23837582Y22433135D01*
X23554724Y22716487D01*
X23430444Y22768093D01*
X25088225Y22768093D01*
X25241118Y22398065D01*
X25523976Y22114713D01*
X25893736Y21961175D01*
X26294107Y21960825D01*
X26664135Y22113718D01*
X26947487Y22396576D01*
X27101025Y22766336D01*
X27101351Y23139141D01*
X27163735Y23164918D01*
X27447087Y23447776D01*
X27572869Y23750693D01*
X30943425Y23750693D01*
X31096318Y23380665D01*
X31379176Y23097313D01*
X31748936Y22943775D01*
X32149307Y22943425D01*
X32519335Y23096318D01*
X32802687Y23379176D01*
X32956225Y23748936D01*
X32956575Y24149307D01*
X32803682Y24519335D01*
X32797735Y24525293D01*
X36554925Y24525293D01*
X36707818Y24155265D01*
X36990676Y23871913D01*
X37360436Y23718375D01*
X37760807Y23718025D01*
X38130835Y23870918D01*
X38414187Y24153776D01*
X38567725Y24523536D01*
X38567943Y24773137D01*
X39399723Y24773137D01*
X39642795Y24184857D01*
X40092489Y23734377D01*
X40680344Y23490278D01*
X41316863Y23489723D01*
X41694556Y23645782D01*
X41650417Y23539484D01*
X41649584Y22584705D01*
X42014192Y21702285D01*
X42688734Y21026565D01*
X43570516Y20660417D01*
X44525295Y20659584D01*
X45407715Y21024192D01*
X46083435Y21698734D01*
X46449583Y22580516D01*
X46450416Y23535295D01*
X46085808Y24417715D01*
X45411266Y25093435D01*
X44529484Y25459583D01*
X43574705Y25460416D01*
X42692285Y25095808D01*
X42599925Y25003609D01*
X42600277Y25406863D01*
X42357205Y25995143D01*
X41907511Y26445623D01*
X41319656Y26689722D01*
X40683137Y26690277D01*
X40094857Y26447205D01*
X39644377Y25997511D01*
X39400278Y25409656D01*
X39399723Y24773137D01*
X38567943Y24773137D01*
X38568075Y24923907D01*
X38415182Y25293935D01*
X38132324Y25577287D01*
X37762564Y25730825D01*
X37362193Y25731175D01*
X36992165Y25578282D01*
X36708813Y25295424D01*
X36555275Y24925664D01*
X36554925Y24525293D01*
X32797735Y24525293D01*
X32520824Y24802687D01*
X32151064Y24956225D01*
X31750693Y24956575D01*
X31380665Y24803682D01*
X31097313Y24520824D01*
X30943775Y24151064D01*
X30943425Y23750693D01*
X27572869Y23750693D01*
X27600625Y23817536D01*
X27600975Y24217907D01*
X27448082Y24587935D01*
X27165224Y24871287D01*
X26795464Y25024825D01*
X26395093Y25025175D01*
X26025065Y24872282D01*
X25741713Y24589424D01*
X25588175Y24219664D01*
X25587849Y23846859D01*
X25525465Y23821082D01*
X25242113Y23538224D01*
X25088575Y23168464D01*
X25088225Y22768093D01*
X23430444Y22768093D01*
X23184964Y22870025D01*
X22784593Y22870375D01*
X22414565Y22717482D01*
X22131213Y22434624D01*
X21977675Y22064864D01*
X21977325Y21664493D01*
X19942393Y21664493D01*
X19601064Y21806225D01*
X19200693Y21806575D01*
X18830665Y21653682D01*
X18547313Y21370824D01*
X18393775Y21001064D01*
X18393425Y20600693D01*
X14624154Y20600693D01*
X14652687Y20629176D01*
X14806225Y20998936D01*
X14806575Y21399307D01*
X14653682Y21769335D01*
X14370824Y22052687D01*
X14001064Y22206225D01*
X13600693Y22206575D01*
X13230665Y22053682D01*
X12947313Y21770824D01*
X12793775Y21401064D01*
X12793425Y21000693D01*
X675000Y21000693D01*
X675000Y22682793D01*
X11584325Y22682793D01*
X11737218Y22312765D01*
X12020076Y22029413D01*
X12389836Y21875875D01*
X12790207Y21875525D01*
X13160235Y22028418D01*
X13443587Y22311276D01*
X13597125Y22681036D01*
X13597475Y23081407D01*
X13444582Y23451435D01*
X13161724Y23734787D01*
X12791964Y23888325D01*
X12391593Y23888675D01*
X12021565Y23735782D01*
X11738213Y23452924D01*
X11584675Y23083164D01*
X11584325Y22682793D01*
X675000Y22682793D01*
X675000Y24951671D01*
X779176Y24847313D01*
X1148936Y24693775D01*
X1549307Y24693425D01*
X1919335Y24846318D01*
X2202687Y25129176D01*
X2210666Y25148393D01*
X3403825Y25148393D01*
X3556718Y24778365D01*
X3839576Y24495013D01*
X4209336Y24341475D01*
X4609707Y24341125D01*
X4979735Y24494018D01*
X5180561Y24694494D01*
X5180225Y24310293D01*
X5333118Y23940265D01*
X5615976Y23656913D01*
X5985736Y23503375D01*
X6386107Y23503025D01*
X6756135Y23655918D01*
X7039487Y23938776D01*
X7193025Y24308536D01*
X7193375Y24708907D01*
X7040482Y25078935D01*
X6757624Y25362287D01*
X6387864Y25515825D01*
X5987493Y25516175D01*
X5617465Y25363282D01*
X5416639Y25162806D01*
X5416975Y25547007D01*
X5264082Y25917035D01*
X4981224Y26200387D01*
X4611464Y26353925D01*
X4211093Y26354275D01*
X3841065Y26201382D01*
X3557713Y25918524D01*
X3404175Y25548764D01*
X3403825Y25148393D01*
X2210666Y25148393D01*
X2356225Y25498936D01*
X2356575Y25899307D01*
X2203682Y26269335D01*
X1922815Y26550693D01*
X11743425Y26550693D01*
X11896318Y26180665D01*
X12179176Y25897313D01*
X12548936Y25743775D01*
X12949307Y25743425D01*
X13319335Y25896318D01*
X13602687Y26179176D01*
X13756225Y26548936D01*
X13756575Y26949307D01*
X13603682Y27319335D01*
X13320824Y27602687D01*
X12951064Y27756225D01*
X12550693Y27756575D01*
X12180665Y27603682D01*
X11897313Y27320824D01*
X11743775Y26951064D01*
X11743425Y26550693D01*
X1922815Y26550693D01*
X1920824Y26552687D01*
X1551064Y26706225D01*
X1150693Y26706575D01*
X780665Y26553682D01*
X675000Y26448201D01*
X675000Y28825693D01*
X13718425Y28825693D01*
X13871318Y28455665D01*
X14138019Y28188499D01*
X13948213Y27999024D01*
X13794675Y27629264D01*
X13794325Y27228893D01*
X13947218Y26858865D01*
X14230076Y26575513D01*
X14555268Y26440481D01*
X14554925Y26047793D01*
X14707818Y25677765D01*
X14822380Y25563003D01*
X14599913Y25340924D01*
X14446375Y24971164D01*
X14446025Y24570793D01*
X14598918Y24200765D01*
X14881776Y23917413D01*
X15251536Y23763875D01*
X15651907Y23763525D01*
X16021935Y23916418D01*
X16305287Y24199276D01*
X16458825Y24569036D01*
X16458940Y24700693D01*
X19043425Y24700693D01*
X19196318Y24330665D01*
X19479176Y24047313D01*
X19848936Y23893775D01*
X20249307Y23893425D01*
X20482251Y23989676D01*
X20427975Y23858964D01*
X20427625Y23458593D01*
X20580518Y23088565D01*
X20863376Y22805213D01*
X21233136Y22651675D01*
X21633507Y22651325D01*
X22003535Y22804218D01*
X22286887Y23087076D01*
X22440425Y23456836D01*
X22440775Y23857207D01*
X22287882Y24227235D01*
X22005024Y24510587D01*
X21635264Y24664125D01*
X21234893Y24664475D01*
X21001949Y24568224D01*
X21056225Y24698936D01*
X21056575Y25099307D01*
X20903682Y25469335D01*
X20620824Y25752687D01*
X20251064Y25906225D01*
X19850693Y25906575D01*
X19480665Y25753682D01*
X19197313Y25470824D01*
X19043775Y25101064D01*
X19043425Y24700693D01*
X16458940Y24700693D01*
X16459175Y24969407D01*
X16306282Y25339435D01*
X16191720Y25454197D01*
X16414187Y25676276D01*
X16567725Y26046036D01*
X16568075Y26446407D01*
X16415182Y26816435D01*
X16132324Y27099787D01*
X15807132Y27234819D01*
X15807475Y27627507D01*
X15673937Y27950693D01*
X22293425Y27950693D01*
X22446318Y27580665D01*
X22729176Y27297313D01*
X23098936Y27143775D01*
X23326060Y27143576D01*
X23358418Y27065265D01*
X23641276Y26781913D01*
X24011036Y26628375D01*
X24411407Y26628025D01*
X24775992Y26778669D01*
X24736875Y26684464D01*
X24736525Y26284093D01*
X24889418Y25914065D01*
X25172276Y25630713D01*
X25542036Y25477175D01*
X25942407Y25476825D01*
X26312435Y25629718D01*
X26595787Y25912576D01*
X26749325Y26282336D01*
X26749675Y26682707D01*
X26596782Y27052735D01*
X26313924Y27336087D01*
X25944164Y27489625D01*
X25543793Y27489975D01*
X25179208Y27339331D01*
X25218325Y27433536D01*
X25218675Y27833907D01*
X25067122Y28200693D01*
X32243425Y28200693D01*
X32396318Y27830665D01*
X32679176Y27547313D01*
X33048936Y27393775D01*
X33449307Y27393425D01*
X33819335Y27546318D01*
X34102687Y27829176D01*
X34256225Y28198936D01*
X34256575Y28599307D01*
X34103682Y28969335D01*
X33997510Y29075693D01*
X38818425Y29075693D01*
X38971318Y28705665D01*
X39254176Y28422313D01*
X39623936Y28268775D01*
X40024307Y28268425D01*
X40394335Y28421318D01*
X40677687Y28704176D01*
X40831225Y29073936D01*
X40831575Y29474307D01*
X40678682Y29844335D01*
X40395824Y30127687D01*
X40026064Y30281225D01*
X39625693Y30281575D01*
X39255665Y30128682D01*
X38972313Y29845824D01*
X38818775Y29476064D01*
X38818425Y29075693D01*
X33997510Y29075693D01*
X33820824Y29252687D01*
X33451064Y29406225D01*
X33050693Y29406575D01*
X32680665Y29253682D01*
X32397313Y28970824D01*
X32243775Y28601064D01*
X32243425Y28200693D01*
X25067122Y28200693D01*
X25065782Y28203935D01*
X25028010Y28241773D01*
X25154725Y28546936D01*
X25155075Y28947307D01*
X25002182Y29317335D01*
X24719324Y29600687D01*
X24349564Y29754225D01*
X23949193Y29754575D01*
X23579165Y29601682D01*
X23295813Y29318824D01*
X23228395Y29156463D01*
X23100693Y29156575D01*
X22730665Y29003682D01*
X22447313Y28720824D01*
X22293775Y28351064D01*
X22293425Y27950693D01*
X15673937Y27950693D01*
X15654582Y27997535D01*
X15387881Y28264701D01*
X15577687Y28454176D01*
X15731225Y28823936D01*
X15731442Y29072201D01*
X15791618Y28926565D01*
X16074476Y28643213D01*
X16444236Y28489675D01*
X16844607Y28489325D01*
X17214635Y28642218D01*
X17497987Y28925076D01*
X17651525Y29294836D01*
X17651875Y29695207D01*
X17601171Y29817920D01*
X17831376Y29587313D01*
X18201136Y29433775D01*
X18601507Y29433425D01*
X18900079Y29556793D01*
X19679325Y29556793D01*
X19832218Y29186765D01*
X20115076Y28903413D01*
X20484836Y28749875D01*
X20885207Y28749525D01*
X21255235Y28902418D01*
X21538587Y29185276D01*
X21692125Y29555036D01*
X21692475Y29955407D01*
X21579597Y30228593D01*
X25236625Y30228593D01*
X25389518Y29858565D01*
X25672376Y29575213D01*
X26042136Y29421675D01*
X26442507Y29421325D01*
X26812535Y29574218D01*
X27095887Y29857076D01*
X27249425Y30226836D01*
X27249775Y30627207D01*
X27096882Y30997235D01*
X26814024Y31280587D01*
X26444264Y31434125D01*
X26043893Y31434475D01*
X25673865Y31281582D01*
X25390513Y30998724D01*
X25236975Y30628964D01*
X25236625Y30228593D01*
X21579597Y30228593D01*
X21539582Y30325435D01*
X21256724Y30608787D01*
X20886964Y30762325D01*
X20486593Y30762675D01*
X20116565Y30609782D01*
X19833213Y30326924D01*
X19679675Y29957164D01*
X19679325Y29556793D01*
X18900079Y29556793D01*
X18971535Y29586318D01*
X19254887Y29869176D01*
X19408425Y30238936D01*
X19408775Y30639307D01*
X19255882Y31009335D01*
X18973024Y31292687D01*
X18603264Y31446225D01*
X18473812Y31446338D01*
X18537425Y31599536D01*
X18537775Y31999907D01*
X18384882Y32369935D01*
X18102024Y32653287D01*
X17732264Y32806825D01*
X17331893Y32807175D01*
X16961865Y32654282D01*
X16678513Y32371424D01*
X16524975Y32001664D01*
X16524625Y31601293D01*
X16677518Y31231265D01*
X16960376Y30947913D01*
X17330136Y30794375D01*
X17459588Y30794262D01*
X17395975Y30641064D01*
X17395625Y30240693D01*
X17446329Y30117980D01*
X17216124Y30348587D01*
X16846364Y30502125D01*
X16445993Y30502475D01*
X16075965Y30349582D01*
X15792613Y30066724D01*
X15639075Y29696964D01*
X15638858Y29448699D01*
X15578682Y29594335D01*
X15295824Y29877687D01*
X14926064Y30031225D01*
X14525693Y30031575D01*
X14155665Y29878682D01*
X13872313Y29595824D01*
X13718775Y29226064D01*
X13718425Y28825693D01*
X675000Y28825693D01*
X675000Y30400693D01*
X2093425Y30400693D01*
X2246318Y30030665D01*
X2529176Y29747313D01*
X2898936Y29593775D01*
X3299307Y29593425D01*
X3669335Y29746318D01*
X3952687Y30029176D01*
X4106225Y30398936D01*
X4106575Y30799307D01*
X3953682Y31169335D01*
X3670824Y31452687D01*
X3301064Y31606225D01*
X2900693Y31606575D01*
X2530665Y31453682D01*
X2247313Y31170824D01*
X2093775Y30801064D01*
X2093425Y30400693D01*
X675000Y30400693D01*
X675000Y31677248D01*
X715788Y31546262D01*
X1228521Y31376055D01*
X1767360Y31415018D01*
X2084212Y31546262D01*
X2155860Y31776351D01*
X5944140Y31776351D01*
X6015788Y31546262D01*
X6528521Y31376055D01*
X7067360Y31415018D01*
X7384212Y31546262D01*
X7455860Y31776351D01*
X6700000Y32532211D01*
X5944140Y31776351D01*
X2155860Y31776351D01*
X1400000Y32532211D01*
X1385858Y32518069D01*
X1168069Y32735858D01*
X1182211Y32750000D01*
X1617789Y32750000D01*
X2373649Y31994140D01*
X2603738Y32065788D01*
X2773945Y32578521D01*
X2749146Y32921479D01*
X5326055Y32921479D01*
X5365018Y32382640D01*
X5496262Y32065788D01*
X5726351Y31994140D01*
X6482211Y32750000D01*
X6917789Y32750000D01*
X7673649Y31994140D01*
X7903738Y32065788D01*
X8073945Y32578521D01*
X8035855Y33105293D01*
X9164125Y33105293D01*
X9317018Y32735265D01*
X9599876Y32451913D01*
X9865911Y32341445D01*
X9865625Y32014393D01*
X10018518Y31644365D01*
X10301376Y31361013D01*
X10671136Y31207475D01*
X11071507Y31207125D01*
X11141047Y31235858D01*
X11379176Y30997313D01*
X11748936Y30843775D01*
X12149307Y30843425D01*
X12519335Y30996318D01*
X12802687Y31279176D01*
X12956225Y31648936D01*
X12956575Y32049307D01*
X12803682Y32419335D01*
X12783961Y32439091D01*
X12864887Y32519876D01*
X13018425Y32889636D01*
X13018775Y33290007D01*
X12984899Y33371993D01*
X13363125Y33371993D01*
X13516018Y33001965D01*
X13798876Y32718613D01*
X14168636Y32565075D01*
X14569007Y32564725D01*
X14939035Y32717618D01*
X15222387Y33000476D01*
X15375925Y33370236D01*
X15376275Y33770607D01*
X15232306Y34119038D01*
X15263776Y34087513D01*
X15633536Y33933975D01*
X16033907Y33933625D01*
X16403935Y34086518D01*
X16687287Y34369376D01*
X16840825Y34739136D01*
X16841119Y35075693D01*
X20218425Y35075693D01*
X20371318Y34705665D01*
X20654176Y34422313D01*
X20893707Y34322851D01*
X20893425Y34000693D01*
X21046318Y33630665D01*
X21254840Y33421779D01*
X21030693Y33421975D01*
X20660665Y33269082D01*
X20377313Y32986224D01*
X20223775Y32616464D01*
X20223425Y32216093D01*
X20376318Y31846065D01*
X20659176Y31562713D01*
X21028936Y31409175D01*
X21429307Y31408825D01*
X21799335Y31561718D01*
X22082687Y31844576D01*
X22236225Y32214336D01*
X22236575Y32614707D01*
X22083682Y32984735D01*
X21875160Y33193621D01*
X22099307Y33193425D01*
X22469335Y33346318D01*
X22551553Y33428393D01*
X27814225Y33428393D01*
X27967118Y33058365D01*
X28249976Y32775013D01*
X28619736Y32621475D01*
X28876250Y32621251D01*
X28996318Y32330665D01*
X29279176Y32047313D01*
X29648936Y31893775D01*
X30049307Y31893425D01*
X30419335Y32046318D01*
X30702687Y32329176D01*
X30856225Y32698936D01*
X30856575Y33099307D01*
X30763034Y33325693D01*
X31068425Y33325693D01*
X31221318Y32955665D01*
X31504176Y32672313D01*
X31708474Y32587481D01*
X31505665Y32503682D01*
X31222313Y32220824D01*
X31068775Y31851064D01*
X31068425Y31450693D01*
X31221318Y31080665D01*
X31504176Y30797313D01*
X31873936Y30643775D01*
X32274307Y30643425D01*
X32644335Y30796318D01*
X32927687Y31079176D01*
X33081225Y31448936D01*
X33081257Y31485893D01*
X38296025Y31485893D01*
X38448918Y31115865D01*
X38731776Y30832513D01*
X39101536Y30678975D01*
X39501907Y30678625D01*
X39871935Y30831518D01*
X40155287Y31114376D01*
X40308825Y31484136D01*
X40308972Y31651996D01*
X40354176Y31606713D01*
X40723936Y31453175D01*
X41124307Y31452825D01*
X41494335Y31605718D01*
X41665266Y31776351D01*
X42444140Y31776351D01*
X42515788Y31546262D01*
X43028521Y31376055D01*
X43567360Y31415018D01*
X43884212Y31546262D01*
X43955860Y31776351D01*
X43200000Y32532211D01*
X42444140Y31776351D01*
X41665266Y31776351D01*
X41777687Y31888576D01*
X41923857Y32240591D01*
X41996262Y32065788D01*
X42226351Y31994140D01*
X42982211Y32750000D01*
X43417789Y32750000D01*
X44173649Y31994140D01*
X44403738Y32065788D01*
X44573945Y32578521D01*
X44549146Y32921479D01*
X47126055Y32921479D01*
X47165018Y32382640D01*
X47296262Y32065788D01*
X47526351Y31994140D01*
X48282211Y32750000D01*
X47526351Y33505860D01*
X47296262Y33434212D01*
X47126055Y32921479D01*
X44549146Y32921479D01*
X44534982Y33117360D01*
X44403738Y33434212D01*
X44173649Y33505860D01*
X43417789Y32750000D01*
X42982211Y32750000D01*
X42226351Y33505860D01*
X41996262Y33434212D01*
X41826055Y32921479D01*
X41826703Y32912515D01*
X41778682Y33028735D01*
X41495824Y33312087D01*
X41126064Y33465625D01*
X40725693Y33465975D01*
X40355665Y33313082D01*
X40072313Y33030224D01*
X39918775Y32660464D01*
X39918628Y32492604D01*
X39873424Y32537887D01*
X39503664Y32691425D01*
X39103293Y32691775D01*
X38733265Y32538882D01*
X38449913Y32256024D01*
X38296375Y31886264D01*
X38296025Y31485893D01*
X33081257Y31485893D01*
X33081575Y31849307D01*
X32928682Y32219335D01*
X32645824Y32502687D01*
X32441526Y32587519D01*
X32644335Y32671318D01*
X32927687Y32954176D01*
X33081225Y33323936D01*
X33081575Y33724307D01*
X32928682Y34094335D01*
X32645824Y34377687D01*
X32349594Y34500693D01*
X34793425Y34500693D01*
X34946318Y34130665D01*
X35229176Y33847313D01*
X35598936Y33693775D01*
X35999307Y33693425D01*
X36072454Y33723649D01*
X42444140Y33723649D01*
X43200000Y32967789D01*
X43955860Y33723649D01*
X43884212Y33953738D01*
X43371479Y34123945D01*
X42832640Y34084982D01*
X42515788Y33953738D01*
X42444140Y33723649D01*
X36072454Y33723649D01*
X36369335Y33846318D01*
X36652687Y34129176D01*
X36782607Y34442058D01*
X44149818Y34442058D01*
X44309334Y34056000D01*
X44604446Y33760372D01*
X44990226Y33600182D01*
X45407942Y33599818D01*
X45794000Y33759334D01*
X46089628Y34054446D01*
X46249818Y34440226D01*
X46250182Y34857942D01*
X46090666Y35244000D01*
X45795554Y35539628D01*
X45409774Y35699818D01*
X44992058Y35700182D01*
X44606000Y35540666D01*
X44310372Y35245554D01*
X44150182Y34859774D01*
X44149818Y34442058D01*
X36782607Y34442058D01*
X36806225Y34498936D01*
X36806575Y34899307D01*
X36653682Y35269335D01*
X36370824Y35552687D01*
X36001064Y35706225D01*
X35600693Y35706575D01*
X35230665Y35553682D01*
X34947313Y35270824D01*
X34793775Y34901064D01*
X34793425Y34500693D01*
X32349594Y34500693D01*
X32276064Y34531225D01*
X31875693Y34531575D01*
X31505665Y34378682D01*
X31222313Y34095824D01*
X31068775Y33726064D01*
X31068425Y33325693D01*
X30763034Y33325693D01*
X30703682Y33469335D01*
X30420824Y33752687D01*
X30051064Y33906225D01*
X29794550Y33906449D01*
X29674482Y34197035D01*
X29391624Y34480387D01*
X29021864Y34633925D01*
X28621493Y34634275D01*
X28251465Y34481382D01*
X27968113Y34198524D01*
X27814575Y33828764D01*
X27814225Y33428393D01*
X22551553Y33428393D01*
X22752687Y33629176D01*
X22906225Y33998936D01*
X22906575Y34399307D01*
X22753682Y34769335D01*
X22470824Y35052687D01*
X22231293Y35152149D01*
X22231575Y35474307D01*
X22213236Y35518693D01*
X24093225Y35518693D01*
X24246118Y35148665D01*
X24528976Y34865313D01*
X24898736Y34711775D01*
X25299107Y34711425D01*
X25669135Y34864318D01*
X25952487Y35147176D01*
X26106025Y35516936D01*
X26106262Y35788093D01*
X32518425Y35788093D01*
X32671318Y35418065D01*
X32954176Y35134713D01*
X33323936Y34981175D01*
X33724307Y34980825D01*
X34094335Y35133718D01*
X34377687Y35416576D01*
X34529836Y35782991D01*
X34815736Y35664275D01*
X35216107Y35663925D01*
X35586135Y35816818D01*
X35595025Y35825693D01*
X39868425Y35825693D01*
X40021318Y35455665D01*
X40304176Y35172313D01*
X40673936Y35018775D01*
X41074307Y35018425D01*
X41444335Y35171318D01*
X41727687Y35454176D01*
X41881225Y35823936D01*
X41881575Y36224307D01*
X41728682Y36594335D01*
X41445824Y36877687D01*
X41076064Y37031225D01*
X40675693Y37031575D01*
X40305665Y36878682D01*
X40022313Y36595824D01*
X39868775Y36226064D01*
X39868425Y35825693D01*
X35595025Y35825693D01*
X35869487Y36099676D01*
X36023025Y36469436D01*
X36023375Y36869807D01*
X35870482Y37239835D01*
X35587624Y37523187D01*
X35217864Y37676725D01*
X34817493Y37677075D01*
X34447465Y37524182D01*
X34164113Y37241324D01*
X34011964Y36874909D01*
X33726064Y36993625D01*
X33325693Y36993975D01*
X32955665Y36841082D01*
X32672313Y36558224D01*
X32518775Y36188464D01*
X32518425Y35788093D01*
X26106262Y35788093D01*
X26106375Y35917307D01*
X25953482Y36287335D01*
X25670624Y36570687D01*
X25300864Y36724225D01*
X24900493Y36724575D01*
X24530465Y36571682D01*
X24247113Y36288824D01*
X24093575Y35919064D01*
X24093225Y35518693D01*
X22213236Y35518693D01*
X22078682Y35844335D01*
X21795824Y36127687D01*
X21426064Y36281225D01*
X21025693Y36281575D01*
X20655665Y36128682D01*
X20372313Y35845824D01*
X20218775Y35476064D01*
X20218425Y35075693D01*
X16841119Y35075693D01*
X16841175Y35139507D01*
X16688282Y35509535D01*
X16405424Y35792887D01*
X16035664Y35946425D01*
X15635293Y35946775D01*
X15265265Y35793882D01*
X14981913Y35511024D01*
X14828375Y35141264D01*
X14828025Y34740893D01*
X14971994Y34392462D01*
X14940524Y34423987D01*
X14570764Y34577525D01*
X14170393Y34577875D01*
X13800365Y34424982D01*
X13517013Y34142124D01*
X13363475Y33772364D01*
X13363125Y33371993D01*
X12984899Y33371993D01*
X12865882Y33660035D01*
X12583024Y33943387D01*
X12213264Y34096925D01*
X11812893Y34097275D01*
X11442865Y33944382D01*
X11159513Y33661524D01*
X11135772Y33604350D01*
X11024382Y33873935D01*
X10741524Y34157287D01*
X10371764Y34310825D01*
X9971393Y34311175D01*
X9601365Y34158282D01*
X9318013Y33875424D01*
X9164475Y33505664D01*
X9164125Y33105293D01*
X8035855Y33105293D01*
X8034982Y33117360D01*
X7903738Y33434212D01*
X7673649Y33505860D01*
X6917789Y32750000D01*
X6482211Y32750000D01*
X5726351Y33505860D01*
X5496262Y33434212D01*
X5326055Y32921479D01*
X2749146Y32921479D01*
X2734982Y33117360D01*
X2603738Y33434212D01*
X2373649Y33505860D01*
X1617789Y32750000D01*
X1182211Y32750000D01*
X1168069Y32764142D01*
X1385858Y32981931D01*
X1400000Y32967789D01*
X2155860Y33723649D01*
X2084212Y33953738D01*
X1571479Y34123945D01*
X1032640Y34084982D01*
X715788Y33953738D01*
X675000Y33822752D01*
X675000Y34442058D01*
X3649818Y34442058D01*
X3809334Y34056000D01*
X4104446Y33760372D01*
X4490226Y33600182D01*
X4907942Y33599818D01*
X5207635Y33723649D01*
X5944140Y33723649D01*
X6700000Y32967789D01*
X7455860Y33723649D01*
X7384212Y33953738D01*
X6871479Y34123945D01*
X6332640Y34084982D01*
X6015788Y33953738D01*
X5944140Y33723649D01*
X5207635Y33723649D01*
X5294000Y33759334D01*
X5589628Y34054446D01*
X5749818Y34440226D01*
X5750182Y34857942D01*
X5590666Y35244000D01*
X5295554Y35539628D01*
X4909774Y35699818D01*
X4492058Y35700182D01*
X4106000Y35540666D01*
X3810372Y35245554D01*
X3650182Y34859774D01*
X3649818Y34442058D01*
X675000Y34442058D01*
X675000Y36625693D01*
X8018425Y36625693D01*
X8171318Y36255665D01*
X8454176Y35972313D01*
X8823936Y35818775D01*
X9224307Y35818425D01*
X9594335Y35971318D01*
X9877687Y36254176D01*
X10031225Y36623936D01*
X10031575Y37024307D01*
X9878682Y37394335D01*
X9595824Y37677687D01*
X9226064Y37831225D01*
X8825693Y37831575D01*
X8455665Y37678682D01*
X8172313Y37395824D01*
X8018775Y37026064D01*
X8018425Y36625693D01*
X675000Y36625693D01*
X675000Y37942058D01*
X3649818Y37942058D01*
X3809334Y37556000D01*
X4104446Y37260372D01*
X4490226Y37100182D01*
X4907942Y37099818D01*
X5294000Y37259334D01*
X5589628Y37554446D01*
X5749818Y37940226D01*
X5750182Y38357942D01*
X5656946Y38583593D01*
X12006425Y38583593D01*
X12159318Y38213565D01*
X12442176Y37930213D01*
X12811936Y37776675D01*
X13212307Y37776325D01*
X13582335Y37929218D01*
X13595197Y37942058D01*
X44149818Y37942058D01*
X44309334Y37556000D01*
X44604446Y37260372D01*
X44990226Y37100182D01*
X45407942Y37099818D01*
X45794000Y37259334D01*
X46089628Y37554446D01*
X46249818Y37940226D01*
X46250182Y38357942D01*
X46090666Y38744000D01*
X45795554Y39039628D01*
X45409774Y39199818D01*
X44992058Y39200182D01*
X44606000Y39040666D01*
X44310372Y38745554D01*
X44150182Y38359774D01*
X44149818Y37942058D01*
X13595197Y37942058D01*
X13865687Y38212076D01*
X14019225Y38581836D01*
X14019575Y38982207D01*
X13866682Y39352235D01*
X13583824Y39635587D01*
X13214064Y39789125D01*
X12813693Y39789475D01*
X12443665Y39636582D01*
X12160313Y39353724D01*
X12006775Y38983964D01*
X12006425Y38583593D01*
X5656946Y38583593D01*
X5604374Y38710825D01*
X5723925Y38998736D01*
X5723988Y39070655D01*
X5831217Y38963426D01*
X5944140Y39076349D01*
X6015788Y38846262D01*
X6528521Y38676055D01*
X7067360Y38715018D01*
X7384212Y38846262D01*
X7455860Y39076351D01*
X6700000Y39832211D01*
X6685858Y39818069D01*
X6468069Y40035858D01*
X6482211Y40050000D01*
X6917789Y40050000D01*
X7673649Y39294140D01*
X7903738Y39365788D01*
X8073945Y39878521D01*
X8034982Y40417360D01*
X7970621Y40572744D01*
X14679757Y40572744D01*
X14892445Y40058000D01*
X15285928Y39663830D01*
X15800301Y39450243D01*
X16357256Y39449757D01*
X16872000Y39662445D01*
X17266170Y40055928D01*
X17349942Y40257673D01*
X17432445Y40058000D01*
X17825928Y39663830D01*
X18340301Y39450243D01*
X18897256Y39449757D01*
X19412000Y39662445D01*
X19589896Y39840031D01*
X20367820Y39840031D01*
X20445643Y39604771D01*
X20976548Y39426185D01*
X21535382Y39464363D01*
X21639527Y39507501D01*
X21639225Y39162593D01*
X21792118Y38792565D01*
X22074976Y38509213D01*
X22444736Y38355675D01*
X22845107Y38355325D01*
X23215135Y38508218D01*
X23498487Y38791076D01*
X23616943Y39076351D01*
X42444140Y39076351D01*
X42515788Y38846262D01*
X43028521Y38676055D01*
X43567360Y38715018D01*
X43884212Y38846262D01*
X43955860Y39076351D01*
X43200000Y39832211D01*
X42444140Y39076351D01*
X23616943Y39076351D01*
X23652025Y39160836D01*
X23652278Y39450041D01*
X23977256Y39449757D01*
X24492000Y39662445D01*
X24886170Y40055928D01*
X24954912Y40221479D01*
X41826055Y40221479D01*
X41865018Y39682640D01*
X41996262Y39365788D01*
X42226351Y39294140D01*
X42982211Y40050000D01*
X43417789Y40050000D01*
X44173649Y39294140D01*
X44403738Y39365788D01*
X44573945Y39878521D01*
X44549146Y40221479D01*
X47126055Y40221479D01*
X47165018Y39682640D01*
X47296262Y39365788D01*
X47526351Y39294140D01*
X48282211Y40050000D01*
X47526351Y40805860D01*
X47296262Y40734212D01*
X47126055Y40221479D01*
X44549146Y40221479D01*
X44534982Y40417360D01*
X44403738Y40734212D01*
X44173649Y40805860D01*
X43417789Y40050000D01*
X42982211Y40050000D01*
X42226351Y40805860D01*
X41996262Y40734212D01*
X41826055Y40221479D01*
X24954912Y40221479D01*
X25099757Y40570301D01*
X25100243Y41127256D01*
X24887555Y41642000D01*
X24494072Y42036170D01*
X23979699Y42249757D01*
X23422744Y42250243D01*
X22908000Y42037555D01*
X22513830Y41644072D01*
X22442933Y41473333D01*
X22405229Y41564357D01*
X22169969Y41642180D01*
X21377789Y40850000D01*
X21391931Y40835858D01*
X21174142Y40618069D01*
X21160000Y40632211D01*
X20367820Y39840031D01*
X19589896Y39840031D01*
X19806170Y40055928D01*
X19877067Y40226667D01*
X19914771Y40135643D01*
X20150031Y40057820D01*
X20942211Y40850000D01*
X20150031Y41642180D01*
X19914771Y41564357D01*
X19881053Y41464120D01*
X19807555Y41642000D01*
X19589966Y41859969D01*
X20367820Y41859969D01*
X21160000Y41067789D01*
X21952180Y41859969D01*
X21874357Y42095229D01*
X21343452Y42273815D01*
X20784618Y42235637D01*
X20445643Y42095229D01*
X20367820Y41859969D01*
X19589966Y41859969D01*
X19414072Y42036170D01*
X18899699Y42249757D01*
X18342744Y42250243D01*
X17828000Y42037555D01*
X17433830Y41644072D01*
X17350058Y41442327D01*
X17267555Y41642000D01*
X16874072Y42036170D01*
X16359699Y42249757D01*
X15802744Y42250243D01*
X15288000Y42037555D01*
X14893830Y41644072D01*
X14680243Y41129699D01*
X14679757Y40572744D01*
X7970621Y40572744D01*
X7903738Y40734212D01*
X7673649Y40805860D01*
X6917789Y40050000D01*
X6482211Y40050000D01*
X5726351Y40805860D01*
X5496262Y40734212D01*
X5326055Y40221479D01*
X5342160Y39998758D01*
X5288524Y40052487D01*
X4918764Y40206025D01*
X4518393Y40206375D01*
X4148365Y40053482D01*
X3865013Y39770624D01*
X3711475Y39400864D01*
X3711125Y39000493D01*
X3814685Y38749859D01*
X3810372Y38745554D01*
X3650182Y38359774D01*
X3649818Y37942058D01*
X675000Y37942058D01*
X675000Y38977248D01*
X715788Y38846262D01*
X1228521Y38676055D01*
X1767360Y38715018D01*
X2084212Y38846262D01*
X2155860Y39076351D01*
X1400000Y39832211D01*
X1385858Y39818069D01*
X1168069Y40035858D01*
X1182211Y40050000D01*
X1617789Y40050000D01*
X2373649Y39294140D01*
X2603738Y39365788D01*
X2773945Y39878521D01*
X2734982Y40417360D01*
X2603738Y40734212D01*
X2373649Y40805860D01*
X1617789Y40050000D01*
X1182211Y40050000D01*
X1168069Y40064142D01*
X1385858Y40281931D01*
X1400000Y40267789D01*
X2155860Y41023649D01*
X5944140Y41023649D01*
X6700000Y40267789D01*
X7455860Y41023649D01*
X7384212Y41253738D01*
X6871479Y41423945D01*
X6332640Y41384982D01*
X6015788Y41253738D01*
X5944140Y41023649D01*
X2155860Y41023649D01*
X2084212Y41253738D01*
X2019038Y41275373D01*
X2102687Y41358876D01*
X2256225Y41728636D01*
X2256575Y42129007D01*
X2103682Y42499035D01*
X1820824Y42782387D01*
X1451064Y42935925D01*
X1050693Y42936275D01*
X680665Y42783382D01*
X675000Y42777727D01*
X675000Y45662000D01*
X3326246Y45662000D01*
X3326246Y44138000D01*
X3368083Y43915654D01*
X3499490Y43711442D01*
X3699993Y43574444D01*
X3938000Y43526246D01*
X5462000Y43526246D01*
X5684346Y43568083D01*
X5888558Y43699490D01*
X6025556Y43899993D01*
X6073754Y44138000D01*
X6073754Y44155938D01*
X6084679Y44129497D01*
X6467482Y43746026D01*
X6967893Y43538237D01*
X7509730Y43537764D01*
X8010503Y43744679D01*
X8393974Y44127482D01*
X8510029Y44406972D01*
X8624679Y44129497D01*
X9007482Y43746026D01*
X9507893Y43538237D01*
X10049730Y43537764D01*
X10550503Y43744679D01*
X10933974Y44127482D01*
X11050029Y44406972D01*
X11164679Y44129497D01*
X11547482Y43746026D01*
X12047893Y43538237D01*
X12589730Y43537764D01*
X13090503Y43744679D01*
X13473974Y44127482D01*
X13590029Y44406972D01*
X13704679Y44129497D01*
X14087482Y43746026D01*
X14587893Y43538237D01*
X15129730Y43537764D01*
X15630503Y43744679D01*
X16013974Y44127482D01*
X16130029Y44406972D01*
X16244679Y44129497D01*
X16627482Y43746026D01*
X17127893Y43538237D01*
X17669730Y43537764D01*
X18170503Y43744679D01*
X18553974Y44127482D01*
X18670029Y44406972D01*
X18784679Y44129497D01*
X19167482Y43746026D01*
X19667893Y43538237D01*
X20209730Y43537764D01*
X20710503Y43744679D01*
X21093974Y44127482D01*
X21210029Y44406972D01*
X21324679Y44129497D01*
X21707482Y43746026D01*
X22207893Y43538237D01*
X22749730Y43537764D01*
X23250503Y43744679D01*
X23633974Y44127482D01*
X23750029Y44406972D01*
X23864679Y44129497D01*
X24247482Y43746026D01*
X24747893Y43538237D01*
X25289730Y43537764D01*
X25790503Y43744679D01*
X26173974Y44127482D01*
X26290029Y44406972D01*
X26404679Y44129497D01*
X26787482Y43746026D01*
X27287893Y43538237D01*
X27829730Y43537764D01*
X27884580Y43560427D01*
X27884425Y43383393D01*
X28037318Y43013365D01*
X28320176Y42730013D01*
X28689936Y42576475D01*
X29090307Y42576125D01*
X29460335Y42729018D01*
X29743687Y43011876D01*
X29897225Y43381636D01*
X29897362Y43538176D01*
X30369730Y43537764D01*
X30870503Y43744679D01*
X31253974Y44127482D01*
X31370029Y44406972D01*
X31484679Y44129497D01*
X31867482Y43746026D01*
X32367893Y43538237D01*
X32909730Y43537764D01*
X33410503Y43744679D01*
X33793974Y44127482D01*
X33910029Y44406972D01*
X34024679Y44129497D01*
X34407482Y43746026D01*
X34749964Y43603815D01*
X34689775Y43458864D01*
X34689425Y43058493D01*
X34842318Y42688465D01*
X35125176Y42405113D01*
X35131361Y42402545D01*
X34933965Y42320982D01*
X34650613Y42038124D01*
X34497075Y41668364D01*
X34496725Y41267993D01*
X34649618Y40897965D01*
X34932476Y40614613D01*
X35302236Y40461075D01*
X35702607Y40460725D01*
X36072635Y40613618D01*
X36355987Y40896476D01*
X36408793Y41023649D01*
X42444140Y41023649D01*
X43200000Y40267789D01*
X43955860Y41023649D01*
X43884212Y41253738D01*
X43371479Y41423945D01*
X42832640Y41384982D01*
X42515788Y41253738D01*
X42444140Y41023649D01*
X36408793Y41023649D01*
X36509525Y41266236D01*
X36509875Y41666607D01*
X36356982Y42036635D01*
X36074124Y42319987D01*
X36067939Y42322555D01*
X36265335Y42404118D01*
X36548687Y42686976D01*
X36702225Y43056736D01*
X36702575Y43457107D01*
X36549682Y43827135D01*
X36291843Y44085424D01*
X36333974Y44127482D01*
X36450029Y44406972D01*
X36564679Y44129497D01*
X36947482Y43746026D01*
X37447893Y43538237D01*
X37989730Y43537764D01*
X38490503Y43744679D01*
X38873974Y44127482D01*
X38990029Y44406972D01*
X39104679Y44129497D01*
X39487482Y43746026D01*
X39987893Y43538237D01*
X40529730Y43537764D01*
X41030503Y43744679D01*
X41413974Y44127482D01*
X41530029Y44406972D01*
X41644679Y44129497D01*
X42027482Y43746026D01*
X42527893Y43538237D01*
X43069730Y43537764D01*
X43570503Y43744679D01*
X43743757Y43917632D01*
X44575421Y43917632D01*
X44648551Y43686302D01*
X45165647Y43514083D01*
X45709287Y43552858D01*
X46031449Y43686302D01*
X46104579Y43917632D01*
X45340000Y44682211D01*
X44575421Y43917632D01*
X43743757Y43917632D01*
X43953974Y44127482D01*
X44057055Y44375728D01*
X44126302Y44208551D01*
X44357632Y44135421D01*
X45122211Y44900000D01*
X45557789Y44900000D01*
X46322368Y44135421D01*
X46553698Y44208551D01*
X46725917Y44725647D01*
X46687142Y45269287D01*
X46553698Y45591449D01*
X46322368Y45664579D01*
X45557789Y44900000D01*
X45122211Y44900000D01*
X44357632Y45664579D01*
X44126302Y45591449D01*
X44064571Y45406098D01*
X43955321Y45670503D01*
X43572518Y46053974D01*
X43293028Y46170029D01*
X43570503Y46284679D01*
X43743757Y46457632D01*
X44575421Y46457632D01*
X44648551Y46226302D01*
X44799239Y46176115D01*
X44648551Y46113698D01*
X44575421Y45882368D01*
X45340000Y45117789D01*
X46104579Y45882368D01*
X46031449Y46113698D01*
X45880761Y46163885D01*
X46031449Y46226302D01*
X46104579Y46457632D01*
X45340000Y47222211D01*
X44575421Y46457632D01*
X43743757Y46457632D01*
X43953974Y46667482D01*
X44057055Y46915728D01*
X44126302Y46748551D01*
X44357632Y46675421D01*
X45122211Y47440000D01*
X45557789Y47440000D01*
X46322368Y46675421D01*
X46553698Y46748551D01*
X46725917Y47265647D01*
X46687142Y47809287D01*
X46553698Y48131449D01*
X46322368Y48204579D01*
X45557789Y47440000D01*
X45122211Y47440000D01*
X44357632Y48204579D01*
X44126302Y48131449D01*
X44064571Y47946098D01*
X43955321Y48210503D01*
X43743826Y48422368D01*
X44575421Y48422368D01*
X45340000Y47657789D01*
X46104579Y48422368D01*
X46031449Y48653698D01*
X45514353Y48825917D01*
X44970713Y48787142D01*
X44648551Y48653698D01*
X44575421Y48422368D01*
X43743826Y48422368D01*
X43572518Y48593974D01*
X43072107Y48801763D01*
X42530270Y48802236D01*
X42029497Y48595321D01*
X41646026Y48212518D01*
X41529971Y47933028D01*
X41415321Y48210503D01*
X41032518Y48593974D01*
X40532107Y48801763D01*
X39990270Y48802236D01*
X39489497Y48595321D01*
X39106026Y48212518D01*
X38989971Y47933028D01*
X38875321Y48210503D01*
X38492518Y48593974D01*
X37992107Y48801763D01*
X37450270Y48802236D01*
X36949497Y48595321D01*
X36566026Y48212518D01*
X36449971Y47933028D01*
X36335321Y48210503D01*
X35952518Y48593974D01*
X35452107Y48801763D01*
X34910270Y48802236D01*
X34409497Y48595321D01*
X34026026Y48212518D01*
X33909971Y47933028D01*
X33795321Y48210503D01*
X33412518Y48593974D01*
X32912107Y48801763D01*
X32370270Y48802236D01*
X31869497Y48595321D01*
X31486026Y48212518D01*
X31369971Y47933028D01*
X31255321Y48210503D01*
X30872518Y48593974D01*
X30372107Y48801763D01*
X29830270Y48802236D01*
X29329497Y48595321D01*
X28946026Y48212518D01*
X28829971Y47933028D01*
X28715321Y48210503D01*
X28332518Y48593974D01*
X27832107Y48801763D01*
X27290270Y48802236D01*
X26789497Y48595321D01*
X26406026Y48212518D01*
X26289971Y47933028D01*
X26175321Y48210503D01*
X25792518Y48593974D01*
X25292107Y48801763D01*
X24750270Y48802236D01*
X24249497Y48595321D01*
X23866026Y48212518D01*
X23749971Y47933028D01*
X23635321Y48210503D01*
X23252518Y48593974D01*
X22752107Y48801763D01*
X22210270Y48802236D01*
X21709497Y48595321D01*
X21326026Y48212518D01*
X21209971Y47933028D01*
X21095321Y48210503D01*
X20712518Y48593974D01*
X20212107Y48801763D01*
X19670270Y48802236D01*
X19169497Y48595321D01*
X18786026Y48212518D01*
X18669971Y47933028D01*
X18555321Y48210503D01*
X18172518Y48593974D01*
X17672107Y48801763D01*
X17130270Y48802236D01*
X16629497Y48595321D01*
X16246026Y48212518D01*
X16129971Y47933028D01*
X16015321Y48210503D01*
X15632518Y48593974D01*
X15132107Y48801763D01*
X14590270Y48802236D01*
X14089497Y48595321D01*
X13706026Y48212518D01*
X13589971Y47933028D01*
X13475321Y48210503D01*
X13092518Y48593974D01*
X12592107Y48801763D01*
X12050270Y48802236D01*
X11549497Y48595321D01*
X11166026Y48212518D01*
X11049971Y47933028D01*
X10935321Y48210503D01*
X10552518Y48593974D01*
X10052107Y48801763D01*
X9510270Y48802236D01*
X9009497Y48595321D01*
X8626026Y48212518D01*
X8509971Y47933028D01*
X8395321Y48210503D01*
X8012518Y48593974D01*
X7512107Y48801763D01*
X6970270Y48802236D01*
X6469497Y48595321D01*
X6086026Y48212518D01*
X5969971Y47933028D01*
X5855321Y48210503D01*
X5472518Y48593974D01*
X4972107Y48801763D01*
X4430270Y48802236D01*
X3929497Y48595321D01*
X3546026Y48212518D01*
X3338237Y47712107D01*
X3337764Y47170270D01*
X3544679Y46669497D01*
X3927482Y46286026D01*
X3957036Y46273754D01*
X3938000Y46273754D01*
X3715654Y46231917D01*
X3511442Y46100510D01*
X3374444Y45900007D01*
X3326246Y45662000D01*
X675000Y45662000D01*
X675000Y49325000D01*
X49325000Y49325000D01*
X49325000Y41092791D01*
X49325000Y41092791D01*
G37*
X49325000Y41092791D02*
X49255860Y41023651D01*
X49184212Y41253738D01*
X48671479Y41423945D01*
X48132640Y41384982D01*
X47815788Y41253738D01*
X47744140Y41023649D01*
X48500000Y40267789D01*
X48514142Y40281931D01*
X48731931Y40064142D01*
X48717789Y40050000D01*
X48731931Y40035858D01*
X48514142Y39818069D01*
X48500000Y39832211D01*
X47744140Y39076351D01*
X47815788Y38846262D01*
X48328521Y38676055D01*
X48867360Y38715018D01*
X49184212Y38846262D01*
X49255860Y39076349D01*
X49325000Y39007209D01*
X49325000Y33792791D01*
X49255860Y33723651D01*
X49184212Y33953738D01*
X48671479Y34123945D01*
X48132640Y34084982D01*
X47815788Y33953738D01*
X47744140Y33723649D01*
X48500000Y32967789D01*
X48514142Y32981931D01*
X48731931Y32764142D01*
X48717789Y32750000D01*
X48731931Y32735858D01*
X48514142Y32518069D01*
X48500000Y32532211D01*
X47744140Y31776351D01*
X47815788Y31546262D01*
X48328521Y31376055D01*
X48867360Y31415018D01*
X49184212Y31546262D01*
X49255860Y31776349D01*
X49325000Y31707209D01*
X49325000Y29998674D01*
X49295321Y30070503D01*
X48912518Y30453974D01*
X48412107Y30661763D01*
X47870270Y30662236D01*
X47369497Y30455321D01*
X46986026Y30072518D01*
X46973754Y30042964D01*
X46973754Y30062000D01*
X46931917Y30284346D01*
X46800510Y30488558D01*
X46600007Y30625556D01*
X46362000Y30673754D01*
X44838000Y30673754D01*
X44615654Y30631917D01*
X44411442Y30500510D01*
X44274444Y30300007D01*
X44226246Y30062000D01*
X44226246Y28538000D01*
X44268083Y28315654D01*
X44399490Y28111442D01*
X44599993Y27974444D01*
X44838000Y27926246D01*
X46362000Y27926246D01*
X46584346Y27968083D01*
X46788558Y28099490D01*
X46925556Y28299993D01*
X46973754Y28538000D01*
X46973754Y28555938D01*
X46984679Y28529497D01*
X47367482Y28146026D01*
X47867893Y27938237D01*
X48409730Y27937764D01*
X48910503Y28144679D01*
X49293974Y28527482D01*
X49325000Y28602201D01*
X49325000Y24695578D01*
X49297555Y24762000D01*
X48904072Y25156170D01*
X48389699Y25369757D01*
X47832744Y25370243D01*
X47318000Y25157555D01*
X46923830Y24764072D01*
X46710243Y24249699D01*
X46709757Y23692744D01*
X46922445Y23178000D01*
X47315928Y22783830D01*
X47517673Y22700058D01*
X47318000Y22617555D01*
X46923830Y22224072D01*
X46710243Y21709699D01*
X46709757Y21152744D01*
X46922445Y20638000D01*
X47315928Y20243830D01*
X47830301Y20030243D01*
X48387256Y20029757D01*
X48902000Y20242445D01*
X49296170Y20635928D01*
X49325000Y20705358D01*
X49325000Y13985578D01*
X49297555Y14052000D01*
X48904072Y14446170D01*
X48389699Y14659757D01*
X47832744Y14660243D01*
X47318000Y14447555D01*
X46923830Y14054072D01*
X46710243Y13539699D01*
X46709757Y12982744D01*
X46922445Y12468000D01*
X47315928Y12073830D01*
X47517673Y11990058D01*
X47318000Y11907555D01*
X46923830Y11514072D01*
X46710243Y10999699D01*
X46709757Y10442744D01*
X46922445Y9928000D01*
X47315928Y9533830D01*
X47830301Y9320243D01*
X48387256Y9319757D01*
X48902000Y9532445D01*
X49296170Y9925928D01*
X49325000Y9995358D01*
X49325000Y675000D01*
X32617302Y675000D01*
X32617575Y987207D01*
X32555238Y1138073D01*
X32909730Y1137764D01*
X33410503Y1344679D01*
X33793974Y1727482D01*
X33910029Y2006972D01*
X34024679Y1729497D01*
X34407482Y1346026D01*
X34907893Y1138237D01*
X35449730Y1137764D01*
X35950503Y1344679D01*
X36333974Y1727482D01*
X36450029Y2006972D01*
X36564679Y1729497D01*
X36947482Y1346026D01*
X37447893Y1138237D01*
X37989730Y1137764D01*
X38490503Y1344679D01*
X38873974Y1727482D01*
X38990029Y2006972D01*
X39104679Y1729497D01*
X39487482Y1346026D01*
X39987893Y1138237D01*
X40529730Y1137764D01*
X41030503Y1344679D01*
X41413974Y1727482D01*
X41530029Y2006972D01*
X41644679Y1729497D01*
X42027482Y1346026D01*
X42527893Y1138237D01*
X43069730Y1137764D01*
X43570503Y1344679D01*
X43743757Y1517632D01*
X44575421Y1517632D01*
X44648551Y1286302D01*
X45165647Y1114083D01*
X45709287Y1152858D01*
X46031449Y1286302D01*
X46104579Y1517632D01*
X45340000Y2282211D01*
X44575421Y1517632D01*
X43743757Y1517632D01*
X43953974Y1727482D01*
X44057055Y1975728D01*
X44126302Y1808551D01*
X44357632Y1735421D01*
X45122211Y2500000D01*
X45557789Y2500000D01*
X46322368Y1735421D01*
X46553698Y1808551D01*
X46725917Y2325647D01*
X46687142Y2869287D01*
X46553698Y3191449D01*
X46322368Y3264579D01*
X45557789Y2500000D01*
X45122211Y2500000D01*
X44357632Y3264579D01*
X44126302Y3191449D01*
X44064571Y3006098D01*
X43955321Y3270503D01*
X43572518Y3653974D01*
X43293028Y3770029D01*
X43570503Y3884679D01*
X43743757Y4057632D01*
X44575421Y4057632D01*
X44648551Y3826302D01*
X44799239Y3776115D01*
X44648551Y3713698D01*
X44575421Y3482368D01*
X45340000Y2717789D01*
X46104579Y3482368D01*
X46031449Y3713698D01*
X45880761Y3763885D01*
X46031449Y3826302D01*
X46104579Y4057632D01*
X45340000Y4822211D01*
X44575421Y4057632D01*
X43743757Y4057632D01*
X43953974Y4267482D01*
X44057055Y4515728D01*
X44126302Y4348551D01*
X44357632Y4275421D01*
X45122211Y5040000D01*
X45557789Y5040000D01*
X46322368Y4275421D01*
X46553698Y4348551D01*
X46725917Y4865647D01*
X46687142Y5409287D01*
X46553698Y5731449D01*
X46322368Y5804579D01*
X45557789Y5040000D01*
X45122211Y5040000D01*
X44357632Y5804579D01*
X44126302Y5731449D01*
X44064571Y5546098D01*
X43955321Y5810503D01*
X43743826Y6022368D01*
X44575421Y6022368D01*
X45340000Y5257789D01*
X46104579Y6022368D01*
X46031449Y6253698D01*
X45514353Y6425917D01*
X44970713Y6387142D01*
X44648551Y6253698D01*
X44575421Y6022368D01*
X43743826Y6022368D01*
X43572518Y6193974D01*
X43072107Y6401763D01*
X42530270Y6402236D01*
X42029497Y6195321D01*
X41646026Y5812518D01*
X41529971Y5533028D01*
X41415321Y5810503D01*
X41032518Y6193974D01*
X40532107Y6401763D01*
X39990270Y6402236D01*
X39489497Y6195321D01*
X39106026Y5812518D01*
X38989971Y5533028D01*
X38875321Y5810503D01*
X38492518Y6193974D01*
X37992107Y6401763D01*
X37450270Y6402236D01*
X36949497Y6195321D01*
X36566026Y5812518D01*
X36449971Y5533028D01*
X36335321Y5810503D01*
X35952518Y6193974D01*
X35452107Y6401763D01*
X34910270Y6402236D01*
X34409497Y6195321D01*
X34026026Y5812518D01*
X33909971Y5533028D01*
X33795321Y5810503D01*
X33412518Y6193974D01*
X32912107Y6401763D01*
X32370270Y6402236D01*
X31869497Y6195321D01*
X31486026Y5812518D01*
X31369971Y5533028D01*
X31255321Y5810503D01*
X31000085Y6066184D01*
X31235487Y6301176D01*
X31389025Y6670936D01*
X31389375Y7071307D01*
X31283434Y7327704D01*
X31373707Y7327625D01*
X31743735Y7480518D01*
X32027087Y7763376D01*
X32180625Y8133136D01*
X32180779Y8309693D01*
X32879625Y8309693D01*
X33032518Y7939665D01*
X33315376Y7656313D01*
X33685136Y7502775D01*
X34085507Y7502425D01*
X34455535Y7655318D01*
X34738887Y7938176D01*
X34892425Y8307936D01*
X34892775Y8708307D01*
X34742225Y9072664D01*
X34963036Y8980975D01*
X35363407Y8980625D01*
X35733435Y9133518D01*
X35883315Y9283137D01*
X39399723Y9283137D01*
X39642795Y8694857D01*
X40092489Y8244377D01*
X40680344Y8000278D01*
X41316863Y7999723D01*
X41905143Y8242795D01*
X42355623Y8692489D01*
X42599722Y9280344D01*
X42600075Y9685379D01*
X42688734Y9596565D01*
X43570516Y9230417D01*
X44525295Y9229584D01*
X45407715Y9594192D01*
X46083435Y10268734D01*
X46449583Y11150516D01*
X46450416Y12105295D01*
X46085808Y12987715D01*
X45411266Y13663435D01*
X44529484Y14029583D01*
X43574705Y14030416D01*
X42692285Y13665808D01*
X42016565Y12991266D01*
X41650417Y12109484D01*
X41649584Y11154705D01*
X41695461Y11043674D01*
X41319656Y11199722D01*
X40683137Y11200277D01*
X40094857Y10957205D01*
X39644377Y10507511D01*
X39400278Y9919656D01*
X39399723Y9283137D01*
X35883315Y9283137D01*
X36016787Y9416376D01*
X36170325Y9786136D01*
X36170566Y10062269D01*
X36279835Y10107418D01*
X36563187Y10390276D01*
X36716725Y10760036D01*
X36717075Y11160407D01*
X36564182Y11530435D01*
X36281324Y11813787D01*
X35911564Y11967325D01*
X35511193Y11967675D01*
X35141165Y11814782D01*
X34857813Y11531924D01*
X34704275Y11162164D01*
X34704034Y10886031D01*
X34594765Y10840882D01*
X34311413Y10558024D01*
X34157875Y10188264D01*
X34157525Y9787893D01*
X34308075Y9423536D01*
X34087264Y9515225D01*
X33686893Y9515575D01*
X33316865Y9362682D01*
X33033513Y9079824D01*
X32879975Y8710064D01*
X32879625Y8309693D01*
X32180779Y8309693D01*
X32180975Y8533507D01*
X32028082Y8903535D01*
X31745224Y9186887D01*
X31375464Y9340425D01*
X30975093Y9340775D01*
X30605065Y9187882D01*
X30321713Y8905024D01*
X30168175Y8535264D01*
X30167825Y8134893D01*
X30273766Y7878496D01*
X30183493Y7878575D01*
X29813465Y7725682D01*
X29530113Y7442824D01*
X29376575Y7073064D01*
X29376225Y6672693D01*
X29529118Y6302665D01*
X29546689Y6285063D01*
X29329497Y6195321D01*
X28946026Y5812518D01*
X28829971Y5533028D01*
X28715321Y5810503D01*
X28332518Y6193974D01*
X28317981Y6200010D01*
X28458425Y6538236D01*
X28458775Y6938607D01*
X28305882Y7308635D01*
X28023024Y7591987D01*
X27653264Y7745525D01*
X27252893Y7745875D01*
X26882865Y7592982D01*
X26666521Y7377015D01*
X26451924Y7591987D01*
X26082164Y7745525D01*
X25681793Y7745875D01*
X25311765Y7592982D01*
X25028413Y7310124D01*
X24874875Y6940364D01*
X24874525Y6539993D01*
X24931511Y6402078D01*
X24750270Y6402236D01*
X24249497Y6195321D01*
X23866026Y5812518D01*
X23749971Y5533028D01*
X23635321Y5810503D01*
X23252518Y6193974D01*
X22752107Y6401763D01*
X22210270Y6402236D01*
X21709497Y6195321D01*
X21326026Y5812518D01*
X21209971Y5533028D01*
X21095321Y5810503D01*
X20712518Y6193974D01*
X20212107Y6401763D01*
X19670270Y6402236D01*
X19169497Y6195321D01*
X18786026Y5812518D01*
X18669971Y5533028D01*
X18555321Y5810503D01*
X18172518Y6193974D01*
X17672107Y6401763D01*
X17130270Y6402236D01*
X16629497Y6195321D01*
X16246026Y5812518D01*
X16129971Y5533028D01*
X16015321Y5810503D01*
X15632518Y6193974D01*
X15132107Y6401763D01*
X14590270Y6402236D01*
X14089497Y6195321D01*
X13706026Y5812518D01*
X13589971Y5533028D01*
X13475321Y5810503D01*
X13092518Y6193974D01*
X12592107Y6401763D01*
X12050270Y6402236D01*
X11549497Y6195321D01*
X11516613Y6162495D01*
X11588425Y6335436D01*
X11588775Y6735807D01*
X11528794Y6880973D01*
X11601036Y6850975D01*
X12001407Y6850625D01*
X12371435Y7003518D01*
X12654787Y7286376D01*
X12734062Y7477293D01*
X18193425Y7477293D01*
X18346318Y7107265D01*
X18629176Y6823913D01*
X18998936Y6670375D01*
X19399307Y6670025D01*
X19769335Y6822918D01*
X20052687Y7105776D01*
X20206225Y7475536D01*
X20206575Y7875907D01*
X20066509Y8214893D01*
X20980925Y8214893D01*
X21133818Y7844865D01*
X21186070Y7792522D01*
X21112175Y7614564D01*
X21111825Y7214193D01*
X21264718Y6844165D01*
X21547576Y6560813D01*
X21917336Y6407275D01*
X22317707Y6406925D01*
X22687735Y6559818D01*
X22971087Y6842676D01*
X23124625Y7212436D01*
X23124975Y7612807D01*
X22972082Y7982835D01*
X22919830Y8035178D01*
X22993725Y8213136D01*
X22994075Y8613507D01*
X22896072Y8850693D01*
X24593425Y8850693D01*
X24746318Y8480665D01*
X25029176Y8197313D01*
X25398936Y8043775D01*
X25799307Y8043425D01*
X26169335Y8196318D01*
X26452687Y8479176D01*
X26606177Y8848821D01*
X26696318Y8630665D01*
X26979176Y8347313D01*
X27348936Y8193775D01*
X27749307Y8193425D01*
X28119335Y8346318D01*
X28402687Y8629176D01*
X28556225Y8998936D01*
X28556575Y9399307D01*
X28403682Y9769335D01*
X28140784Y10032693D01*
X31053725Y10032693D01*
X31206618Y9662665D01*
X31489476Y9379313D01*
X31859236Y9225775D01*
X32259607Y9225425D01*
X32629635Y9378318D01*
X32912987Y9661176D01*
X33066525Y10030936D01*
X33066875Y10431307D01*
X32913982Y10801335D01*
X32631124Y11084687D01*
X32261364Y11238225D01*
X31860993Y11238575D01*
X31490965Y11085682D01*
X31207613Y10802824D01*
X31054075Y10433064D01*
X31053725Y10032693D01*
X28140784Y10032693D01*
X28120824Y10052687D01*
X27751064Y10206225D01*
X27350693Y10206575D01*
X26980665Y10053682D01*
X26697313Y9770824D01*
X26543823Y9401179D01*
X26453682Y9619335D01*
X26170824Y9902687D01*
X25801064Y10056225D01*
X25400693Y10056575D01*
X25030665Y9903682D01*
X24747313Y9620824D01*
X24593775Y9251064D01*
X24593425Y8850693D01*
X22896072Y8850693D01*
X22841182Y8983535D01*
X22558324Y9266887D01*
X22188564Y9420425D01*
X21788193Y9420775D01*
X21418165Y9267882D01*
X21134813Y8985024D01*
X20981275Y8615264D01*
X20980925Y8214893D01*
X20066509Y8214893D01*
X20053682Y8245935D01*
X19770824Y8529287D01*
X19401064Y8682825D01*
X19000693Y8683175D01*
X18630665Y8530282D01*
X18347313Y8247424D01*
X18193775Y7877664D01*
X18193425Y7477293D01*
X12734062Y7477293D01*
X12808325Y7656136D01*
X12808675Y8056507D01*
X12655782Y8426535D01*
X12588912Y8493522D01*
X12699307Y8493425D01*
X13069335Y8646318D01*
X13352687Y8929176D01*
X13506225Y9298936D01*
X13506381Y9478093D01*
X15491025Y9478093D01*
X15643918Y9108065D01*
X15926776Y8824713D01*
X16296536Y8671175D01*
X16696907Y8670825D01*
X17066935Y8823718D01*
X17350287Y9106576D01*
X17503825Y9476336D01*
X17504175Y9876707D01*
X17351282Y10246735D01*
X17068424Y10530087D01*
X16698664Y10683625D01*
X16298293Y10683975D01*
X15928265Y10531082D01*
X15644913Y10248224D01*
X15491375Y9878464D01*
X15491025Y9478093D01*
X13506381Y9478093D01*
X13506575Y9699307D01*
X13415390Y9919990D01*
X13598936Y9843775D01*
X13999307Y9843425D01*
X14369335Y9996318D01*
X14652687Y10279176D01*
X14806225Y10648936D01*
X14806575Y11049307D01*
X14653682Y11419335D01*
X14370824Y11702687D01*
X14001064Y11856225D01*
X13600693Y11856575D01*
X13230665Y11703682D01*
X12947313Y11420824D01*
X12793775Y11051064D01*
X12793425Y10650693D01*
X12884610Y10430010D01*
X12701064Y10506225D01*
X12300693Y10506575D01*
X11930665Y10353682D01*
X11647313Y10070824D01*
X11493775Y9701064D01*
X11493425Y9300693D01*
X11646318Y8930665D01*
X11713188Y8863678D01*
X11602793Y8863775D01*
X11232765Y8710882D01*
X10949413Y8428024D01*
X10795875Y8058264D01*
X10795525Y7657893D01*
X10855506Y7512727D01*
X10783264Y7542725D01*
X10382893Y7543075D01*
X10012865Y7390182D01*
X9729513Y7107324D01*
X9575975Y6737564D01*
X9575682Y6402179D01*
X9510270Y6402236D01*
X9009497Y6195321D01*
X8626026Y5812518D01*
X8509971Y5533028D01*
X8395321Y5810503D01*
X8144262Y6062000D01*
X8469335Y6196318D01*
X8752687Y6479176D01*
X8906225Y6848936D01*
X8906575Y7249307D01*
X8753682Y7619335D01*
X8470824Y7902687D01*
X8101064Y8056225D01*
X7700693Y8056575D01*
X7330665Y7903682D01*
X7047313Y7620824D01*
X6893775Y7251064D01*
X6893425Y6850693D01*
X7046318Y6480665D01*
X7124745Y6402101D01*
X6970270Y6402236D01*
X6469497Y6195321D01*
X6086026Y5812518D01*
X5969971Y5533028D01*
X5855321Y5810503D01*
X5472518Y6193974D01*
X4972107Y6401763D01*
X4430270Y6402236D01*
X4251402Y6328329D01*
X4502687Y6579176D01*
X4656225Y6948936D01*
X4656575Y7349307D01*
X4503682Y7719335D01*
X4220824Y8002687D01*
X3851064Y8156225D01*
X3450693Y8156575D01*
X3080665Y8003682D01*
X2797313Y7720824D01*
X2643775Y7351064D01*
X2643425Y6950693D01*
X2796318Y6580665D01*
X3079176Y6297313D01*
X3448936Y6143775D01*
X3849307Y6143425D01*
X3897429Y6163309D01*
X3546026Y5812518D01*
X3338237Y5312107D01*
X3337764Y4770270D01*
X3544679Y4269497D01*
X3927482Y3886026D01*
X3957036Y3873754D01*
X3938000Y3873754D01*
X3715654Y3831917D01*
X3511442Y3700510D01*
X3374444Y3500007D01*
X3326246Y3262000D01*
X3326246Y1738000D01*
X3368083Y1515654D01*
X3499490Y1311442D01*
X3699993Y1174444D01*
X3938000Y1126246D01*
X5462000Y1126246D01*
X5684346Y1168083D01*
X5888558Y1299490D01*
X6025556Y1499993D01*
X6073754Y1738000D01*
X6073754Y1755938D01*
X6084679Y1729497D01*
X6467482Y1346026D01*
X6967893Y1138237D01*
X7509730Y1137764D01*
X8010503Y1344679D01*
X8393974Y1727482D01*
X8510029Y2006972D01*
X8624679Y1729497D01*
X9007482Y1346026D01*
X9507893Y1138237D01*
X9958197Y1137844D01*
X9992318Y1055265D01*
X10275176Y771913D01*
X10508568Y675000D01*
X675000Y675000D01*
X675000Y9364293D01*
X5143325Y9364293D01*
X5296218Y8994265D01*
X5579076Y8710913D01*
X5948836Y8557375D01*
X6349207Y8557025D01*
X6719235Y8709918D01*
X7002587Y8992776D01*
X7156125Y9362536D01*
X7156475Y9762907D01*
X7003582Y10132935D01*
X6720724Y10416287D01*
X6350964Y10569825D01*
X5950593Y10570175D01*
X5580565Y10417282D01*
X5297213Y10134424D01*
X5143675Y9764664D01*
X5143325Y9364293D01*
X675000Y9364293D01*
X675000Y11809193D01*
X7165225Y11809193D01*
X7318118Y11439165D01*
X7600976Y11155813D01*
X7970736Y11002275D01*
X8371107Y11001925D01*
X8741135Y11154818D01*
X9024487Y11437676D01*
X9178025Y11807436D01*
X9178375Y12207807D01*
X9025482Y12577835D01*
X8841639Y12762000D01*
X17826246Y12762000D01*
X17826246Y11238000D01*
X17868083Y11015654D01*
X17999490Y10811442D01*
X18199993Y10674444D01*
X18438000Y10626246D01*
X19962000Y10626246D01*
X20184346Y10668083D01*
X20388558Y10799490D01*
X20525556Y10999993D01*
X20573754Y11238000D01*
X20573754Y12762000D01*
X20551402Y12880793D01*
X22429425Y12880793D01*
X22582318Y12510765D01*
X22865176Y12227413D01*
X23234936Y12073875D01*
X23635307Y12073525D01*
X24005335Y12226418D01*
X24288687Y12509276D01*
X24442225Y12879036D01*
X24442575Y13279407D01*
X24289682Y13649435D01*
X24006824Y13932787D01*
X23637064Y14086325D01*
X23236693Y14086675D01*
X22866665Y13933782D01*
X22583313Y13650924D01*
X22429775Y13281164D01*
X22429425Y12880793D01*
X20551402Y12880793D01*
X20531917Y12984346D01*
X20400510Y13188558D01*
X20200007Y13325556D01*
X19962000Y13373754D01*
X19944062Y13373754D01*
X19970503Y13384679D01*
X20353974Y13767482D01*
X20561763Y14267893D01*
X20562236Y14809730D01*
X20355321Y15310503D01*
X19972518Y15693974D01*
X19472107Y15901763D01*
X18930270Y15902236D01*
X18429497Y15695321D01*
X18046026Y15312518D01*
X17838237Y14812107D01*
X17837764Y14270270D01*
X18044679Y13769497D01*
X18427482Y13386026D01*
X18457036Y13373754D01*
X18438000Y13373754D01*
X18215654Y13331917D01*
X18011442Y13200510D01*
X17874444Y13000007D01*
X17826246Y12762000D01*
X8841639Y12762000D01*
X8742624Y12861187D01*
X8372864Y13014725D01*
X7972493Y13015075D01*
X7602465Y12862182D01*
X7319113Y12579324D01*
X7165575Y12209564D01*
X7165225Y11809193D01*
X675000Y11809193D01*
X675000Y15000693D01*
X7593425Y15000693D01*
X7746318Y14630665D01*
X8029176Y14347313D01*
X8398936Y14193775D01*
X8799307Y14193425D01*
X9169335Y14346318D01*
X9452687Y14629176D01*
X9606225Y14998936D01*
X9606575Y15399307D01*
X9453682Y15769335D01*
X9170824Y16052687D01*
X8884708Y16171493D01*
X23983225Y16171493D01*
X24136118Y15801465D01*
X24418976Y15518113D01*
X24788736Y15364575D01*
X25189107Y15364225D01*
X25559135Y15517118D01*
X25842487Y15799976D01*
X25996025Y16169736D01*
X25996375Y16570107D01*
X25858036Y16904911D01*
X26185307Y16904625D01*
X26275784Y16942010D01*
X26414718Y16605765D01*
X26697576Y16322413D01*
X27067336Y16168875D01*
X27467707Y16168525D01*
X27837735Y16321418D01*
X28121087Y16604276D01*
X28274625Y16974036D01*
X28274975Y17374407D01*
X28122082Y17744435D01*
X28077166Y17789429D01*
X28090935Y17795118D01*
X28374287Y18077976D01*
X28410213Y18164495D01*
X28604607Y18164325D01*
X28974635Y18317218D01*
X29142706Y18484996D01*
X29142525Y18277893D01*
X29295418Y17907865D01*
X29578276Y17624513D01*
X29948036Y17470975D01*
X30348407Y17470625D01*
X30718435Y17623518D01*
X31001787Y17906376D01*
X31155325Y18276136D01*
X31155675Y18676507D01*
X31033272Y18972744D01*
X33759757Y18972744D01*
X33972445Y18458000D01*
X34365928Y18063830D01*
X34567673Y17980058D01*
X34368000Y17897555D01*
X33973830Y17504072D01*
X33760243Y16989699D01*
X33759757Y16432744D01*
X33972445Y15918000D01*
X34365928Y15523830D01*
X34567673Y15440058D01*
X34368000Y15357555D01*
X33973830Y14964072D01*
X33760243Y14449699D01*
X33759757Y13892744D01*
X33972445Y13378000D01*
X34365928Y12983830D01*
X34880301Y12770243D01*
X35437256Y12769757D01*
X35952000Y12982445D01*
X36346170Y13375928D01*
X36559757Y13890301D01*
X36560243Y14447256D01*
X36347555Y14962000D01*
X35954072Y15356170D01*
X35752327Y15439942D01*
X35952000Y15522445D01*
X36346170Y15915928D01*
X36559757Y16430301D01*
X36560243Y16987256D01*
X36347555Y17502000D01*
X35954072Y17896170D01*
X35752327Y17979942D01*
X35952000Y18062445D01*
X36346170Y18455928D01*
X36559757Y18970301D01*
X36560243Y19527256D01*
X36347555Y20042000D01*
X36147161Y20242744D01*
X36299757Y20242744D01*
X36512445Y19728000D01*
X36905928Y19333830D01*
X37107673Y19250058D01*
X36908000Y19167555D01*
X36513830Y18774072D01*
X36300243Y18259699D01*
X36299757Y17702744D01*
X36512445Y17188000D01*
X36905928Y16793830D01*
X37107673Y16710058D01*
X36908000Y16627555D01*
X36513830Y16234072D01*
X36300243Y15719699D01*
X36299757Y15162744D01*
X36512445Y14648000D01*
X36905928Y14253830D01*
X37157304Y14149449D01*
X36929497Y14055321D01*
X36546026Y13672518D01*
X36338237Y13172107D01*
X36337764Y12630270D01*
X36544679Y12129497D01*
X36927482Y11746026D01*
X37427893Y11538237D01*
X37969730Y11537764D01*
X38470503Y11744679D01*
X38853974Y12127482D01*
X39061763Y12627893D01*
X39062236Y13169730D01*
X38855321Y13670503D01*
X38472518Y14053974D01*
X38242660Y14149420D01*
X38492000Y14252445D01*
X38886170Y14645928D01*
X39099757Y15160301D01*
X39100243Y15717256D01*
X38887555Y16232000D01*
X38494072Y16626170D01*
X38292327Y16709942D01*
X38492000Y16792445D01*
X38886170Y17185928D01*
X39099757Y17700301D01*
X39100243Y18257256D01*
X38887555Y18772000D01*
X38494072Y19166170D01*
X38292327Y19249942D01*
X38492000Y19332445D01*
X38886170Y19725928D01*
X39099757Y20240301D01*
X39100243Y20797256D01*
X38887555Y21312000D01*
X38494072Y21706170D01*
X37979699Y21919757D01*
X37422744Y21920243D01*
X36908000Y21707555D01*
X36513830Y21314072D01*
X36300243Y20799699D01*
X36299757Y20242744D01*
X36147161Y20242744D01*
X35954072Y20436170D01*
X35783333Y20507067D01*
X35874357Y20544771D01*
X35952180Y20780031D01*
X35160000Y21572211D01*
X34367820Y20780031D01*
X34445643Y20544771D01*
X34545880Y20511053D01*
X34368000Y20437555D01*
X33973830Y20044072D01*
X33760243Y19529699D01*
X33759757Y18972744D01*
X31033272Y18972744D01*
X31002782Y19046535D01*
X30719924Y19329887D01*
X30350164Y19483425D01*
X29949793Y19483775D01*
X29843542Y19439873D01*
X29867587Y19463876D01*
X30021125Y19833636D01*
X30021475Y20234007D01*
X29992888Y20303193D01*
X31079825Y20303193D01*
X31232718Y19933165D01*
X31515576Y19649813D01*
X31885336Y19496275D01*
X32285707Y19495925D01*
X32655735Y19648818D01*
X32939087Y19931676D01*
X33092625Y20301436D01*
X33092824Y20529487D01*
X33278407Y20529325D01*
X33648435Y20682218D01*
X33931787Y20965076D01*
X33970099Y21057341D01*
X34150031Y20997820D01*
X34942211Y21790000D01*
X35377789Y21790000D01*
X36169969Y20997820D01*
X36405229Y21075643D01*
X36583815Y21606548D01*
X36545637Y22165382D01*
X36405229Y22504357D01*
X36169969Y22582180D01*
X35377789Y21790000D01*
X34942211Y21790000D01*
X34150031Y22582180D01*
X33914771Y22504357D01*
X33818892Y22219324D01*
X33649924Y22388587D01*
X33280164Y22542125D01*
X32879793Y22542475D01*
X32509765Y22389582D01*
X32226413Y22106724D01*
X32072875Y21736964D01*
X32072676Y21508913D01*
X31887093Y21509075D01*
X31517065Y21356182D01*
X31233713Y21073324D01*
X31080175Y20703564D01*
X31079825Y20303193D01*
X29992888Y20303193D01*
X29868582Y20604035D01*
X29585724Y20887387D01*
X29293038Y21008921D01*
X29395525Y21255736D01*
X29395875Y21656107D01*
X29242982Y22026135D01*
X28960124Y22309487D01*
X28917725Y22327093D01*
X29419625Y22327093D01*
X29572518Y21957065D01*
X29855376Y21673713D01*
X30225136Y21520175D01*
X30625507Y21519825D01*
X30995535Y21672718D01*
X31278887Y21955576D01*
X31432425Y22325336D01*
X31432775Y22725707D01*
X31402091Y22799969D01*
X34367820Y22799969D01*
X35160000Y22007789D01*
X35952180Y22799969D01*
X35874357Y23035229D01*
X35343452Y23213815D01*
X34784618Y23175637D01*
X34445643Y23035229D01*
X34367820Y22799969D01*
X31402091Y22799969D01*
X31279882Y23095735D01*
X30997024Y23379087D01*
X30627264Y23532625D01*
X30226893Y23532975D01*
X29856865Y23380082D01*
X29573513Y23097224D01*
X29419975Y22727464D01*
X29419625Y22327093D01*
X28917725Y22327093D01*
X28590364Y22463025D01*
X28189993Y22463375D01*
X27819965Y22310482D01*
X27536613Y22027624D01*
X27383075Y21657864D01*
X27382725Y21257493D01*
X27535618Y20887465D01*
X27818476Y20604113D01*
X28111162Y20482579D01*
X28008675Y20235764D01*
X28008553Y20095894D01*
X27835965Y20024582D01*
X27552613Y19741724D01*
X27516687Y19655205D01*
X27322293Y19655375D01*
X26952265Y19502482D01*
X26668913Y19219624D01*
X26515375Y18849864D01*
X26515315Y18781123D01*
X26187064Y18917425D01*
X25786693Y18917775D01*
X25416665Y18764882D01*
X25133313Y18482024D01*
X24979775Y18112264D01*
X24979425Y17711893D01*
X25117764Y17377089D01*
X24790493Y17377375D01*
X24420465Y17224482D01*
X24137113Y16941624D01*
X23983575Y16571864D01*
X23983225Y16171493D01*
X8884708Y16171493D01*
X8801064Y16206225D01*
X8400693Y16206575D01*
X8030665Y16053682D01*
X7747313Y15770824D01*
X7593775Y15401064D01*
X7593425Y15000693D01*
X675000Y15000693D01*
X675000Y18594093D01*
X13669225Y18594093D01*
X13822118Y18224065D01*
X14104976Y17940713D01*
X14474736Y17787175D01*
X14875107Y17786825D01*
X15245135Y17939718D01*
X15528487Y18222576D01*
X15666901Y18555913D01*
X15666725Y18354693D01*
X15819618Y17984665D01*
X16102476Y17701313D01*
X16472236Y17547775D01*
X16872607Y17547425D01*
X17242635Y17700318D01*
X17525987Y17983176D01*
X17679525Y18352936D01*
X17679875Y18753307D01*
X17526982Y19123335D01*
X17244124Y19406687D01*
X16874364Y19560225D01*
X16473993Y19560575D01*
X16103965Y19407682D01*
X15820613Y19124824D01*
X15682199Y18791487D01*
X15682375Y18992707D01*
X15529482Y19362735D01*
X15246624Y19646087D01*
X14876864Y19799625D01*
X14476493Y19799975D01*
X14106465Y19647082D01*
X13823113Y19364224D01*
X13669575Y18994464D01*
X13669225Y18594093D01*
X675000Y18594093D01*
X675000Y21000693D01*
X12793425Y21000693D01*
X12946318Y20630665D01*
X13229176Y20347313D01*
X13598936Y20193775D01*
X13999307Y20193425D01*
X14369335Y20346318D01*
X14624154Y20600693D01*
X18393425Y20600693D01*
X18546318Y20230665D01*
X18829176Y19947313D01*
X19198936Y19793775D01*
X19599307Y19793425D01*
X19969335Y19946318D01*
X20252687Y20229176D01*
X20406225Y20598936D01*
X20406575Y20999307D01*
X20253682Y21369335D01*
X19970824Y21652687D01*
X19942393Y21664493D01*
X21977325Y21664493D01*
X22130218Y21294465D01*
X22413076Y21011113D01*
X22637614Y20917876D01*
X22609613Y20889924D01*
X22456075Y20520164D01*
X22455725Y20119793D01*
X22608618Y19749765D01*
X22891476Y19466413D01*
X23261236Y19312875D01*
X23661607Y19312525D01*
X24031635Y19465418D01*
X24314987Y19748276D01*
X24468525Y20118036D01*
X24468841Y20479225D01*
X24469007Y20479225D01*
X24839035Y20632118D01*
X25122387Y20914976D01*
X25275925Y21284736D01*
X25276275Y21685107D01*
X25123382Y22055135D01*
X24840524Y22338487D01*
X24470764Y22492025D01*
X24070393Y22492375D01*
X23850625Y22401568D01*
X23837582Y22433135D01*
X23554724Y22716487D01*
X23430444Y22768093D01*
X25088225Y22768093D01*
X25241118Y22398065D01*
X25523976Y22114713D01*
X25893736Y21961175D01*
X26294107Y21960825D01*
X26664135Y22113718D01*
X26947487Y22396576D01*
X27101025Y22766336D01*
X27101351Y23139141D01*
X27163735Y23164918D01*
X27447087Y23447776D01*
X27572869Y23750693D01*
X30943425Y23750693D01*
X31096318Y23380665D01*
X31379176Y23097313D01*
X31748936Y22943775D01*
X32149307Y22943425D01*
X32519335Y23096318D01*
X32802687Y23379176D01*
X32956225Y23748936D01*
X32956575Y24149307D01*
X32803682Y24519335D01*
X32797735Y24525293D01*
X36554925Y24525293D01*
X36707818Y24155265D01*
X36990676Y23871913D01*
X37360436Y23718375D01*
X37760807Y23718025D01*
X38130835Y23870918D01*
X38414187Y24153776D01*
X38567725Y24523536D01*
X38567943Y24773137D01*
X39399723Y24773137D01*
X39642795Y24184857D01*
X40092489Y23734377D01*
X40680344Y23490278D01*
X41316863Y23489723D01*
X41694556Y23645782D01*
X41650417Y23539484D01*
X41649584Y22584705D01*
X42014192Y21702285D01*
X42688734Y21026565D01*
X43570516Y20660417D01*
X44525295Y20659584D01*
X45407715Y21024192D01*
X46083435Y21698734D01*
X46449583Y22580516D01*
X46450416Y23535295D01*
X46085808Y24417715D01*
X45411266Y25093435D01*
X44529484Y25459583D01*
X43574705Y25460416D01*
X42692285Y25095808D01*
X42599925Y25003609D01*
X42600277Y25406863D01*
X42357205Y25995143D01*
X41907511Y26445623D01*
X41319656Y26689722D01*
X40683137Y26690277D01*
X40094857Y26447205D01*
X39644377Y25997511D01*
X39400278Y25409656D01*
X39399723Y24773137D01*
X38567943Y24773137D01*
X38568075Y24923907D01*
X38415182Y25293935D01*
X38132324Y25577287D01*
X37762564Y25730825D01*
X37362193Y25731175D01*
X36992165Y25578282D01*
X36708813Y25295424D01*
X36555275Y24925664D01*
X36554925Y24525293D01*
X32797735Y24525293D01*
X32520824Y24802687D01*
X32151064Y24956225D01*
X31750693Y24956575D01*
X31380665Y24803682D01*
X31097313Y24520824D01*
X30943775Y24151064D01*
X30943425Y23750693D01*
X27572869Y23750693D01*
X27600625Y23817536D01*
X27600975Y24217907D01*
X27448082Y24587935D01*
X27165224Y24871287D01*
X26795464Y25024825D01*
X26395093Y25025175D01*
X26025065Y24872282D01*
X25741713Y24589424D01*
X25588175Y24219664D01*
X25587849Y23846859D01*
X25525465Y23821082D01*
X25242113Y23538224D01*
X25088575Y23168464D01*
X25088225Y22768093D01*
X23430444Y22768093D01*
X23184964Y22870025D01*
X22784593Y22870375D01*
X22414565Y22717482D01*
X22131213Y22434624D01*
X21977675Y22064864D01*
X21977325Y21664493D01*
X19942393Y21664493D01*
X19601064Y21806225D01*
X19200693Y21806575D01*
X18830665Y21653682D01*
X18547313Y21370824D01*
X18393775Y21001064D01*
X18393425Y20600693D01*
X14624154Y20600693D01*
X14652687Y20629176D01*
X14806225Y20998936D01*
X14806575Y21399307D01*
X14653682Y21769335D01*
X14370824Y22052687D01*
X14001064Y22206225D01*
X13600693Y22206575D01*
X13230665Y22053682D01*
X12947313Y21770824D01*
X12793775Y21401064D01*
X12793425Y21000693D01*
X675000Y21000693D01*
X675000Y22682793D01*
X11584325Y22682793D01*
X11737218Y22312765D01*
X12020076Y22029413D01*
X12389836Y21875875D01*
X12790207Y21875525D01*
X13160235Y22028418D01*
X13443587Y22311276D01*
X13597125Y22681036D01*
X13597475Y23081407D01*
X13444582Y23451435D01*
X13161724Y23734787D01*
X12791964Y23888325D01*
X12391593Y23888675D01*
X12021565Y23735782D01*
X11738213Y23452924D01*
X11584675Y23083164D01*
X11584325Y22682793D01*
X675000Y22682793D01*
X675000Y24951671D01*
X779176Y24847313D01*
X1148936Y24693775D01*
X1549307Y24693425D01*
X1919335Y24846318D01*
X2202687Y25129176D01*
X2210666Y25148393D01*
X3403825Y25148393D01*
X3556718Y24778365D01*
X3839576Y24495013D01*
X4209336Y24341475D01*
X4609707Y24341125D01*
X4979735Y24494018D01*
X5180561Y24694494D01*
X5180225Y24310293D01*
X5333118Y23940265D01*
X5615976Y23656913D01*
X5985736Y23503375D01*
X6386107Y23503025D01*
X6756135Y23655918D01*
X7039487Y23938776D01*
X7193025Y24308536D01*
X7193375Y24708907D01*
X7040482Y25078935D01*
X6757624Y25362287D01*
X6387864Y25515825D01*
X5987493Y25516175D01*
X5617465Y25363282D01*
X5416639Y25162806D01*
X5416975Y25547007D01*
X5264082Y25917035D01*
X4981224Y26200387D01*
X4611464Y26353925D01*
X4211093Y26354275D01*
X3841065Y26201382D01*
X3557713Y25918524D01*
X3404175Y25548764D01*
X3403825Y25148393D01*
X2210666Y25148393D01*
X2356225Y25498936D01*
X2356575Y25899307D01*
X2203682Y26269335D01*
X1922815Y26550693D01*
X11743425Y26550693D01*
X11896318Y26180665D01*
X12179176Y25897313D01*
X12548936Y25743775D01*
X12949307Y25743425D01*
X13319335Y25896318D01*
X13602687Y26179176D01*
X13756225Y26548936D01*
X13756575Y26949307D01*
X13603682Y27319335D01*
X13320824Y27602687D01*
X12951064Y27756225D01*
X12550693Y27756575D01*
X12180665Y27603682D01*
X11897313Y27320824D01*
X11743775Y26951064D01*
X11743425Y26550693D01*
X1922815Y26550693D01*
X1920824Y26552687D01*
X1551064Y26706225D01*
X1150693Y26706575D01*
X780665Y26553682D01*
X675000Y26448201D01*
X675000Y28825693D01*
X13718425Y28825693D01*
X13871318Y28455665D01*
X14138019Y28188499D01*
X13948213Y27999024D01*
X13794675Y27629264D01*
X13794325Y27228893D01*
X13947218Y26858865D01*
X14230076Y26575513D01*
X14555268Y26440481D01*
X14554925Y26047793D01*
X14707818Y25677765D01*
X14822380Y25563003D01*
X14599913Y25340924D01*
X14446375Y24971164D01*
X14446025Y24570793D01*
X14598918Y24200765D01*
X14881776Y23917413D01*
X15251536Y23763875D01*
X15651907Y23763525D01*
X16021935Y23916418D01*
X16305287Y24199276D01*
X16458825Y24569036D01*
X16458940Y24700693D01*
X19043425Y24700693D01*
X19196318Y24330665D01*
X19479176Y24047313D01*
X19848936Y23893775D01*
X20249307Y23893425D01*
X20482251Y23989676D01*
X20427975Y23858964D01*
X20427625Y23458593D01*
X20580518Y23088565D01*
X20863376Y22805213D01*
X21233136Y22651675D01*
X21633507Y22651325D01*
X22003535Y22804218D01*
X22286887Y23087076D01*
X22440425Y23456836D01*
X22440775Y23857207D01*
X22287882Y24227235D01*
X22005024Y24510587D01*
X21635264Y24664125D01*
X21234893Y24664475D01*
X21001949Y24568224D01*
X21056225Y24698936D01*
X21056575Y25099307D01*
X20903682Y25469335D01*
X20620824Y25752687D01*
X20251064Y25906225D01*
X19850693Y25906575D01*
X19480665Y25753682D01*
X19197313Y25470824D01*
X19043775Y25101064D01*
X19043425Y24700693D01*
X16458940Y24700693D01*
X16459175Y24969407D01*
X16306282Y25339435D01*
X16191720Y25454197D01*
X16414187Y25676276D01*
X16567725Y26046036D01*
X16568075Y26446407D01*
X16415182Y26816435D01*
X16132324Y27099787D01*
X15807132Y27234819D01*
X15807475Y27627507D01*
X15673937Y27950693D01*
X22293425Y27950693D01*
X22446318Y27580665D01*
X22729176Y27297313D01*
X23098936Y27143775D01*
X23326060Y27143576D01*
X23358418Y27065265D01*
X23641276Y26781913D01*
X24011036Y26628375D01*
X24411407Y26628025D01*
X24775992Y26778669D01*
X24736875Y26684464D01*
X24736525Y26284093D01*
X24889418Y25914065D01*
X25172276Y25630713D01*
X25542036Y25477175D01*
X25942407Y25476825D01*
X26312435Y25629718D01*
X26595787Y25912576D01*
X26749325Y26282336D01*
X26749675Y26682707D01*
X26596782Y27052735D01*
X26313924Y27336087D01*
X25944164Y27489625D01*
X25543793Y27489975D01*
X25179208Y27339331D01*
X25218325Y27433536D01*
X25218675Y27833907D01*
X25067122Y28200693D01*
X32243425Y28200693D01*
X32396318Y27830665D01*
X32679176Y27547313D01*
X33048936Y27393775D01*
X33449307Y27393425D01*
X33819335Y27546318D01*
X34102687Y27829176D01*
X34256225Y28198936D01*
X34256575Y28599307D01*
X34103682Y28969335D01*
X33997510Y29075693D01*
X38818425Y29075693D01*
X38971318Y28705665D01*
X39254176Y28422313D01*
X39623936Y28268775D01*
X40024307Y28268425D01*
X40394335Y28421318D01*
X40677687Y28704176D01*
X40831225Y29073936D01*
X40831575Y29474307D01*
X40678682Y29844335D01*
X40395824Y30127687D01*
X40026064Y30281225D01*
X39625693Y30281575D01*
X39255665Y30128682D01*
X38972313Y29845824D01*
X38818775Y29476064D01*
X38818425Y29075693D01*
X33997510Y29075693D01*
X33820824Y29252687D01*
X33451064Y29406225D01*
X33050693Y29406575D01*
X32680665Y29253682D01*
X32397313Y28970824D01*
X32243775Y28601064D01*
X32243425Y28200693D01*
X25067122Y28200693D01*
X25065782Y28203935D01*
X25028010Y28241773D01*
X25154725Y28546936D01*
X25155075Y28947307D01*
X25002182Y29317335D01*
X24719324Y29600687D01*
X24349564Y29754225D01*
X23949193Y29754575D01*
X23579165Y29601682D01*
X23295813Y29318824D01*
X23228395Y29156463D01*
X23100693Y29156575D01*
X22730665Y29003682D01*
X22447313Y28720824D01*
X22293775Y28351064D01*
X22293425Y27950693D01*
X15673937Y27950693D01*
X15654582Y27997535D01*
X15387881Y28264701D01*
X15577687Y28454176D01*
X15731225Y28823936D01*
X15731442Y29072201D01*
X15791618Y28926565D01*
X16074476Y28643213D01*
X16444236Y28489675D01*
X16844607Y28489325D01*
X17214635Y28642218D01*
X17497987Y28925076D01*
X17651525Y29294836D01*
X17651875Y29695207D01*
X17601171Y29817920D01*
X17831376Y29587313D01*
X18201136Y29433775D01*
X18601507Y29433425D01*
X18900079Y29556793D01*
X19679325Y29556793D01*
X19832218Y29186765D01*
X20115076Y28903413D01*
X20484836Y28749875D01*
X20885207Y28749525D01*
X21255235Y28902418D01*
X21538587Y29185276D01*
X21692125Y29555036D01*
X21692475Y29955407D01*
X21579597Y30228593D01*
X25236625Y30228593D01*
X25389518Y29858565D01*
X25672376Y29575213D01*
X26042136Y29421675D01*
X26442507Y29421325D01*
X26812535Y29574218D01*
X27095887Y29857076D01*
X27249425Y30226836D01*
X27249775Y30627207D01*
X27096882Y30997235D01*
X26814024Y31280587D01*
X26444264Y31434125D01*
X26043893Y31434475D01*
X25673865Y31281582D01*
X25390513Y30998724D01*
X25236975Y30628964D01*
X25236625Y30228593D01*
X21579597Y30228593D01*
X21539582Y30325435D01*
X21256724Y30608787D01*
X20886964Y30762325D01*
X20486593Y30762675D01*
X20116565Y30609782D01*
X19833213Y30326924D01*
X19679675Y29957164D01*
X19679325Y29556793D01*
X18900079Y29556793D01*
X18971535Y29586318D01*
X19254887Y29869176D01*
X19408425Y30238936D01*
X19408775Y30639307D01*
X19255882Y31009335D01*
X18973024Y31292687D01*
X18603264Y31446225D01*
X18473812Y31446338D01*
X18537425Y31599536D01*
X18537775Y31999907D01*
X18384882Y32369935D01*
X18102024Y32653287D01*
X17732264Y32806825D01*
X17331893Y32807175D01*
X16961865Y32654282D01*
X16678513Y32371424D01*
X16524975Y32001664D01*
X16524625Y31601293D01*
X16677518Y31231265D01*
X16960376Y30947913D01*
X17330136Y30794375D01*
X17459588Y30794262D01*
X17395975Y30641064D01*
X17395625Y30240693D01*
X17446329Y30117980D01*
X17216124Y30348587D01*
X16846364Y30502125D01*
X16445993Y30502475D01*
X16075965Y30349582D01*
X15792613Y30066724D01*
X15639075Y29696964D01*
X15638858Y29448699D01*
X15578682Y29594335D01*
X15295824Y29877687D01*
X14926064Y30031225D01*
X14525693Y30031575D01*
X14155665Y29878682D01*
X13872313Y29595824D01*
X13718775Y29226064D01*
X13718425Y28825693D01*
X675000Y28825693D01*
X675000Y30400693D01*
X2093425Y30400693D01*
X2246318Y30030665D01*
X2529176Y29747313D01*
X2898936Y29593775D01*
X3299307Y29593425D01*
X3669335Y29746318D01*
X3952687Y30029176D01*
X4106225Y30398936D01*
X4106575Y30799307D01*
X3953682Y31169335D01*
X3670824Y31452687D01*
X3301064Y31606225D01*
X2900693Y31606575D01*
X2530665Y31453682D01*
X2247313Y31170824D01*
X2093775Y30801064D01*
X2093425Y30400693D01*
X675000Y30400693D01*
X675000Y31677248D01*
X715788Y31546262D01*
X1228521Y31376055D01*
X1767360Y31415018D01*
X2084212Y31546262D01*
X2155860Y31776351D01*
X5944140Y31776351D01*
X6015788Y31546262D01*
X6528521Y31376055D01*
X7067360Y31415018D01*
X7384212Y31546262D01*
X7455860Y31776351D01*
X6700000Y32532211D01*
X5944140Y31776351D01*
X2155860Y31776351D01*
X1400000Y32532211D01*
X1385858Y32518069D01*
X1168069Y32735858D01*
X1182211Y32750000D01*
X1617789Y32750000D01*
X2373649Y31994140D01*
X2603738Y32065788D01*
X2773945Y32578521D01*
X2749146Y32921479D01*
X5326055Y32921479D01*
X5365018Y32382640D01*
X5496262Y32065788D01*
X5726351Y31994140D01*
X6482211Y32750000D01*
X6917789Y32750000D01*
X7673649Y31994140D01*
X7903738Y32065788D01*
X8073945Y32578521D01*
X8035855Y33105293D01*
X9164125Y33105293D01*
X9317018Y32735265D01*
X9599876Y32451913D01*
X9865911Y32341445D01*
X9865625Y32014393D01*
X10018518Y31644365D01*
X10301376Y31361013D01*
X10671136Y31207475D01*
X11071507Y31207125D01*
X11141047Y31235858D01*
X11379176Y30997313D01*
X11748936Y30843775D01*
X12149307Y30843425D01*
X12519335Y30996318D01*
X12802687Y31279176D01*
X12956225Y31648936D01*
X12956575Y32049307D01*
X12803682Y32419335D01*
X12783961Y32439091D01*
X12864887Y32519876D01*
X13018425Y32889636D01*
X13018775Y33290007D01*
X12984899Y33371993D01*
X13363125Y33371993D01*
X13516018Y33001965D01*
X13798876Y32718613D01*
X14168636Y32565075D01*
X14569007Y32564725D01*
X14939035Y32717618D01*
X15222387Y33000476D01*
X15375925Y33370236D01*
X15376275Y33770607D01*
X15232306Y34119038D01*
X15263776Y34087513D01*
X15633536Y33933975D01*
X16033907Y33933625D01*
X16403935Y34086518D01*
X16687287Y34369376D01*
X16840825Y34739136D01*
X16841119Y35075693D01*
X20218425Y35075693D01*
X20371318Y34705665D01*
X20654176Y34422313D01*
X20893707Y34322851D01*
X20893425Y34000693D01*
X21046318Y33630665D01*
X21254840Y33421779D01*
X21030693Y33421975D01*
X20660665Y33269082D01*
X20377313Y32986224D01*
X20223775Y32616464D01*
X20223425Y32216093D01*
X20376318Y31846065D01*
X20659176Y31562713D01*
X21028936Y31409175D01*
X21429307Y31408825D01*
X21799335Y31561718D01*
X22082687Y31844576D01*
X22236225Y32214336D01*
X22236575Y32614707D01*
X22083682Y32984735D01*
X21875160Y33193621D01*
X22099307Y33193425D01*
X22469335Y33346318D01*
X22551553Y33428393D01*
X27814225Y33428393D01*
X27967118Y33058365D01*
X28249976Y32775013D01*
X28619736Y32621475D01*
X28876250Y32621251D01*
X28996318Y32330665D01*
X29279176Y32047313D01*
X29648936Y31893775D01*
X30049307Y31893425D01*
X30419335Y32046318D01*
X30702687Y32329176D01*
X30856225Y32698936D01*
X30856575Y33099307D01*
X30763034Y33325693D01*
X31068425Y33325693D01*
X31221318Y32955665D01*
X31504176Y32672313D01*
X31708474Y32587481D01*
X31505665Y32503682D01*
X31222313Y32220824D01*
X31068775Y31851064D01*
X31068425Y31450693D01*
X31221318Y31080665D01*
X31504176Y30797313D01*
X31873936Y30643775D01*
X32274307Y30643425D01*
X32644335Y30796318D01*
X32927687Y31079176D01*
X33081225Y31448936D01*
X33081257Y31485893D01*
X38296025Y31485893D01*
X38448918Y31115865D01*
X38731776Y30832513D01*
X39101536Y30678975D01*
X39501907Y30678625D01*
X39871935Y30831518D01*
X40155287Y31114376D01*
X40308825Y31484136D01*
X40308972Y31651996D01*
X40354176Y31606713D01*
X40723936Y31453175D01*
X41124307Y31452825D01*
X41494335Y31605718D01*
X41665266Y31776351D01*
X42444140Y31776351D01*
X42515788Y31546262D01*
X43028521Y31376055D01*
X43567360Y31415018D01*
X43884212Y31546262D01*
X43955860Y31776351D01*
X43200000Y32532211D01*
X42444140Y31776351D01*
X41665266Y31776351D01*
X41777687Y31888576D01*
X41923857Y32240591D01*
X41996262Y32065788D01*
X42226351Y31994140D01*
X42982211Y32750000D01*
X43417789Y32750000D01*
X44173649Y31994140D01*
X44403738Y32065788D01*
X44573945Y32578521D01*
X44549146Y32921479D01*
X47126055Y32921479D01*
X47165018Y32382640D01*
X47296262Y32065788D01*
X47526351Y31994140D01*
X48282211Y32750000D01*
X47526351Y33505860D01*
X47296262Y33434212D01*
X47126055Y32921479D01*
X44549146Y32921479D01*
X44534982Y33117360D01*
X44403738Y33434212D01*
X44173649Y33505860D01*
X43417789Y32750000D01*
X42982211Y32750000D01*
X42226351Y33505860D01*
X41996262Y33434212D01*
X41826055Y32921479D01*
X41826703Y32912515D01*
X41778682Y33028735D01*
X41495824Y33312087D01*
X41126064Y33465625D01*
X40725693Y33465975D01*
X40355665Y33313082D01*
X40072313Y33030224D01*
X39918775Y32660464D01*
X39918628Y32492604D01*
X39873424Y32537887D01*
X39503664Y32691425D01*
X39103293Y32691775D01*
X38733265Y32538882D01*
X38449913Y32256024D01*
X38296375Y31886264D01*
X38296025Y31485893D01*
X33081257Y31485893D01*
X33081575Y31849307D01*
X32928682Y32219335D01*
X32645824Y32502687D01*
X32441526Y32587519D01*
X32644335Y32671318D01*
X32927687Y32954176D01*
X33081225Y33323936D01*
X33081575Y33724307D01*
X32928682Y34094335D01*
X32645824Y34377687D01*
X32349594Y34500693D01*
X34793425Y34500693D01*
X34946318Y34130665D01*
X35229176Y33847313D01*
X35598936Y33693775D01*
X35999307Y33693425D01*
X36072454Y33723649D01*
X42444140Y33723649D01*
X43200000Y32967789D01*
X43955860Y33723649D01*
X43884212Y33953738D01*
X43371479Y34123945D01*
X42832640Y34084982D01*
X42515788Y33953738D01*
X42444140Y33723649D01*
X36072454Y33723649D01*
X36369335Y33846318D01*
X36652687Y34129176D01*
X36782607Y34442058D01*
X44149818Y34442058D01*
X44309334Y34056000D01*
X44604446Y33760372D01*
X44990226Y33600182D01*
X45407942Y33599818D01*
X45794000Y33759334D01*
X46089628Y34054446D01*
X46249818Y34440226D01*
X46250182Y34857942D01*
X46090666Y35244000D01*
X45795554Y35539628D01*
X45409774Y35699818D01*
X44992058Y35700182D01*
X44606000Y35540666D01*
X44310372Y35245554D01*
X44150182Y34859774D01*
X44149818Y34442058D01*
X36782607Y34442058D01*
X36806225Y34498936D01*
X36806575Y34899307D01*
X36653682Y35269335D01*
X36370824Y35552687D01*
X36001064Y35706225D01*
X35600693Y35706575D01*
X35230665Y35553682D01*
X34947313Y35270824D01*
X34793775Y34901064D01*
X34793425Y34500693D01*
X32349594Y34500693D01*
X32276064Y34531225D01*
X31875693Y34531575D01*
X31505665Y34378682D01*
X31222313Y34095824D01*
X31068775Y33726064D01*
X31068425Y33325693D01*
X30763034Y33325693D01*
X30703682Y33469335D01*
X30420824Y33752687D01*
X30051064Y33906225D01*
X29794550Y33906449D01*
X29674482Y34197035D01*
X29391624Y34480387D01*
X29021864Y34633925D01*
X28621493Y34634275D01*
X28251465Y34481382D01*
X27968113Y34198524D01*
X27814575Y33828764D01*
X27814225Y33428393D01*
X22551553Y33428393D01*
X22752687Y33629176D01*
X22906225Y33998936D01*
X22906575Y34399307D01*
X22753682Y34769335D01*
X22470824Y35052687D01*
X22231293Y35152149D01*
X22231575Y35474307D01*
X22213236Y35518693D01*
X24093225Y35518693D01*
X24246118Y35148665D01*
X24528976Y34865313D01*
X24898736Y34711775D01*
X25299107Y34711425D01*
X25669135Y34864318D01*
X25952487Y35147176D01*
X26106025Y35516936D01*
X26106262Y35788093D01*
X32518425Y35788093D01*
X32671318Y35418065D01*
X32954176Y35134713D01*
X33323936Y34981175D01*
X33724307Y34980825D01*
X34094335Y35133718D01*
X34377687Y35416576D01*
X34529836Y35782991D01*
X34815736Y35664275D01*
X35216107Y35663925D01*
X35586135Y35816818D01*
X35595025Y35825693D01*
X39868425Y35825693D01*
X40021318Y35455665D01*
X40304176Y35172313D01*
X40673936Y35018775D01*
X41074307Y35018425D01*
X41444335Y35171318D01*
X41727687Y35454176D01*
X41881225Y35823936D01*
X41881575Y36224307D01*
X41728682Y36594335D01*
X41445824Y36877687D01*
X41076064Y37031225D01*
X40675693Y37031575D01*
X40305665Y36878682D01*
X40022313Y36595824D01*
X39868775Y36226064D01*
X39868425Y35825693D01*
X35595025Y35825693D01*
X35869487Y36099676D01*
X36023025Y36469436D01*
X36023375Y36869807D01*
X35870482Y37239835D01*
X35587624Y37523187D01*
X35217864Y37676725D01*
X34817493Y37677075D01*
X34447465Y37524182D01*
X34164113Y37241324D01*
X34011964Y36874909D01*
X33726064Y36993625D01*
X33325693Y36993975D01*
X32955665Y36841082D01*
X32672313Y36558224D01*
X32518775Y36188464D01*
X32518425Y35788093D01*
X26106262Y35788093D01*
X26106375Y35917307D01*
X25953482Y36287335D01*
X25670624Y36570687D01*
X25300864Y36724225D01*
X24900493Y36724575D01*
X24530465Y36571682D01*
X24247113Y36288824D01*
X24093575Y35919064D01*
X24093225Y35518693D01*
X22213236Y35518693D01*
X22078682Y35844335D01*
X21795824Y36127687D01*
X21426064Y36281225D01*
X21025693Y36281575D01*
X20655665Y36128682D01*
X20372313Y35845824D01*
X20218775Y35476064D01*
X20218425Y35075693D01*
X16841119Y35075693D01*
X16841175Y35139507D01*
X16688282Y35509535D01*
X16405424Y35792887D01*
X16035664Y35946425D01*
X15635293Y35946775D01*
X15265265Y35793882D01*
X14981913Y35511024D01*
X14828375Y35141264D01*
X14828025Y34740893D01*
X14971994Y34392462D01*
X14940524Y34423987D01*
X14570764Y34577525D01*
X14170393Y34577875D01*
X13800365Y34424982D01*
X13517013Y34142124D01*
X13363475Y33772364D01*
X13363125Y33371993D01*
X12984899Y33371993D01*
X12865882Y33660035D01*
X12583024Y33943387D01*
X12213264Y34096925D01*
X11812893Y34097275D01*
X11442865Y33944382D01*
X11159513Y33661524D01*
X11135772Y33604350D01*
X11024382Y33873935D01*
X10741524Y34157287D01*
X10371764Y34310825D01*
X9971393Y34311175D01*
X9601365Y34158282D01*
X9318013Y33875424D01*
X9164475Y33505664D01*
X9164125Y33105293D01*
X8035855Y33105293D01*
X8034982Y33117360D01*
X7903738Y33434212D01*
X7673649Y33505860D01*
X6917789Y32750000D01*
X6482211Y32750000D01*
X5726351Y33505860D01*
X5496262Y33434212D01*
X5326055Y32921479D01*
X2749146Y32921479D01*
X2734982Y33117360D01*
X2603738Y33434212D01*
X2373649Y33505860D01*
X1617789Y32750000D01*
X1182211Y32750000D01*
X1168069Y32764142D01*
X1385858Y32981931D01*
X1400000Y32967789D01*
X2155860Y33723649D01*
X2084212Y33953738D01*
X1571479Y34123945D01*
X1032640Y34084982D01*
X715788Y33953738D01*
X675000Y33822752D01*
X675000Y34442058D01*
X3649818Y34442058D01*
X3809334Y34056000D01*
X4104446Y33760372D01*
X4490226Y33600182D01*
X4907942Y33599818D01*
X5207635Y33723649D01*
X5944140Y33723649D01*
X6700000Y32967789D01*
X7455860Y33723649D01*
X7384212Y33953738D01*
X6871479Y34123945D01*
X6332640Y34084982D01*
X6015788Y33953738D01*
X5944140Y33723649D01*
X5207635Y33723649D01*
X5294000Y33759334D01*
X5589628Y34054446D01*
X5749818Y34440226D01*
X5750182Y34857942D01*
X5590666Y35244000D01*
X5295554Y35539628D01*
X4909774Y35699818D01*
X4492058Y35700182D01*
X4106000Y35540666D01*
X3810372Y35245554D01*
X3650182Y34859774D01*
X3649818Y34442058D01*
X675000Y34442058D01*
X675000Y36625693D01*
X8018425Y36625693D01*
X8171318Y36255665D01*
X8454176Y35972313D01*
X8823936Y35818775D01*
X9224307Y35818425D01*
X9594335Y35971318D01*
X9877687Y36254176D01*
X10031225Y36623936D01*
X10031575Y37024307D01*
X9878682Y37394335D01*
X9595824Y37677687D01*
X9226064Y37831225D01*
X8825693Y37831575D01*
X8455665Y37678682D01*
X8172313Y37395824D01*
X8018775Y37026064D01*
X8018425Y36625693D01*
X675000Y36625693D01*
X675000Y37942058D01*
X3649818Y37942058D01*
X3809334Y37556000D01*
X4104446Y37260372D01*
X4490226Y37100182D01*
X4907942Y37099818D01*
X5294000Y37259334D01*
X5589628Y37554446D01*
X5749818Y37940226D01*
X5750182Y38357942D01*
X5656946Y38583593D01*
X12006425Y38583593D01*
X12159318Y38213565D01*
X12442176Y37930213D01*
X12811936Y37776675D01*
X13212307Y37776325D01*
X13582335Y37929218D01*
X13595197Y37942058D01*
X44149818Y37942058D01*
X44309334Y37556000D01*
X44604446Y37260372D01*
X44990226Y37100182D01*
X45407942Y37099818D01*
X45794000Y37259334D01*
X46089628Y37554446D01*
X46249818Y37940226D01*
X46250182Y38357942D01*
X46090666Y38744000D01*
X45795554Y39039628D01*
X45409774Y39199818D01*
X44992058Y39200182D01*
X44606000Y39040666D01*
X44310372Y38745554D01*
X44150182Y38359774D01*
X44149818Y37942058D01*
X13595197Y37942058D01*
X13865687Y38212076D01*
X14019225Y38581836D01*
X14019575Y38982207D01*
X13866682Y39352235D01*
X13583824Y39635587D01*
X13214064Y39789125D01*
X12813693Y39789475D01*
X12443665Y39636582D01*
X12160313Y39353724D01*
X12006775Y38983964D01*
X12006425Y38583593D01*
X5656946Y38583593D01*
X5604374Y38710825D01*
X5723925Y38998736D01*
X5723988Y39070655D01*
X5831217Y38963426D01*
X5944140Y39076349D01*
X6015788Y38846262D01*
X6528521Y38676055D01*
X7067360Y38715018D01*
X7384212Y38846262D01*
X7455860Y39076351D01*
X6700000Y39832211D01*
X6685858Y39818069D01*
X6468069Y40035858D01*
X6482211Y40050000D01*
X6917789Y40050000D01*
X7673649Y39294140D01*
X7903738Y39365788D01*
X8073945Y39878521D01*
X8034982Y40417360D01*
X7970621Y40572744D01*
X14679757Y40572744D01*
X14892445Y40058000D01*
X15285928Y39663830D01*
X15800301Y39450243D01*
X16357256Y39449757D01*
X16872000Y39662445D01*
X17266170Y40055928D01*
X17349942Y40257673D01*
X17432445Y40058000D01*
X17825928Y39663830D01*
X18340301Y39450243D01*
X18897256Y39449757D01*
X19412000Y39662445D01*
X19589896Y39840031D01*
X20367820Y39840031D01*
X20445643Y39604771D01*
X20976548Y39426185D01*
X21535382Y39464363D01*
X21639527Y39507501D01*
X21639225Y39162593D01*
X21792118Y38792565D01*
X22074976Y38509213D01*
X22444736Y38355675D01*
X22845107Y38355325D01*
X23215135Y38508218D01*
X23498487Y38791076D01*
X23616943Y39076351D01*
X42444140Y39076351D01*
X42515788Y38846262D01*
X43028521Y38676055D01*
X43567360Y38715018D01*
X43884212Y38846262D01*
X43955860Y39076351D01*
X43200000Y39832211D01*
X42444140Y39076351D01*
X23616943Y39076351D01*
X23652025Y39160836D01*
X23652278Y39450041D01*
X23977256Y39449757D01*
X24492000Y39662445D01*
X24886170Y40055928D01*
X24954912Y40221479D01*
X41826055Y40221479D01*
X41865018Y39682640D01*
X41996262Y39365788D01*
X42226351Y39294140D01*
X42982211Y40050000D01*
X43417789Y40050000D01*
X44173649Y39294140D01*
X44403738Y39365788D01*
X44573945Y39878521D01*
X44549146Y40221479D01*
X47126055Y40221479D01*
X47165018Y39682640D01*
X47296262Y39365788D01*
X47526351Y39294140D01*
X48282211Y40050000D01*
X47526351Y40805860D01*
X47296262Y40734212D01*
X47126055Y40221479D01*
X44549146Y40221479D01*
X44534982Y40417360D01*
X44403738Y40734212D01*
X44173649Y40805860D01*
X43417789Y40050000D01*
X42982211Y40050000D01*
X42226351Y40805860D01*
X41996262Y40734212D01*
X41826055Y40221479D01*
X24954912Y40221479D01*
X25099757Y40570301D01*
X25100243Y41127256D01*
X24887555Y41642000D01*
X24494072Y42036170D01*
X23979699Y42249757D01*
X23422744Y42250243D01*
X22908000Y42037555D01*
X22513830Y41644072D01*
X22442933Y41473333D01*
X22405229Y41564357D01*
X22169969Y41642180D01*
X21377789Y40850000D01*
X21391931Y40835858D01*
X21174142Y40618069D01*
X21160000Y40632211D01*
X20367820Y39840031D01*
X19589896Y39840031D01*
X19806170Y40055928D01*
X19877067Y40226667D01*
X19914771Y40135643D01*
X20150031Y40057820D01*
X20942211Y40850000D01*
X20150031Y41642180D01*
X19914771Y41564357D01*
X19881053Y41464120D01*
X19807555Y41642000D01*
X19589966Y41859969D01*
X20367820Y41859969D01*
X21160000Y41067789D01*
X21952180Y41859969D01*
X21874357Y42095229D01*
X21343452Y42273815D01*
X20784618Y42235637D01*
X20445643Y42095229D01*
X20367820Y41859969D01*
X19589966Y41859969D01*
X19414072Y42036170D01*
X18899699Y42249757D01*
X18342744Y42250243D01*
X17828000Y42037555D01*
X17433830Y41644072D01*
X17350058Y41442327D01*
X17267555Y41642000D01*
X16874072Y42036170D01*
X16359699Y42249757D01*
X15802744Y42250243D01*
X15288000Y42037555D01*
X14893830Y41644072D01*
X14680243Y41129699D01*
X14679757Y40572744D01*
X7970621Y40572744D01*
X7903738Y40734212D01*
X7673649Y40805860D01*
X6917789Y40050000D01*
X6482211Y40050000D01*
X5726351Y40805860D01*
X5496262Y40734212D01*
X5326055Y40221479D01*
X5342160Y39998758D01*
X5288524Y40052487D01*
X4918764Y40206025D01*
X4518393Y40206375D01*
X4148365Y40053482D01*
X3865013Y39770624D01*
X3711475Y39400864D01*
X3711125Y39000493D01*
X3814685Y38749859D01*
X3810372Y38745554D01*
X3650182Y38359774D01*
X3649818Y37942058D01*
X675000Y37942058D01*
X675000Y38977248D01*
X715788Y38846262D01*
X1228521Y38676055D01*
X1767360Y38715018D01*
X2084212Y38846262D01*
X2155860Y39076351D01*
X1400000Y39832211D01*
X1385858Y39818069D01*
X1168069Y40035858D01*
X1182211Y40050000D01*
X1617789Y40050000D01*
X2373649Y39294140D01*
X2603738Y39365788D01*
X2773945Y39878521D01*
X2734982Y40417360D01*
X2603738Y40734212D01*
X2373649Y40805860D01*
X1617789Y40050000D01*
X1182211Y40050000D01*
X1168069Y40064142D01*
X1385858Y40281931D01*
X1400000Y40267789D01*
X2155860Y41023649D01*
X5944140Y41023649D01*
X6700000Y40267789D01*
X7455860Y41023649D01*
X7384212Y41253738D01*
X6871479Y41423945D01*
X6332640Y41384982D01*
X6015788Y41253738D01*
X5944140Y41023649D01*
X2155860Y41023649D01*
X2084212Y41253738D01*
X2019038Y41275373D01*
X2102687Y41358876D01*
X2256225Y41728636D01*
X2256575Y42129007D01*
X2103682Y42499035D01*
X1820824Y42782387D01*
X1451064Y42935925D01*
X1050693Y42936275D01*
X680665Y42783382D01*
X675000Y42777727D01*
X675000Y45662000D01*
X3326246Y45662000D01*
X3326246Y44138000D01*
X3368083Y43915654D01*
X3499490Y43711442D01*
X3699993Y43574444D01*
X3938000Y43526246D01*
X5462000Y43526246D01*
X5684346Y43568083D01*
X5888558Y43699490D01*
X6025556Y43899993D01*
X6073754Y44138000D01*
X6073754Y44155938D01*
X6084679Y44129497D01*
X6467482Y43746026D01*
X6967893Y43538237D01*
X7509730Y43537764D01*
X8010503Y43744679D01*
X8393974Y44127482D01*
X8510029Y44406972D01*
X8624679Y44129497D01*
X9007482Y43746026D01*
X9507893Y43538237D01*
X10049730Y43537764D01*
X10550503Y43744679D01*
X10933974Y44127482D01*
X11050029Y44406972D01*
X11164679Y44129497D01*
X11547482Y43746026D01*
X12047893Y43538237D01*
X12589730Y43537764D01*
X13090503Y43744679D01*
X13473974Y44127482D01*
X13590029Y44406972D01*
X13704679Y44129497D01*
X14087482Y43746026D01*
X14587893Y43538237D01*
X15129730Y43537764D01*
X15630503Y43744679D01*
X16013974Y44127482D01*
X16130029Y44406972D01*
X16244679Y44129497D01*
X16627482Y43746026D01*
X17127893Y43538237D01*
X17669730Y43537764D01*
X18170503Y43744679D01*
X18553974Y44127482D01*
X18670029Y44406972D01*
X18784679Y44129497D01*
X19167482Y43746026D01*
X19667893Y43538237D01*
X20209730Y43537764D01*
X20710503Y43744679D01*
X21093974Y44127482D01*
X21210029Y44406972D01*
X21324679Y44129497D01*
X21707482Y43746026D01*
X22207893Y43538237D01*
X22749730Y43537764D01*
X23250503Y43744679D01*
X23633974Y44127482D01*
X23750029Y44406972D01*
X23864679Y44129497D01*
X24247482Y43746026D01*
X24747893Y43538237D01*
X25289730Y43537764D01*
X25790503Y43744679D01*
X26173974Y44127482D01*
X26290029Y44406972D01*
X26404679Y44129497D01*
X26787482Y43746026D01*
X27287893Y43538237D01*
X27829730Y43537764D01*
X27884580Y43560427D01*
X27884425Y43383393D01*
X28037318Y43013365D01*
X28320176Y42730013D01*
X28689936Y42576475D01*
X29090307Y42576125D01*
X29460335Y42729018D01*
X29743687Y43011876D01*
X29897225Y43381636D01*
X29897362Y43538176D01*
X30369730Y43537764D01*
X30870503Y43744679D01*
X31253974Y44127482D01*
X31370029Y44406972D01*
X31484679Y44129497D01*
X31867482Y43746026D01*
X32367893Y43538237D01*
X32909730Y43537764D01*
X33410503Y43744679D01*
X33793974Y44127482D01*
X33910029Y44406972D01*
X34024679Y44129497D01*
X34407482Y43746026D01*
X34749964Y43603815D01*
X34689775Y43458864D01*
X34689425Y43058493D01*
X34842318Y42688465D01*
X35125176Y42405113D01*
X35131361Y42402545D01*
X34933965Y42320982D01*
X34650613Y42038124D01*
X34497075Y41668364D01*
X34496725Y41267993D01*
X34649618Y40897965D01*
X34932476Y40614613D01*
X35302236Y40461075D01*
X35702607Y40460725D01*
X36072635Y40613618D01*
X36355987Y40896476D01*
X36408793Y41023649D01*
X42444140Y41023649D01*
X43200000Y40267789D01*
X43955860Y41023649D01*
X43884212Y41253738D01*
X43371479Y41423945D01*
X42832640Y41384982D01*
X42515788Y41253738D01*
X42444140Y41023649D01*
X36408793Y41023649D01*
X36509525Y41266236D01*
X36509875Y41666607D01*
X36356982Y42036635D01*
X36074124Y42319987D01*
X36067939Y42322555D01*
X36265335Y42404118D01*
X36548687Y42686976D01*
X36702225Y43056736D01*
X36702575Y43457107D01*
X36549682Y43827135D01*
X36291843Y44085424D01*
X36333974Y44127482D01*
X36450029Y44406972D01*
X36564679Y44129497D01*
X36947482Y43746026D01*
X37447893Y43538237D01*
X37989730Y43537764D01*
X38490503Y43744679D01*
X38873974Y44127482D01*
X38990029Y44406972D01*
X39104679Y44129497D01*
X39487482Y43746026D01*
X39987893Y43538237D01*
X40529730Y43537764D01*
X41030503Y43744679D01*
X41413974Y44127482D01*
X41530029Y44406972D01*
X41644679Y44129497D01*
X42027482Y43746026D01*
X42527893Y43538237D01*
X43069730Y43537764D01*
X43570503Y43744679D01*
X43743757Y43917632D01*
X44575421Y43917632D01*
X44648551Y43686302D01*
X45165647Y43514083D01*
X45709287Y43552858D01*
X46031449Y43686302D01*
X46104579Y43917632D01*
X45340000Y44682211D01*
X44575421Y43917632D01*
X43743757Y43917632D01*
X43953974Y44127482D01*
X44057055Y44375728D01*
X44126302Y44208551D01*
X44357632Y44135421D01*
X45122211Y44900000D01*
X45557789Y44900000D01*
X46322368Y44135421D01*
X46553698Y44208551D01*
X46725917Y44725647D01*
X46687142Y45269287D01*
X46553698Y45591449D01*
X46322368Y45664579D01*
X45557789Y44900000D01*
X45122211Y44900000D01*
X44357632Y45664579D01*
X44126302Y45591449D01*
X44064571Y45406098D01*
X43955321Y45670503D01*
X43572518Y46053974D01*
X43293028Y46170029D01*
X43570503Y46284679D01*
X43743757Y46457632D01*
X44575421Y46457632D01*
X44648551Y46226302D01*
X44799239Y46176115D01*
X44648551Y46113698D01*
X44575421Y45882368D01*
X45340000Y45117789D01*
X46104579Y45882368D01*
X46031449Y46113698D01*
X45880761Y46163885D01*
X46031449Y46226302D01*
X46104579Y46457632D01*
X45340000Y47222211D01*
X44575421Y46457632D01*
X43743757Y46457632D01*
X43953974Y46667482D01*
X44057055Y46915728D01*
X44126302Y46748551D01*
X44357632Y46675421D01*
X45122211Y47440000D01*
X45557789Y47440000D01*
X46322368Y46675421D01*
X46553698Y46748551D01*
X46725917Y47265647D01*
X46687142Y47809287D01*
X46553698Y48131449D01*
X46322368Y48204579D01*
X45557789Y47440000D01*
X45122211Y47440000D01*
X44357632Y48204579D01*
X44126302Y48131449D01*
X44064571Y47946098D01*
X43955321Y48210503D01*
X43743826Y48422368D01*
X44575421Y48422368D01*
X45340000Y47657789D01*
X46104579Y48422368D01*
X46031449Y48653698D01*
X45514353Y48825917D01*
X44970713Y48787142D01*
X44648551Y48653698D01*
X44575421Y48422368D01*
X43743826Y48422368D01*
X43572518Y48593974D01*
X43072107Y48801763D01*
X42530270Y48802236D01*
X42029497Y48595321D01*
X41646026Y48212518D01*
X41529971Y47933028D01*
X41415321Y48210503D01*
X41032518Y48593974D01*
X40532107Y48801763D01*
X39990270Y48802236D01*
X39489497Y48595321D01*
X39106026Y48212518D01*
X38989971Y47933028D01*
X38875321Y48210503D01*
X38492518Y48593974D01*
X37992107Y48801763D01*
X37450270Y48802236D01*
X36949497Y48595321D01*
X36566026Y48212518D01*
X36449971Y47933028D01*
X36335321Y48210503D01*
X35952518Y48593974D01*
X35452107Y48801763D01*
X34910270Y48802236D01*
X34409497Y48595321D01*
X34026026Y48212518D01*
X33909971Y47933028D01*
X33795321Y48210503D01*
X33412518Y48593974D01*
X32912107Y48801763D01*
X32370270Y48802236D01*
X31869497Y48595321D01*
X31486026Y48212518D01*
X31369971Y47933028D01*
X31255321Y48210503D01*
X30872518Y48593974D01*
X30372107Y48801763D01*
X29830270Y48802236D01*
X29329497Y48595321D01*
X28946026Y48212518D01*
X28829971Y47933028D01*
X28715321Y48210503D01*
X28332518Y48593974D01*
X27832107Y48801763D01*
X27290270Y48802236D01*
X26789497Y48595321D01*
X26406026Y48212518D01*
X26289971Y47933028D01*
X26175321Y48210503D01*
X25792518Y48593974D01*
X25292107Y48801763D01*
X24750270Y48802236D01*
X24249497Y48595321D01*
X23866026Y48212518D01*
X23749971Y47933028D01*
X23635321Y48210503D01*
X23252518Y48593974D01*
X22752107Y48801763D01*
X22210270Y48802236D01*
X21709497Y48595321D01*
X21326026Y48212518D01*
X21209971Y47933028D01*
X21095321Y48210503D01*
X20712518Y48593974D01*
X20212107Y48801763D01*
X19670270Y48802236D01*
X19169497Y48595321D01*
X18786026Y48212518D01*
X18669971Y47933028D01*
X18555321Y48210503D01*
X18172518Y48593974D01*
X17672107Y48801763D01*
X17130270Y48802236D01*
X16629497Y48595321D01*
X16246026Y48212518D01*
X16129971Y47933028D01*
X16015321Y48210503D01*
X15632518Y48593974D01*
X15132107Y48801763D01*
X14590270Y48802236D01*
X14089497Y48595321D01*
X13706026Y48212518D01*
X13589971Y47933028D01*
X13475321Y48210503D01*
X13092518Y48593974D01*
X12592107Y48801763D01*
X12050270Y48802236D01*
X11549497Y48595321D01*
X11166026Y48212518D01*
X11049971Y47933028D01*
X10935321Y48210503D01*
X10552518Y48593974D01*
X10052107Y48801763D01*
X9510270Y48802236D01*
X9009497Y48595321D01*
X8626026Y48212518D01*
X8509971Y47933028D01*
X8395321Y48210503D01*
X8012518Y48593974D01*
X7512107Y48801763D01*
X6970270Y48802236D01*
X6469497Y48595321D01*
X6086026Y48212518D01*
X5969971Y47933028D01*
X5855321Y48210503D01*
X5472518Y48593974D01*
X4972107Y48801763D01*
X4430270Y48802236D01*
X3929497Y48595321D01*
X3546026Y48212518D01*
X3338237Y47712107D01*
X3337764Y47170270D01*
X3544679Y46669497D01*
X3927482Y46286026D01*
X3957036Y46273754D01*
X3938000Y46273754D01*
X3715654Y46231917D01*
X3511442Y46100510D01*
X3374444Y45900007D01*
X3326246Y45662000D01*
X675000Y45662000D01*
X675000Y49325000D01*
X49325000Y49325000D01*
X49325000Y41092791D01*
M02*
