G04 #@! TF.FileFunction,Copper,L1,Top,Signal*
%FSLAX46Y46*%
G04 Gerber Fmt 4.6, Leading zero omitted, Abs format (unit mm)*
G04 Created by KiCad (PCBNEW 4.0.7) date 04/11/18 17:00:27*
%MOMM*%
%LPD*%
G01*
G04 APERTURE LIST*
%ADD10C,0.100000*%
%ADD11C,0.203200*%
%ADD12R,1.000000X0.700000*%
%ADD13C,1.524000*%
%ADD14C,1.600000*%
%ADD15C,3.600000*%
%ADD16C,2.000000*%
%ADD17R,2.000000X0.500000*%
%ADD18C,1.500000*%
%ADD19R,1.524000X1.524000*%
%ADD20R,0.900000X0.600000*%
%ADD21R,1.000000X1.000000*%
%ADD22R,1.500000X3.200000*%
%ADD23R,0.600000X0.900000*%
%ADD24R,1.600000X1.600000*%
%ADD25C,0.812800*%
%ADD26C,0.177800*%
%ADD27C,0.254000*%
%ADD28C,0.508000*%
G04 APERTURE END LIST*
D10*
D11*
X1296800Y1296800D02*
X484000Y1296800D01*
X1296800Y1296800D02*
X1296800Y484000D01*
X1703200Y1703200D02*
X1703200Y2516000D01*
X1703200Y1703200D02*
X2516000Y1703200D01*
X1703200Y1296800D02*
X1703200Y484000D01*
X1703200Y1296800D02*
X2516000Y1296800D01*
X1296800Y1703200D02*
X484000Y1703200D01*
X1296800Y1703200D02*
X1296800Y2516000D01*
X48296800Y48296800D02*
X47484000Y48296800D01*
X48296800Y48296800D02*
X48296800Y47484000D01*
X48703200Y48703200D02*
X48703200Y49516000D01*
X48703200Y48703200D02*
X49516000Y48703200D01*
X48703200Y48296800D02*
X48703200Y47484000D01*
X48703200Y48296800D02*
X49516000Y48296800D01*
X48296800Y48703200D02*
X47484000Y48703200D01*
X48296800Y48703200D02*
X48296800Y49516000D01*
D10*
G36*
X12272776Y26156282D02*
X11212116Y25095622D01*
X11035340Y25272398D01*
X12096000Y26333058D01*
X12272776Y26156282D01*
X12272776Y26156282D01*
G37*
G36*
X12626330Y25802728D02*
X11565670Y24742068D01*
X11388894Y24918844D01*
X12449554Y25979504D01*
X12626330Y25802728D01*
X12626330Y25802728D01*
G37*
G36*
X12979883Y25449175D02*
X11919223Y24388515D01*
X11742447Y24565291D01*
X12803107Y25625951D01*
X12979883Y25449175D01*
X12979883Y25449175D01*
G37*
G36*
X13333437Y25095622D02*
X12272777Y24034962D01*
X12096001Y24211738D01*
X13156661Y25272398D01*
X13333437Y25095622D01*
X13333437Y25095622D01*
G37*
G36*
X13686990Y24742068D02*
X12626330Y23681408D01*
X12449554Y23858184D01*
X13510214Y24918844D01*
X13686990Y24742068D01*
X13686990Y24742068D01*
G37*
G36*
X14040543Y24388515D02*
X12979883Y23327855D01*
X12803107Y23504631D01*
X13863767Y24565291D01*
X14040543Y24388515D01*
X14040543Y24388515D01*
G37*
G36*
X14394097Y24034961D02*
X13333437Y22974301D01*
X13156661Y23151077D01*
X14217321Y24211737D01*
X14394097Y24034961D01*
X14394097Y24034961D01*
G37*
G36*
X14747650Y23681408D02*
X13686990Y22620748D01*
X13510214Y22797524D01*
X14570874Y23858184D01*
X14747650Y23681408D01*
X14747650Y23681408D01*
G37*
G36*
X15101204Y23327855D02*
X14040544Y22267195D01*
X13863768Y22443971D01*
X14924428Y23504631D01*
X15101204Y23327855D01*
X15101204Y23327855D01*
G37*
G36*
X15454757Y22974301D02*
X14394097Y21913641D01*
X14217321Y22090417D01*
X15277981Y23151077D01*
X15454757Y22974301D01*
X15454757Y22974301D01*
G37*
G36*
X15808310Y22620748D02*
X14747650Y21560088D01*
X14570874Y21736864D01*
X15631534Y22797524D01*
X15808310Y22620748D01*
X15808310Y22620748D01*
G37*
G36*
X16161864Y22267195D02*
X15101204Y21206535D01*
X14924428Y21383311D01*
X15985088Y22443971D01*
X16161864Y22267195D01*
X16161864Y22267195D01*
G37*
G36*
X16515417Y21913641D02*
X15454757Y20852981D01*
X15277981Y21029757D01*
X16338641Y22090417D01*
X16515417Y21913641D01*
X16515417Y21913641D01*
G37*
G36*
X16868971Y21560088D02*
X15808311Y20499428D01*
X15631535Y20676204D01*
X16692195Y21736864D01*
X16868971Y21560088D01*
X16868971Y21560088D01*
G37*
G36*
X17222524Y21206534D02*
X16161864Y20145874D01*
X15985088Y20322650D01*
X17045748Y21383310D01*
X17222524Y21206534D01*
X17222524Y21206534D01*
G37*
G36*
X17576077Y20852981D02*
X16515417Y19792321D01*
X16338641Y19969097D01*
X17399301Y21029757D01*
X17576077Y20852981D01*
X17576077Y20852981D01*
G37*
G36*
X17929631Y20499428D02*
X16868971Y19438768D01*
X16692195Y19615544D01*
X17752855Y20676204D01*
X17929631Y20499428D01*
X17929631Y20499428D01*
G37*
G36*
X18283184Y20145874D02*
X17222524Y19085214D01*
X17045748Y19261990D01*
X18106408Y20322650D01*
X18283184Y20145874D01*
X18283184Y20145874D01*
G37*
G36*
X18636737Y19792321D02*
X17576077Y18731661D01*
X17399301Y18908437D01*
X18459961Y19969097D01*
X18636737Y19792321D01*
X18636737Y19792321D01*
G37*
G36*
X18990291Y19438767D02*
X17929631Y18378107D01*
X17752855Y18554883D01*
X18813515Y19615543D01*
X18990291Y19438767D01*
X18990291Y19438767D01*
G37*
G36*
X19343844Y19085214D02*
X18283184Y18024554D01*
X18106408Y18201330D01*
X19167068Y19261990D01*
X19343844Y19085214D01*
X19343844Y19085214D01*
G37*
G36*
X19697398Y18731661D02*
X18636738Y17671001D01*
X18459962Y17847777D01*
X19520622Y18908437D01*
X19697398Y18731661D01*
X19697398Y18731661D01*
G37*
G36*
X20050951Y18378107D02*
X18990291Y17317447D01*
X18813515Y17494223D01*
X19874175Y18554883D01*
X20050951Y18378107D01*
X20050951Y18378107D01*
G37*
G36*
X20404504Y18024554D02*
X19343844Y16963894D01*
X19167068Y17140670D01*
X20227728Y18201330D01*
X20404504Y18024554D01*
X20404504Y18024554D01*
G37*
G36*
X20758058Y17671000D02*
X19697398Y16610340D01*
X19520622Y16787116D01*
X20581282Y17847776D01*
X20758058Y17671000D01*
X20758058Y17671000D01*
G37*
G36*
X22702602Y16610340D02*
X21641942Y17671000D01*
X21818718Y17847776D01*
X22879378Y16787116D01*
X22702602Y16610340D01*
X22702602Y16610340D01*
G37*
G36*
X23056156Y16963894D02*
X21995496Y18024554D01*
X22172272Y18201330D01*
X23232932Y17140670D01*
X23056156Y16963894D01*
X23056156Y16963894D01*
G37*
G36*
X23409709Y17317447D02*
X22349049Y18378107D01*
X22525825Y18554883D01*
X23586485Y17494223D01*
X23409709Y17317447D01*
X23409709Y17317447D01*
G37*
G36*
X23763262Y17671001D02*
X22702602Y18731661D01*
X22879378Y18908437D01*
X23940038Y17847777D01*
X23763262Y17671001D01*
X23763262Y17671001D01*
G37*
G36*
X24116816Y18024554D02*
X23056156Y19085214D01*
X23232932Y19261990D01*
X24293592Y18201330D01*
X24116816Y18024554D01*
X24116816Y18024554D01*
G37*
G36*
X24470369Y18378107D02*
X23409709Y19438767D01*
X23586485Y19615543D01*
X24647145Y18554883D01*
X24470369Y18378107D01*
X24470369Y18378107D01*
G37*
G36*
X24823923Y18731661D02*
X23763263Y19792321D01*
X23940039Y19969097D01*
X25000699Y18908437D01*
X24823923Y18731661D01*
X24823923Y18731661D01*
G37*
G36*
X25177476Y19085214D02*
X24116816Y20145874D01*
X24293592Y20322650D01*
X25354252Y19261990D01*
X25177476Y19085214D01*
X25177476Y19085214D01*
G37*
G36*
X25531029Y19438768D02*
X24470369Y20499428D01*
X24647145Y20676204D01*
X25707805Y19615544D01*
X25531029Y19438768D01*
X25531029Y19438768D01*
G37*
G36*
X25884583Y19792321D02*
X24823923Y20852981D01*
X25000699Y21029757D01*
X26061359Y19969097D01*
X25884583Y19792321D01*
X25884583Y19792321D01*
G37*
G36*
X26238136Y20145874D02*
X25177476Y21206534D01*
X25354252Y21383310D01*
X26414912Y20322650D01*
X26238136Y20145874D01*
X26238136Y20145874D01*
G37*
G36*
X26591689Y20499428D02*
X25531029Y21560088D01*
X25707805Y21736864D01*
X26768465Y20676204D01*
X26591689Y20499428D01*
X26591689Y20499428D01*
G37*
G36*
X26945243Y20852981D02*
X25884583Y21913641D01*
X26061359Y22090417D01*
X27122019Y21029757D01*
X26945243Y20852981D01*
X26945243Y20852981D01*
G37*
G36*
X27298796Y21206535D02*
X26238136Y22267195D01*
X26414912Y22443971D01*
X27475572Y21383311D01*
X27298796Y21206535D01*
X27298796Y21206535D01*
G37*
G36*
X27652350Y21560088D02*
X26591690Y22620748D01*
X26768466Y22797524D01*
X27829126Y21736864D01*
X27652350Y21560088D01*
X27652350Y21560088D01*
G37*
G36*
X28005903Y21913641D02*
X26945243Y22974301D01*
X27122019Y23151077D01*
X28182679Y22090417D01*
X28005903Y21913641D01*
X28005903Y21913641D01*
G37*
G36*
X28359456Y22267195D02*
X27298796Y23327855D01*
X27475572Y23504631D01*
X28536232Y22443971D01*
X28359456Y22267195D01*
X28359456Y22267195D01*
G37*
G36*
X28713010Y22620748D02*
X27652350Y23681408D01*
X27829126Y23858184D01*
X28889786Y22797524D01*
X28713010Y22620748D01*
X28713010Y22620748D01*
G37*
G36*
X29066563Y22974301D02*
X28005903Y24034961D01*
X28182679Y24211737D01*
X29243339Y23151077D01*
X29066563Y22974301D01*
X29066563Y22974301D01*
G37*
G36*
X29420117Y23327855D02*
X28359457Y24388515D01*
X28536233Y24565291D01*
X29596893Y23504631D01*
X29420117Y23327855D01*
X29420117Y23327855D01*
G37*
G36*
X29773670Y23681408D02*
X28713010Y24742068D01*
X28889786Y24918844D01*
X29950446Y23858184D01*
X29773670Y23681408D01*
X29773670Y23681408D01*
G37*
G36*
X30127223Y24034962D02*
X29066563Y25095622D01*
X29243339Y25272398D01*
X30303999Y24211738D01*
X30127223Y24034962D01*
X30127223Y24034962D01*
G37*
G36*
X30480777Y24388515D02*
X29420117Y25449175D01*
X29596893Y25625951D01*
X30657553Y24565291D01*
X30480777Y24388515D01*
X30480777Y24388515D01*
G37*
G36*
X30834330Y24742068D02*
X29773670Y25802728D01*
X29950446Y25979504D01*
X31011106Y24918844D01*
X30834330Y24742068D01*
X30834330Y24742068D01*
G37*
G36*
X31187884Y25095622D02*
X30127224Y26156282D01*
X30304000Y26333058D01*
X31364660Y25272398D01*
X31187884Y25095622D01*
X31187884Y25095622D01*
G37*
G36*
X31364660Y28277602D02*
X30304000Y27216942D01*
X30127224Y27393718D01*
X31187884Y28454378D01*
X31364660Y28277602D01*
X31364660Y28277602D01*
G37*
G36*
X31011106Y28631156D02*
X29950446Y27570496D01*
X29773670Y27747272D01*
X30834330Y28807932D01*
X31011106Y28631156D01*
X31011106Y28631156D01*
G37*
G36*
X30657553Y28984709D02*
X29596893Y27924049D01*
X29420117Y28100825D01*
X30480777Y29161485D01*
X30657553Y28984709D01*
X30657553Y28984709D01*
G37*
G36*
X30303999Y29338262D02*
X29243339Y28277602D01*
X29066563Y28454378D01*
X30127223Y29515038D01*
X30303999Y29338262D01*
X30303999Y29338262D01*
G37*
G36*
X29950446Y29691816D02*
X28889786Y28631156D01*
X28713010Y28807932D01*
X29773670Y29868592D01*
X29950446Y29691816D01*
X29950446Y29691816D01*
G37*
G36*
X29596893Y30045369D02*
X28536233Y28984709D01*
X28359457Y29161485D01*
X29420117Y30222145D01*
X29596893Y30045369D01*
X29596893Y30045369D01*
G37*
G36*
X29243339Y30398923D02*
X28182679Y29338263D01*
X28005903Y29515039D01*
X29066563Y30575699D01*
X29243339Y30398923D01*
X29243339Y30398923D01*
G37*
G36*
X28889786Y30752476D02*
X27829126Y29691816D01*
X27652350Y29868592D01*
X28713010Y30929252D01*
X28889786Y30752476D01*
X28889786Y30752476D01*
G37*
G36*
X28536232Y31106029D02*
X27475572Y30045369D01*
X27298796Y30222145D01*
X28359456Y31282805D01*
X28536232Y31106029D01*
X28536232Y31106029D01*
G37*
G36*
X28182679Y31459583D02*
X27122019Y30398923D01*
X26945243Y30575699D01*
X28005903Y31636359D01*
X28182679Y31459583D01*
X28182679Y31459583D01*
G37*
G36*
X27829126Y31813136D02*
X26768466Y30752476D01*
X26591690Y30929252D01*
X27652350Y31989912D01*
X27829126Y31813136D01*
X27829126Y31813136D01*
G37*
G36*
X27475572Y32166689D02*
X26414912Y31106029D01*
X26238136Y31282805D01*
X27298796Y32343465D01*
X27475572Y32166689D01*
X27475572Y32166689D01*
G37*
G36*
X27122019Y32520243D02*
X26061359Y31459583D01*
X25884583Y31636359D01*
X26945243Y32697019D01*
X27122019Y32520243D01*
X27122019Y32520243D01*
G37*
G36*
X26768465Y32873796D02*
X25707805Y31813136D01*
X25531029Y31989912D01*
X26591689Y33050572D01*
X26768465Y32873796D01*
X26768465Y32873796D01*
G37*
G36*
X26414912Y33227350D02*
X25354252Y32166690D01*
X25177476Y32343466D01*
X26238136Y33404126D01*
X26414912Y33227350D01*
X26414912Y33227350D01*
G37*
G36*
X26061359Y33580903D02*
X25000699Y32520243D01*
X24823923Y32697019D01*
X25884583Y33757679D01*
X26061359Y33580903D01*
X26061359Y33580903D01*
G37*
G36*
X25707805Y33934456D02*
X24647145Y32873796D01*
X24470369Y33050572D01*
X25531029Y34111232D01*
X25707805Y33934456D01*
X25707805Y33934456D01*
G37*
G36*
X25354252Y34288010D02*
X24293592Y33227350D01*
X24116816Y33404126D01*
X25177476Y34464786D01*
X25354252Y34288010D01*
X25354252Y34288010D01*
G37*
G36*
X25000699Y34641563D02*
X23940039Y33580903D01*
X23763263Y33757679D01*
X24823923Y34818339D01*
X25000699Y34641563D01*
X25000699Y34641563D01*
G37*
G36*
X24647145Y34995117D02*
X23586485Y33934457D01*
X23409709Y34111233D01*
X24470369Y35171893D01*
X24647145Y34995117D01*
X24647145Y34995117D01*
G37*
G36*
X24293592Y35348670D02*
X23232932Y34288010D01*
X23056156Y34464786D01*
X24116816Y35525446D01*
X24293592Y35348670D01*
X24293592Y35348670D01*
G37*
G36*
X23940038Y35702223D02*
X22879378Y34641563D01*
X22702602Y34818339D01*
X23763262Y35878999D01*
X23940038Y35702223D01*
X23940038Y35702223D01*
G37*
G36*
X23586485Y36055777D02*
X22525825Y34995117D01*
X22349049Y35171893D01*
X23409709Y36232553D01*
X23586485Y36055777D01*
X23586485Y36055777D01*
G37*
G36*
X23232932Y36409330D02*
X22172272Y35348670D01*
X21995496Y35525446D01*
X23056156Y36586106D01*
X23232932Y36409330D01*
X23232932Y36409330D01*
G37*
G36*
X22879378Y36762884D02*
X21818718Y35702224D01*
X21641942Y35879000D01*
X22702602Y36939660D01*
X22879378Y36762884D01*
X22879378Y36762884D01*
G37*
G36*
X20581282Y35702224D02*
X19520622Y36762884D01*
X19697398Y36939660D01*
X20758058Y35879000D01*
X20581282Y35702224D01*
X20581282Y35702224D01*
G37*
G36*
X20227728Y35348670D02*
X19167068Y36409330D01*
X19343844Y36586106D01*
X20404504Y35525446D01*
X20227728Y35348670D01*
X20227728Y35348670D01*
G37*
G36*
X19874175Y34995117D02*
X18813515Y36055777D01*
X18990291Y36232553D01*
X20050951Y35171893D01*
X19874175Y34995117D01*
X19874175Y34995117D01*
G37*
G36*
X19520622Y34641563D02*
X18459962Y35702223D01*
X18636738Y35878999D01*
X19697398Y34818339D01*
X19520622Y34641563D01*
X19520622Y34641563D01*
G37*
G36*
X19167068Y34288010D02*
X18106408Y35348670D01*
X18283184Y35525446D01*
X19343844Y34464786D01*
X19167068Y34288010D01*
X19167068Y34288010D01*
G37*
G36*
X18813515Y33934457D02*
X17752855Y34995117D01*
X17929631Y35171893D01*
X18990291Y34111233D01*
X18813515Y33934457D01*
X18813515Y33934457D01*
G37*
G36*
X18459961Y33580903D02*
X17399301Y34641563D01*
X17576077Y34818339D01*
X18636737Y33757679D01*
X18459961Y33580903D01*
X18459961Y33580903D01*
G37*
G36*
X18106408Y33227350D02*
X17045748Y34288010D01*
X17222524Y34464786D01*
X18283184Y33404126D01*
X18106408Y33227350D01*
X18106408Y33227350D01*
G37*
G36*
X17752855Y32873796D02*
X16692195Y33934456D01*
X16868971Y34111232D01*
X17929631Y33050572D01*
X17752855Y32873796D01*
X17752855Y32873796D01*
G37*
G36*
X17399301Y32520243D02*
X16338641Y33580903D01*
X16515417Y33757679D01*
X17576077Y32697019D01*
X17399301Y32520243D01*
X17399301Y32520243D01*
G37*
G36*
X17045748Y32166690D02*
X15985088Y33227350D01*
X16161864Y33404126D01*
X17222524Y32343466D01*
X17045748Y32166690D01*
X17045748Y32166690D01*
G37*
G36*
X16692195Y31813136D02*
X15631535Y32873796D01*
X15808311Y33050572D01*
X16868971Y31989912D01*
X16692195Y31813136D01*
X16692195Y31813136D01*
G37*
G36*
X16338641Y31459583D02*
X15277981Y32520243D01*
X15454757Y32697019D01*
X16515417Y31636359D01*
X16338641Y31459583D01*
X16338641Y31459583D01*
G37*
G36*
X15985088Y31106029D02*
X14924428Y32166689D01*
X15101204Y32343465D01*
X16161864Y31282805D01*
X15985088Y31106029D01*
X15985088Y31106029D01*
G37*
G36*
X15631534Y30752476D02*
X14570874Y31813136D01*
X14747650Y31989912D01*
X15808310Y30929252D01*
X15631534Y30752476D01*
X15631534Y30752476D01*
G37*
G36*
X15277981Y30398923D02*
X14217321Y31459583D01*
X14394097Y31636359D01*
X15454757Y30575699D01*
X15277981Y30398923D01*
X15277981Y30398923D01*
G37*
G36*
X14924428Y30045369D02*
X13863768Y31106029D01*
X14040544Y31282805D01*
X15101204Y30222145D01*
X14924428Y30045369D01*
X14924428Y30045369D01*
G37*
G36*
X14570874Y29691816D02*
X13510214Y30752476D01*
X13686990Y30929252D01*
X14747650Y29868592D01*
X14570874Y29691816D01*
X14570874Y29691816D01*
G37*
G36*
X14217321Y29338263D02*
X13156661Y30398923D01*
X13333437Y30575699D01*
X14394097Y29515039D01*
X14217321Y29338263D01*
X14217321Y29338263D01*
G37*
G36*
X13863767Y28984709D02*
X12803107Y30045369D01*
X12979883Y30222145D01*
X14040543Y29161485D01*
X13863767Y28984709D01*
X13863767Y28984709D01*
G37*
G36*
X13510214Y28631156D02*
X12449554Y29691816D01*
X12626330Y29868592D01*
X13686990Y28807932D01*
X13510214Y28631156D01*
X13510214Y28631156D01*
G37*
G36*
X13156661Y28277602D02*
X12096001Y29338262D01*
X12272777Y29515038D01*
X13333437Y28454378D01*
X13156661Y28277602D01*
X13156661Y28277602D01*
G37*
G36*
X12803107Y27924049D02*
X11742447Y28984709D01*
X11919223Y29161485D01*
X12979883Y28100825D01*
X12803107Y27924049D01*
X12803107Y27924049D01*
G37*
G36*
X12449554Y27570496D02*
X11388894Y28631156D01*
X11565670Y28807932D01*
X12626330Y27747272D01*
X12449554Y27570496D01*
X12449554Y27570496D01*
G37*
G36*
X12096000Y27216942D02*
X11035340Y28277602D01*
X11212116Y28454378D01*
X12272776Y27393718D01*
X12096000Y27216942D01*
X12096000Y27216942D01*
G37*
G36*
X9064340Y21399264D02*
X9700736Y22035660D01*
X10125000Y21611396D01*
X9488604Y20975000D01*
X9064340Y21399264D01*
X9064340Y21399264D01*
G37*
G36*
X10125000Y20338604D02*
X10761396Y20975000D01*
X11185660Y20550736D01*
X10549264Y19914340D01*
X10125000Y20338604D01*
X10125000Y20338604D01*
G37*
G36*
X13510660Y18225736D02*
X12874264Y17589340D01*
X12450000Y18013604D01*
X13086396Y18650000D01*
X13510660Y18225736D01*
X13510660Y18225736D01*
G37*
G36*
X12450000Y19286396D02*
X11813604Y18650000D01*
X11389340Y19074264D01*
X12025736Y19710660D01*
X12450000Y19286396D01*
X12450000Y19286396D01*
G37*
D12*
X37150000Y36950000D03*
X37150000Y36000000D03*
X37150000Y35050000D03*
X39550000Y35050000D03*
X39550000Y36000000D03*
X39550000Y36950000D03*
X12800000Y35850000D03*
X12800000Y36800000D03*
X12800000Y37750000D03*
X10400000Y37750000D03*
X10400000Y36800000D03*
X10400000Y35850000D03*
D13*
X37700000Y12900000D03*
D14*
X35160000Y14170000D03*
X37700000Y15440000D03*
X35160000Y16710000D03*
X37700000Y17980000D03*
X35160000Y19250000D03*
X37700000Y20520000D03*
X35160000Y21790000D03*
X48110000Y10720000D03*
X48110000Y13260000D03*
X48110000Y21430000D03*
X48110000Y23970000D03*
D15*
X44050000Y11630000D03*
X44050000Y23060000D03*
D16*
X41000000Y9600000D03*
X41000000Y25090000D03*
D17*
X42950000Y36400000D03*
X42950000Y37200000D03*
X42950000Y38000000D03*
X42950000Y34800000D03*
X42950000Y35600000D03*
D18*
X43200000Y32750000D03*
X43200000Y40050000D03*
X48500000Y32750000D03*
X48500000Y40050000D03*
D17*
X6950000Y36400000D03*
X6950000Y35600000D03*
X6950000Y34800000D03*
X6950000Y38000000D03*
X6950000Y37200000D03*
D18*
X6700000Y40050000D03*
X6700000Y32750000D03*
X1400000Y40050000D03*
X1400000Y32750000D03*
D10*
G36*
X27192965Y11508974D02*
X27023259Y11339268D01*
X26669705Y11692822D01*
X26839411Y11862528D01*
X27192965Y11508974D01*
X27192965Y11508974D01*
G37*
G36*
X27546519Y11862527D02*
X27376813Y11692821D01*
X27023259Y12046375D01*
X27192965Y12216081D01*
X27546519Y11862527D01*
X27546519Y11862527D01*
G37*
G36*
X27900072Y12216081D02*
X27730366Y12046375D01*
X27376812Y12399929D01*
X27546518Y12569635D01*
X27900072Y12216081D01*
X27900072Y12216081D01*
G37*
G36*
X28253625Y12569634D02*
X28083919Y12399928D01*
X27730365Y12753482D01*
X27900071Y12923188D01*
X28253625Y12569634D01*
X28253625Y12569634D01*
G37*
G36*
X28607179Y12923187D02*
X28437473Y12753481D01*
X28083919Y13107035D01*
X28253625Y13276741D01*
X28607179Y12923187D01*
X28607179Y12923187D01*
G37*
G36*
X28960732Y13276741D02*
X28791026Y13107035D01*
X28437472Y13460589D01*
X28607178Y13630295D01*
X28960732Y13276741D01*
X28960732Y13276741D01*
G37*
G36*
X28791026Y14492965D02*
X28960732Y14323259D01*
X28607178Y13969705D01*
X28437472Y14139411D01*
X28791026Y14492965D01*
X28791026Y14492965D01*
G37*
G36*
X28437473Y14846519D02*
X28607179Y14676813D01*
X28253625Y14323259D01*
X28083919Y14492965D01*
X28437473Y14846519D01*
X28437473Y14846519D01*
G37*
G36*
X28083919Y15200072D02*
X28253625Y15030366D01*
X27900071Y14676812D01*
X27730365Y14846518D01*
X28083919Y15200072D01*
X28083919Y15200072D01*
G37*
G36*
X27730366Y15553625D02*
X27900072Y15383919D01*
X27546518Y15030365D01*
X27376812Y15200071D01*
X27730366Y15553625D01*
X27730366Y15553625D01*
G37*
G36*
X27376813Y15907179D02*
X27546519Y15737473D01*
X27192965Y15383919D01*
X27023259Y15553625D01*
X27376813Y15907179D01*
X27376813Y15907179D01*
G37*
G36*
X27023259Y16260732D02*
X27192965Y16091026D01*
X26839411Y15737472D01*
X26669705Y15907178D01*
X27023259Y16260732D01*
X27023259Y16260732D01*
G37*
G36*
X26330295Y15907178D02*
X26160589Y15737472D01*
X25807035Y16091026D01*
X25976741Y16260732D01*
X26330295Y15907178D01*
X26330295Y15907178D01*
G37*
G36*
X25976741Y15553625D02*
X25807035Y15383919D01*
X25453481Y15737473D01*
X25623187Y15907179D01*
X25976741Y15553625D01*
X25976741Y15553625D01*
G37*
G36*
X25623188Y15200071D02*
X25453482Y15030365D01*
X25099928Y15383919D01*
X25269634Y15553625D01*
X25623188Y15200071D01*
X25623188Y15200071D01*
G37*
G36*
X25269635Y14846518D02*
X25099929Y14676812D01*
X24746375Y15030366D01*
X24916081Y15200072D01*
X25269635Y14846518D01*
X25269635Y14846518D01*
G37*
G36*
X24916081Y14492965D02*
X24746375Y14323259D01*
X24392821Y14676813D01*
X24562527Y14846519D01*
X24916081Y14492965D01*
X24916081Y14492965D01*
G37*
G36*
X24562528Y14139411D02*
X24392822Y13969705D01*
X24039268Y14323259D01*
X24208974Y14492965D01*
X24562528Y14139411D01*
X24562528Y14139411D01*
G37*
G36*
X24392822Y13630295D02*
X24562528Y13460589D01*
X24208974Y13107035D01*
X24039268Y13276741D01*
X24392822Y13630295D01*
X24392822Y13630295D01*
G37*
G36*
X24746375Y13276741D02*
X24916081Y13107035D01*
X24562527Y12753481D01*
X24392821Y12923187D01*
X24746375Y13276741D01*
X24746375Y13276741D01*
G37*
G36*
X25099929Y12923188D02*
X25269635Y12753482D01*
X24916081Y12399928D01*
X24746375Y12569634D01*
X25099929Y12923188D01*
X25099929Y12923188D01*
G37*
G36*
X25453482Y12569635D02*
X25623188Y12399929D01*
X25269634Y12046375D01*
X25099928Y12216081D01*
X25453482Y12569635D01*
X25453482Y12569635D01*
G37*
G36*
X25807035Y12216081D02*
X25976741Y12046375D01*
X25623187Y11692821D01*
X25453481Y11862527D01*
X25807035Y12216081D01*
X25807035Y12216081D01*
G37*
G36*
X26160589Y11862528D02*
X26330295Y11692822D01*
X25976741Y11339268D01*
X25807035Y11508974D01*
X26160589Y11862528D01*
X26160589Y11862528D01*
G37*
G36*
X26500000Y15638478D02*
X28338478Y13800000D01*
X26500000Y11961522D01*
X24661522Y13800000D01*
X26500000Y15638478D01*
X26500000Y15638478D01*
G37*
D12*
X33400000Y33550000D03*
X33400000Y32600000D03*
X33400000Y31650000D03*
X35800000Y31650000D03*
X35800000Y32600000D03*
X35800000Y33550000D03*
D10*
G36*
X7044705Y19317731D02*
X8607269Y20880295D01*
X9505295Y19982269D01*
X7942731Y18419705D01*
X7044705Y19317731D01*
X7044705Y19317731D01*
G37*
G36*
X9918387Y16444049D02*
X11480951Y18006613D01*
X12378977Y17108587D01*
X10816413Y15546023D01*
X9918387Y16444049D01*
X9918387Y16444049D01*
G37*
D13*
X4700000Y5040000D03*
D19*
X4700000Y2500000D03*
D13*
X7240000Y5040000D03*
X7240000Y2500000D03*
X9780000Y5040000D03*
X9780000Y2500000D03*
X12320000Y5040000D03*
X12320000Y2500000D03*
X14860000Y5040000D03*
X14860000Y2500000D03*
X17400000Y5040000D03*
X17400000Y2500000D03*
X19940000Y5040000D03*
X19940000Y2500000D03*
X22480000Y5040000D03*
X22480000Y2500000D03*
X25020000Y5040000D03*
X25020000Y2500000D03*
X27560000Y5040000D03*
X27560000Y2500000D03*
X30100000Y5040000D03*
X30100000Y2500000D03*
X32640000Y5040000D03*
X32640000Y2500000D03*
X35180000Y5040000D03*
X35180000Y2500000D03*
X37720000Y5040000D03*
X37720000Y2500000D03*
X40260000Y5040000D03*
X40260000Y2500000D03*
X42800000Y5040000D03*
X42800000Y2500000D03*
X45340000Y5040000D03*
X45340000Y2500000D03*
X4700000Y47440000D03*
D19*
X4700000Y44900000D03*
D13*
X7240000Y47440000D03*
X7240000Y44900000D03*
X9780000Y47440000D03*
X9780000Y44900000D03*
X12320000Y47440000D03*
X12320000Y44900000D03*
X14860000Y47440000D03*
X14860000Y44900000D03*
X17400000Y47440000D03*
X17400000Y44900000D03*
X19940000Y47440000D03*
X19940000Y44900000D03*
X22480000Y47440000D03*
X22480000Y44900000D03*
X25020000Y47440000D03*
X25020000Y44900000D03*
X27560000Y47440000D03*
X27560000Y44900000D03*
X30100000Y47440000D03*
X30100000Y44900000D03*
X32640000Y47440000D03*
X32640000Y44900000D03*
X35180000Y47440000D03*
X35180000Y44900000D03*
X37720000Y47440000D03*
X37720000Y44900000D03*
X40260000Y47440000D03*
X40260000Y44900000D03*
X42800000Y47440000D03*
X42800000Y44900000D03*
X45340000Y47440000D03*
X45340000Y44900000D03*
D10*
G36*
X13639340Y15074264D02*
X14275736Y15710660D01*
X14700000Y15286396D01*
X14063604Y14650000D01*
X13639340Y15074264D01*
X13639340Y15074264D01*
G37*
G36*
X14700000Y14013604D02*
X15336396Y14650000D01*
X15760660Y14225736D01*
X15124264Y13589340D01*
X14700000Y14013604D01*
X14700000Y14013604D01*
G37*
G36*
X14764340Y16174264D02*
X15400736Y16810660D01*
X15825000Y16386396D01*
X15188604Y15750000D01*
X14764340Y16174264D01*
X14764340Y16174264D01*
G37*
G36*
X15825000Y15113604D02*
X16461396Y15750000D01*
X16885660Y15325736D01*
X16249264Y14689340D01*
X15825000Y15113604D01*
X15825000Y15113604D01*
G37*
D20*
X7000000Y14950000D03*
X7000000Y13450000D03*
X5200000Y14950000D03*
X5200000Y13450000D03*
D21*
X35850000Y29500000D03*
X35850000Y26500000D03*
D22*
X38300000Y29300000D03*
X42500000Y29300000D03*
D10*
G36*
X14635660Y13125736D02*
X13999264Y12489340D01*
X13575000Y12913604D01*
X14211396Y13550000D01*
X14635660Y13125736D01*
X14635660Y13125736D01*
G37*
G36*
X13575000Y14186396D02*
X12938604Y13550000D01*
X12514340Y13974264D01*
X13150736Y14610660D01*
X13575000Y14186396D01*
X13575000Y14186396D01*
G37*
D13*
X19200000Y14540000D03*
D19*
X19200000Y12000000D03*
D13*
X48140000Y29300000D03*
D19*
X45600000Y29300000D03*
D10*
G36*
X30724264Y18210660D02*
X31360660Y17574264D01*
X30936396Y17150000D01*
X30300000Y17786396D01*
X30724264Y18210660D01*
X30724264Y18210660D01*
G37*
G36*
X29663604Y17150000D02*
X30300000Y16513604D01*
X29875736Y16089340D01*
X29239340Y16725736D01*
X29663604Y17150000D01*
X29663604Y17150000D01*
G37*
G36*
X11093629Y14119849D02*
X11800736Y13412742D01*
X11305761Y12917767D01*
X10598654Y13624874D01*
X11093629Y14119849D01*
X11093629Y14119849D01*
G37*
G36*
X10421878Y13448097D02*
X11128985Y12740990D01*
X10634010Y12246015D01*
X9926903Y12953122D01*
X10421878Y13448097D01*
X10421878Y13448097D01*
G37*
G36*
X9750126Y12776346D02*
X10457233Y12069239D01*
X9962258Y11574264D01*
X9255151Y12281371D01*
X9750126Y12776346D01*
X9750126Y12776346D01*
G37*
G36*
X11447183Y11079290D02*
X12154290Y10372183D01*
X11659315Y9877208D01*
X10952208Y10584315D01*
X11447183Y11079290D01*
X11447183Y11079290D01*
G37*
G36*
X12118934Y11751041D02*
X12826041Y11043934D01*
X12331066Y10548959D01*
X11623959Y11256066D01*
X12118934Y11751041D01*
X12118934Y11751041D01*
G37*
G36*
X12790685Y12422792D02*
X13497792Y11715685D01*
X13002817Y11220710D01*
X12295710Y11927817D01*
X12790685Y12422792D01*
X12790685Y12422792D01*
G37*
D14*
X23700000Y40850000D03*
X21160000Y40850000D03*
X18620000Y40850000D03*
X16080000Y40850000D03*
D23*
X2750000Y43000000D03*
X1250000Y43000000D03*
X2750000Y48800000D03*
X1250000Y48800000D03*
D24*
X5950000Y30550000D03*
X5950000Y22550000D03*
X1450000Y30550000D03*
X1450000Y22550000D03*
D23*
X38200000Y33550000D03*
X39700000Y33550000D03*
X11650000Y39200000D03*
X10150000Y39200000D03*
X11675000Y34375000D03*
X10175000Y34375000D03*
X39700000Y38450000D03*
X38200000Y38450000D03*
D25*
X34625000Y32600000D03*
X34800000Y27800000D03*
X20500000Y21900000D03*
X16400000Y23700000D03*
X8600000Y13000000D03*
X18100000Y28850000D03*
X24950000Y25850000D03*
X26900000Y26250000D03*
X41250000Y16700000D03*
X41250000Y15450000D03*
X28650000Y8200000D03*
X24550000Y8000000D03*
X31700000Y18600000D03*
X17300000Y16150000D03*
X17050000Y11300000D03*
X1250000Y24350000D03*
X11350000Y12025000D03*
X14125000Y36800000D03*
X24475000Y37825000D03*
X33100000Y24700000D03*
X9525000Y29200000D03*
X11250000Y19850000D03*
X26500000Y13800000D03*
X22155700Y16328700D03*
X1044700Y9554000D03*
X23300000Y28150000D03*
X20050000Y24900000D03*
X26243200Y30427900D03*
X35800000Y34700000D03*
X35016800Y36670500D03*
X39302600Y31685200D03*
X25099800Y35718000D03*
X13013000Y38782900D03*
X12012200Y33090700D03*
X21230000Y32415400D03*
X25743100Y26483400D03*
X28891000Y43582700D03*
X14800900Y27428200D03*
X15561500Y26247100D03*
X15452600Y24770100D03*
X20685900Y29756100D03*
X22645800Y39361900D03*
X7900000Y7050000D03*
X14675800Y18793400D03*
X16673300Y18554000D03*
X10582200Y6536500D03*
X8171800Y12008500D03*
X21434200Y23657900D03*
X23462300Y20319100D03*
X25986000Y17911200D03*
X4410400Y25347700D03*
X16645300Y29495900D03*
X27268400Y17175100D03*
X27521600Y18648800D03*
X30382800Y6872000D03*
X28405300Y19170900D03*
X26094800Y22967400D03*
X28389300Y21456800D03*
X30426200Y22526400D03*
X35710500Y10961100D03*
X26594400Y24018600D03*
X4717700Y39199800D03*
X10170700Y33304600D03*
X10872200Y32213700D03*
X12590900Y22882100D03*
X6186800Y24509600D03*
X14369700Y33571300D03*
X15834600Y34940200D03*
X17531200Y31800600D03*
X18402200Y30440000D03*
X40925000Y32459400D03*
X37561500Y24724600D03*
X33079100Y21535900D03*
X29850000Y32900000D03*
X32075000Y33525000D03*
X32075000Y31650000D03*
X28820800Y33627700D03*
X35503300Y41467300D03*
X35696000Y43257800D03*
X29014900Y20034700D03*
X24212100Y27634600D03*
X16497600Y9677400D03*
X11802100Y7857200D03*
X10846000Y1624600D03*
X31611000Y787900D03*
X35164100Y9987200D03*
X32086400Y20502500D03*
X23436000Y13080100D03*
X24269700Y21485800D03*
X21987500Y8414200D03*
X22983900Y21863800D03*
X24148500Y28748000D03*
X31950000Y23950000D03*
X21900000Y34200000D03*
X25600000Y9050000D03*
X27550000Y9200000D03*
X19400000Y20800000D03*
X13800000Y21200000D03*
X8600000Y15200000D03*
X11950000Y31850000D03*
X13800000Y10850000D03*
X12500000Y9500000D03*
X1350000Y25700000D03*
X9025000Y36825000D03*
X21225000Y35275000D03*
X40875000Y36025000D03*
X39825000Y29275000D03*
X33250000Y28400000D03*
X12750000Y26750000D03*
X33525000Y35987400D03*
X1250000Y41929700D03*
X32060300Y10232000D03*
X24989800Y16370800D03*
X19200000Y7676600D03*
X22118400Y7413500D03*
X25881100Y6739300D03*
X27452200Y6739300D03*
X33886200Y8509000D03*
X3650000Y7150000D03*
X6149900Y9563600D03*
X26593200Y6034500D03*
X3100000Y30600000D03*
X31174400Y8334200D03*
X30149100Y18477200D03*
X14725000Y29025000D03*
D26*
X9594700Y21487500D02*
X9594700Y21505300D01*
X8275000Y20150000D02*
X8275000Y19650000D01*
X9594700Y21470000D02*
X8275000Y20150000D01*
X9594700Y21487500D02*
X9594700Y21470000D01*
X9594700Y21505000D02*
X9594700Y21487500D01*
X10064300Y21975000D02*
X9594700Y21505000D01*
X10475000Y21975000D02*
X10064300Y21975000D01*
X11325000Y21125000D02*
X10475000Y21975000D01*
X12025000Y21125000D02*
X11325000Y21125000D01*
X14128900Y23229000D02*
X12025000Y21125000D01*
X14128900Y23239000D02*
X14128900Y23229000D01*
X14128900Y23239000D02*
X14128900Y23239500D01*
D27*
X37150000Y36000000D02*
X35450000Y36000000D01*
X34750000Y32725000D02*
X34625000Y32600000D01*
X34750000Y35300000D02*
X34750000Y32725000D01*
X35450000Y36000000D02*
X34750000Y35300000D01*
X35850000Y26500000D02*
X35850000Y26750000D01*
X35850000Y26750000D02*
X34800000Y27800000D01*
X7000000Y13450000D02*
X5200000Y13450000D01*
X8150000Y13450000D02*
X7000000Y13450000D01*
X8600000Y13000000D02*
X8150000Y13450000D01*
X43200000Y38900000D02*
X43200000Y40050000D01*
X42950000Y38650000D02*
X43200000Y38900000D01*
X42950000Y38000000D02*
X42950000Y38650000D01*
X6950000Y33000000D02*
X6700000Y32750000D01*
X6950000Y34800000D02*
X6950000Y33000000D01*
X1450000Y24150000D02*
X1250000Y24350000D01*
X1450000Y22550000D02*
X1450000Y24150000D01*
X1400000Y30600000D02*
X1450000Y30550000D01*
X1400000Y32750000D02*
X1400000Y30600000D01*
X12800000Y36800000D02*
X14125000Y36800000D01*
X35800000Y32600000D02*
X35800000Y31650000D01*
X12007600Y28192000D02*
X12007600Y28189200D01*
X11000000Y29200000D02*
X12007600Y28192000D01*
X9525000Y29200000D02*
X11000000Y29200000D01*
X26500000Y13425000D02*
X26500000Y13800000D01*
X25383000Y12308000D02*
X26500000Y13425000D01*
X25361600Y12308000D02*
X25383000Y12308000D01*
X11350000Y12025000D02*
X12225000Y11150000D01*
X35800000Y32600000D02*
X34625000Y32600000D01*
X34625000Y32600000D02*
X33400000Y32600000D01*
X12007600Y28189000D02*
X12007600Y28189200D01*
X30392400Y25361000D02*
X30392400Y25360800D01*
X31050000Y24700000D02*
X33100000Y24700000D01*
X30392400Y25358000D02*
X31050000Y24700000D01*
X30392400Y25360800D02*
X30392400Y25358000D01*
X22260700Y17229000D02*
X22260700Y17229100D01*
X22260700Y17229100D02*
X22260700Y17239000D01*
X30830300Y17680000D02*
X30830300Y17680300D01*
X30830300Y17730000D02*
X31700000Y18600000D01*
X30830300Y17680300D02*
X30830300Y17730000D01*
X14836000Y22532000D02*
X14836000Y22532400D01*
X16000000Y23700000D02*
X16400000Y23700000D01*
X14836000Y22536000D02*
X16000000Y23700000D01*
X14836000Y22532400D02*
X14836000Y22536000D01*
X9856200Y12175000D02*
X10192100Y12511000D01*
X10191900Y12511000D02*
X9856200Y12175300D01*
X10192100Y12511000D02*
X10191900Y12511000D01*
X16369700Y15220000D02*
X17300000Y16150000D01*
X16355600Y15220000D02*
X16369700Y15220000D01*
X16355600Y15220000D02*
X16355300Y15219700D01*
X15230300Y14120000D02*
X15230600Y14120000D01*
X16355300Y15220000D02*
X16355600Y15220000D01*
X15255300Y14120000D02*
X16355300Y15220000D01*
X15230600Y14120000D02*
X15255300Y14120000D01*
X15230600Y14120000D02*
X15230300Y14119700D01*
X10952700Y20147500D02*
X10655300Y20445000D01*
X10952500Y20147500D02*
X10655300Y20444700D01*
X10952700Y20147500D02*
X10952500Y20147500D01*
X11250000Y19850000D02*
X10952700Y20147500D01*
X22614200Y35967000D02*
X22614600Y35967000D01*
X22617400Y35967000D02*
X24475000Y37825000D01*
X22614600Y35967000D02*
X22617400Y35967000D01*
X22614600Y35967000D02*
X22614200Y35967400D01*
X18018000Y19350000D02*
X18018400Y19350000D01*
X19400000Y21900000D02*
X20500000Y21900000D01*
X18600000Y21100000D02*
X19400000Y21900000D01*
X18600000Y19900000D02*
X18600000Y21100000D01*
X18050400Y19350000D02*
X18600000Y19900000D01*
X18018400Y19350000D02*
X18050400Y19350000D01*
X18018400Y19350000D02*
X18018000Y19350400D01*
X22260700Y16433700D02*
X22155700Y16328700D01*
X22260700Y17229000D02*
X22260700Y16433700D01*
X11919700Y19180000D02*
X11250000Y19850000D01*
X10527900Y12847000D02*
X11350000Y12025000D01*
X10192100Y12511000D02*
X10527900Y12847000D01*
D26*
X14482500Y22886000D02*
X14482500Y22885900D01*
X11149000Y16776000D02*
X11148700Y16776000D01*
X11149000Y16776000D02*
X11148700Y16776300D01*
X12980300Y18119700D02*
X12980300Y18120000D01*
X13450000Y18589000D02*
X12980300Y18120000D01*
X13450000Y19100000D02*
X13450000Y18589000D01*
X12325000Y20225000D02*
X13450000Y19100000D01*
X12325000Y20725000D02*
X12325000Y20225000D01*
X14482500Y22882000D02*
X12325000Y20725000D01*
X14482500Y22885900D02*
X14482500Y22882000D01*
X11626300Y16776000D02*
X11149000Y16776000D01*
X12969700Y18120000D02*
X11626300Y16776000D01*
X12980300Y18120000D02*
X12969700Y18120000D01*
X15543100Y21825000D02*
X15543400Y21825000D01*
X20825000Y25675000D02*
X23300000Y28150000D01*
X19400000Y25675000D02*
X20825000Y25675000D01*
X15550300Y21825000D02*
X19400000Y25675000D01*
X15543400Y21825000D02*
X15550300Y21825000D01*
X15543400Y21825000D02*
X15543100Y21825300D01*
X19325000Y24900000D02*
X20050000Y24900000D01*
X18700000Y24275000D02*
X19325000Y24900000D01*
X15896700Y21472000D02*
X18700000Y24275000D01*
X15896700Y21471700D02*
X15896700Y21472000D01*
X37150000Y35050000D02*
X36150000Y35050000D01*
X29319700Y27823700D02*
X29200400Y27942900D01*
X29200400Y27942900D02*
X29038900Y27942900D01*
X29038900Y27942900D02*
X26831200Y30150600D01*
X26831200Y30150600D02*
X26520500Y30150600D01*
X26520500Y30150600D02*
X26243200Y30427900D01*
X29319700Y27823700D02*
X30038800Y28542800D01*
X36150000Y35050000D02*
X35800000Y34700000D01*
X35296300Y36950000D02*
X37150000Y36950000D01*
X35296300Y36950000D02*
X35016800Y36670500D01*
X29685300Y28896300D02*
X30404600Y29615600D01*
X30404600Y29615500D02*
X30404600Y29615600D01*
X34281300Y29615500D02*
X30404600Y29615500D01*
X36484800Y27412000D02*
X34281300Y29615500D01*
X39168600Y27412000D02*
X36484800Y27412000D01*
X40561100Y28804500D02*
X39168600Y27412000D01*
X40561100Y30426700D02*
X40561100Y28804500D01*
X39302600Y31685200D02*
X40561100Y30426700D01*
X41550000Y35600000D02*
X42950000Y35600000D01*
X41000000Y35050000D02*
X41550000Y35600000D01*
X39550000Y35050000D02*
X41000000Y35050000D01*
X39550000Y38300000D02*
X39700000Y38450000D01*
X39550000Y36950000D02*
X39550000Y38300000D01*
X41550000Y36400000D02*
X42950000Y36400000D01*
X41000000Y36950000D02*
X41550000Y36400000D01*
X39550000Y36950000D02*
X41000000Y36950000D01*
X12800000Y37750000D02*
X12800000Y38367000D01*
X25099800Y35624600D02*
X25099800Y35718000D01*
X24028400Y34553200D02*
X25099800Y35624600D01*
X12800000Y38569900D02*
X13013000Y38782900D01*
X12800000Y38367000D02*
X12800000Y38569900D01*
X12267300Y33345800D02*
X12012200Y33090700D01*
X12267300Y34700300D02*
X12267300Y33345800D01*
X12800000Y35233000D02*
X12267300Y34700300D01*
X12800000Y35850000D02*
X12800000Y35233000D01*
X21230000Y32461800D02*
X21230000Y32415400D01*
X23674900Y34906700D02*
X21230000Y32461800D01*
X8300000Y37200000D02*
X6950000Y37200000D01*
X8850000Y37750000D02*
X8300000Y37200000D01*
X10400000Y37750000D02*
X8850000Y37750000D01*
X10175000Y35075000D02*
X10175000Y34375000D01*
X10400000Y35300000D02*
X10175000Y35075000D01*
X10400000Y35850000D02*
X10400000Y35300000D01*
X8300000Y36400000D02*
X6950000Y36400000D01*
X8850000Y35850000D02*
X8300000Y36400000D01*
X10400000Y35850000D02*
X8850000Y35850000D01*
X25442600Y33139000D02*
X24723500Y32419900D01*
X24700000Y32443414D02*
X24723500Y32419900D01*
X24700000Y29406800D02*
X24700000Y32443414D01*
X25743100Y28363700D02*
X24700000Y29406800D01*
X25743100Y26483400D02*
X25743100Y28363700D01*
X26608000Y33597200D02*
X25796200Y32785400D01*
X26608000Y34507900D02*
X26608000Y33597200D01*
X28788800Y36688700D02*
X26608000Y34507900D01*
X28788800Y43480500D02*
X28788800Y36688700D01*
X28891000Y43582700D02*
X28788800Y43480500D01*
X19262700Y34369100D02*
X18725100Y34906700D01*
X19262700Y31438900D02*
X19262700Y34369100D01*
X19529600Y31172000D02*
X19262700Y31438900D01*
X19529600Y28213900D02*
X19529600Y31172000D01*
X18743900Y27428200D02*
X19529600Y28213900D01*
X14800900Y27428200D02*
X18743900Y27428200D01*
X18906700Y32603900D02*
X17664500Y33846100D01*
X18906700Y31113500D02*
X18906700Y32603900D01*
X19173700Y30846500D02*
X18906700Y31113500D01*
X19173700Y28361300D02*
X19173700Y30846500D01*
X18602700Y27790300D02*
X19173700Y28361300D01*
X16497800Y27790300D02*
X18602700Y27790300D01*
X16135700Y28152400D02*
X16497800Y27790300D01*
X14499300Y28152400D02*
X16135700Y28152400D01*
X14126000Y27779100D02*
X14499300Y28152400D01*
X14126000Y27125500D02*
X14126000Y27779100D01*
X15004400Y26247100D02*
X14126000Y27125500D01*
X15561500Y26247100D02*
X15004400Y26247100D01*
X18535400Y26716400D02*
X18535400Y26715978D01*
X18535400Y26716400D02*
X19886200Y28067200D01*
X19886200Y28067200D02*
X19886200Y31318700D01*
X19886200Y31318700D02*
X19797900Y31407000D01*
X19797900Y31407000D02*
X19797900Y34541000D01*
X19797900Y34541000D02*
X19798000Y34541100D01*
X19078700Y35260300D02*
X19798000Y34541100D01*
X16882500Y26200000D02*
X15452600Y24770100D01*
X18019422Y26200000D02*
X16882500Y26200000D01*
X18535400Y26715978D02*
X18019422Y26200000D01*
X20509800Y29932200D02*
X20685900Y29756100D01*
X20509800Y34536200D02*
X20509800Y29932200D01*
X19432200Y35613800D02*
X20509800Y34536200D01*
X25155500Y37094500D02*
X23321300Y35260300D01*
X25155500Y39394500D02*
X25155500Y37094500D01*
X23700000Y40850000D02*
X25155500Y39394500D01*
X20139300Y36855400D02*
X22645800Y39361900D01*
X20139300Y36320900D02*
X20139300Y36855400D01*
X3127200Y20301200D02*
X3126598Y20301200D01*
X4700000Y5040000D02*
X3267600Y6472400D01*
X3267600Y6472400D02*
X3267600Y6521000D01*
X3267600Y6521000D02*
X2911700Y6876900D01*
X2911700Y6876900D02*
X2911700Y10034600D01*
X2911700Y10034600D02*
X2833900Y10112400D01*
X2833900Y10112400D02*
X2833900Y10900300D01*
X2833900Y10900300D02*
X1780900Y11953300D01*
X1780900Y11953300D02*
X1780900Y15576800D01*
X3127200Y20301200D02*
X4883000Y22057000D01*
X4883000Y22057000D02*
X4883000Y23460600D01*
X4883000Y23460600D02*
X5039400Y23617000D01*
X5039400Y23617000D02*
X7470300Y23617000D01*
X7470300Y23617000D02*
X7493300Y23640000D01*
X7493300Y23640000D02*
X8894700Y23640000D01*
X8894700Y23640000D02*
X9090900Y23836200D01*
X9090900Y23836200D02*
X9776000Y23836200D01*
X9776000Y23836200D02*
X10935000Y24995200D01*
X10935000Y24995200D02*
X11654100Y25714300D01*
X1780900Y18955502D02*
X1780900Y15576800D01*
X3126598Y20301200D02*
X1780900Y18955502D01*
X5735500Y4564500D02*
X5735500Y6064500D01*
X3789200Y9201200D02*
X3789200Y11098100D01*
X3789200Y11098100D02*
X2513600Y12373700D01*
X2513600Y12373700D02*
X2513600Y15302900D01*
X3789200Y8010800D02*
X3789200Y9201200D01*
X5735500Y6064500D02*
X3789200Y8010800D01*
X3513500Y17746000D02*
X3496000Y17746000D01*
X3496000Y17746000D02*
X2492402Y16742402D01*
X2492402Y16742402D02*
X2492402Y15302900D01*
X2492402Y15302900D02*
X2513600Y15302900D01*
X12007600Y25360800D02*
X10127100Y23480300D01*
X9247800Y23480300D02*
X10127100Y23480300D01*
X3513500Y17746000D02*
X9247800Y23480300D01*
X4700000Y2500000D02*
X4700000Y3529000D01*
X2513600Y15302900D02*
X2513600Y15302900D01*
X4700000Y3529000D02*
X5735500Y4564500D01*
X5735500Y4564500D02*
X5740700Y4569700D01*
X4145100Y9500000D02*
X4145100Y8304900D01*
X4145100Y8304900D02*
X7240000Y5210000D01*
X7240000Y5210000D02*
X7240000Y5040000D01*
X2894400Y15150000D02*
X2894400Y16623600D01*
X3869400Y17598600D02*
X9358400Y23087600D01*
X9358400Y23087600D02*
X10434400Y23087600D01*
X10434400Y23087600D02*
X11634900Y24288100D01*
X11634900Y24288100D02*
X11642000Y24288100D01*
X11642000Y24288100D02*
X11642100Y24288100D01*
X11642100Y24288100D02*
X12361200Y25007200D01*
X2894400Y16623600D02*
X3869400Y17598600D01*
X2894400Y12496200D02*
X2894400Y15150000D01*
X2894400Y15150000D02*
X2894400Y15180400D01*
X4145100Y11245500D02*
X2894400Y12496200D01*
X4145100Y9479000D02*
X4145100Y9500000D01*
X4145100Y9500000D02*
X4145100Y11245500D01*
X6474750Y7324750D02*
X6474750Y7325250D01*
X3296100Y16522000D02*
X4404400Y17630300D01*
X4761900Y11132000D02*
X4761900Y9495900D01*
X3296100Y12597800D02*
X4761900Y11132000D01*
X3296100Y15078800D02*
X3296100Y12597800D01*
X9505800Y22731700D02*
X4404400Y17630300D01*
X10581800Y22731700D02*
X9505800Y22731700D01*
X11761500Y23911400D02*
X10581800Y22731700D01*
X11972400Y23911400D02*
X11761500Y23911400D01*
X11972400Y23911400D02*
X12714700Y24653700D01*
X3296100Y15078800D02*
X3296100Y16522000D01*
X4761900Y9038100D02*
X4761900Y9495900D01*
X6474750Y7325250D02*
X4761900Y9038100D01*
X6454900Y7344600D02*
X6474750Y7324750D01*
X6474750Y7324750D02*
X8305100Y5494400D01*
X8305100Y5494400D02*
X8305100Y3565100D01*
X8305100Y3565100D02*
X7240000Y2500000D01*
X5166000Y9595200D02*
X5166000Y9594698D01*
X3652000Y16375002D02*
X4808399Y17531401D01*
X4808399Y17530999D02*
X4808399Y17531401D01*
X5166000Y11231400D02*
X5166000Y9595200D01*
X3652000Y12745400D02*
X5166000Y11231400D01*
X3652000Y14931400D02*
X3652000Y12745400D01*
X3652000Y14931400D02*
X3652000Y16375002D01*
X7710698Y7050000D02*
X7900000Y7050000D01*
X5166000Y9594698D02*
X7710698Y7050000D01*
X9653200Y22375800D02*
X4808399Y17530999D01*
X4808399Y17530999D02*
X4808600Y17531200D01*
X10729200Y22375800D02*
X9653200Y22375800D01*
X11908900Y23555500D02*
X10729200Y22375800D01*
X12323700Y23555500D02*
X11908900Y23555500D01*
X13068300Y24300100D02*
X12323700Y23555500D01*
X15884700Y20002300D02*
X15884700Y20045500D01*
X14675800Y18793400D02*
X15884700Y20002300D01*
X16603800Y20764600D02*
X15884700Y20045500D01*
X16480900Y19227500D02*
X17310900Y20057500D01*
X16062300Y19227500D02*
X16480900Y19227500D01*
X14954800Y18120000D02*
X16062300Y19227500D01*
X14671900Y18120000D02*
X14954800Y18120000D01*
X10651900Y14100000D02*
X14671900Y18120000D01*
X4720000Y14100000D02*
X10651900Y14100000D01*
X4426300Y13806300D02*
X4720000Y14100000D01*
X4426300Y13022000D02*
X4426300Y13806300D01*
X8734700Y8713600D02*
X4426300Y13022000D01*
X8734700Y3545200D02*
X8734700Y8713600D01*
X8734800Y3545200D02*
X8734700Y3545200D01*
X9780000Y2500000D02*
X8734800Y3545200D01*
X16673300Y18712700D02*
X16673300Y18554000D01*
X17664500Y19703900D02*
X16673300Y18712700D01*
X18072300Y17283300D02*
X19078700Y18289700D01*
X18072300Y15885400D02*
X18072300Y17283300D01*
X14889800Y12702900D02*
X18072300Y15885400D01*
X14889800Y8786800D02*
X14889800Y12702900D01*
X13679200Y7576200D02*
X14889800Y8786800D01*
X13679200Y3859200D02*
X13679200Y7576200D01*
X12320000Y2500000D02*
X13679200Y3859200D01*
X20139300Y17229100D02*
X19420200Y16510000D01*
X19732100Y16198000D02*
X19420200Y16510000D01*
X19732100Y16197900D02*
X19732100Y16198000D01*
X20619800Y15310200D02*
X19732100Y16197900D01*
X20619800Y13986200D02*
X20619800Y15310200D01*
X20263900Y13630300D02*
X20619800Y13986200D01*
X20263900Y9446900D02*
X20263900Y13630300D01*
X19934100Y9117100D02*
X20263900Y9446900D01*
X19934100Y8524800D02*
X19934100Y9117100D01*
X19908000Y8498700D02*
X19934100Y8524800D01*
X19908000Y7406500D02*
X19908000Y8498700D01*
X18833000Y6331500D02*
X19908000Y7406500D01*
X18691500Y6331500D02*
X18833000Y6331500D01*
X17400000Y5040000D02*
X18691500Y6331500D01*
X22967800Y17936200D02*
X23687000Y17217100D01*
X15610700Y3250700D02*
X14860000Y2500000D01*
X15610800Y3250700D02*
X15610700Y3250700D01*
X16321000Y3960900D02*
X15610800Y3250700D01*
X18122000Y3960900D02*
X16321000Y3960900D01*
X18670000Y4508900D02*
X18122000Y3960900D01*
X18670000Y5482800D02*
X18670000Y4508900D01*
X20263900Y7076700D02*
X18670000Y5482800D01*
X20263900Y8351300D02*
X20263900Y7076700D01*
X20290000Y8377400D02*
X20263900Y8351300D01*
X20290000Y8969700D02*
X20290000Y8377400D01*
X20619800Y9299500D02*
X20290000Y8969700D01*
X20619800Y9924000D02*
X20619800Y9299500D01*
X20975700Y10279900D02*
X20619800Y9924000D01*
X20975700Y13016900D02*
X20975700Y10279900D01*
X21647400Y13688600D02*
X20975700Y13016900D01*
X21647400Y13751700D02*
X21647400Y13688600D01*
X21649600Y13753900D02*
X21647400Y13751700D01*
X21649600Y13755900D02*
X21649600Y13753900D01*
X22651900Y14758200D02*
X21649600Y13755900D01*
X22651900Y15753200D02*
X22651900Y14758200D01*
X22652000Y15753300D02*
X22651900Y15753200D01*
X22652000Y15758300D02*
X22652000Y15753300D01*
X22817000Y15923300D02*
X22652000Y15758300D01*
X22817000Y16037500D02*
X22817000Y15923300D01*
X22949100Y16169600D02*
X22817000Y16037500D01*
X22949100Y16479200D02*
X22949100Y16169600D01*
X23687000Y17217100D02*
X22949100Y16479200D01*
X20645900Y5745900D02*
X19940000Y5040000D01*
X20645900Y8822300D02*
X20645900Y5745900D01*
X22005500Y10181900D02*
X20645900Y8822300D01*
X22005500Y13608500D02*
X22005500Y10181900D01*
X23928700Y15531700D02*
X22005500Y13608500D01*
X23928700Y16954800D02*
X23928700Y15531700D01*
X24067000Y17093100D02*
X23928700Y16954800D01*
X24067000Y17544000D02*
X24067000Y17093100D01*
X23321300Y18289700D02*
X24067000Y17544000D01*
X10582200Y9598100D02*
X8171800Y12008500D01*
X10582200Y6536500D02*
X10582200Y9598100D01*
X21434200Y20884000D02*
X23674900Y18643300D01*
X21434200Y23657900D02*
X21434200Y20884000D01*
X23771700Y20628500D02*
X23462300Y20319100D01*
X24221600Y20628500D02*
X23771700Y20628500D01*
X24369900Y20776800D02*
X24221600Y20628500D01*
X25089100Y20057500D02*
X24369900Y20776800D01*
X25442600Y20411000D02*
X26161800Y19691900D01*
X25986000Y19516100D02*
X25986000Y17911200D01*
X26161800Y19691900D02*
X25986000Y19516100D01*
X16845500Y29715300D02*
X15189600Y31371200D01*
X18188400Y29715300D02*
X16845500Y29715300D01*
X18785200Y29118500D02*
X18188400Y29715300D01*
X18785200Y28575000D02*
X18785200Y29118500D01*
X18386800Y28176600D02*
X18785200Y28575000D01*
X17717000Y28176600D02*
X18386800Y28176600D01*
X16645300Y29248300D02*
X17717000Y28176600D01*
X16645300Y29495900D02*
X16645300Y29248300D01*
X23744600Y3764600D02*
X25020000Y5040000D01*
X22272600Y3764600D02*
X23744600Y3764600D01*
X21450900Y2942900D02*
X22272600Y3764600D01*
X21450900Y2542400D02*
X21450900Y2942900D01*
X19859700Y951200D02*
X21450900Y2542400D01*
X4327400Y951200D02*
X19859700Y951200D01*
X2477900Y2800700D02*
X4327400Y951200D01*
X2477900Y9911500D02*
X2477900Y2800700D01*
X1398900Y10990500D02*
X2477900Y9911500D01*
X1398900Y19076400D02*
X1398900Y10990500D01*
X4410400Y22087900D02*
X1398900Y19076400D01*
X4410400Y25347700D02*
X4410400Y22087900D01*
X26149700Y21118100D02*
X26868900Y20399000D01*
X27268400Y17347400D02*
X27268400Y17175100D01*
X26868800Y17747000D02*
X27268400Y17347400D01*
X26868800Y18349300D02*
X26868800Y17747000D01*
X26848200Y18369900D02*
X26868800Y18349300D01*
X26848200Y18927700D02*
X26848200Y18369900D01*
X26856900Y18936400D02*
X26848200Y18927700D01*
X26856900Y20373600D02*
X26856900Y18936400D01*
X26868800Y20385500D02*
X26856900Y20373600D01*
X26868800Y20398900D02*
X26868800Y20385500D01*
X26868900Y20399000D02*
X26868800Y20398900D01*
X27521600Y20453400D02*
X27521600Y18648800D01*
X26503300Y21471700D02*
X27521600Y20453400D01*
X31150400Y6104400D02*
X30382800Y6872000D01*
X31150400Y4622900D02*
X31150400Y6104400D01*
X30056600Y3529100D02*
X31150400Y4622900D01*
X26049100Y3529100D02*
X30056600Y3529100D01*
X25020000Y2500000D02*
X26049100Y3529100D01*
X26856900Y21825300D02*
X27576100Y21106200D01*
X28405300Y19692000D02*
X28405300Y19170900D01*
X28341500Y19755800D02*
X28405300Y19692000D01*
X28341500Y20188100D02*
X28341500Y19755800D01*
X27576000Y20953600D02*
X28341500Y20188100D01*
X27576000Y21106100D02*
X27576000Y20953600D01*
X27576100Y21106200D02*
X27576000Y21106100D01*
X26421800Y22967400D02*
X26094800Y22967400D01*
X27210400Y22178800D02*
X26421800Y22967400D01*
X28389300Y21707100D02*
X28389300Y21456800D01*
X27564000Y22532400D02*
X28389300Y21707100D01*
X28624600Y23593000D02*
X29343900Y22873800D01*
X29476600Y22873800D02*
X29343900Y22873800D01*
X29654500Y23051700D02*
X29476600Y22873800D01*
X29945700Y23051700D02*
X29654500Y23051700D01*
X30093800Y23199800D02*
X29945700Y23051700D01*
X31028000Y23199800D02*
X30093800Y23199800D01*
X31354000Y22873800D02*
X31028000Y23199800D01*
X35878800Y22873800D02*
X31354000Y22873800D01*
X36268300Y22484300D02*
X35878800Y22873800D01*
X36827700Y22484300D02*
X36268300Y22484300D01*
X37100200Y22211800D02*
X36827700Y22484300D01*
X37536100Y22211800D02*
X37100200Y22211800D01*
X40170400Y19577500D02*
X37536100Y22211800D01*
X40170400Y11941900D02*
X40170400Y19577500D01*
X38776000Y10547500D02*
X40170400Y11941900D01*
X38776000Y9219100D02*
X38776000Y10547500D01*
X37720000Y8163100D02*
X38776000Y9219100D01*
X37720000Y5040000D02*
X37720000Y8163100D01*
X30345500Y22445700D02*
X30426200Y22526400D01*
X29064900Y22445700D02*
X30345500Y22445700D01*
X28271100Y23239500D02*
X29064900Y22445700D01*
X28978200Y23946600D02*
X28259000Y24665900D01*
X36329600Y3649600D02*
X35180000Y2500000D01*
X38348400Y3649600D02*
X36329600Y3649600D01*
X39230900Y4532100D02*
X38348400Y3649600D01*
X39230900Y8667400D02*
X39230900Y4532100D01*
X39487800Y8924300D02*
X39230900Y8667400D01*
X39487800Y9917500D02*
X39487800Y8924300D01*
X41982900Y12412600D02*
X39487800Y9917500D01*
X41982900Y18839000D02*
X41982900Y12412600D01*
X33951000Y26870900D02*
X41982900Y18839000D01*
X33951000Y28684000D02*
X33951000Y26870900D01*
X33550000Y29085000D02*
X33951000Y28684000D01*
X32738000Y29085000D02*
X33550000Y29085000D01*
X31956700Y28303700D02*
X32738000Y29085000D01*
X31896800Y28303700D02*
X31956700Y28303700D01*
X28259000Y24665900D02*
X31896800Y28303700D01*
X25796200Y20764600D02*
X25077100Y21483700D01*
X26145300Y24018600D02*
X26594400Y24018600D01*
X25077100Y22950400D02*
X26145300Y24018600D01*
X25077100Y21483700D02*
X25077100Y22950400D01*
X35837500Y10834100D02*
X35710500Y10961100D01*
X35837500Y7482600D02*
X35837500Y10834100D01*
X34046500Y5691600D02*
X35837500Y7482600D01*
X34046500Y3906500D02*
X34046500Y5691600D01*
X32640000Y2500000D02*
X34046500Y3906500D01*
X30076100Y23555700D02*
X29331700Y24300100D01*
X31175400Y23555700D02*
X30076100Y23555700D01*
X31463500Y23267600D02*
X31175400Y23555700D01*
X36983600Y23267600D02*
X31463500Y23267600D01*
X40526400Y19724800D02*
X36983600Y23267600D01*
X40526400Y11459400D02*
X40526400Y19724800D01*
X39131900Y10064900D02*
X40526400Y11459400D01*
X39131900Y9071700D02*
X39131900Y10064900D01*
X38778600Y8718400D02*
X39131900Y9071700D01*
X38778600Y4597500D02*
X38778600Y8718400D01*
X38192000Y4010900D02*
X38778600Y4597500D01*
X36209100Y4010900D02*
X38192000Y4010900D01*
X35180000Y5040000D02*
X36209100Y4010900D01*
X10170700Y31440300D02*
X10170700Y33304600D01*
X12714700Y28896300D02*
X10170700Y31440300D01*
X3670900Y40246600D02*
X4717700Y39199800D01*
X3670900Y46410900D02*
X3670900Y40246600D01*
X4700000Y47440000D02*
X3670900Y46410900D01*
X9178400Y31725600D02*
X12361200Y28542800D01*
X6248400Y31725600D02*
X9178400Y31725600D01*
X5661700Y32312300D02*
X6248400Y31725600D01*
X5661700Y42909300D02*
X5661700Y32312300D01*
X4700000Y43871000D02*
X5661700Y42909300D01*
X4700000Y44900000D02*
X4700000Y43871000D01*
X13143600Y34835500D02*
X13135500Y34835500D01*
X14845800Y37902500D02*
X13686400Y39061900D01*
X13421800Y29603400D02*
X12702600Y30322700D01*
X12702600Y33406600D02*
X12702600Y30322700D01*
X14845800Y36537700D02*
X13143600Y34835500D01*
X14845800Y37425500D02*
X14845800Y36537700D01*
X8309400Y44438900D02*
X13686400Y39061900D01*
X8309400Y46370600D02*
X8309400Y44438900D01*
X8309400Y46370600D02*
X7240000Y47440000D01*
X14845800Y37425500D02*
X14845800Y37902500D01*
X12702600Y34402600D02*
X12702600Y33406600D01*
X13135500Y34835500D02*
X12702600Y34402600D01*
X2750000Y48800000D02*
X3317000Y48800000D01*
X3406000Y48889000D02*
X3317000Y48800000D01*
X5791000Y48889000D02*
X3406000Y48889000D01*
X7240000Y47440000D02*
X5791000Y48889000D01*
X2750000Y47177500D02*
X2750000Y43000000D01*
X4099300Y48526800D02*
X2750000Y47177500D01*
X5240500Y48526800D02*
X4099300Y48526800D01*
X5829600Y47937700D02*
X5240500Y48526800D01*
X5829600Y46310400D02*
X5829600Y47937700D01*
X7240000Y44900000D02*
X5829600Y46310400D01*
X10872200Y31446000D02*
X13068300Y29249900D01*
X10872200Y32213700D02*
X10872200Y31446000D01*
X13855500Y34515600D02*
X13855500Y34502602D01*
X15611700Y38238300D02*
X14398200Y39451800D01*
X15611700Y36271800D02*
X15611700Y38138300D01*
X15611700Y36271800D02*
X13855500Y34515600D01*
X11936800Y41913200D02*
X14398200Y39451800D01*
X11936800Y41858400D02*
X11936800Y41913200D01*
X11056000Y42739200D02*
X11936800Y41858400D01*
X11056000Y43442400D02*
X11056000Y42739200D01*
X11050100Y43448300D02*
X11056000Y43442400D01*
X11050100Y46169900D02*
X11050100Y43448300D01*
X9780000Y47440000D02*
X11050100Y46169900D01*
X15611700Y38138300D02*
X15611700Y38238300D01*
X13500000Y31646600D02*
X14482500Y30664100D01*
X13500000Y34147102D02*
X13500000Y31646600D01*
X13855500Y34502602D02*
X13500000Y34147102D01*
X14482500Y30664100D02*
X14482486Y30664087D01*
X13763300Y31383400D02*
X14482500Y30664100D01*
X13344700Y31094700D02*
X13344700Y31105300D01*
X13316749Y34513851D02*
X13316749Y34466749D01*
X13100000Y34297102D02*
X13316749Y34513851D01*
X13100000Y31350000D02*
X13100000Y34297102D01*
X13344700Y31105300D02*
X13100000Y31350000D01*
X13499600Y34663000D02*
X13499600Y34649600D01*
X13499600Y34649600D02*
X13316749Y34466749D01*
X15204500Y37895500D02*
X15204500Y38047100D01*
X9780000Y43471600D02*
X9780000Y44900000D01*
X9780000Y43471600D02*
X14042300Y39209300D01*
X15204500Y37895500D02*
X15204500Y36367900D01*
X15204500Y36367900D02*
X13499600Y34663000D01*
X15204500Y38047100D02*
X14042300Y39209300D01*
X14128900Y30310500D02*
X13344700Y31094700D01*
X13344700Y31094700D02*
X13340300Y31099100D01*
X13316749Y34466749D02*
X13340300Y34490300D01*
X13775400Y23593000D02*
X13056200Y22873800D01*
X13047800Y22882100D02*
X12590900Y22882100D01*
X13056200Y22873800D02*
X13047800Y22882100D01*
X10203200Y49556800D02*
X12320000Y47440000D01*
X2342100Y49556800D02*
X10203200Y49556800D01*
X2182900Y49397600D02*
X2342100Y49556800D01*
X2182900Y41949400D02*
X2182900Y49397600D01*
X2454600Y41677700D02*
X2182900Y41949400D01*
X2454600Y39238300D02*
X2454600Y41677700D01*
X344000Y37127700D02*
X2454600Y39238300D01*
X344000Y29666900D02*
X344000Y37127700D01*
X3989800Y26021100D02*
X344000Y29666900D01*
X4689400Y26021100D02*
X3989800Y26021100D01*
X6186800Y24523700D02*
X4689400Y26021100D01*
X6186800Y24509600D02*
X6186800Y24523700D01*
X14286600Y33488200D02*
X14369700Y33571300D01*
X14286600Y31567000D02*
X14286600Y33488200D01*
X14836000Y31017600D02*
X14286600Y31567000D01*
X15399000Y34504600D02*
X15834600Y34940200D01*
X15399000Y33144900D02*
X15399000Y34504600D01*
X15318900Y33064800D02*
X15399000Y33144900D01*
X15318900Y32656100D02*
X15318900Y33064800D01*
X15896700Y32078300D02*
X15318900Y32656100D01*
X15967600Y38351200D02*
X15967600Y38482400D01*
X14824000Y32443900D02*
X14824000Y33073200D01*
X14824000Y33073200D02*
X15043100Y33292300D01*
X15043100Y33292300D02*
X15043100Y34843100D01*
X15043100Y34843100D02*
X15161200Y34961200D01*
X15161200Y34961200D02*
X15161200Y35219100D01*
X15161200Y35219100D02*
X15967600Y36025500D01*
X15967600Y36025500D02*
X15967600Y38351200D01*
X15543100Y31724700D02*
X14824000Y32443900D01*
X14650000Y39800000D02*
X14627300Y39800000D01*
X14627300Y39822700D02*
X14650000Y39800000D01*
X15967600Y38482400D02*
X14627300Y39822700D01*
X14627300Y44667300D02*
X14860000Y44900000D01*
X14627300Y39800000D02*
X14627300Y44667300D01*
X16603800Y32785400D02*
X15884700Y33504500D01*
X16085200Y46125200D02*
X17400000Y47440000D01*
X16085200Y43695500D02*
X16085200Y46125200D01*
X15000700Y42611000D02*
X16085200Y43695500D01*
X15000700Y40032700D02*
X15000700Y42611000D01*
X16508000Y38525400D02*
X15000700Y40032700D01*
X16508000Y34661200D02*
X16508000Y38525400D01*
X15884700Y34037900D02*
X16508000Y34661200D01*
X15884700Y33504500D02*
X15884700Y34037900D01*
X17057300Y31800600D02*
X16969500Y31712800D01*
X17531200Y31800600D02*
X17057300Y31800600D01*
X16250300Y32431900D02*
X16969500Y31712800D01*
X17304100Y38253100D02*
X17304100Y37786998D01*
X17304100Y38253100D02*
X17304100Y42577900D01*
X17304100Y42577900D02*
X17951500Y43225300D01*
X17951500Y43225300D02*
X17951500Y43232100D01*
X17951500Y43232100D02*
X18711200Y43991800D01*
X18711200Y43991800D02*
X18711200Y46211200D01*
X19940000Y47440000D02*
X18711200Y46211200D01*
X16863602Y37346500D02*
X16863900Y37346500D01*
X17304100Y37786998D02*
X16863602Y37346500D01*
X17310900Y33492500D02*
X16591700Y34211800D01*
X16863900Y34513800D02*
X16863900Y37346500D01*
X16863900Y37346500D02*
X16863900Y37346500D01*
X16755100Y34405000D02*
X16863900Y34513800D01*
X16755100Y34375200D02*
X16755100Y34405000D01*
X16591700Y34211800D02*
X16755100Y34375200D01*
X18402200Y31909600D02*
X18402200Y30440000D01*
X17837700Y32474100D02*
X18402200Y31909600D01*
X17622300Y32474100D02*
X17837700Y32474100D01*
X16957400Y33139000D02*
X17622300Y32474100D01*
X18371600Y34553200D02*
X17652400Y35272500D01*
X22045700Y47005700D02*
X22480000Y47440000D01*
X22045700Y46502400D02*
X22045700Y47005700D01*
X21386000Y45842700D02*
X22045700Y46502400D01*
X21386000Y43306000D02*
X21386000Y45842700D01*
X21005800Y42925800D02*
X21386000Y43306000D01*
X21005800Y42922500D02*
X21005800Y42925800D01*
X20068100Y41984800D02*
X21005800Y42922500D01*
X20068100Y39218100D02*
X20068100Y41984800D01*
X17650000Y36800000D02*
X20068100Y39218100D01*
X17650000Y35270100D02*
X17650000Y36800000D01*
X17652400Y35272500D02*
X17650000Y35270100D01*
X17246400Y34971200D02*
X18018000Y34199600D01*
X17246400Y37057300D02*
X17246400Y34971200D01*
X19712100Y39523000D02*
X17246400Y37057300D01*
X19712100Y42635600D02*
X19712100Y39523000D01*
X21030000Y43953500D02*
X19712100Y42635600D01*
X21030000Y47824900D02*
X21030000Y43953500D01*
X21867000Y48661900D02*
X21030000Y47824900D01*
X22981000Y48661900D02*
X21867000Y48661900D01*
X23709400Y47933500D02*
X22981000Y48661900D01*
X23709400Y46129400D02*
X23709400Y47933500D01*
X22480000Y44900000D02*
X23709400Y46129400D01*
X26294700Y46165300D02*
X25020000Y47440000D01*
X26294700Y35960500D02*
X26294700Y46165300D01*
X25253000Y34918800D02*
X26294700Y35960500D01*
X25101300Y34918800D02*
X25253000Y34918800D01*
X25101300Y34918900D02*
X25101300Y34918800D01*
X24382000Y34199600D02*
X25101300Y34918900D01*
X19216000Y36836100D02*
X19066600Y36686700D01*
X19216000Y36917000D02*
X19216000Y36836100D01*
X22556000Y40257000D02*
X19216000Y36917000D01*
X22556000Y42436000D02*
X22556000Y40257000D01*
X25020000Y44900000D02*
X22556000Y42436000D01*
X19785800Y35967400D02*
X19066600Y36686700D01*
X25266200Y33669600D02*
X25808400Y34211800D01*
X25266200Y33669600D02*
X25089100Y33492500D01*
X28345500Y14584900D02*
X28711100Y14950500D01*
X28214300Y36617700D02*
X25808400Y34211800D01*
X28214300Y37938200D02*
X28214300Y36617700D01*
X28217600Y37941500D02*
X28214300Y37938200D01*
X28217600Y43861600D02*
X28217600Y37941500D01*
X28712100Y44356100D02*
X28217600Y43861600D01*
X28712100Y46287900D02*
X28712100Y44356100D01*
X27560000Y47440000D02*
X28712100Y46287900D01*
X33079100Y18344900D02*
X33079100Y21535900D01*
X29684700Y14950500D02*
X33079100Y18344900D01*
X28711100Y14950500D02*
X29684700Y14950500D01*
X40925000Y28088100D02*
X37561500Y24724600D01*
X40925000Y32459400D02*
X40925000Y28088100D01*
X27560000Y36670600D02*
X27560000Y44900000D01*
X24735500Y33846100D02*
X27560000Y36670600D01*
X31340900Y46199100D02*
X30100000Y47440000D01*
X31340900Y44216800D02*
X31340900Y46199100D01*
X29500600Y42376500D02*
X31340900Y44216800D01*
X29500600Y36393800D02*
X29500600Y42376500D01*
X27404900Y34298100D02*
X29500600Y36393800D01*
X27404900Y32979900D02*
X27404900Y34298100D01*
X26503300Y32078300D02*
X27404900Y32979900D01*
X30100000Y43788800D02*
X30100000Y44900000D01*
X29144700Y42833500D02*
X30100000Y43788800D01*
X29144700Y36541200D02*
X29144700Y42833500D01*
X26991500Y34388000D02*
X29144700Y36541200D01*
X26991500Y33273700D02*
X26991500Y34388000D01*
X26149700Y32431900D02*
X26991500Y33273700D01*
X28116700Y34003300D02*
X28116700Y32277486D01*
X28116700Y34003300D02*
X30568400Y36455000D01*
X30568400Y36455000D02*
X30568400Y40617700D01*
X30568400Y40617700D02*
X33877400Y43926700D01*
X33877400Y43926700D02*
X33877400Y46202600D01*
X32640000Y47440000D02*
X33877400Y46202600D01*
X28116700Y32277486D02*
X27210408Y31371194D01*
X27760800Y34150700D02*
X27760800Y32628693D01*
X27760800Y34150700D02*
X29856500Y36246400D01*
X29856500Y36246400D02*
X29856500Y42116500D01*
X32640000Y44900000D02*
X29856500Y42116500D01*
X27760800Y32628693D02*
X26856854Y31724747D01*
X29850000Y32600000D02*
X29850000Y32900000D01*
X29850000Y32600000D02*
X27917514Y30667514D01*
X27917514Y30664087D02*
X27917514Y30667514D01*
X33400000Y33550000D02*
X33214800Y33550000D01*
X32100000Y33550000D02*
X32075000Y33525000D01*
X33214800Y33550000D02*
X32100000Y33550000D01*
X36617800Y46002200D02*
X35180000Y47440000D01*
X36617800Y43791700D02*
X36617800Y46002200D01*
X36725300Y43684200D02*
X36617800Y43791700D01*
X36725300Y39889100D02*
X36725300Y43684200D01*
X34284800Y37448600D02*
X36725300Y39889100D01*
X34284800Y34620000D02*
X34284800Y37448600D01*
X33214800Y33550000D02*
X34284800Y34620000D01*
X28820800Y33627700D02*
X28820800Y32274480D01*
X28820800Y32274480D02*
X27563961Y31017641D01*
X33400000Y31650000D02*
X32075000Y31650000D01*
X27923600Y31377200D02*
X27564000Y31017600D01*
X28820800Y34204100D02*
X28820800Y33627700D01*
X30924300Y36307600D02*
X28820800Y34204100D01*
X30924300Y40435800D02*
X30924300Y36307600D01*
X35180000Y44691500D02*
X30924300Y40435800D01*
X35180000Y44900000D02*
X35180000Y44691500D01*
X35503300Y39880000D02*
X35503300Y41467300D01*
X30924300Y35301000D02*
X35503300Y39880000D01*
X30924300Y32256700D02*
X30924300Y35301000D01*
X28624600Y29957000D02*
X30924300Y32256700D01*
X31280200Y38842000D02*
X35696000Y43257800D01*
X31280200Y36160200D02*
X31280200Y38842000D01*
X30568400Y35448400D02*
X31280200Y36160200D01*
X30568400Y32607800D02*
X30568400Y35448400D01*
X28271100Y30310500D02*
X30568400Y32607800D01*
X30644300Y30562500D02*
X29331700Y29249900D01*
X36482400Y30562500D02*
X30644300Y30562500D01*
X38752800Y32832900D02*
X36482400Y30562500D01*
X40272700Y32832900D02*
X38752800Y32832900D01*
X41590800Y34151000D02*
X40272700Y32832900D01*
X44001400Y34151000D02*
X41590800Y34151000D01*
X44217100Y34366700D02*
X44001400Y34151000D01*
X44217100Y41524300D02*
X44217100Y34366700D01*
X41530100Y44211300D02*
X44217100Y41524300D01*
X41530100Y46169900D02*
X41530100Y44211300D01*
X40260000Y47440000D02*
X41530100Y46169900D01*
X38990000Y46170000D02*
X40260000Y44900000D01*
X37476900Y46170000D02*
X38990000Y46170000D01*
X36411700Y47235200D02*
X37476900Y46170000D01*
X36411700Y48042300D02*
X36411700Y47235200D01*
X35731000Y48723000D02*
X36411700Y48042300D01*
X34648900Y48723000D02*
X35731000Y48723000D01*
X33951000Y48025100D02*
X34648900Y48723000D01*
X33951000Y46917900D02*
X33951000Y48025100D01*
X34698900Y46170000D02*
X33951000Y46917900D01*
X35642700Y46170000D02*
X34698900Y46170000D01*
X36261900Y45550800D02*
X35642700Y46170000D01*
X36261900Y43644300D02*
X36261900Y45550800D01*
X36369400Y43536800D02*
X36261900Y43644300D01*
X36369400Y40036500D02*
X36369400Y43536800D01*
X31378600Y35045700D02*
X36369400Y40036500D01*
X31378600Y32003800D02*
X31378600Y35045700D01*
X28978200Y29603400D02*
X31378600Y32003800D01*
X29129100Y19920500D02*
X29014900Y20034700D01*
X29129100Y17512700D02*
X29129100Y19920500D01*
X27650500Y16034100D02*
X29129100Y17512700D01*
X27650500Y16011100D02*
X27650500Y16034100D01*
X24181000Y27634600D02*
X16957400Y20411000D01*
X24212100Y27634600D02*
X24181000Y27634600D01*
X27284900Y15645500D02*
X27650500Y16011100D01*
X25008000Y14938400D02*
X24642400Y15304000D01*
X24204300Y15304000D02*
X24642400Y15304000D01*
X22361400Y13461100D02*
X24204300Y15304000D01*
X22361400Y10034500D02*
X22361400Y13461100D01*
X21001800Y8674900D02*
X22361400Y10034500D01*
X21001800Y4292500D02*
X21001800Y8674900D01*
X20314200Y3604900D02*
X21001800Y4292500D01*
X16842000Y3604900D02*
X20314200Y3604900D01*
X16097900Y2860800D02*
X16842000Y3604900D01*
X16097900Y2040800D02*
X16097900Y2860800D01*
X15428000Y1370900D02*
X16097900Y2040800D01*
X14217800Y1370900D02*
X15428000Y1370900D01*
X13618000Y1970700D02*
X14217800Y1370900D01*
X13618000Y2977200D02*
X13618000Y1970700D01*
X14347500Y3706700D02*
X13618000Y2977200D01*
X15182200Y3706700D02*
X14347500Y3706700D01*
X15907500Y4432000D02*
X15182200Y3706700D01*
X15907500Y9315200D02*
X15907500Y4432000D01*
X15824200Y9398500D02*
X15907500Y9315200D01*
X15824200Y12897100D02*
X15824200Y9398500D01*
X18538300Y15611200D02*
X15824200Y12897100D01*
X18538300Y17042300D02*
X18538300Y15611200D01*
X19432200Y17936200D02*
X18538300Y17042300D01*
X18170900Y11350700D02*
X16497600Y9677400D01*
X18170900Y12872500D02*
X18170900Y11350700D01*
X18327400Y13029000D02*
X18170900Y12872500D01*
X19159300Y13029000D02*
X18327400Y13029000D01*
X20263900Y14133600D02*
X19159300Y13029000D01*
X20263900Y15136400D02*
X20263900Y14133600D01*
X19047500Y16352800D02*
X20263900Y15136400D01*
X19047500Y16844300D02*
X19047500Y16352800D01*
X19785800Y17582600D02*
X19047500Y16844300D01*
X28518900Y16172500D02*
X27638400Y15292000D01*
X28518900Y16399000D02*
X28518900Y16172500D01*
X29571600Y17451700D02*
X28518900Y16399000D01*
X29787100Y17451700D02*
X29571600Y17451700D01*
X30396700Y16842100D02*
X29787100Y17451700D01*
X31054700Y16842100D02*
X30396700Y16842100D01*
X32404800Y18192200D02*
X31054700Y16842100D01*
X32404800Y20184100D02*
X32404800Y18192200D01*
X32086400Y20502500D02*
X32404800Y20184100D01*
X11802100Y6040600D02*
X11802100Y7857200D01*
X10846000Y5084500D02*
X11802100Y6040600D01*
X10846000Y1624600D02*
X10846000Y5084500D01*
X35164100Y7816000D02*
X35164100Y9987200D01*
X33690500Y6342400D02*
X35164100Y7816000D01*
X33690500Y4609000D02*
X33690500Y6342400D01*
X32851500Y3770000D02*
X33690500Y4609000D01*
X32408900Y3770000D02*
X32851500Y3770000D01*
X31611000Y2972100D02*
X32408900Y3770000D01*
X31611000Y787900D02*
X31611000Y2972100D01*
X24561400Y18463800D02*
X24028400Y18996800D01*
X24561400Y16936200D02*
X24561400Y18463800D01*
X24298300Y16673100D02*
X24561400Y16936200D01*
X24298300Y16075500D02*
X24298300Y16673100D01*
X24683700Y15690100D02*
X24298300Y16075500D01*
X24963500Y15690100D02*
X24683700Y15690100D01*
X25361600Y15292000D02*
X24963500Y15690100D01*
X26068700Y15999100D02*
X25703100Y16364700D01*
X24918000Y18814400D02*
X24382000Y19350400D01*
X24918000Y17436500D02*
X24918000Y18814400D01*
X25703100Y16651400D02*
X24918000Y17436500D01*
X25703100Y16364700D02*
X25703100Y16651400D01*
X26931300Y15999100D02*
X27296900Y16364700D01*
X24735500Y19703900D02*
X25454700Y18984800D01*
X27176400Y16485200D02*
X27296900Y16364700D01*
X26989500Y16485200D02*
X27176400Y16485200D01*
X26947200Y16527500D02*
X26989500Y16485200D01*
X26811600Y16527500D02*
X26947200Y16527500D01*
X26198400Y17140700D02*
X26811600Y16527500D01*
X25800900Y17140700D02*
X26198400Y17140700D01*
X25302700Y17638900D02*
X25800900Y17140700D01*
X25302700Y18280700D02*
X25302700Y17638900D01*
X25454600Y18432600D02*
X25302700Y18280700D01*
X25454600Y18984700D02*
X25454600Y18432600D01*
X25454700Y18984800D02*
X25454600Y18984700D01*
X24654500Y13015100D02*
X24288900Y12649500D01*
X23436000Y13080000D02*
X23436000Y13080100D01*
X23858400Y13080000D02*
X23436000Y13080000D01*
X24288900Y12649500D02*
X23858400Y13080000D01*
X27656500Y24746300D02*
X30745900Y27835700D01*
X26369700Y24746300D02*
X27656500Y24746300D01*
X24269700Y22646300D02*
X26369700Y24746300D01*
X24269700Y21485800D02*
X24269700Y22646300D01*
X21416600Y7843300D02*
X21987500Y8414200D01*
X21416600Y7151700D02*
X21416600Y7843300D01*
X21828300Y6740000D02*
X21416600Y7151700D01*
X22443600Y6740000D02*
X21828300Y6740000D01*
X23520500Y7816900D02*
X22443600Y6740000D01*
X23520500Y11174100D02*
X23520500Y7816900D01*
X25008000Y12661600D02*
X23520500Y11174100D01*
X27305400Y25102200D02*
X30392400Y28189200D01*
X26222300Y25102200D02*
X27305400Y25102200D01*
X22983900Y21863800D02*
X26222300Y25102200D01*
D27*
X13421800Y23946600D02*
X14168000Y24692800D01*
X24018900Y28877600D02*
X24148500Y28748000D01*
X21253800Y28877600D02*
X24018900Y28877600D01*
X18160700Y25784500D02*
X21253800Y28877600D01*
X17473300Y25784500D02*
X18160700Y25784500D01*
X15747400Y24058600D02*
X17473300Y25784500D01*
X14802200Y24058600D02*
X15747400Y24058600D01*
X14168000Y24692800D02*
X14802200Y24058600D01*
X13044700Y14080000D02*
X13045000Y14080000D01*
X13045000Y14080000D02*
X13044700Y14080300D01*
X15294700Y16280000D02*
X15294700Y16280300D01*
X13069700Y14080000D02*
X14169700Y15180000D01*
X13045000Y14080000D02*
X13069700Y14080000D01*
X14194700Y15180000D02*
X15294700Y16280000D01*
X14169700Y15180000D02*
X14194700Y15180000D01*
X14169700Y15180000D02*
X14169700Y15180300D01*
X18725100Y18643000D02*
X18725100Y18643300D01*
X17131900Y17050000D02*
X18725100Y18643000D01*
X16075000Y17050000D02*
X17131900Y17050000D01*
X15305300Y16280000D02*
X16075000Y17050000D01*
X15294700Y16280000D02*
X15305300Y16280000D01*
X31075000Y23950000D02*
X31950000Y23950000D01*
X30038800Y24986000D02*
X31075000Y23950000D01*
X30038800Y25007000D02*
X30038800Y24986000D01*
X30038800Y25007000D02*
X30038800Y25007200D01*
X22967800Y35614000D02*
X22967600Y35614000D01*
X21900000Y34550000D02*
X21900000Y34200000D01*
X22963800Y35614000D02*
X21900000Y34550000D01*
X22967600Y35614000D02*
X22963800Y35614000D01*
X22967600Y35614000D02*
X22967800Y35613800D01*
D26*
X39150000Y19250000D02*
X35160000Y19250000D01*
X39775000Y18625000D02*
X39150000Y19250000D01*
X39775000Y12050000D02*
X39775000Y18625000D01*
X38575000Y10850000D02*
X39775000Y12050000D01*
X36800000Y10850000D02*
X38575000Y10850000D01*
X35900000Y11750000D02*
X36800000Y10850000D01*
X28200000Y11750000D02*
X35900000Y11750000D01*
X27642000Y12308000D02*
X28200000Y11750000D01*
X27638400Y12308000D02*
X27642000Y12308000D01*
X27992000Y12662000D02*
X27992000Y12661600D01*
X38490000Y16710000D02*
X35160000Y16710000D01*
X39375000Y15825000D02*
X38490000Y16710000D01*
X39375000Y12200000D02*
X39375000Y15825000D01*
X38425000Y11250000D02*
X39375000Y12200000D01*
X36975000Y11250000D02*
X38425000Y11250000D01*
X36075000Y12150000D02*
X36975000Y11250000D01*
X28500000Y12150000D02*
X36075000Y12150000D01*
X27992000Y12658000D02*
X28500000Y12150000D01*
X27992000Y12661600D02*
X27992000Y12658000D01*
X28345500Y13015000D02*
X28345600Y13015000D01*
X38975000Y14165000D02*
X37700000Y15440000D01*
X38975000Y12375000D02*
X38975000Y14165000D01*
X38250000Y11650000D02*
X38975000Y12375000D01*
X37175000Y11650000D02*
X38250000Y11650000D01*
X36300000Y12525000D02*
X37175000Y11650000D01*
X28850000Y12525000D02*
X36300000Y12525000D01*
X28359900Y13015000D02*
X28850000Y12525000D01*
X28345600Y13015000D02*
X28359900Y13015000D01*
X28345600Y13015000D02*
X28345500Y13015100D01*
X28699100Y13369000D02*
X28699400Y13369000D01*
X29175000Y12900000D02*
X37700000Y12900000D01*
X28706300Y13369000D02*
X29175000Y12900000D01*
X28699400Y13369000D02*
X28706300Y13369000D01*
X28699400Y13369000D02*
X28699100Y13368700D01*
X26931300Y11601000D02*
X26931300Y11600900D01*
X25600000Y10250000D02*
X25600000Y9050000D01*
X26931300Y11581000D02*
X25600000Y10250000D01*
X26931300Y11600900D02*
X26931300Y11581000D01*
D27*
X27284900Y11954000D02*
X27285400Y11954000D01*
X27550000Y11700000D02*
X27550000Y9200000D01*
X27295500Y11954000D02*
X27550000Y11700000D01*
X27285400Y11954000D02*
X27295500Y11954000D01*
X27285400Y11954000D02*
X27284900Y11954500D01*
X22614200Y17586000D02*
X19400000Y20800000D01*
X22614200Y17582600D02*
X22614200Y17586000D01*
X7000000Y14950000D02*
X5200000Y14950000D01*
X8350000Y14950000D02*
X7000000Y14950000D01*
X8600000Y15200000D02*
X8350000Y14950000D01*
X11675000Y36800000D02*
X10400000Y36800000D01*
X9050000Y36800000D02*
X9025000Y36825000D01*
X10400000Y36800000D02*
X9050000Y36800000D01*
X35800000Y33550000D02*
X38200000Y33550000D01*
X38400000Y36000000D02*
X38200000Y36200000D01*
X39550000Y36000000D02*
X38400000Y36000000D01*
X40850000Y36000000D02*
X40875000Y36025000D01*
X39550000Y36000000D02*
X40850000Y36000000D01*
D28*
X38300000Y29300000D02*
X39800000Y29300000D01*
D27*
X39800000Y29300000D02*
X39825000Y29275000D01*
D28*
X35850000Y29500000D02*
X38100000Y29500000D01*
D27*
X38100000Y29500000D02*
X38300000Y29300000D01*
X30745900Y25714000D02*
X30745900Y25714300D01*
X30745900Y25896000D02*
X33250000Y28400000D01*
X30745900Y25714300D02*
X30745900Y25896000D01*
X38200000Y38450000D02*
X38200000Y36200000D01*
X38200000Y36200000D02*
X38200000Y33550000D01*
X22260700Y36321000D02*
X22260700Y36320900D01*
X22260700Y36311000D02*
X21225000Y35275000D01*
X22260700Y36320900D02*
X22260700Y36311000D01*
X11675000Y34375000D02*
X11675000Y36800000D01*
X11675000Y39175000D02*
X11650000Y39200000D01*
X11675000Y36800000D02*
X11675000Y39175000D01*
X12896800Y11753000D02*
X12896800Y11821800D01*
X13800000Y10850000D02*
X12896800Y11753000D01*
X22614200Y17582600D02*
X22614200Y17561000D01*
X11553200Y10447000D02*
X12500000Y9500000D01*
X11553200Y10478000D02*
X11553200Y10447000D01*
X11553200Y10478000D02*
X11553200Y10478200D01*
X1250000Y43000000D02*
X1250000Y48800000D01*
X1250000Y43000000D02*
X1250000Y41929700D01*
X11654100Y27836000D02*
X11654400Y27836000D01*
X11664300Y27836000D02*
X12750000Y26750000D01*
X11654400Y27836000D02*
X11664300Y27836000D01*
X11654400Y27836000D02*
X11654100Y27835700D01*
X15189600Y22179000D02*
X15189400Y22179000D01*
X14200000Y21200000D02*
X13800000Y21200000D01*
X15178800Y22179000D02*
X14200000Y21200000D01*
X15189400Y22179000D02*
X15178800Y22179000D01*
X15189400Y22179000D02*
X15189600Y22178800D01*
X25715100Y15645500D02*
X24989800Y16370800D01*
X12907400Y11822000D02*
X14105300Y13020000D01*
X12896800Y11822000D02*
X12907400Y11822000D01*
X12896800Y11821800D02*
X12896800Y11822000D01*
D28*
X42500000Y29300000D02*
X45600000Y29300000D01*
X42800000Y44900000D02*
X42800000Y47440000D01*
X42800000Y44375000D02*
X42800000Y44900000D01*
X46650000Y40525000D02*
X42800000Y44375000D01*
X46650000Y32125000D02*
X46650000Y40525000D01*
X48140000Y30635000D02*
X46650000Y32125000D01*
X48140000Y29300000D02*
X48140000Y30635000D01*
X48140000Y27815000D02*
X48140000Y29300000D01*
X46650000Y26325000D02*
X48140000Y27815000D01*
X46650000Y10450000D02*
X46650000Y26325000D01*
X42800000Y6600000D02*
X46650000Y10450000D01*
X42800000Y5040000D02*
X42800000Y6600000D01*
X42800000Y2500000D02*
X42800000Y5040000D01*
D26*
X19200000Y12000000D02*
X19200000Y10971000D01*
X19200000Y10971000D02*
X19200000Y7676600D01*
X22717300Y8012400D02*
X22118400Y7413500D01*
X22717300Y13313700D02*
X22717300Y8012400D01*
X23634900Y14231300D02*
X22717300Y13313700D01*
X24300900Y14231300D02*
X23634900Y14231300D01*
X27992000Y14938000D02*
X27992000Y14938400D01*
X29669700Y16620000D02*
X29769400Y16620000D01*
X27992000Y14942000D02*
X29669700Y16620000D01*
X27992000Y14938400D02*
X27992000Y14942000D01*
X29769400Y16620000D02*
X29769700Y16620000D01*
X29769400Y16620000D02*
X29769700Y16619700D01*
X33321700Y9073500D02*
X33886200Y8509000D01*
X28525300Y9073500D02*
X33321700Y9073500D01*
X27452200Y8000400D02*
X28525300Y9073500D01*
X27452200Y6739300D02*
X27452200Y8000400D01*
X23876500Y10115900D02*
X25715100Y11954500D01*
X23876500Y7682800D02*
X23876500Y10115900D01*
X24820000Y6739300D02*
X23876500Y7682800D01*
X25881100Y6739300D02*
X24820000Y6739300D01*
D27*
X11199700Y13519000D02*
X11199700Y13518800D01*
X18371600Y18996800D02*
X18371500Y18996900D01*
X16924700Y17550000D02*
X18371500Y18996900D01*
X15225000Y17550000D02*
X16924700Y17550000D01*
X11199700Y13525000D02*
X15225000Y17550000D01*
X11199700Y13519000D02*
X11199700Y13525000D01*
X18371500Y18996900D02*
X18371600Y18997000D01*
D26*
X5750000Y21300000D02*
X4700000Y21300000D01*
X5750000Y21300000D02*
X5950000Y21500000D01*
X5950000Y22550000D02*
X5950000Y21500000D01*
X3313500Y8724400D02*
X3313500Y7486500D01*
X2136800Y12100800D02*
X2136800Y15429400D01*
X3313500Y10924100D02*
X2136800Y12100800D01*
X3313500Y8724400D02*
X3313500Y10924100D01*
X2136800Y15429400D02*
X2136800Y18736800D01*
X2136800Y18736800D02*
X4650000Y21250000D01*
X3313500Y7486500D02*
X3650000Y7150000D01*
X4700000Y21300000D02*
X4650000Y21250000D01*
X16250253Y21118146D02*
X16250253Y21100253D01*
X16250253Y21100253D02*
X14650000Y19500000D01*
X14650000Y19500000D02*
X14350000Y19500000D01*
X14350000Y19500000D02*
X13950000Y19100000D01*
X13950000Y19100000D02*
X13950000Y18050000D01*
X13950000Y18050000D02*
X10700000Y14800000D01*
X10700000Y14800000D02*
X10300000Y14800000D01*
X10300000Y14800000D02*
X9000000Y16100000D01*
X9000000Y16100000D02*
X4400000Y16100000D01*
X4400000Y16100000D02*
X4007602Y15707602D01*
X4007602Y15707602D02*
X4007602Y12937800D01*
X4007602Y12937800D02*
X6149900Y10795502D01*
X6149900Y10795502D02*
X6149900Y9563600D01*
X26593200Y7083400D02*
X26593200Y6034500D01*
X24905300Y8771300D02*
X26593200Y7083400D01*
X24905300Y10437500D02*
X24905300Y8771300D01*
X26068700Y11600900D02*
X24905300Y10437500D01*
X3150000Y30550000D02*
X3100000Y30600000D01*
X5950000Y30550000D02*
X3150000Y30550000D01*
X40325000Y33550000D02*
X39700000Y33550000D01*
X41575000Y34800000D02*
X40325000Y33550000D01*
X42950000Y34800000D02*
X41575000Y34800000D01*
X9300000Y39200000D02*
X10150000Y39200000D01*
X8100000Y38000000D02*
X9300000Y39200000D01*
X6950000Y38000000D02*
X8100000Y38000000D01*
X27917500Y22885900D02*
X28636800Y22166700D01*
X29274200Y21529200D02*
X28636800Y22166700D01*
X29274200Y20727800D02*
X29274200Y21529200D01*
X29688300Y20313700D02*
X29274200Y20727800D01*
X29688300Y19457200D02*
X29688300Y20313700D01*
X29771300Y19374200D02*
X29688300Y19457200D01*
X29771300Y18870900D02*
X29771300Y19374200D01*
X30149100Y18493100D02*
X29771300Y18870900D01*
X30149100Y18477200D02*
X30149100Y18493100D01*
X32640000Y6868600D02*
X31174400Y8334200D01*
X32640000Y5040000D02*
X32640000Y6868600D01*
X13793000Y29957000D02*
X14725000Y29025000D01*
X13775400Y29957000D02*
X13793000Y29957000D01*
M02*
