G04 #@! TF.FileFunction,Legend,Bot*
%FSLAX46Y46*%
G04 Gerber Fmt 4.6, Leading zero omitted, Abs format (unit mm)*
G04 Created by KiCad (PCBNEW 4.0.7) date 04/11/18 17:00:27*
%MOMM*%
%LPD*%
G01*
G04 APERTURE LIST*
%ADD10C,0.100000*%
%ADD11C,0.150000*%
%ADD12C,0.200000*%
%ADD13C,0.381000*%
%ADD14C,0.127000*%
%ADD15C,0.250000*%
%ADD16C,0.097500*%
G04 APERTURE END LIST*
D10*
D11*
X1900000Y16250000D02*
X1900000Y18450000D01*
X16100000Y21250000D02*
X16100000Y23250000D01*
X16100000Y23250000D02*
X2300000Y23250000D01*
X500000Y20650000D02*
X500000Y19850000D01*
X500000Y19850000D02*
G75*
G02X1900000Y18450000I0J-1400000D01*
G01*
X500000Y21950000D02*
X500000Y20650000D01*
X1900000Y16250000D02*
X1900000Y10950000D01*
X16100000Y21250000D02*
X16100000Y18150000D01*
X16100000Y12450000D02*
X16100000Y15950000D01*
X3600000Y9250000D02*
X16100000Y9250000D01*
X16100000Y9250000D02*
X16100000Y10150000D01*
D12*
X19974264Y29793503D02*
X18206497Y28025736D01*
X18206497Y28025736D02*
X19125736Y27106497D01*
X19125736Y27106497D02*
X20893503Y28874264D01*
X20893503Y28874264D02*
X19974264Y29793503D01*
X23200736Y23206497D02*
X24968503Y24974264D01*
X24968503Y24974264D02*
X24049264Y25893503D01*
X24049264Y25893503D02*
X22281497Y24125736D01*
X22281497Y24125736D02*
X23200736Y23206497D01*
D13*
X22473528Y28956371D02*
G75*
G03X22473528Y28956371I-200000J0D01*
G01*
D14*
X21849264Y23865202D02*
X24253427Y26269365D01*
X24253427Y26269365D02*
X21425000Y29097792D01*
X21425000Y29097792D02*
X18950126Y26622918D01*
X18950126Y26622918D02*
X21778553Y23794491D01*
X21778553Y23794491D02*
X21919975Y23935913D01*
D12*
X39250000Y13550000D02*
X41750000Y13550000D01*
X41750000Y13550000D02*
X41750000Y14850000D01*
X41750000Y14850000D02*
X39250000Y14850000D01*
X39250000Y14850000D02*
X39250000Y13550000D01*
X24624264Y10743503D02*
X22856497Y8975736D01*
X22856497Y8975736D02*
X23775736Y8056497D01*
X23775736Y8056497D02*
X25543503Y9824264D01*
X25543503Y9824264D02*
X24624264Y10743503D01*
X23424264Y11943503D02*
X21656497Y10175736D01*
X21656497Y10175736D02*
X22575736Y9256497D01*
X22575736Y9256497D02*
X24343503Y11024264D01*
X24343503Y11024264D02*
X23424264Y11943503D01*
X39250000Y17300000D02*
X41750000Y17300000D01*
X41750000Y17300000D02*
X41750000Y18600000D01*
X41750000Y18600000D02*
X39250000Y18600000D01*
X39250000Y18600000D02*
X39250000Y17300000D01*
X28856497Y11174264D02*
X30624264Y9406497D01*
X30624264Y9406497D02*
X31543503Y10325736D01*
X31543503Y10325736D02*
X29775736Y12093503D01*
X29775736Y12093503D02*
X28856497Y11174264D01*
X27656497Y10024264D02*
X29424264Y8256497D01*
X29424264Y8256497D02*
X30343503Y9175736D01*
X30343503Y9175736D02*
X28575736Y10943503D01*
X28575736Y10943503D02*
X27656497Y10024264D01*
X31556497Y27474264D02*
X33324264Y25706497D01*
X33324264Y25706497D02*
X34243503Y26625736D01*
X34243503Y26625736D02*
X32475736Y28393503D01*
X32475736Y28393503D02*
X31556497Y27474264D01*
X22150736Y35731497D02*
X23918503Y37499264D01*
X23918503Y37499264D02*
X22999264Y38418503D01*
X22999264Y38418503D02*
X21231497Y36650736D01*
X21231497Y36650736D02*
X22150736Y35731497D01*
X12143503Y27500736D02*
X10375736Y29268503D01*
X10375736Y29268503D02*
X9456497Y28349264D01*
X9456497Y28349264D02*
X11224264Y26581497D01*
X11224264Y26581497D02*
X12143503Y27500736D01*
X20475736Y19156497D02*
X22243503Y20924264D01*
X22243503Y20924264D02*
X21324264Y21843503D01*
X21324264Y21843503D02*
X19556497Y20075736D01*
X19556497Y20075736D02*
X20475736Y19156497D01*
X30456497Y26349264D02*
X32224264Y24581497D01*
X32224264Y24581497D02*
X33143503Y25500736D01*
X33143503Y25500736D02*
X31375736Y27268503D01*
X31375736Y27268503D02*
X30456497Y26349264D01*
X21050736Y36831497D02*
X22818503Y38599264D01*
X22818503Y38599264D02*
X21899264Y39518503D01*
X21899264Y39518503D02*
X20131497Y37750736D01*
X20131497Y37750736D02*
X21050736Y36831497D01*
X11043503Y26400736D02*
X9275736Y28168503D01*
X9275736Y28168503D02*
X8356497Y27249264D01*
X8356497Y27249264D02*
X10124264Y25481497D01*
X10124264Y25481497D02*
X11043503Y26400736D01*
X21575736Y18056497D02*
X23343503Y19824264D01*
X23343503Y19824264D02*
X22424264Y20743503D01*
X22424264Y20743503D02*
X20656497Y18975736D01*
X20656497Y18975736D02*
X21575736Y18056497D01*
X29643503Y26175736D02*
X27875736Y27943503D01*
X27875736Y27943503D02*
X26956497Y27024264D01*
X26956497Y27024264D02*
X28724264Y25256497D01*
X28724264Y25256497D02*
X29643503Y26175736D01*
X23300736Y34656497D02*
X25068503Y36424264D01*
X25068503Y36424264D02*
X24149264Y37343503D01*
X24149264Y37343503D02*
X22381497Y35575736D01*
X22381497Y35575736D02*
X23300736Y34656497D01*
X32743503Y11475736D02*
X30975736Y13243503D01*
X30975736Y13243503D02*
X30056497Y12324264D01*
X30056497Y12324264D02*
X31824264Y10556497D01*
X31824264Y10556497D02*
X32743503Y11475736D01*
X46100000Y14950000D02*
X48600000Y14950000D01*
X48600000Y14950000D02*
X48600000Y16250000D01*
X48600000Y16250000D02*
X46100000Y16250000D01*
X46100000Y16250000D02*
X46100000Y14950000D01*
X46100000Y18550000D02*
X48600000Y18550000D01*
X48600000Y18550000D02*
X48600000Y19850000D01*
X48600000Y19850000D02*
X46100000Y19850000D01*
X46100000Y19850000D02*
X46100000Y18550000D01*
X3350000Y29250000D02*
X850000Y29250000D01*
X850000Y29250000D02*
X850000Y27950000D01*
X850000Y27950000D02*
X3350000Y27950000D01*
X3350000Y27950000D02*
X3350000Y29250000D01*
X32925000Y32100000D02*
X32925000Y29600000D01*
X32925000Y29600000D02*
X34225000Y29600000D01*
X34225000Y29600000D02*
X34225000Y32100000D01*
X34225000Y32100000D02*
X32925000Y32100000D01*
X34175000Y33075000D02*
X34175000Y35575000D01*
X34175000Y35575000D02*
X32875000Y35575000D01*
X32875000Y35575000D02*
X32875000Y33075000D01*
X32875000Y33075000D02*
X34175000Y33075000D01*
X850000Y26350000D02*
X3350000Y26350000D01*
X3350000Y26350000D02*
X3350000Y27650000D01*
X3350000Y27650000D02*
X850000Y27650000D01*
X850000Y27650000D02*
X850000Y26350000D01*
D15*
X40700000Y28600000D02*
X40700000Y30000000D01*
D12*
X11931497Y30949264D02*
X13699264Y29181497D01*
X13699264Y29181497D02*
X14618503Y30100736D01*
X14618503Y30100736D02*
X12850736Y31868503D01*
X12850736Y31868503D02*
X11931497Y30949264D01*
X14806497Y28224264D02*
X16574264Y26456497D01*
X16574264Y26456497D02*
X17493503Y27375736D01*
X17493503Y27375736D02*
X15725736Y29143503D01*
X15725736Y29143503D02*
X14806497Y28224264D01*
D10*
X244048Y10066667D02*
X708333Y10066667D01*
X801190Y10097619D01*
X863095Y10159524D01*
X894048Y10252381D01*
X894048Y10314286D01*
X305952Y9788095D02*
X275000Y9757143D01*
X244048Y9695238D01*
X244048Y9540476D01*
X275000Y9478572D01*
X305952Y9447619D01*
X367857Y9416667D01*
X429762Y9416667D01*
X522619Y9447619D01*
X894048Y9819048D01*
X894048Y9416667D01*
D16*
X19390754Y29662454D02*
X19434526Y29662454D01*
X19522073Y29706227D01*
X19565847Y29750000D01*
X19609619Y29837547D01*
X19609619Y29925094D01*
X19587733Y29990753D01*
X19522073Y30100186D01*
X19456413Y30165846D01*
X19346980Y30231506D01*
X19281320Y30253393D01*
X19193773Y30253393D01*
X19106227Y30209619D01*
X19062454Y30165846D01*
X19018680Y30078300D01*
X19018680Y30034527D01*
X18821701Y29925093D02*
X18537175Y29640567D01*
X18865474Y29618680D01*
X18799814Y29553020D01*
X18777927Y29487361D01*
X18777927Y29443587D01*
X18799814Y29377927D01*
X18909247Y29268494D01*
X18974907Y29246607D01*
X19018680Y29246608D01*
X19084340Y29268494D01*
X19215661Y29399814D01*
X19237546Y29465474D01*
X19237547Y29509247D01*
X24915754Y23562454D02*
X24959526Y23562454D01*
X25047073Y23606227D01*
X25090847Y23650000D01*
X25134619Y23737547D01*
X25134619Y23825094D01*
X25112733Y23890753D01*
X25047073Y24000186D01*
X24981413Y24065846D01*
X24871980Y24131506D01*
X24806320Y24153393D01*
X24718773Y24153393D01*
X24631227Y24109619D01*
X24587454Y24065846D01*
X24543680Y23978300D01*
X24543680Y23934527D01*
X24259154Y23431134D02*
X24565567Y23124721D01*
X24193494Y23715661D02*
X24631227Y23496793D01*
X24346701Y23212268D01*
D10*
X24644734Y27486105D02*
X23760850Y27309328D01*
X24291180Y27839658D02*
X24114404Y26955775D01*
X24063896Y27965928D02*
X24063896Y28016435D01*
X24038642Y28092196D01*
X23912373Y28218465D01*
X23836612Y28243719D01*
X23786104Y28243719D01*
X23710342Y28218466D01*
X23659835Y28167959D01*
X23609328Y28066943D01*
X23609327Y27460851D01*
X23281027Y27789151D01*
D16*
X40608334Y12667857D02*
X40639286Y12636905D01*
X40732143Y12605952D01*
X40794048Y12605952D01*
X40886905Y12636905D01*
X40948810Y12698810D01*
X40979762Y12760714D01*
X41010714Y12884524D01*
X41010714Y12977381D01*
X40979762Y13101190D01*
X40948810Y13163095D01*
X40886905Y13225000D01*
X40794048Y13255952D01*
X40732143Y13255952D01*
X40639286Y13225000D01*
X40608334Y13194048D01*
X40020238Y13255952D02*
X40329762Y13255952D01*
X40360714Y12946429D01*
X40329762Y12977381D01*
X40267857Y13008333D01*
X40113095Y13008333D01*
X40051191Y12977381D01*
X40020238Y12946429D01*
X39989286Y12884524D01*
X39989286Y12729762D01*
X40020238Y12667857D01*
X40051191Y12636905D01*
X40113095Y12605952D01*
X40267857Y12605952D01*
X40329762Y12636905D01*
X40360714Y12667857D01*
X25854968Y10726668D02*
X25898740Y10726668D01*
X25986287Y10770441D01*
X26030061Y10814214D01*
X26073833Y10901761D01*
X26073833Y10989308D01*
X26051947Y11054967D01*
X25986287Y11164400D01*
X25920627Y11230060D01*
X25811194Y11295720D01*
X25745534Y11317607D01*
X25657987Y11317607D01*
X25570441Y11273833D01*
X25526668Y11230060D01*
X25482894Y11142514D01*
X25482894Y11098741D01*
X25045162Y10748554D02*
X25132708Y10836100D01*
X25198368Y10857987D01*
X25242141Y10857987D01*
X25351575Y10836100D01*
X25461007Y10770441D01*
X25636100Y10595347D01*
X25657987Y10529688D01*
X25657987Y10485915D01*
X25636101Y10420254D01*
X25548554Y10332708D01*
X25482894Y10310822D01*
X25439121Y10310821D01*
X25373461Y10332708D01*
X25264028Y10442141D01*
X25242141Y10507801D01*
X25242141Y10551575D01*
X25264028Y10617234D01*
X25351575Y10704781D01*
X25417235Y10726668D01*
X25461007Y10726668D01*
X25526667Y10704781D01*
X24654968Y11926668D02*
X24698740Y11926668D01*
X24786287Y11970441D01*
X24830061Y12014214D01*
X24873833Y12101761D01*
X24873833Y12189308D01*
X24851947Y12254967D01*
X24786287Y12364400D01*
X24720627Y12430060D01*
X24611194Y12495720D01*
X24545534Y12517607D01*
X24457987Y12517607D01*
X24370441Y12473833D01*
X24326668Y12430060D01*
X24282894Y12342514D01*
X24282894Y12298741D01*
X24085915Y12189307D02*
X23779502Y11882894D01*
X24436101Y11620254D01*
X40608334Y16417857D02*
X40639286Y16386905D01*
X40732143Y16355952D01*
X40794048Y16355952D01*
X40886905Y16386905D01*
X40948810Y16448810D01*
X40979762Y16510714D01*
X41010714Y16634524D01*
X41010714Y16727381D01*
X40979762Y16851190D01*
X40948810Y16913095D01*
X40886905Y16975000D01*
X40794048Y17005952D01*
X40732143Y17005952D01*
X40639286Y16975000D01*
X40608334Y16944048D01*
X40236905Y16727381D02*
X40298810Y16758333D01*
X40329762Y16789286D01*
X40360714Y16851190D01*
X40360714Y16882143D01*
X40329762Y16944048D01*
X40298810Y16975000D01*
X40236905Y17005952D01*
X40113095Y17005952D01*
X40051191Y16975000D01*
X40020238Y16944048D01*
X39989286Y16882143D01*
X39989286Y16851190D01*
X40020238Y16789286D01*
X40051191Y16758333D01*
X40113095Y16727381D01*
X40236905Y16727381D01*
X40298810Y16696429D01*
X40329762Y16665476D01*
X40360714Y16603571D01*
X40360714Y16479762D01*
X40329762Y16417857D01*
X40298810Y16386905D01*
X40236905Y16355952D01*
X40113095Y16355952D01*
X40051191Y16386905D01*
X40020238Y16417857D01*
X39989286Y16479762D01*
X39989286Y16603571D01*
X40020238Y16665476D01*
X40051191Y16696429D01*
X40113095Y16727381D01*
X32131320Y8690380D02*
X32131320Y8646607D01*
X32175093Y8559060D01*
X32218867Y8515287D01*
X32306413Y8471514D01*
X32393960Y8471514D01*
X32459619Y8493400D01*
X32569053Y8559061D01*
X32634712Y8624721D01*
X32700372Y8734153D01*
X32722259Y8799813D01*
X32722259Y8887360D01*
X32678486Y8974906D01*
X32634712Y9018680D01*
X32547166Y9062453D01*
X32503394Y9062453D01*
X31649814Y9084339D02*
X31912453Y8821700D01*
X31781133Y8953020D02*
X32240753Y9412639D01*
X32218867Y9303206D01*
X32218867Y9215659D01*
X32240753Y9150000D01*
X31212081Y9522073D02*
X31474720Y9259433D01*
X31343400Y9390753D02*
X31803020Y9850372D01*
X31781133Y9740939D01*
X31781133Y9653392D01*
X31803020Y9587733D01*
X27931320Y8140380D02*
X27931320Y8096607D01*
X27975093Y8009060D01*
X28018867Y7965287D01*
X28106413Y7921514D01*
X28193960Y7921514D01*
X28259619Y7943400D01*
X28369053Y8009061D01*
X28434712Y8074721D01*
X28500372Y8184153D01*
X28522259Y8249813D01*
X28522259Y8337360D01*
X28478486Y8424906D01*
X28434712Y8468680D01*
X28347166Y8512453D01*
X28303394Y8512453D01*
X27449814Y8534339D02*
X27712453Y8271700D01*
X27581133Y8403020D02*
X28040753Y8862639D01*
X28018867Y8753206D01*
X28018867Y8665659D01*
X28040753Y8600000D01*
X27690567Y9125280D02*
X27690567Y9169053D01*
X27668680Y9234712D01*
X27559246Y9344146D01*
X27493587Y9366032D01*
X27449814Y9366033D01*
X27384154Y9344146D01*
X27340381Y9300372D01*
X27296607Y9212826D01*
X27296607Y8687546D01*
X27012081Y8972073D01*
X31281320Y28090380D02*
X31281320Y28046607D01*
X31325093Y27959060D01*
X31368867Y27915287D01*
X31456413Y27871514D01*
X31543960Y27871514D01*
X31609619Y27893400D01*
X31719053Y27959061D01*
X31784712Y28024721D01*
X31850372Y28134153D01*
X31872259Y28199813D01*
X31872259Y28287360D01*
X31828486Y28374906D01*
X31784712Y28418680D01*
X31697166Y28462453D01*
X31653394Y28462453D01*
X30799814Y28484339D02*
X31062453Y28221700D01*
X30931133Y28353020D02*
X31390753Y28812639D01*
X31368867Y28703206D01*
X31368867Y28615659D01*
X31390753Y28550000D01*
X31106227Y29097166D02*
X30821700Y29381692D01*
X30799814Y29053392D01*
X30734153Y29119053D01*
X30668494Y29140939D01*
X30624721Y29140940D01*
X30559061Y29119053D01*
X30449628Y29009619D01*
X30427741Y28943960D01*
X30427741Y28900186D01*
X30449627Y28834526D01*
X30580947Y28703206D01*
X30646607Y28681320D01*
X30690381Y28681320D01*
X21359621Y35581320D02*
X21403394Y35581320D01*
X21490941Y35625093D01*
X21534714Y35668867D01*
X21578487Y35756413D01*
X21578487Y35843960D01*
X21556601Y35909619D01*
X21490940Y36019053D01*
X21425280Y36084712D01*
X21315848Y36150372D01*
X21250188Y36172259D01*
X21162641Y36172259D01*
X21075095Y36128486D01*
X21031321Y36084712D01*
X20987548Y35997166D01*
X20987548Y35953394D01*
X20965662Y35099814D02*
X21228301Y35362453D01*
X21096981Y35231133D02*
X20637362Y35690753D01*
X20746795Y35668867D01*
X20834342Y35668867D01*
X20900001Y35690753D01*
X20265289Y35012268D02*
X20571702Y34705854D01*
X20199629Y35296794D02*
X20637361Y35077927D01*
X20352835Y34793401D01*
X9131320Y29040380D02*
X9131320Y28996607D01*
X9175093Y28909060D01*
X9218867Y28865287D01*
X9306413Y28821514D01*
X9393960Y28821514D01*
X9459619Y28843400D01*
X9569053Y28909061D01*
X9634712Y28974721D01*
X9700372Y29084153D01*
X9722259Y29149813D01*
X9722259Y29237360D01*
X9678486Y29324906D01*
X9634712Y29368680D01*
X9547166Y29412453D01*
X9503394Y29412453D01*
X8649814Y29434339D02*
X8912453Y29171700D01*
X8781133Y29303020D02*
X9240753Y29762639D01*
X9218867Y29653206D01*
X9218867Y29565659D01*
X9240753Y29500000D01*
X8693587Y30309806D02*
X8912453Y30090939D01*
X8715474Y29850187D01*
X8715474Y29893960D01*
X8693587Y29959619D01*
X8584153Y30069053D01*
X8518494Y30090939D01*
X8474721Y30090940D01*
X8409061Y30069053D01*
X8299628Y29959619D01*
X8277741Y29893960D01*
X8277741Y29850186D01*
X8299627Y29784526D01*
X8409060Y29675093D01*
X8474721Y29653207D01*
X8518494Y29653207D01*
X23159620Y22281320D02*
X23203393Y22281320D01*
X23290940Y22325093D01*
X23334713Y22368867D01*
X23378486Y22456413D01*
X23378486Y22543960D01*
X23356600Y22609619D01*
X23290939Y22719053D01*
X23225279Y22784712D01*
X23115847Y22850372D01*
X23050187Y22872259D01*
X22962640Y22872259D01*
X22875094Y22828486D01*
X22831320Y22784712D01*
X22787547Y22697166D01*
X22787547Y22653394D01*
X22765661Y21799814D02*
X23028300Y22062453D01*
X22896980Y21931133D02*
X22437361Y22390753D01*
X22546794Y22368867D01*
X22634341Y22368867D01*
X22700000Y22390753D01*
X22152834Y22106227D02*
X21846422Y21799814D01*
X22503021Y21537174D01*
X30181320Y27215380D02*
X30181320Y27171607D01*
X30225093Y27084060D01*
X30268867Y27040287D01*
X30356413Y26996514D01*
X30443960Y26996514D01*
X30509619Y27018400D01*
X30619053Y27084061D01*
X30684712Y27149721D01*
X30750372Y27259153D01*
X30772259Y27324813D01*
X30772259Y27412360D01*
X30728486Y27499906D01*
X30684712Y27543680D01*
X30597166Y27587453D01*
X30553394Y27587453D01*
X29699814Y27609339D02*
X29962453Y27346700D01*
X29831133Y27478020D02*
X30290753Y27937639D01*
X30268867Y27828206D01*
X30268867Y27740659D01*
X30290753Y27675000D01*
X29699814Y28134619D02*
X29765474Y28112732D01*
X29809247Y28112733D01*
X29874906Y28134619D01*
X29896793Y28156506D01*
X29918680Y28222166D01*
X29918680Y28265939D01*
X29896793Y28331599D01*
X29809246Y28419146D01*
X29743587Y28441032D01*
X29699814Y28441033D01*
X29634154Y28419146D01*
X29612267Y28397259D01*
X29590381Y28331600D01*
X29590381Y28287825D01*
X29612267Y28222166D01*
X29699814Y28134619D01*
X29721701Y28068960D01*
X29721700Y28025186D01*
X29699813Y27959526D01*
X29612267Y27871980D01*
X29546607Y27850093D01*
X29502834Y27850093D01*
X29437174Y27871979D01*
X29349627Y27959526D01*
X29327741Y28025186D01*
X29327741Y28068960D01*
X29349628Y28134619D01*
X29437174Y28222166D01*
X29502834Y28244053D01*
X29546608Y28244053D01*
X29612267Y28222166D01*
X20434620Y36781320D02*
X20478393Y36781320D01*
X20565940Y36825093D01*
X20609713Y36868867D01*
X20653486Y36956413D01*
X20653486Y37043960D01*
X20631600Y37109619D01*
X20565939Y37219053D01*
X20500279Y37284712D01*
X20390847Y37350372D01*
X20325187Y37372259D01*
X20237640Y37372259D01*
X20150094Y37328486D01*
X20106320Y37284712D01*
X20062547Y37197166D01*
X20062547Y37153394D01*
X20040661Y36299814D02*
X20303300Y36562453D01*
X20171980Y36431133D02*
X19712361Y36890753D01*
X19821794Y36868867D01*
X19909341Y36868867D01*
X19975000Y36890753D01*
X19821794Y36080947D02*
X19734247Y35993400D01*
X19668587Y35971514D01*
X19624814Y35971514D01*
X19515381Y35993400D01*
X19405947Y36059061D01*
X19230854Y36234154D01*
X19208967Y36299814D01*
X19208968Y36343587D01*
X19230854Y36409246D01*
X19318401Y36496793D01*
X19384061Y36518680D01*
X19427834Y36518680D01*
X19493494Y36496793D01*
X19602927Y36387360D01*
X19624814Y36321700D01*
X19624814Y36277927D01*
X19602927Y36212267D01*
X19515381Y36124720D01*
X19449721Y36102834D01*
X19405947Y36102834D01*
X19340288Y36124721D01*
X11606320Y24790380D02*
X11606320Y24746607D01*
X11650093Y24659060D01*
X11693867Y24615287D01*
X11781413Y24571514D01*
X11868960Y24571514D01*
X11934619Y24593400D01*
X12044053Y24659061D01*
X12109712Y24724721D01*
X12175372Y24834153D01*
X12197259Y24899813D01*
X12197259Y24987360D01*
X12153486Y25074906D01*
X12109712Y25118680D01*
X12022166Y25162453D01*
X11978394Y25162453D01*
X11803300Y25337547D02*
X11803300Y25381320D01*
X11781413Y25446979D01*
X11671979Y25556413D01*
X11606320Y25578299D01*
X11562547Y25578300D01*
X11496887Y25556413D01*
X11453114Y25512639D01*
X11409340Y25425093D01*
X11409340Y24899813D01*
X11124814Y25184339D01*
X11299907Y25928485D02*
X11256133Y25972259D01*
X11190474Y25994146D01*
X11146701Y25994146D01*
X11081040Y25972259D01*
X10971607Y25906599D01*
X10862174Y25797166D01*
X10796514Y25687733D01*
X10774628Y25622073D01*
X10774628Y25578300D01*
X10796514Y25512639D01*
X10840288Y25468866D01*
X10905947Y25446980D01*
X10949721Y25446979D01*
X11015381Y25468867D01*
X11124813Y25534526D01*
X11234246Y25643960D01*
X11299907Y25753393D01*
X11321794Y25819053D01*
X11321793Y25862826D01*
X11299907Y25928485D01*
X24159620Y21181320D02*
X24203393Y21181320D01*
X24290940Y21225093D01*
X24334713Y21268867D01*
X24378486Y21356413D01*
X24378486Y21443960D01*
X24356600Y21509619D01*
X24290939Y21619053D01*
X24225279Y21684712D01*
X24115847Y21750372D01*
X24050187Y21772259D01*
X23962640Y21772259D01*
X23875094Y21728486D01*
X23831320Y21684712D01*
X23787547Y21597166D01*
X23787547Y21553394D01*
X23612453Y21378300D02*
X23568680Y21378300D01*
X23503021Y21356413D01*
X23393587Y21246979D01*
X23371701Y21181320D01*
X23371700Y21137547D01*
X23393587Y21071887D01*
X23437361Y21028114D01*
X23524907Y20984340D01*
X24050187Y20984340D01*
X23765661Y20699814D01*
X23174720Y20940567D02*
X23130947Y20940567D01*
X23065288Y20918680D01*
X22955854Y20809246D01*
X22933968Y20743587D01*
X22933967Y20699814D01*
X22955854Y20634154D01*
X22999628Y20590381D01*
X23087174Y20546607D01*
X23612454Y20546607D01*
X23327927Y20262081D01*
X30131320Y24340380D02*
X30131320Y24296607D01*
X30175093Y24209060D01*
X30218867Y24165287D01*
X30306413Y24121514D01*
X30393960Y24121514D01*
X30459619Y24143400D01*
X30569053Y24209061D01*
X30634712Y24274721D01*
X30700372Y24384153D01*
X30722259Y24449813D01*
X30722259Y24537360D01*
X30678486Y24624906D01*
X30634712Y24668680D01*
X30547166Y24712453D01*
X30503394Y24712453D01*
X30328300Y24887547D02*
X30328300Y24931320D01*
X30306413Y24996979D01*
X30196979Y25106413D01*
X30131320Y25128299D01*
X30087547Y25128300D01*
X30021887Y25106413D01*
X29978114Y25062639D01*
X29934340Y24975093D01*
X29934340Y24449813D01*
X29649814Y24734339D01*
X29956227Y25347166D02*
X29671700Y25631692D01*
X29649814Y25303392D01*
X29584153Y25369053D01*
X29518494Y25390939D01*
X29474721Y25390940D01*
X29409061Y25369053D01*
X29299628Y25259619D01*
X29277741Y25193960D01*
X29277741Y25150186D01*
X29299627Y25084526D01*
X29430947Y24953206D01*
X29496607Y24931320D01*
X29540381Y24931320D01*
X22334620Y34556320D02*
X22378393Y34556320D01*
X22465940Y34600093D01*
X22509713Y34643867D01*
X22553486Y34731413D01*
X22553486Y34818960D01*
X22531600Y34884619D01*
X22465939Y34994053D01*
X22400279Y35059712D01*
X22290847Y35125372D01*
X22225187Y35147259D01*
X22137640Y35147259D01*
X22050094Y35103486D01*
X22006320Y35059712D01*
X21962547Y34972166D01*
X21962547Y34928394D01*
X21787453Y34753300D02*
X21743680Y34753300D01*
X21678021Y34731413D01*
X21568587Y34621979D01*
X21546701Y34556320D01*
X21546700Y34512547D01*
X21568587Y34446887D01*
X21612361Y34403114D01*
X21699907Y34359340D01*
X22225187Y34359340D01*
X21940661Y34074814D01*
X21240288Y33987268D02*
X21546701Y33680854D01*
X21174628Y34271794D02*
X21612360Y34052927D01*
X21327834Y33768401D01*
X32068680Y12815475D02*
X32287546Y12596608D01*
X32747166Y13056228D01*
X32353207Y13362641D02*
X32353207Y13406414D01*
X32331320Y13472074D01*
X32221886Y13581507D01*
X32156227Y13603393D01*
X32112454Y13603394D01*
X32046794Y13581507D01*
X32003021Y13537733D01*
X31959247Y13450187D01*
X31959247Y12924907D01*
X31674721Y13209434D01*
X45158334Y15305952D02*
X45375000Y15615476D01*
X45529762Y15305952D02*
X45529762Y15955952D01*
X45282143Y15955952D01*
X45220238Y15925000D01*
X45189286Y15894048D01*
X45158334Y15832143D01*
X45158334Y15739286D01*
X45189286Y15677381D01*
X45220238Y15646429D01*
X45282143Y15615476D01*
X45529762Y15615476D01*
X44910714Y15894048D02*
X44879762Y15925000D01*
X44817857Y15955952D01*
X44663095Y15955952D01*
X44601191Y15925000D01*
X44570238Y15894048D01*
X44539286Y15832143D01*
X44539286Y15770238D01*
X44570238Y15677381D01*
X44941667Y15305952D01*
X44539286Y15305952D01*
X45058334Y18905952D02*
X45275000Y19215476D01*
X45429762Y18905952D02*
X45429762Y19555952D01*
X45182143Y19555952D01*
X45120238Y19525000D01*
X45089286Y19494048D01*
X45058334Y19432143D01*
X45058334Y19339286D01*
X45089286Y19277381D01*
X45120238Y19246429D01*
X45182143Y19215476D01*
X45429762Y19215476D01*
X44841667Y19555952D02*
X44439286Y19555952D01*
X44655953Y19308333D01*
X44563095Y19308333D01*
X44501191Y19277381D01*
X44470238Y19246429D01*
X44439286Y19184524D01*
X44439286Y19029762D01*
X44470238Y18967857D01*
X44501191Y18936905D01*
X44563095Y18905952D01*
X44748810Y18905952D01*
X44810714Y18936905D01*
X44841667Y18967857D01*
X5017858Y28367857D02*
X5048810Y28336905D01*
X5141667Y28305952D01*
X5203572Y28305952D01*
X5296429Y28336905D01*
X5358334Y28398810D01*
X5389286Y28460714D01*
X5420238Y28584524D01*
X5420238Y28677381D01*
X5389286Y28801190D01*
X5358334Y28863095D01*
X5296429Y28925000D01*
X5203572Y28955952D01*
X5141667Y28955952D01*
X5048810Y28925000D01*
X5017858Y28894048D01*
X4770238Y28894048D02*
X4739286Y28925000D01*
X4677381Y28955952D01*
X4522619Y28955952D01*
X4460715Y28925000D01*
X4429762Y28894048D01*
X4398810Y28832143D01*
X4398810Y28770238D01*
X4429762Y28677381D01*
X4801191Y28305952D01*
X4398810Y28305952D01*
X3810714Y28955952D02*
X4120238Y28955952D01*
X4151190Y28646429D01*
X4120238Y28677381D01*
X4058333Y28708333D01*
X3903571Y28708333D01*
X3841667Y28677381D01*
X3810714Y28646429D01*
X3779762Y28584524D01*
X3779762Y28429762D01*
X3810714Y28367857D01*
X3841667Y28336905D01*
X3903571Y28305952D01*
X4058333Y28305952D01*
X4120238Y28336905D01*
X4151190Y28367857D01*
X32490190Y30993689D02*
X32180666Y31210355D01*
X32490190Y31365117D02*
X31840190Y31365117D01*
X31840190Y31117498D01*
X31871142Y31055593D01*
X31902094Y31024641D01*
X31963999Y30993689D01*
X32056856Y30993689D01*
X32118761Y31024641D01*
X32149713Y31055593D01*
X32180666Y31117498D01*
X32180666Y31365117D01*
X31840190Y30436546D02*
X31840190Y30560355D01*
X31871142Y30622260D01*
X31902094Y30653212D01*
X31994952Y30715117D01*
X32118761Y30746069D01*
X32366380Y30746069D01*
X32428285Y30715117D01*
X32459237Y30684165D01*
X32490190Y30622260D01*
X32490190Y30498450D01*
X32459237Y30436546D01*
X32428285Y30405593D01*
X32366380Y30374641D01*
X32211618Y30374641D01*
X32149713Y30405593D01*
X32118761Y30436546D01*
X32087809Y30498450D01*
X32087809Y30622260D01*
X32118761Y30684165D01*
X32149713Y30715117D01*
X32211618Y30746069D01*
X32546256Y34362623D02*
X32236732Y34579289D01*
X32546256Y34734051D02*
X31896256Y34734051D01*
X31896256Y34486432D01*
X31927208Y34424527D01*
X31958160Y34393575D01*
X32020065Y34362623D01*
X32112922Y34362623D01*
X32174827Y34393575D01*
X32205779Y34424527D01*
X32236732Y34486432D01*
X32236732Y34734051D01*
X31896256Y34145956D02*
X31896256Y33712623D01*
X32546256Y33991194D01*
X4458334Y26705952D02*
X4675000Y27015476D01*
X4829762Y26705952D02*
X4829762Y27355952D01*
X4582143Y27355952D01*
X4520238Y27325000D01*
X4489286Y27294048D01*
X4458334Y27232143D01*
X4458334Y27139286D01*
X4489286Y27077381D01*
X4520238Y27046429D01*
X4582143Y27015476D01*
X4829762Y27015476D01*
X4086905Y27077381D02*
X4148810Y27108333D01*
X4179762Y27139286D01*
X4210714Y27201190D01*
X4210714Y27232143D01*
X4179762Y27294048D01*
X4148810Y27325000D01*
X4086905Y27355952D01*
X3963095Y27355952D01*
X3901191Y27325000D01*
X3870238Y27294048D01*
X3839286Y27232143D01*
X3839286Y27201190D01*
X3870238Y27139286D01*
X3901191Y27108333D01*
X3963095Y27077381D01*
X4086905Y27077381D01*
X4148810Y27046429D01*
X4179762Y27015476D01*
X4210714Y26953571D01*
X4210714Y26829762D01*
X4179762Y26767857D01*
X4148810Y26736905D01*
X4086905Y26705952D01*
X3963095Y26705952D01*
X3901191Y26736905D01*
X3870238Y26767857D01*
X3839286Y26829762D01*
X3839286Y26953571D01*
X3870238Y27015476D01*
X3901191Y27046429D01*
X3963095Y27077381D01*
D10*
X40653572Y30560714D02*
X40653572Y31310714D01*
X40475000Y31310714D01*
X40367857Y31275000D01*
X40296429Y31203571D01*
X40260714Y31132143D01*
X40225000Y30989286D01*
X40225000Y30882143D01*
X40260714Y30739286D01*
X40296429Y30667857D01*
X40367857Y30596429D01*
X40475000Y30560714D01*
X40653572Y30560714D01*
X39582143Y31060714D02*
X39582143Y30560714D01*
X39760714Y31346429D02*
X39939286Y30810714D01*
X39475000Y30810714D01*
D16*
X14162547Y31021606D02*
X14534619Y31087267D01*
X14425186Y30758967D02*
X14884806Y31218587D01*
X14709712Y31393680D01*
X14644053Y31415567D01*
X14600280Y31415567D01*
X14534620Y31393680D01*
X14468960Y31328020D01*
X14447073Y31262360D01*
X14447073Y31218587D01*
X14468960Y31152927D01*
X14644053Y30977834D01*
X13724814Y31459339D02*
X13987453Y31196700D01*
X13856133Y31328020D02*
X14315753Y31787639D01*
X14293867Y31678206D01*
X14293867Y31590659D01*
X14315753Y31525000D01*
X14031227Y32072166D02*
X13746700Y32356692D01*
X13724814Y32028392D01*
X13659153Y32094053D01*
X13593494Y32115939D01*
X13549721Y32115940D01*
X13484061Y32094053D01*
X13374628Y31984619D01*
X13352741Y31918960D01*
X13352741Y31875186D01*
X13374627Y31809526D01*
X13505947Y31678206D01*
X13571607Y31656320D01*
X13615381Y31656320D01*
X17037547Y28346607D02*
X17409619Y28412268D01*
X17300186Y28083968D02*
X17759806Y28543588D01*
X17584712Y28718681D01*
X17519053Y28740568D01*
X17475280Y28740568D01*
X17409620Y28718681D01*
X17343960Y28653021D01*
X17322073Y28587361D01*
X17322073Y28543588D01*
X17343960Y28477928D01*
X17519053Y28302835D01*
X16599814Y28784340D02*
X16862453Y28521701D01*
X16731133Y28653021D02*
X17190753Y29112640D01*
X17168867Y29003207D01*
X17168867Y28915660D01*
X17190753Y28850001D01*
X16512268Y29484713D02*
X16205854Y29178300D01*
X16796794Y29550373D02*
X16577927Y29112641D01*
X16293401Y29397167D01*
M02*
