G04 #@! TF.FileFunction,Copper,L4,Bot,Signal*
%FSLAX46Y46*%
G04 Gerber Fmt 4.6, Leading zero omitted, Abs format (unit mm)*
G04 Created by KiCad (PCBNEW 4.0.7) date 04/11/18 17:00:27*
%MOMM*%
%LPD*%
G01*
G04 APERTURE LIST*
%ADD10C,0.100000*%
%ADD11C,0.203200*%
%ADD12R,1.900000X1.400000*%
%ADD13R,1.500000X0.800000*%
%ADD14R,1.100000X1.800000*%
%ADD15C,1.524000*%
%ADD16C,1.600000*%
%ADD17C,3.600000*%
%ADD18C,2.000000*%
%ADD19C,1.500000*%
%ADD20R,1.524000X1.524000*%
%ADD21R,0.600000X0.900000*%
%ADD22R,0.900000X0.600000*%
%ADD23R,1.500000X1.500000*%
%ADD24C,0.812800*%
%ADD25C,0.254000*%
%ADD26C,0.177800*%
G04 APERTURE END LIST*
D10*
D11*
X1296800Y1296800D02*
X484000Y1296800D01*
X1296800Y1296800D02*
X1296800Y484000D01*
X1703200Y1703200D02*
X1703200Y2516000D01*
X1703200Y1703200D02*
X2516000Y1703200D01*
X1703200Y1296800D02*
X1703200Y484000D01*
X1703200Y1296800D02*
X2516000Y1296800D01*
X1296800Y1703200D02*
X484000Y1703200D01*
X1296800Y1703200D02*
X1296800Y2516000D01*
X48296800Y48296800D02*
X47484000Y48296800D01*
X48296800Y48296800D02*
X48296800Y47484000D01*
X48703200Y48703200D02*
X48703200Y49516000D01*
X48703200Y48703200D02*
X49516000Y48703200D01*
X48703200Y48296800D02*
X48703200Y47484000D01*
X48703200Y48296800D02*
X49516000Y48296800D01*
X48296800Y48703200D02*
X47484000Y48703200D01*
X48296800Y48703200D02*
X48296800Y49516000D01*
D12*
X2600000Y9950000D03*
X1200000Y22850000D03*
D13*
X5400000Y10750000D03*
X5400000Y11850000D03*
X5200000Y12950000D03*
X5400000Y14050000D03*
X5200000Y15150000D03*
X5400000Y16250000D03*
X5800000Y17350000D03*
X5400000Y18450000D03*
D14*
X15700000Y11300000D03*
X15700000Y17000000D03*
D10*
G36*
X19974264Y29510660D02*
X20610660Y28874264D01*
X20186396Y28450000D01*
X19550000Y29086396D01*
X19974264Y29510660D01*
X19974264Y29510660D01*
G37*
G36*
X18913604Y28450000D02*
X19550000Y27813604D01*
X19125736Y27389340D01*
X18489340Y28025736D01*
X18913604Y28450000D01*
X18913604Y28450000D01*
G37*
G36*
X23200736Y23489340D02*
X22564340Y24125736D01*
X22988604Y24550000D01*
X23625000Y23913604D01*
X23200736Y23489340D01*
X23200736Y23489340D01*
G37*
G36*
X24261396Y24550000D02*
X23625000Y25186396D01*
X24049264Y25610660D01*
X24685660Y24974264D01*
X24261396Y24550000D01*
X24261396Y24550000D01*
G37*
D15*
X37700000Y12900000D03*
D16*
X35160000Y14170000D03*
X37700000Y15440000D03*
X35160000Y16710000D03*
X37700000Y17980000D03*
X35160000Y19250000D03*
X37700000Y20520000D03*
X35160000Y21790000D03*
X48110000Y10720000D03*
X48110000Y13260000D03*
X48110000Y21430000D03*
X48110000Y23970000D03*
D17*
X44050000Y11630000D03*
X44050000Y23060000D03*
D18*
X41000000Y9600000D03*
X41000000Y25090000D03*
D19*
X43200000Y32750000D03*
X43200000Y40050000D03*
X48500000Y32750000D03*
X48500000Y40050000D03*
X6700000Y40050000D03*
X6700000Y32750000D03*
X1400000Y40050000D03*
X1400000Y32750000D03*
D10*
G36*
X20509014Y27896842D02*
X21353158Y28740986D01*
X22340986Y27753158D01*
X21496842Y26909014D01*
X20509014Y27896842D01*
X20509014Y27896842D01*
G37*
G36*
X22071579Y26334277D02*
X22915723Y27178421D01*
X23903551Y26190593D01*
X23059407Y25346449D01*
X22071579Y26334277D01*
X22071579Y26334277D01*
G37*
G36*
X20868224Y25130923D02*
X21712368Y25975067D01*
X22700196Y24987239D01*
X21856052Y24143095D01*
X20868224Y25130923D01*
X20868224Y25130923D01*
G37*
G36*
X19305660Y26693488D02*
X20149804Y27537632D01*
X21137632Y26549804D01*
X20293488Y25705660D01*
X19305660Y26693488D01*
X19305660Y26693488D01*
G37*
D15*
X4700000Y5040000D03*
D20*
X4700000Y2500000D03*
D15*
X7240000Y5040000D03*
X7240000Y2500000D03*
X9780000Y5040000D03*
X9780000Y2500000D03*
X12320000Y5040000D03*
X12320000Y2500000D03*
X14860000Y5040000D03*
X14860000Y2500000D03*
X17400000Y5040000D03*
X17400000Y2500000D03*
X19940000Y5040000D03*
X19940000Y2500000D03*
X22480000Y5040000D03*
X22480000Y2500000D03*
X25020000Y5040000D03*
X25020000Y2500000D03*
X27560000Y5040000D03*
X27560000Y2500000D03*
X30100000Y5040000D03*
X30100000Y2500000D03*
X32640000Y5040000D03*
X32640000Y2500000D03*
X35180000Y5040000D03*
X35180000Y2500000D03*
X37720000Y5040000D03*
X37720000Y2500000D03*
X40260000Y5040000D03*
X40260000Y2500000D03*
X42800000Y5040000D03*
X42800000Y2500000D03*
X45340000Y5040000D03*
X45340000Y2500000D03*
X4700000Y47440000D03*
D20*
X4700000Y44900000D03*
D15*
X7240000Y47440000D03*
X7240000Y44900000D03*
X9780000Y47440000D03*
X9780000Y44900000D03*
X12320000Y47440000D03*
X12320000Y44900000D03*
X14860000Y47440000D03*
X14860000Y44900000D03*
X17400000Y47440000D03*
X17400000Y44900000D03*
X19940000Y47440000D03*
X19940000Y44900000D03*
X22480000Y47440000D03*
X22480000Y44900000D03*
X25020000Y47440000D03*
X25020000Y44900000D03*
X27560000Y47440000D03*
X27560000Y44900000D03*
X30100000Y47440000D03*
X30100000Y44900000D03*
X32640000Y47440000D03*
X32640000Y44900000D03*
X35180000Y47440000D03*
X35180000Y44900000D03*
X37720000Y47440000D03*
X37720000Y44900000D03*
X40260000Y47440000D03*
X40260000Y44900000D03*
X42800000Y47440000D03*
X42800000Y44900000D03*
X45340000Y47440000D03*
X45340000Y44900000D03*
D21*
X39750000Y14200000D03*
X41250000Y14200000D03*
D10*
G36*
X24624264Y10460660D02*
X25260660Y9824264D01*
X24836396Y9400000D01*
X24200000Y10036396D01*
X24624264Y10460660D01*
X24624264Y10460660D01*
G37*
G36*
X23563604Y9400000D02*
X24200000Y8763604D01*
X23775736Y8339340D01*
X23139340Y8975736D01*
X23563604Y9400000D01*
X23563604Y9400000D01*
G37*
G36*
X23424264Y11660660D02*
X24060660Y11024264D01*
X23636396Y10600000D01*
X23000000Y11236396D01*
X23424264Y11660660D01*
X23424264Y11660660D01*
G37*
G36*
X22363604Y10600000D02*
X23000000Y9963604D01*
X22575736Y9539340D01*
X21939340Y10175736D01*
X22363604Y10600000D01*
X22363604Y10600000D01*
G37*
D21*
X39750000Y17950000D03*
X41250000Y17950000D03*
D10*
G36*
X29139340Y11174264D02*
X29775736Y11810660D01*
X30200000Y11386396D01*
X29563604Y10750000D01*
X29139340Y11174264D01*
X29139340Y11174264D01*
G37*
G36*
X30200000Y10113604D02*
X30836396Y10750000D01*
X31260660Y10325736D01*
X30624264Y9689340D01*
X30200000Y10113604D01*
X30200000Y10113604D01*
G37*
G36*
X27939340Y10024264D02*
X28575736Y10660660D01*
X29000000Y10236396D01*
X28363604Y9600000D01*
X27939340Y10024264D01*
X27939340Y10024264D01*
G37*
G36*
X29000000Y8963604D02*
X29636396Y9600000D01*
X30060660Y9175736D01*
X29424264Y8539340D01*
X29000000Y8963604D01*
X29000000Y8963604D01*
G37*
G36*
X31839340Y27474264D02*
X32475736Y28110660D01*
X32900000Y27686396D01*
X32263604Y27050000D01*
X31839340Y27474264D01*
X31839340Y27474264D01*
G37*
G36*
X32900000Y26413604D02*
X33536396Y27050000D01*
X33960660Y26625736D01*
X33324264Y25989340D01*
X32900000Y26413604D01*
X32900000Y26413604D01*
G37*
G36*
X22150736Y36014340D02*
X21514340Y36650736D01*
X21938604Y37075000D01*
X22575000Y36438604D01*
X22150736Y36014340D01*
X22150736Y36014340D01*
G37*
G36*
X23211396Y37075000D02*
X22575000Y37711396D01*
X22999264Y38135660D01*
X23635660Y37499264D01*
X23211396Y37075000D01*
X23211396Y37075000D01*
G37*
G36*
X11860660Y27500736D02*
X11224264Y26864340D01*
X10800000Y27288604D01*
X11436396Y27925000D01*
X11860660Y27500736D01*
X11860660Y27500736D01*
G37*
G36*
X10800000Y28561396D02*
X10163604Y27925000D01*
X9739340Y28349264D01*
X10375736Y28985660D01*
X10800000Y28561396D01*
X10800000Y28561396D01*
G37*
G36*
X20475736Y19439340D02*
X19839340Y20075736D01*
X20263604Y20500000D01*
X20900000Y19863604D01*
X20475736Y19439340D01*
X20475736Y19439340D01*
G37*
G36*
X21536396Y20500000D02*
X20900000Y21136396D01*
X21324264Y21560660D01*
X21960660Y20924264D01*
X21536396Y20500000D01*
X21536396Y20500000D01*
G37*
G36*
X30739340Y26349264D02*
X31375736Y26985660D01*
X31800000Y26561396D01*
X31163604Y25925000D01*
X30739340Y26349264D01*
X30739340Y26349264D01*
G37*
G36*
X31800000Y25288604D02*
X32436396Y25925000D01*
X32860660Y25500736D01*
X32224264Y24864340D01*
X31800000Y25288604D01*
X31800000Y25288604D01*
G37*
G36*
X21050736Y37114340D02*
X20414340Y37750736D01*
X20838604Y38175000D01*
X21475000Y37538604D01*
X21050736Y37114340D01*
X21050736Y37114340D01*
G37*
G36*
X22111396Y38175000D02*
X21475000Y38811396D01*
X21899264Y39235660D01*
X22535660Y38599264D01*
X22111396Y38175000D01*
X22111396Y38175000D01*
G37*
G36*
X10760660Y26400736D02*
X10124264Y25764340D01*
X9700000Y26188604D01*
X10336396Y26825000D01*
X10760660Y26400736D01*
X10760660Y26400736D01*
G37*
G36*
X9700000Y27461396D02*
X9063604Y26825000D01*
X8639340Y27249264D01*
X9275736Y27885660D01*
X9700000Y27461396D01*
X9700000Y27461396D01*
G37*
G36*
X21575736Y18339340D02*
X20939340Y18975736D01*
X21363604Y19400000D01*
X22000000Y18763604D01*
X21575736Y18339340D01*
X21575736Y18339340D01*
G37*
G36*
X22636396Y19400000D02*
X22000000Y20036396D01*
X22424264Y20460660D01*
X23060660Y19824264D01*
X22636396Y19400000D01*
X22636396Y19400000D01*
G37*
G36*
X29360660Y26175736D02*
X28724264Y25539340D01*
X28300000Y25963604D01*
X28936396Y26600000D01*
X29360660Y26175736D01*
X29360660Y26175736D01*
G37*
G36*
X28300000Y27236396D02*
X27663604Y26600000D01*
X27239340Y27024264D01*
X27875736Y27660660D01*
X28300000Y27236396D01*
X28300000Y27236396D01*
G37*
G36*
X23300736Y34939340D02*
X22664340Y35575736D01*
X23088604Y36000000D01*
X23725000Y35363604D01*
X23300736Y34939340D01*
X23300736Y34939340D01*
G37*
G36*
X24361396Y36000000D02*
X23725000Y36636396D01*
X24149264Y37060660D01*
X24785660Y36424264D01*
X24361396Y36000000D01*
X24361396Y36000000D01*
G37*
G36*
X32460660Y11475736D02*
X31824264Y10839340D01*
X31400000Y11263604D01*
X32036396Y11900000D01*
X32460660Y11475736D01*
X32460660Y11475736D01*
G37*
G36*
X31400000Y12536396D02*
X30763604Y11900000D01*
X30339340Y12324264D01*
X30975736Y12960660D01*
X31400000Y12536396D01*
X31400000Y12536396D01*
G37*
D15*
X19200000Y14540000D03*
D20*
X19200000Y12000000D03*
D15*
X48140000Y29300000D03*
D20*
X45600000Y29300000D03*
D21*
X46600000Y15600000D03*
X48100000Y15600000D03*
X46600000Y19200000D03*
X48100000Y19200000D03*
D16*
X23700000Y40850000D03*
X21160000Y40850000D03*
X18620000Y40850000D03*
X16080000Y40850000D03*
D21*
X2850000Y28600000D03*
X1350000Y28600000D03*
D22*
X33575000Y31600000D03*
X33575000Y30100000D03*
X33525000Y33575000D03*
X33525000Y35075000D03*
D21*
X1350000Y27000000D03*
X2850000Y27000000D03*
D23*
X38250000Y29300000D03*
X41750000Y29300000D03*
D10*
G36*
X12214340Y30949264D02*
X12850736Y31585660D01*
X13275000Y31161396D01*
X12638604Y30525000D01*
X12214340Y30949264D01*
X12214340Y30949264D01*
G37*
G36*
X13275000Y29888604D02*
X13911396Y30525000D01*
X14335660Y30100736D01*
X13699264Y29464340D01*
X13275000Y29888604D01*
X13275000Y29888604D01*
G37*
G36*
X15089340Y28224264D02*
X15725736Y28860660D01*
X16150000Y28436396D01*
X15513604Y27800000D01*
X15089340Y28224264D01*
X15089340Y28224264D01*
G37*
G36*
X16150000Y27163604D02*
X16786396Y27800000D01*
X17210660Y27375736D01*
X16574264Y26739340D01*
X16150000Y27163604D01*
X16150000Y27163604D01*
G37*
D24*
X34625000Y32600000D03*
X34800000Y27800000D03*
X20500000Y21900000D03*
X16400000Y23700000D03*
X8600000Y13000000D03*
X18100000Y28850000D03*
X24950000Y25850000D03*
X26900000Y26250000D03*
X41250000Y16700000D03*
X41250000Y15450000D03*
X28650000Y8200000D03*
X24550000Y8000000D03*
X31700000Y18600000D03*
X17300000Y16150000D03*
X17050000Y11300000D03*
X1250000Y24350000D03*
X11350000Y12025000D03*
X14125000Y36800000D03*
X24475000Y37825000D03*
X33100000Y24700000D03*
X9525000Y29200000D03*
X11250000Y19850000D03*
X26500000Y13800000D03*
X22155700Y16328700D03*
X1044700Y9554000D03*
X23300000Y28150000D03*
X20050000Y24900000D03*
X26243200Y30427900D03*
X35800000Y34700000D03*
X35016800Y36670500D03*
X39302600Y31685200D03*
X25099800Y35718000D03*
X13013000Y38782900D03*
X12012200Y33090700D03*
X21230000Y32415400D03*
X25743100Y26483400D03*
X28891000Y43582700D03*
X14800900Y27428200D03*
X15561500Y26247100D03*
X15452600Y24770100D03*
X20685900Y29756100D03*
X22645800Y39361900D03*
X7900000Y7050000D03*
X14675800Y18793400D03*
X16673300Y18554000D03*
X10582200Y6536500D03*
X8171800Y12008500D03*
X21434200Y23657900D03*
X23462300Y20319100D03*
X25986000Y17911200D03*
X4410400Y25347700D03*
X16645300Y29495900D03*
X27268400Y17175100D03*
X27521600Y18648800D03*
X30382800Y6872000D03*
X28405300Y19170900D03*
X26094800Y22967400D03*
X28389300Y21456800D03*
X30426200Y22526400D03*
X35710500Y10961100D03*
X26594400Y24018600D03*
X4717700Y39199800D03*
X10170700Y33304600D03*
X10872200Y32213700D03*
X12590900Y22882100D03*
X6186800Y24509600D03*
X14369700Y33571300D03*
X15834600Y34940200D03*
X17531200Y31800600D03*
X18402200Y30440000D03*
X40925000Y32459400D03*
X37561500Y24724600D03*
X33079100Y21535900D03*
X29850000Y32900000D03*
X32075000Y33525000D03*
X32075000Y31650000D03*
X28820800Y33627700D03*
X35503300Y41467300D03*
X35696000Y43257800D03*
X29014900Y20034700D03*
X24212100Y27634600D03*
X16497600Y9677400D03*
X11802100Y7857200D03*
X10846000Y1624600D03*
X31611000Y787900D03*
X35164100Y9987200D03*
X32086400Y20502500D03*
X23436000Y13080100D03*
X24269700Y21485800D03*
X21987500Y8414200D03*
X22983900Y21863800D03*
X24148500Y28748000D03*
X31950000Y23950000D03*
X21900000Y34200000D03*
X25600000Y9050000D03*
X27550000Y9200000D03*
X19400000Y20800000D03*
X13800000Y21200000D03*
X8600000Y15200000D03*
X11950000Y31850000D03*
X13800000Y10850000D03*
X12500000Y9500000D03*
X1350000Y25700000D03*
X9025000Y36825000D03*
X21225000Y35275000D03*
X40875000Y36025000D03*
X39825000Y29275000D03*
X33250000Y28400000D03*
X12750000Y26750000D03*
X33525000Y35987400D03*
X1250000Y41929700D03*
X32060300Y10232000D03*
X24989800Y16370800D03*
X19200000Y7676600D03*
X22118400Y7413500D03*
X25881100Y6739300D03*
X27452200Y6739300D03*
X33886200Y8509000D03*
X3650000Y7150000D03*
X6149900Y9563600D03*
X26593200Y6034500D03*
X3100000Y30600000D03*
X31174400Y8334200D03*
X30149100Y18477200D03*
X14725000Y29025000D03*
D25*
X8550000Y12950000D02*
X8600000Y13000000D01*
X5200000Y12950000D02*
X8550000Y12950000D01*
X19019700Y27930000D02*
X18100000Y28850000D01*
X19019700Y27919700D02*
X19019700Y27930000D01*
X41250000Y17950000D02*
X41250000Y16700000D01*
X41250000Y14200000D02*
X41250000Y15450000D01*
X16450000Y17000000D02*
X17300000Y16150000D01*
X15700000Y17000000D02*
X16450000Y17000000D01*
X15700000Y11300000D02*
X17050000Y11300000D01*
X1200000Y24300000D02*
X1200000Y22850000D01*
X1250000Y24350000D02*
X1200000Y24300000D01*
X1350000Y32700000D02*
X1400000Y32750000D01*
X1350000Y28600000D02*
X1350000Y32700000D01*
X23717800Y37068000D02*
X24475000Y37825000D01*
X24475000Y37825000D02*
X24475000Y37800000D01*
X32405300Y25395000D02*
X32330300Y25395000D01*
X33100000Y24700000D02*
X32405300Y25395000D01*
X11250000Y19850000D02*
X11275000Y19850000D01*
X32330300Y25130000D02*
X32330300Y25394700D01*
X32330300Y25394700D02*
X32330300Y25395000D01*
X20221600Y26703000D02*
X20221600Y26622000D01*
X19019700Y27905000D02*
X20221600Y26703000D01*
X19019700Y27919700D02*
X19019700Y27905000D01*
X20221600Y26622000D02*
X20221600Y26621600D01*
X22987600Y26262000D02*
X22987600Y26262400D01*
X17288700Y27878100D02*
X16680300Y27270000D01*
X17288700Y27878100D02*
X16680300Y27269700D01*
X18100000Y28689000D02*
X17288700Y27878100D01*
X18100000Y28850000D02*
X18100000Y28689000D01*
X27769700Y27120000D02*
X26900000Y26250000D01*
X27769700Y27130000D02*
X27769700Y27120000D01*
X27769700Y27130000D02*
X27769700Y27130300D01*
X22530300Y19930000D02*
X21980300Y20480000D01*
X21980600Y20480000D02*
X22530300Y19930300D01*
X21980300Y20480000D02*
X21980600Y20480000D01*
X9719700Y27905000D02*
X9169700Y27355000D01*
X9719400Y27905000D02*
X9169700Y27355300D01*
X9719700Y27905000D02*
X9719400Y27905000D01*
X22005300Y38705000D02*
X22005300Y38705300D01*
X21369700Y21030000D02*
X20500000Y21900000D01*
X21430300Y21030000D02*
X21369700Y21030000D01*
X21980300Y20480000D02*
X21430300Y21030000D01*
X21430300Y21030000D02*
X21430300Y21030300D01*
X22005300Y38705000D02*
X22555300Y38155000D01*
X23180300Y37605000D02*
X23717800Y37068000D01*
X23105300Y37605000D02*
X23180300Y37605000D01*
X22555300Y38155000D02*
X23105300Y37605000D01*
X22555600Y38155000D02*
X23105300Y37605300D01*
X22555300Y38155000D02*
X22555600Y38155000D01*
X32330300Y25420000D02*
X32880300Y25970000D01*
X32330300Y25395000D02*
X32330300Y25420000D01*
X32880300Y25970000D02*
X33430300Y26520000D01*
X32880600Y25970000D02*
X33430300Y26519700D01*
X32880300Y25970000D02*
X32880600Y25970000D01*
X29519700Y9070000D02*
X29530600Y9070000D01*
X28650000Y8200000D02*
X29519700Y9070000D01*
X29530600Y9070000D02*
X29530300Y9069700D01*
X29580300Y9070000D02*
X30155300Y9645000D01*
X29530600Y9070000D02*
X29580300Y9070000D01*
X30155300Y9645000D02*
X30730300Y10220000D01*
X30155600Y9645000D02*
X30730300Y10219700D01*
X30155300Y9645000D02*
X30155600Y9645000D01*
X22469700Y10070000D02*
X23069700Y9470000D01*
X23069400Y9470000D02*
X22469700Y10069700D01*
X23069700Y9470000D02*
X23069400Y9470000D01*
X23069700Y9470000D02*
X23669700Y8870000D01*
X23680300Y8870000D02*
X24550000Y8000000D01*
X23669700Y8870000D02*
X23680300Y8870000D01*
X23669700Y8870000D02*
X23669700Y8869700D01*
X22987600Y26237000D02*
X22987600Y26262000D01*
X24144700Y25080000D02*
X22987600Y26237000D01*
X24155600Y25080000D02*
X24144700Y25080000D01*
X24180300Y25080000D02*
X24155600Y25080000D01*
X24950000Y25850000D02*
X24180300Y25080000D01*
X24155600Y25080000D02*
X24155300Y25080300D01*
X1344900Y9854200D02*
X1344900Y9950000D01*
X1044700Y9554000D02*
X1344900Y9854200D01*
X2600000Y9950000D02*
X1344900Y9950000D01*
X23717800Y37068000D02*
X24255300Y36530000D01*
X10269700Y28455000D02*
X9719700Y27905000D01*
X9525000Y29200000D02*
X10269700Y28455000D01*
D26*
X22025000Y28425000D02*
X21425000Y27825000D01*
X23025000Y28425000D02*
X22025000Y28425000D01*
X23300000Y28150000D02*
X23025000Y28425000D01*
X21250000Y27825000D02*
X21425000Y27825000D01*
X20094700Y28980000D02*
X21250000Y27825000D01*
X20080300Y28980000D02*
X20094700Y28980000D01*
X20080300Y28980300D02*
X20080300Y28980000D01*
X20125000Y24825000D02*
X20050000Y24900000D01*
X21550100Y24825000D02*
X20125000Y24825000D01*
X21784200Y25059000D02*
X21550100Y24825000D01*
X21784300Y25059000D02*
X21784200Y25059000D01*
X22040900Y25059000D02*
X21784300Y25059000D01*
X23080300Y24020000D02*
X22040900Y25059000D01*
X23094700Y24020000D02*
X23080300Y24020000D01*
X21784300Y25059000D02*
X21784200Y25059100D01*
X23094700Y24019700D02*
X23094700Y24020000D01*
X34186200Y34359000D02*
X28592400Y34359000D01*
X28592400Y34359000D02*
X26243200Y32009800D01*
X26243200Y32009800D02*
X26243200Y30427900D01*
X35459000Y34359000D02*
X34186200Y34359000D01*
X35800000Y34700000D02*
X35459000Y34359000D01*
X39302600Y31685200D02*
X39302600Y32797400D01*
X35429500Y36670500D02*
X35016800Y36670500D01*
X39302600Y32797400D02*
X35429500Y36670500D01*
X39056600Y31685200D02*
X39302600Y31685200D01*
X20867100Y38782900D02*
X13013000Y38782900D01*
X23932000Y35718000D02*
X20867100Y38782900D01*
X25099800Y35718000D02*
X23932000Y35718000D01*
X12964700Y33090700D02*
X12012200Y33090700D01*
X14928200Y31127200D02*
X12964700Y33090700D01*
X19941800Y31127200D02*
X14928200Y31127200D01*
X21230000Y32415400D02*
X19941800Y31127200D01*
X7883400Y10750000D02*
X5400000Y10750000D01*
X12998600Y15865200D02*
X7883400Y10750000D01*
X12998600Y18076300D02*
X12998600Y15865200D01*
X17906800Y22984500D02*
X12998600Y18076300D01*
X23087100Y22984500D02*
X17906800Y22984500D01*
X25743100Y25640500D02*
X23087100Y22984500D01*
X25743100Y26483400D02*
X25743100Y25640500D01*
X5400000Y11850000D02*
X4383000Y11850000D01*
X3737000Y12496000D02*
X4383000Y11850000D01*
X3737000Y25626600D02*
X3737000Y12496000D01*
X3773600Y25663200D02*
X3737000Y25626600D01*
X3773600Y42215700D02*
X3773600Y25663200D01*
X3527000Y42462300D02*
X3773600Y42215700D01*
X3527000Y45913000D02*
X3527000Y42462300D01*
X3847000Y46233000D02*
X3527000Y45913000D01*
X7579700Y46233000D02*
X3847000Y46233000D01*
X8319100Y46972400D02*
X7579700Y46233000D01*
X8319100Y48064400D02*
X8319100Y46972400D01*
X9222500Y48967800D02*
X8319100Y48064400D01*
X27503900Y48967800D02*
X9222500Y48967800D01*
X28891000Y47580700D02*
X27503900Y48967800D01*
X28891000Y43582700D02*
X28891000Y47580700D01*
X12564600Y25191900D02*
X14800900Y27428200D01*
X5863600Y25191900D02*
X12564600Y25191900D01*
X4138000Y23466300D02*
X5863600Y25191900D01*
X4138000Y14295000D02*
X4138000Y23466300D01*
X4383000Y14050000D02*
X4138000Y14295000D01*
X5400000Y14050000D02*
X4383000Y14050000D01*
X17073500Y24735100D02*
X15561500Y26247100D01*
X17073500Y23382700D02*
X17073500Y24735100D01*
X9940800Y16250000D02*
X17073500Y23382700D01*
X5400000Y16250000D02*
X9940800Y16250000D01*
X6817000Y17350000D02*
X10437500Y20970500D01*
X10437500Y20970500D02*
X12156400Y20970500D01*
X12156400Y20970500D02*
X15452600Y24266700D01*
X15452600Y24266700D02*
X15452600Y24770100D01*
X6817000Y17350000D02*
X5800000Y17350000D01*
X5400000Y18450000D02*
X6417000Y18450000D01*
X20663200Y29778800D02*
X20685900Y29756100D01*
X18898000Y29778800D02*
X20663200Y29778800D01*
X18720900Y29601700D02*
X18898000Y29778800D01*
X17878400Y29601700D02*
X18720900Y29601700D01*
X15474300Y27197600D02*
X17878400Y29601700D01*
X15474300Y27149200D02*
X15474300Y27197600D01*
X14152100Y25827000D02*
X15474300Y27149200D01*
X14152100Y23469700D02*
X14152100Y25827000D01*
X12891000Y22208600D02*
X14152100Y23469700D01*
X10175600Y22208600D02*
X12891000Y22208600D01*
X6417000Y18450000D02*
X10175600Y22208600D01*
X22497200Y39510500D02*
X22645800Y39361900D01*
X19959500Y39510500D02*
X22497200Y39510500D01*
X18620000Y40850000D02*
X19959500Y39510500D01*
X10750000Y8550000D02*
X7240000Y5040000D01*
X12539500Y8550000D02*
X10750000Y8550000D01*
X14829200Y10839700D02*
X12539500Y8550000D01*
X14829200Y12327900D02*
X14829200Y10839700D01*
X17041300Y14540000D02*
X14829200Y12327900D01*
X19200000Y14540000D02*
X17041300Y14540000D01*
X6751500Y4009100D02*
X6208400Y4552200D01*
X8749100Y4009100D02*
X6751500Y4009100D01*
X8749100Y4009100D02*
X9780000Y5040000D01*
X6000000Y4760600D02*
X6208400Y4552200D01*
X6000000Y6250000D02*
X6000000Y4760600D01*
X6850000Y7100000D02*
X6000000Y6250000D01*
X7850000Y7100000D02*
X6850000Y7100000D01*
X7900000Y7050000D02*
X7850000Y7100000D01*
X14675800Y16196600D02*
X14675800Y18793400D01*
X15395900Y15476500D02*
X14675800Y16196600D01*
X17617300Y15476500D02*
X15395900Y15476500D01*
X17716100Y15575300D02*
X17617300Y15476500D01*
X19795800Y15575300D02*
X17716100Y15575300D01*
X20450000Y14950000D02*
X19795800Y15575300D01*
X20450000Y11000000D02*
X20450000Y14950000D01*
X19650000Y10300000D02*
X20450000Y11000000D01*
X18040100Y10267500D02*
X19650000Y10300000D01*
X12812600Y5040000D02*
X18040100Y10267500D01*
X12320000Y5040000D02*
X12812600Y5040000D01*
X20854500Y10784500D02*
X14860000Y5040000D01*
X20854500Y15119900D02*
X20854500Y10784500D01*
X17170400Y18554000D02*
X20854500Y15119900D01*
X16673300Y18554000D02*
X17170400Y18554000D01*
X11050000Y6068700D02*
X10582200Y6536500D01*
X11050000Y4852100D02*
X11050000Y6068700D01*
X12017000Y3885100D02*
X11050000Y4852100D01*
X16014900Y3885100D02*
X12017000Y3885100D01*
X17400000Y2500000D02*
X16014900Y3885100D01*
X8565900Y12008500D02*
X8171800Y12008500D01*
X12642700Y16085300D02*
X8565900Y12008500D01*
X12642700Y18234000D02*
X12642700Y16085300D01*
X18066600Y23657900D02*
X12642700Y18234000D01*
X21434200Y23657900D02*
X18066600Y23657900D01*
X23462300Y14058700D02*
X23462300Y20319100D01*
X21667900Y12264300D02*
X23462300Y14058700D01*
X21667900Y9859000D02*
X21667900Y12264300D01*
X22791800Y8735100D02*
X21667900Y9859000D01*
X22791800Y5351800D02*
X22791800Y8735100D01*
X22480000Y5040000D02*
X22791800Y5351800D01*
X25986000Y14675700D02*
X25986000Y17911200D01*
X22731800Y11421500D02*
X25986000Y14675700D01*
X22731800Y10868200D02*
X22731800Y11421500D01*
X25224500Y8375500D02*
X22731800Y10868200D01*
X25224500Y7538300D02*
X25224500Y8375500D01*
X23623200Y5937000D02*
X25224500Y7538300D01*
X23623200Y4471500D02*
X23623200Y5937000D01*
X22789300Y3637600D02*
X23623200Y4471500D01*
X21077600Y3637600D02*
X22789300Y3637600D01*
X19940000Y2500000D02*
X21077600Y3637600D01*
X4766300Y25703600D02*
X4410400Y25347700D01*
X8552100Y25703600D02*
X4766300Y25703600D01*
X13708800Y30860300D02*
X8552100Y25703600D01*
X14305000Y30860300D02*
X13708800Y30860300D01*
X15669400Y29495900D02*
X14305000Y30860300D01*
X16645300Y29495900D02*
X15669400Y29495900D01*
X27268400Y12407700D02*
X27268400Y17175100D01*
X26295000Y11434300D02*
X27268400Y12407700D01*
X26295000Y8105500D02*
X26295000Y11434300D01*
X23991000Y5801500D02*
X26295000Y8105500D01*
X23991000Y4011000D02*
X23991000Y5801500D01*
X22480000Y2500000D02*
X23991000Y4011000D01*
X27978400Y18192000D02*
X27521600Y18648800D01*
X27978400Y10952600D02*
X27978400Y18192000D01*
X26876500Y9850700D02*
X27978400Y10952600D01*
X26876500Y8267400D02*
X26876500Y9850700D01*
X28166500Y6977400D02*
X26876500Y8267400D01*
X28166500Y5646500D02*
X28166500Y6977400D01*
X27560000Y5040000D02*
X28166500Y5646500D01*
X28973900Y6872000D02*
X30382800Y6872000D01*
X27969400Y7876500D02*
X28973900Y6872000D01*
X27969400Y8619200D02*
X27969400Y7876500D01*
X31676600Y12326400D02*
X27969400Y8619200D01*
X31676600Y15899600D02*
X31676600Y12326400D01*
X28405300Y19170900D02*
X31676600Y15899600D01*
X31056200Y5996200D02*
X30100000Y5040000D01*
X31056200Y7134600D02*
X31056200Y5996200D01*
X32040000Y8118400D02*
X31056200Y7134600D01*
X32040000Y8621700D02*
X32040000Y8118400D01*
X33113900Y9695600D02*
X32040000Y8621700D01*
X33113900Y18184300D02*
X33113900Y9695600D01*
X31825000Y19473200D02*
X33113900Y18184300D01*
X31660100Y19473200D02*
X31825000Y19473200D01*
X28165900Y22967400D02*
X31660100Y19473200D01*
X26094800Y22967400D02*
X28165900Y22967400D01*
X26582800Y21456800D02*
X28389300Y21456800D01*
X25421300Y22618300D02*
X26582800Y21456800D01*
X25421300Y23820100D02*
X25421300Y22618300D01*
X26305400Y24704200D02*
X25421300Y23820100D01*
X27466300Y24704200D02*
X26305400Y24704200D01*
X28900700Y23269800D02*
X27466300Y24704200D01*
X32663400Y23269800D02*
X28900700Y23269800D01*
X35823000Y26429400D02*
X32663400Y23269800D01*
X37398400Y26429400D02*
X35823000Y26429400D01*
X41980700Y21847100D02*
X37398400Y26429400D01*
X41980700Y13784000D02*
X41980700Y21847100D01*
X37154500Y8957800D02*
X41980700Y13784000D01*
X34559700Y8957800D02*
X37154500Y8957800D01*
X34292600Y9224900D02*
X34559700Y8957800D01*
X33649800Y9224900D02*
X34292600Y9224900D01*
X33171200Y8746300D02*
X33649800Y9224900D01*
X33171200Y7907500D02*
X33171200Y8746300D01*
X33710500Y7368200D02*
X33171200Y7907500D01*
X33710500Y4459400D02*
X33710500Y7368200D01*
X33062000Y3810900D02*
X33710500Y4459400D01*
X32222900Y3810900D02*
X33062000Y3810900D01*
X31440000Y3028000D02*
X32222900Y3810900D01*
X31440000Y2380800D02*
X31440000Y3028000D01*
X30520600Y1461400D02*
X31440000Y2380800D01*
X28598600Y1461400D02*
X30520600Y1461400D01*
X27560000Y2500000D02*
X28598600Y1461400D01*
X31412100Y3812100D02*
X30100000Y2500000D01*
X31412100Y6987200D02*
X31412100Y3812100D01*
X32395900Y7971000D02*
X31412100Y6987200D01*
X32395900Y8474300D02*
X32395900Y7971000D01*
X33591300Y9669700D02*
X32395900Y8474300D01*
X34529200Y9669700D02*
X33591300Y9669700D01*
X34885100Y9313800D02*
X34529200Y9669700D01*
X36049500Y9313800D02*
X34885100Y9313800D01*
X40317100Y13581400D02*
X36049500Y9313800D01*
X40317100Y22927900D02*
X40317100Y13581400D01*
X37173500Y26071500D02*
X40317100Y22927900D01*
X35968600Y26071500D02*
X37173500Y26071500D01*
X32423500Y22526400D02*
X35968600Y26071500D01*
X30426200Y22526400D02*
X32423500Y22526400D01*
X33737100Y12934500D02*
X35710500Y10961100D01*
X33737000Y12934500D02*
X33737100Y12934500D01*
X33737000Y18133300D02*
X33737000Y12934500D01*
X32041200Y19829100D02*
X33737000Y18133300D01*
X31807500Y19829100D02*
X32041200Y19829100D01*
X27618000Y24018600D02*
X31807500Y19829100D01*
X26594400Y24018600D02*
X27618000Y24018600D01*
X10170700Y33746800D02*
X10170700Y33304600D01*
X4717700Y39199800D02*
X10170700Y33746800D01*
X10872100Y32213700D02*
X10872200Y32213700D01*
X10872100Y41267900D02*
X10872100Y32213700D01*
X7240000Y44900000D02*
X10872100Y41267900D01*
X13590000Y46170000D02*
X12320000Y47440000D01*
X22966700Y46170000D02*
X13590000Y46170000D01*
X23759100Y45377600D02*
X22966700Y46170000D01*
X23759100Y44634400D02*
X23759100Y45377600D01*
X30200000Y38193500D02*
X23759100Y44634400D01*
X34664400Y38193500D02*
X30200000Y38193500D01*
X40178100Y32679800D02*
X34664400Y38193500D01*
X40178100Y32180500D02*
X40178100Y32679800D01*
X40572600Y31786000D02*
X40178100Y32180500D01*
X41209500Y31786000D02*
X40572600Y31786000D01*
X46600000Y26395500D02*
X41209500Y31786000D01*
X46600000Y19200000D02*
X46600000Y26395500D01*
X7814300Y22882100D02*
X12590900Y22882100D01*
X6186800Y24509600D02*
X7814300Y22882100D01*
X11599800Y36341200D02*
X14369700Y33571300D01*
X11599800Y44179800D02*
X11599800Y36341200D01*
X12320000Y44900000D02*
X11599800Y44179800D01*
X15015600Y34940200D02*
X15834600Y34940200D01*
X11955700Y38000100D02*
X15015600Y34940200D01*
X11955700Y39422400D02*
X11955700Y38000100D01*
X13568600Y41035300D02*
X11955700Y39422400D01*
X13568600Y45415300D02*
X13568600Y41035300D01*
X12687900Y46296000D02*
X13568600Y45415300D01*
X9322900Y46296000D02*
X12687900Y46296000D01*
X8701000Y46917900D02*
X9322900Y46296000D01*
X8701000Y47905200D02*
X8701000Y46917900D01*
X9403400Y48607600D02*
X8701000Y47905200D01*
X13692400Y48607600D02*
X9403400Y48607600D01*
X14860000Y47440000D02*
X13692400Y48607600D01*
X17531200Y34409100D02*
X17531200Y31800600D01*
X13992900Y37947400D02*
X17531200Y34409100D01*
X12829700Y37947400D02*
X13992900Y37947400D01*
X12311600Y38465500D02*
X12829700Y37947400D01*
X12311600Y39203900D02*
X12311600Y38465500D01*
X17400000Y44292300D02*
X12311600Y39203900D01*
X17400000Y44900000D02*
X17400000Y44292300D01*
X22454400Y42385600D02*
X19940000Y44900000D01*
X24434600Y42385600D02*
X22454400Y42385600D01*
X25801800Y41018400D02*
X24434600Y42385600D01*
X25801800Y35436500D02*
X25801800Y41018400D01*
X20805300Y30440000D02*
X25801800Y35436500D01*
X18402200Y30440000D02*
X20805300Y30440000D01*
X30475100Y42909300D02*
X40925000Y32459400D01*
X27636800Y42909300D02*
X30475100Y42909300D01*
X26282200Y44263900D02*
X27636800Y42909300D01*
X26282200Y46162200D02*
X26282200Y44263900D01*
X27560000Y47440000D02*
X26282200Y46162200D01*
X36267800Y24724600D02*
X37561500Y24724600D01*
X33079100Y21535900D02*
X36267800Y24724600D01*
X32075000Y33525000D02*
X30475000Y33525000D01*
X30475000Y33525000D02*
X29850000Y32900000D01*
X32125000Y33575000D02*
X33525000Y33575000D01*
X32075000Y33525000D02*
X32125000Y33575000D01*
X32125000Y31600000D02*
X33575000Y31600000D01*
X32075000Y31650000D02*
X32125000Y31600000D01*
X28431700Y33238600D02*
X28820800Y33627700D01*
X28431700Y32270300D02*
X28431700Y33238600D01*
X29052000Y31650000D02*
X28431700Y32270300D01*
X32075000Y31650000D02*
X29052000Y31650000D01*
X36098500Y41467300D02*
X35503300Y41467300D01*
X38906300Y44275100D02*
X36098500Y41467300D01*
X38906300Y46253700D02*
X38906300Y44275100D01*
X37720000Y47440000D02*
X38906300Y46253700D01*
X36077800Y43257800D02*
X35696000Y43257800D01*
X37720000Y44900000D02*
X36077800Y43257800D01*
X27501600Y20034700D02*
X29014900Y20034700D01*
X25065400Y22470900D02*
X27501600Y20034700D01*
X25065400Y23967500D02*
X25065400Y22470900D01*
X26436000Y25338100D02*
X25065400Y23967500D01*
X26978900Y25338100D02*
X26436000Y25338100D01*
X28587700Y26946900D02*
X26978900Y25338100D01*
X28587700Y27326500D02*
X28587700Y26946900D01*
X27937500Y27976700D02*
X28587700Y27326500D01*
X24554200Y27976700D02*
X27937500Y27976700D01*
X24212100Y27634600D02*
X24554200Y27976700D01*
X11682700Y787900D02*
X31611000Y787900D01*
X10846000Y1624600D02*
X11682700Y787900D01*
X14677400Y7857200D02*
X11802100Y7857200D01*
X16497600Y9677400D02*
X14677400Y7857200D01*
X34093000Y18495900D02*
X32086400Y20502500D01*
X34093000Y13531300D02*
X34093000Y18495900D01*
X36412500Y11211800D02*
X34093000Y13531300D01*
X36412500Y10696700D02*
X36412500Y11211800D01*
X35703000Y9987200D02*
X36412500Y10696700D01*
X35164100Y9987200D02*
X35703000Y9987200D01*
X24269700Y13913800D02*
X24269700Y21485800D01*
X23436000Y13080100D02*
X24269700Y13913800D01*
X22270800Y22576900D02*
X22983900Y21863800D01*
X20148200Y22576900D02*
X22270800Y22576900D01*
X18723300Y21152000D02*
X20148200Y22576900D01*
X18723300Y20486000D02*
X18723300Y21152000D01*
X21305300Y17904000D02*
X18723300Y20486000D01*
X21305300Y9096400D02*
X21305300Y17904000D01*
X21987500Y8414200D02*
X21305300Y9096400D01*
X46650000Y12180000D02*
X48110000Y10720000D01*
X46650000Y13550000D02*
X46650000Y12180000D01*
X48100000Y15000000D02*
X46650000Y13550000D01*
X48100000Y15600000D02*
X48100000Y15000000D01*
X48100000Y21420000D02*
X48110000Y21430000D01*
X48100000Y19200000D02*
X48100000Y21420000D01*
D25*
X41530000Y3770000D02*
X40260000Y2500000D01*
X41530000Y6085600D02*
X41530000Y3770000D01*
X46205700Y10761300D02*
X41530000Y6085600D01*
X46205700Y14017200D02*
X46205700Y10761300D01*
X47205200Y15016700D02*
X46205700Y14017200D01*
X47205200Y17400000D02*
X47205200Y15016700D01*
X45994800Y18610400D02*
X47205200Y17400000D01*
X45994800Y20954800D02*
X45994800Y18610400D01*
X46205900Y21165900D02*
X45994800Y20954800D01*
X46205900Y23920900D02*
X46205900Y21165900D01*
X41881900Y28244900D02*
X46205900Y23920900D01*
X41750000Y28244900D02*
X41881900Y28244900D01*
X41750000Y28772500D02*
X41750000Y28244900D01*
X41750000Y28772500D02*
X41750000Y29300000D01*
X41750000Y29300000D02*
X40694900Y29300000D01*
X25597000Y28748000D02*
X24148500Y28748000D01*
X27578300Y30729300D02*
X25597000Y28748000D01*
X39397500Y30729300D02*
X27578300Y30729300D01*
X40694900Y29431900D02*
X39397500Y30729300D01*
X40694900Y29300000D02*
X40694900Y29431900D01*
X28830300Y26069700D02*
X28830400Y26069800D01*
X30925000Y23975000D02*
X28830400Y26069800D01*
X31925000Y23975000D02*
X30925000Y23975000D01*
X31950000Y23950000D02*
X31925000Y23975000D01*
X28830400Y26069800D02*
X28830300Y26070000D01*
X23169700Y35470000D02*
X23194700Y35470000D01*
X21900000Y34200000D02*
X23169700Y35470000D01*
X23194700Y35469700D02*
X23194700Y35470000D01*
D26*
X39720000Y14170000D02*
X39750000Y14200000D01*
X35160000Y14170000D02*
X39720000Y14170000D01*
X39720000Y14170000D02*
X39750000Y14200000D01*
X23530300Y11130000D02*
X24130300Y10530000D01*
X24730300Y9920000D02*
X25600000Y9050000D01*
X24730300Y9930000D02*
X24730300Y9920000D01*
X24130300Y10530000D02*
X24730300Y9930000D01*
X24130600Y10530000D02*
X24730300Y9930300D01*
X24130300Y10530000D02*
X24130600Y10530000D01*
X23530300Y11130300D02*
X23530300Y11130000D01*
X39720000Y17980000D02*
X39750000Y17950000D01*
X37700000Y17980000D02*
X39720000Y17980000D01*
X39720000Y17980000D02*
X39750000Y17950000D01*
D25*
X30869700Y12430000D02*
X30869700Y12430300D01*
X28469700Y10125000D02*
X28469700Y10130300D01*
X28469700Y10120000D02*
X28469700Y10125000D01*
X27550000Y9200000D02*
X28469700Y10120000D01*
X28519700Y10130000D02*
X29669700Y11280000D01*
X28469700Y10130000D02*
X28519700Y10130000D01*
X28469700Y10125000D02*
X28469700Y10130000D01*
X29719700Y11280000D02*
X30869700Y12430000D01*
X29669700Y11280000D02*
X29719700Y11280000D01*
X29669700Y11280000D02*
X29669700Y11280300D01*
X8550000Y15150000D02*
X8600000Y15200000D01*
X5200000Y15150000D02*
X8550000Y15150000D01*
X33575000Y28725000D02*
X33250000Y28400000D01*
X33575000Y30100000D02*
X33575000Y28725000D01*
X1350000Y27000000D02*
X1350000Y25700000D01*
X31269700Y26455000D02*
X31269700Y26455300D01*
X22044700Y36095000D02*
X21225000Y35275000D01*
X22044700Y36544700D02*
X22044700Y36095000D01*
X39330100Y29275000D02*
X39305100Y29300000D01*
X39825000Y29275000D02*
X39330100Y29275000D01*
X38250000Y29300000D02*
X39305100Y29300000D01*
X21469700Y18870000D02*
X21469700Y18869700D01*
X10230300Y26295000D02*
X10230300Y26294700D01*
X20944700Y37645000D02*
X21494700Y37095000D01*
X22044700Y36545000D02*
X22044700Y36544700D01*
X21494700Y37095000D02*
X22044700Y36545000D01*
X21494400Y37095000D02*
X20944700Y37644700D01*
X21494700Y37095000D02*
X21494400Y37095000D01*
X20369700Y19970000D02*
X20919700Y19420000D01*
X19839300Y20500000D02*
X20369700Y19970000D01*
X19700000Y20500000D02*
X19839300Y20500000D01*
X19400000Y20800000D02*
X19700000Y20500000D01*
X20919700Y19420000D02*
X21469700Y18870000D01*
X20919400Y19420000D02*
X20369700Y19969700D01*
X20919700Y19420000D02*
X20919400Y19420000D01*
X11330300Y27395000D02*
X10780300Y26845000D01*
X12105300Y27395000D02*
X11330300Y27395000D01*
X12750000Y26750000D02*
X12105300Y27395000D01*
X10780300Y26845000D02*
X10230300Y26295000D01*
X10780600Y26845000D02*
X11330300Y27394700D01*
X10780300Y26845000D02*
X10780600Y26845000D01*
X31269700Y26480000D02*
X31269700Y26455300D01*
X32369700Y27580000D02*
X31269700Y26480000D01*
X32370000Y27580000D02*
X32369700Y27580000D01*
X32430300Y27580000D02*
X32370000Y27580000D01*
X33250000Y28400000D02*
X32430300Y27580000D01*
X32370000Y27580000D02*
X32369700Y27580300D01*
X31930300Y11369700D02*
X32358300Y10941800D01*
X33525000Y35075000D02*
X33525000Y35987400D01*
X32060300Y10495400D02*
X32060300Y10232000D01*
X32214400Y10649500D02*
X32060300Y10495400D01*
X32214400Y10797900D02*
X32214400Y10649500D01*
X32358300Y10941800D02*
X32214400Y10797900D01*
X12744700Y31055000D02*
X11950000Y31850000D01*
D26*
X19463100Y7413500D02*
X19200000Y7676600D01*
X22118400Y7413500D02*
X19463100Y7413500D01*
X25881100Y6739300D02*
X27452200Y6739300D01*
X37989000Y8509000D02*
X33886200Y8509000D01*
X45080000Y15600000D02*
X37989000Y8509000D01*
X46600000Y15600000D02*
X45080000Y15600000D01*
X6149900Y9563600D02*
X6063600Y9563600D01*
X6063600Y9563600D02*
X3650000Y7150000D01*
X6750000Y3529100D02*
X4470900Y3529100D01*
X4470900Y3529100D02*
X3450000Y4550000D01*
X3450000Y4550000D02*
X3450000Y6950000D01*
X3450000Y6950000D02*
X3650000Y7150000D01*
X6149900Y9563600D02*
X6149900Y9563500D01*
X6149900Y9563500D02*
X5867600Y9563500D01*
X26399300Y5840600D02*
X26593200Y6034500D01*
X26399300Y2385200D02*
X26399300Y5840600D01*
X25443300Y1429200D02*
X26399300Y2385200D01*
X16959300Y1429200D02*
X25443300Y1429200D01*
X16130100Y2258400D02*
X16959300Y1429200D01*
X16130100Y2731000D02*
X16130100Y2258400D01*
X15332000Y3529100D02*
X16130100Y2731000D01*
X6708100Y3529100D02*
X6750000Y3529100D01*
X6750000Y3529100D02*
X15332000Y3529100D01*
X2850000Y28600000D02*
X2850000Y27000000D01*
X2850000Y29550000D02*
X2850000Y28600000D01*
X3100000Y29800000D02*
X2850000Y29550000D01*
X3100000Y30600000D02*
X3100000Y29800000D01*
X32754800Y15871500D02*
X30149100Y18477200D01*
X32754800Y9914600D02*
X32754800Y15871500D01*
X31174400Y8334200D02*
X32754800Y9914600D01*
X15419700Y28330000D02*
X15619700Y28330000D01*
X14725000Y29025000D02*
X15419700Y28330000D01*
X14265200Y29535000D02*
X13805300Y29995000D01*
X14265000Y29535000D02*
X13805300Y29994700D01*
X14265200Y29535000D02*
X14265000Y29535000D01*
X14725000Y29075000D02*
X14265200Y29535000D01*
X14725000Y29025000D02*
X14725000Y29075000D01*
X15619700Y28330300D02*
X15619700Y28330000D01*
M02*
