G04 #@! TF.FileFunction,Copper,L2,Inr,Plane*
%FSLAX46Y46*%
G04 Gerber Fmt 4.6, Leading zero omitted, Abs format (unit mm)*
G04 Created by KiCad (PCBNEW 4.0.7) date 04/11/18 17:00:27*
%MOMM*%
%LPD*%
G01*
G04 APERTURE LIST*
%ADD10C,0.100000*%
%ADD11C,1.524000*%
%ADD12C,1.600000*%
%ADD13C,3.600000*%
%ADD14C,2.000000*%
%ADD15C,1.500000*%
%ADD16R,1.524000X1.524000*%
%ADD17C,0.812800*%
%ADD18C,0.200000*%
G04 APERTURE END LIST*
D10*
D11*
X37700000Y12900000D03*
D12*
X35160000Y14170000D03*
X37700000Y15440000D03*
X35160000Y16710000D03*
X37700000Y17980000D03*
X35160000Y19250000D03*
X37700000Y20520000D03*
X35160000Y21790000D03*
X48110000Y10720000D03*
X48110000Y13260000D03*
X48110000Y21430000D03*
X48110000Y23970000D03*
D13*
X44050000Y11630000D03*
X44050000Y23060000D03*
D14*
X41000000Y9600000D03*
X41000000Y25090000D03*
D15*
X43200000Y32750000D03*
X43200000Y40050000D03*
X48500000Y32750000D03*
X48500000Y40050000D03*
X6700000Y40050000D03*
X6700000Y32750000D03*
X1400000Y40050000D03*
X1400000Y32750000D03*
D11*
X4700000Y5040000D03*
D16*
X4700000Y2500000D03*
D11*
X7240000Y5040000D03*
X7240000Y2500000D03*
X9780000Y5040000D03*
X9780000Y2500000D03*
X12320000Y5040000D03*
X12320000Y2500000D03*
X14860000Y5040000D03*
X14860000Y2500000D03*
X17400000Y5040000D03*
X17400000Y2500000D03*
X19940000Y5040000D03*
X19940000Y2500000D03*
X22480000Y5040000D03*
X22480000Y2500000D03*
X25020000Y5040000D03*
X25020000Y2500000D03*
X27560000Y5040000D03*
X27560000Y2500000D03*
X30100000Y5040000D03*
X30100000Y2500000D03*
X32640000Y5040000D03*
X32640000Y2500000D03*
X35180000Y5040000D03*
X35180000Y2500000D03*
X37720000Y5040000D03*
X37720000Y2500000D03*
X40260000Y5040000D03*
X40260000Y2500000D03*
X42800000Y5040000D03*
X42800000Y2500000D03*
X45340000Y5040000D03*
X45340000Y2500000D03*
X4700000Y47440000D03*
D16*
X4700000Y44900000D03*
D11*
X7240000Y47440000D03*
X7240000Y44900000D03*
X9780000Y47440000D03*
X9780000Y44900000D03*
X12320000Y47440000D03*
X12320000Y44900000D03*
X14860000Y47440000D03*
X14860000Y44900000D03*
X17400000Y47440000D03*
X17400000Y44900000D03*
X19940000Y47440000D03*
X19940000Y44900000D03*
X22480000Y47440000D03*
X22480000Y44900000D03*
X25020000Y47440000D03*
X25020000Y44900000D03*
X27560000Y47440000D03*
X27560000Y44900000D03*
X30100000Y47440000D03*
X30100000Y44900000D03*
X32640000Y47440000D03*
X32640000Y44900000D03*
X35180000Y47440000D03*
X35180000Y44900000D03*
X37720000Y47440000D03*
X37720000Y44900000D03*
X40260000Y47440000D03*
X40260000Y44900000D03*
X42800000Y47440000D03*
X42800000Y44900000D03*
X45340000Y47440000D03*
X45340000Y44900000D03*
X19200000Y14540000D03*
D16*
X19200000Y12000000D03*
D11*
X48140000Y29300000D03*
D16*
X45600000Y29300000D03*
D12*
X23700000Y40850000D03*
X21160000Y40850000D03*
X18620000Y40850000D03*
X16080000Y40850000D03*
D17*
X34625000Y32600000D03*
X34800000Y27800000D03*
X20500000Y21900000D03*
X16400000Y23700000D03*
X8600000Y13000000D03*
X18100000Y28850000D03*
X24950000Y25850000D03*
X26900000Y26250000D03*
X41250000Y16700000D03*
X41250000Y15450000D03*
X28650000Y8200000D03*
X24550000Y8000000D03*
X31700000Y18600000D03*
X17300000Y16150000D03*
X17050000Y11300000D03*
X1250000Y24350000D03*
X11350000Y12025000D03*
X14125000Y36800000D03*
X24475000Y37825000D03*
X33100000Y24700000D03*
X9525000Y29200000D03*
X11250000Y19850000D03*
X26500000Y13800000D03*
X22155700Y16328700D03*
X1044700Y9554000D03*
X23300000Y28150000D03*
X20050000Y24900000D03*
X26243200Y30427900D03*
X35800000Y34700000D03*
X35016800Y36670500D03*
X39302600Y31685200D03*
X25099800Y35718000D03*
X13013000Y38782900D03*
X12012200Y33090700D03*
X21230000Y32415400D03*
X25743100Y26483400D03*
X28891000Y43582700D03*
X14800900Y27428200D03*
X15561500Y26247100D03*
X15452600Y24770100D03*
X20685900Y29756100D03*
X22645800Y39361900D03*
X7900000Y7050000D03*
X14675800Y18793400D03*
X16673300Y18554000D03*
X10582200Y6536500D03*
X8171800Y12008500D03*
X21434200Y23657900D03*
X23462300Y20319100D03*
X25986000Y17911200D03*
X4410400Y25347700D03*
X16645300Y29495900D03*
X27268400Y17175100D03*
X27521600Y18648800D03*
X30382800Y6872000D03*
X28405300Y19170900D03*
X26094800Y22967400D03*
X28389300Y21456800D03*
X30426200Y22526400D03*
X35710500Y10961100D03*
X26594400Y24018600D03*
X4717700Y39199800D03*
X10170700Y33304600D03*
X10872200Y32213700D03*
X12590900Y22882100D03*
X6186800Y24509600D03*
X14369700Y33571300D03*
X15834600Y34940200D03*
X17531200Y31800600D03*
X18402200Y30440000D03*
X40925000Y32459400D03*
X37561500Y24724600D03*
X33079100Y21535900D03*
X29850000Y32900000D03*
X32075000Y33525000D03*
X32075000Y31650000D03*
X28820800Y33627700D03*
X35503300Y41467300D03*
X35696000Y43257800D03*
X29014900Y20034700D03*
X24212100Y27634600D03*
X16497600Y9677400D03*
X11802100Y7857200D03*
X10846000Y1624600D03*
X31611000Y787900D03*
X35164100Y9987200D03*
X32086400Y20502500D03*
X23436000Y13080100D03*
X24269700Y21485800D03*
X21987500Y8414200D03*
X22983900Y21863800D03*
X24148500Y28748000D03*
X31950000Y23950000D03*
X21900000Y34200000D03*
X25600000Y9050000D03*
X27550000Y9200000D03*
X19400000Y20800000D03*
X13800000Y21200000D03*
X8600000Y15200000D03*
X11950000Y31850000D03*
X13800000Y10850000D03*
X12500000Y9500000D03*
X1350000Y25700000D03*
X9025000Y36825000D03*
X21225000Y35275000D03*
X40875000Y36025000D03*
X39825000Y29275000D03*
X33250000Y28400000D03*
X12750000Y26750000D03*
X33525000Y35987400D03*
X1250000Y41929700D03*
X32060300Y10232000D03*
X24989800Y16370800D03*
X19200000Y7676600D03*
X22118400Y7413500D03*
X25881100Y6739300D03*
X27452200Y6739300D03*
X33886200Y8509000D03*
X3650000Y7150000D03*
X6149900Y9563600D03*
X26593200Y6034500D03*
X3100000Y30600000D03*
X31174400Y8334200D03*
X30149100Y18477200D03*
X14725000Y29025000D03*
D18*
G36*
X49325000Y41134416D02*
X49265712Y41193807D01*
X48769710Y41399765D01*
X48232647Y41400234D01*
X47736285Y41195142D01*
X47356193Y40815712D01*
X47150235Y40319710D01*
X47149766Y39782647D01*
X47354858Y39286285D01*
X47734288Y38906193D01*
X48230290Y38700235D01*
X48767353Y38699766D01*
X49263715Y38904858D01*
X49325000Y38966036D01*
X49325000Y33834416D01*
X49265712Y33893807D01*
X48769710Y34099765D01*
X48232647Y34100234D01*
X47736285Y33895142D01*
X47356193Y33515712D01*
X47150235Y33019710D01*
X47149766Y32482647D01*
X47354858Y31986285D01*
X47734288Y31606193D01*
X48230290Y31400235D01*
X48767353Y31399766D01*
X49263715Y31604858D01*
X49325000Y31666036D01*
X49325000Y29998674D01*
X49295321Y30070503D01*
X48912518Y30453974D01*
X48412107Y30661763D01*
X47870270Y30662236D01*
X47369497Y30455321D01*
X46986026Y30072518D01*
X46973754Y30042964D01*
X46973754Y30062000D01*
X46931917Y30284346D01*
X46800510Y30488558D01*
X46600007Y30625556D01*
X46362000Y30673754D01*
X44838000Y30673754D01*
X44615654Y30631917D01*
X44411442Y30500510D01*
X44274444Y30300007D01*
X44226246Y30062000D01*
X44226246Y28538000D01*
X44268083Y28315654D01*
X44399490Y28111442D01*
X44599993Y27974444D01*
X44838000Y27926246D01*
X46362000Y27926246D01*
X46584346Y27968083D01*
X46788558Y28099490D01*
X46925556Y28299993D01*
X46973754Y28538000D01*
X46973754Y28555938D01*
X46984679Y28529497D01*
X47367482Y28146026D01*
X47867893Y27938237D01*
X48409730Y27937764D01*
X48910503Y28144679D01*
X49293974Y28527482D01*
X49325000Y28602201D01*
X49325000Y24694357D01*
X49119969Y24762180D01*
X48327789Y23970000D01*
X49119969Y23177820D01*
X49325000Y23245643D01*
X49325000Y22155578D01*
X49297555Y22222000D01*
X48904072Y22616170D01*
X48733333Y22687067D01*
X48824357Y22724771D01*
X48902180Y22960031D01*
X48110000Y23752211D01*
X47317820Y22960031D01*
X47395643Y22724771D01*
X47495880Y22691053D01*
X47318000Y22617555D01*
X46923830Y22224072D01*
X46710243Y21709699D01*
X46709757Y21152744D01*
X46922445Y20638000D01*
X47315928Y20243830D01*
X47830301Y20030243D01*
X48387256Y20029757D01*
X48902000Y20242445D01*
X49296170Y20635928D01*
X49325000Y20705358D01*
X49325000Y13984357D01*
X49119969Y14052180D01*
X48327789Y13260000D01*
X49119969Y12467820D01*
X49325000Y12535643D01*
X49325000Y11445578D01*
X49297555Y11512000D01*
X48904072Y11906170D01*
X48733333Y11977067D01*
X48824357Y12014771D01*
X48902180Y12250031D01*
X48110000Y13042211D01*
X47317820Y12250031D01*
X47395643Y12014771D01*
X47495880Y11981053D01*
X47318000Y11907555D01*
X46923830Y11514072D01*
X46710243Y10999699D01*
X46709757Y10442744D01*
X46922445Y9928000D01*
X47315928Y9533830D01*
X47830301Y9320243D01*
X48387256Y9319757D01*
X48902000Y9532445D01*
X49296170Y9925928D01*
X49325000Y9995358D01*
X49325000Y675000D01*
X32617302Y675000D01*
X32617575Y987207D01*
X32555238Y1138073D01*
X32909730Y1137764D01*
X33410503Y1344679D01*
X33793974Y1727482D01*
X33910029Y2006972D01*
X34024679Y1729497D01*
X34407482Y1346026D01*
X34907893Y1138237D01*
X35449730Y1137764D01*
X35950503Y1344679D01*
X36333974Y1727482D01*
X36450029Y2006972D01*
X36564679Y1729497D01*
X36947482Y1346026D01*
X37447893Y1138237D01*
X37989730Y1137764D01*
X38490503Y1344679D01*
X38873974Y1727482D01*
X38990029Y2006972D01*
X39104679Y1729497D01*
X39487482Y1346026D01*
X39987893Y1138237D01*
X40529730Y1137764D01*
X41030503Y1344679D01*
X41413974Y1727482D01*
X41530029Y2006972D01*
X41644679Y1729497D01*
X42027482Y1346026D01*
X42527893Y1138237D01*
X43069730Y1137764D01*
X43570503Y1344679D01*
X43953974Y1727482D01*
X44070029Y2006972D01*
X44184679Y1729497D01*
X44567482Y1346026D01*
X45067893Y1138237D01*
X45609730Y1137764D01*
X46110503Y1344679D01*
X46493974Y1727482D01*
X46701763Y2227893D01*
X46702236Y2769730D01*
X46495321Y3270503D01*
X46112518Y3653974D01*
X45833028Y3770029D01*
X46110503Y3884679D01*
X46493974Y4267482D01*
X46701763Y4767893D01*
X46702236Y5309730D01*
X46495321Y5810503D01*
X46112518Y6193974D01*
X45612107Y6401763D01*
X45070270Y6402236D01*
X44569497Y6195321D01*
X44186026Y5812518D01*
X44069971Y5533028D01*
X43955321Y5810503D01*
X43572518Y6193974D01*
X43072107Y6401763D01*
X42530270Y6402236D01*
X42029497Y6195321D01*
X41646026Y5812518D01*
X41529971Y5533028D01*
X41415321Y5810503D01*
X41032518Y6193974D01*
X40532107Y6401763D01*
X39990270Y6402236D01*
X39489497Y6195321D01*
X39106026Y5812518D01*
X38989971Y5533028D01*
X38875321Y5810503D01*
X38492518Y6193974D01*
X37992107Y6401763D01*
X37450270Y6402236D01*
X36949497Y6195321D01*
X36566026Y5812518D01*
X36449971Y5533028D01*
X36335321Y5810503D01*
X35952518Y6193974D01*
X35452107Y6401763D01*
X34910270Y6402236D01*
X34409497Y6195321D01*
X34026026Y5812518D01*
X33909971Y5533028D01*
X33795321Y5810503D01*
X33412518Y6193974D01*
X32912107Y6401763D01*
X32370270Y6402236D01*
X31869497Y6195321D01*
X31486026Y5812518D01*
X31369971Y5533028D01*
X31255321Y5810503D01*
X31000085Y6066184D01*
X31235487Y6301176D01*
X31389025Y6670936D01*
X31389375Y7071307D01*
X31283434Y7327704D01*
X31373707Y7327625D01*
X31743735Y7480518D01*
X32027087Y7763376D01*
X32180625Y8133136D01*
X32180779Y8309693D01*
X32879625Y8309693D01*
X33032518Y7939665D01*
X33315376Y7656313D01*
X33685136Y7502775D01*
X34085507Y7502425D01*
X34455535Y7655318D01*
X34738887Y7938176D01*
X34892425Y8307936D01*
X34892775Y8708307D01*
X34742225Y9072664D01*
X34963036Y8980975D01*
X35363407Y8980625D01*
X35733435Y9133518D01*
X35883315Y9283137D01*
X39399723Y9283137D01*
X39642795Y8694857D01*
X40092489Y8244377D01*
X40680344Y8000278D01*
X41316863Y7999723D01*
X41905143Y8242795D01*
X42355623Y8692489D01*
X42599722Y9280344D01*
X42600075Y9685379D01*
X42688734Y9596565D01*
X43570516Y9230417D01*
X44525295Y9229584D01*
X45407715Y9594192D01*
X46083435Y10268734D01*
X46449583Y11150516D01*
X46450416Y12105295D01*
X46085808Y12987715D01*
X45630866Y13443452D01*
X46686185Y13443452D01*
X46724363Y12884618D01*
X46864771Y12545643D01*
X47100031Y12467820D01*
X47892211Y13260000D01*
X47100031Y14052180D01*
X46864771Y13974357D01*
X46686185Y13443452D01*
X45630866Y13443452D01*
X45411266Y13663435D01*
X44529484Y14029583D01*
X43574705Y14030416D01*
X42692285Y13665808D01*
X42016565Y12991266D01*
X41650417Y12109484D01*
X41649584Y11154705D01*
X41695461Y11043674D01*
X41319656Y11199722D01*
X40683137Y11200277D01*
X40094857Y10957205D01*
X39644377Y10507511D01*
X39400278Y9919656D01*
X39399723Y9283137D01*
X35883315Y9283137D01*
X36016787Y9416376D01*
X36170325Y9786136D01*
X36170566Y10062269D01*
X36279835Y10107418D01*
X36563187Y10390276D01*
X36716725Y10760036D01*
X36717075Y11160407D01*
X36564182Y11530435D01*
X36281324Y11813787D01*
X35911564Y11967325D01*
X35511193Y11967675D01*
X35141165Y11814782D01*
X34857813Y11531924D01*
X34704275Y11162164D01*
X34704034Y10886031D01*
X34594765Y10840882D01*
X34311413Y10558024D01*
X34157875Y10188264D01*
X34157525Y9787893D01*
X34308075Y9423536D01*
X34087264Y9515225D01*
X33686893Y9515575D01*
X33316865Y9362682D01*
X33033513Y9079824D01*
X32879975Y8710064D01*
X32879625Y8309693D01*
X32180779Y8309693D01*
X32180975Y8533507D01*
X32028082Y8903535D01*
X31745224Y9186887D01*
X31375464Y9340425D01*
X30975093Y9340775D01*
X30605065Y9187882D01*
X30321713Y8905024D01*
X30168175Y8535264D01*
X30167825Y8134893D01*
X30273766Y7878496D01*
X30183493Y7878575D01*
X29813465Y7725682D01*
X29530113Y7442824D01*
X29376575Y7073064D01*
X29376225Y6672693D01*
X29529118Y6302665D01*
X29546689Y6285063D01*
X29329497Y6195321D01*
X28946026Y5812518D01*
X28829971Y5533028D01*
X28715321Y5810503D01*
X28332518Y6193974D01*
X28317981Y6200010D01*
X28458425Y6538236D01*
X28458775Y6938607D01*
X28333543Y7241690D01*
X28448936Y7193775D01*
X28849307Y7193425D01*
X29219335Y7346318D01*
X29502687Y7629176D01*
X29656225Y7998936D01*
X29656575Y8399307D01*
X29503682Y8769335D01*
X29220824Y9052687D01*
X28851064Y9206225D01*
X28556406Y9206483D01*
X28556575Y9399307D01*
X28403682Y9769335D01*
X28120824Y10052687D01*
X27751064Y10206225D01*
X27350693Y10206575D01*
X26980665Y10053682D01*
X26697313Y9770824D01*
X26543823Y9401179D01*
X26453682Y9619335D01*
X26170824Y9902687D01*
X25801064Y10056225D01*
X25400693Y10056575D01*
X25030665Y9903682D01*
X24747313Y9620824D01*
X24593775Y9251064D01*
X24593561Y9006363D01*
X24350693Y9006575D01*
X23980665Y8853682D01*
X23697313Y8570824D01*
X23543775Y8201064D01*
X23543425Y7800693D01*
X23696318Y7430665D01*
X23979176Y7147313D01*
X24348936Y6993775D01*
X24749307Y6993425D01*
X24927477Y7067044D01*
X24874875Y6940364D01*
X24874525Y6539993D01*
X24931511Y6402078D01*
X24750270Y6402236D01*
X24249497Y6195321D01*
X23866026Y5812518D01*
X23749971Y5533028D01*
X23635321Y5810503D01*
X23252518Y6193974D01*
X22752107Y6401763D01*
X22210270Y6402236D01*
X21709497Y6195321D01*
X21326026Y5812518D01*
X21209971Y5533028D01*
X21095321Y5810503D01*
X20712518Y6193974D01*
X20212107Y6401763D01*
X19670270Y6402236D01*
X19169497Y6195321D01*
X18786026Y5812518D01*
X18669971Y5533028D01*
X18555321Y5810503D01*
X18172518Y6193974D01*
X17672107Y6401763D01*
X17130270Y6402236D01*
X16629497Y6195321D01*
X16246026Y5812518D01*
X16129971Y5533028D01*
X16015321Y5810503D01*
X15632518Y6193974D01*
X15132107Y6401763D01*
X14590270Y6402236D01*
X14089497Y6195321D01*
X13706026Y5812518D01*
X13589971Y5533028D01*
X13475321Y5810503D01*
X13092518Y6193974D01*
X12592107Y6401763D01*
X12050270Y6402236D01*
X11549497Y6195321D01*
X11516613Y6162495D01*
X11588425Y6335436D01*
X11588775Y6735807D01*
X11528794Y6880973D01*
X11601036Y6850975D01*
X12001407Y6850625D01*
X12371435Y7003518D01*
X12654787Y7286376D01*
X12734062Y7477293D01*
X18193425Y7477293D01*
X18346318Y7107265D01*
X18629176Y6823913D01*
X18998936Y6670375D01*
X19399307Y6670025D01*
X19769335Y6822918D01*
X20052687Y7105776D01*
X20206225Y7475536D01*
X20206575Y7875907D01*
X20066509Y8214893D01*
X20980925Y8214893D01*
X21133818Y7844865D01*
X21186070Y7792522D01*
X21112175Y7614564D01*
X21111825Y7214193D01*
X21264718Y6844165D01*
X21547576Y6560813D01*
X21917336Y6407275D01*
X22317707Y6406925D01*
X22687735Y6559818D01*
X22971087Y6842676D01*
X23124625Y7212436D01*
X23124975Y7612807D01*
X22972082Y7982835D01*
X22919830Y8035178D01*
X22993725Y8213136D01*
X22994075Y8613507D01*
X22841182Y8983535D01*
X22558324Y9266887D01*
X22188564Y9420425D01*
X21788193Y9420775D01*
X21418165Y9267882D01*
X21134813Y8985024D01*
X20981275Y8615264D01*
X20980925Y8214893D01*
X20066509Y8214893D01*
X20053682Y8245935D01*
X19770824Y8529287D01*
X19401064Y8682825D01*
X19000693Y8683175D01*
X18630665Y8530282D01*
X18347313Y8247424D01*
X18193775Y7877664D01*
X18193425Y7477293D01*
X12734062Y7477293D01*
X12808325Y7656136D01*
X12808675Y8056507D01*
X12655782Y8426535D01*
X12372924Y8709887D01*
X12003164Y8863425D01*
X11602793Y8863775D01*
X11232765Y8710882D01*
X10949413Y8428024D01*
X10795875Y8058264D01*
X10795525Y7657893D01*
X10855506Y7512727D01*
X10783264Y7542725D01*
X10382893Y7543075D01*
X10012865Y7390182D01*
X9729513Y7107324D01*
X9575975Y6737564D01*
X9575682Y6402179D01*
X9510270Y6402236D01*
X9009497Y6195321D01*
X8626026Y5812518D01*
X8509971Y5533028D01*
X8395321Y5810503D01*
X8144262Y6062000D01*
X8469335Y6196318D01*
X8752687Y6479176D01*
X8906225Y6848936D01*
X8906575Y7249307D01*
X8753682Y7619335D01*
X8470824Y7902687D01*
X8101064Y8056225D01*
X7700693Y8056575D01*
X7330665Y7903682D01*
X7047313Y7620824D01*
X6893775Y7251064D01*
X6893425Y6850693D01*
X7046318Y6480665D01*
X7124745Y6402101D01*
X6970270Y6402236D01*
X6469497Y6195321D01*
X6086026Y5812518D01*
X5969971Y5533028D01*
X5855321Y5810503D01*
X5472518Y6193974D01*
X4972107Y6401763D01*
X4430270Y6402236D01*
X4251402Y6328329D01*
X4502687Y6579176D01*
X4656225Y6948936D01*
X4656575Y7349307D01*
X4503682Y7719335D01*
X4220824Y8002687D01*
X3851064Y8156225D01*
X3450693Y8156575D01*
X3080665Y8003682D01*
X2797313Y7720824D01*
X2643775Y7351064D01*
X2643425Y6950693D01*
X2796318Y6580665D01*
X3079176Y6297313D01*
X3448936Y6143775D01*
X3849307Y6143425D01*
X3897429Y6163309D01*
X3546026Y5812518D01*
X3338237Y5312107D01*
X3337764Y4770270D01*
X3544679Y4269497D01*
X3927482Y3886026D01*
X3957036Y3873754D01*
X3938000Y3873754D01*
X3715654Y3831917D01*
X3511442Y3700510D01*
X3374444Y3500007D01*
X3326246Y3262000D01*
X3326246Y1738000D01*
X3368083Y1515654D01*
X3499490Y1311442D01*
X3699993Y1174444D01*
X3938000Y1126246D01*
X5462000Y1126246D01*
X5684346Y1168083D01*
X5888558Y1299490D01*
X6025556Y1499993D01*
X6073754Y1738000D01*
X6073754Y1755938D01*
X6084679Y1729497D01*
X6467482Y1346026D01*
X6967893Y1138237D01*
X7509730Y1137764D01*
X8010503Y1344679D01*
X8393974Y1727482D01*
X8510029Y2006972D01*
X8624679Y1729497D01*
X9007482Y1346026D01*
X9507893Y1138237D01*
X9958197Y1137844D01*
X9992318Y1055265D01*
X10275176Y771913D01*
X10508568Y675000D01*
X675000Y675000D01*
X675000Y8617799D01*
X843636Y8547775D01*
X1244007Y8547425D01*
X1614035Y8700318D01*
X1897387Y8983176D01*
X2050925Y9352936D01*
X2050934Y9364293D01*
X5143325Y9364293D01*
X5296218Y8994265D01*
X5579076Y8710913D01*
X5948836Y8557375D01*
X6349207Y8557025D01*
X6719235Y8709918D01*
X7002587Y8992776D01*
X7156125Y9362536D01*
X7156226Y9478093D01*
X15491025Y9478093D01*
X15643918Y9108065D01*
X15926776Y8824713D01*
X16296536Y8671175D01*
X16696907Y8670825D01*
X17066935Y8823718D01*
X17350287Y9106576D01*
X17503825Y9476336D01*
X17504175Y9876707D01*
X17351282Y10246735D01*
X17288505Y10309621D01*
X17619335Y10446318D01*
X17902687Y10729176D01*
X17961416Y10870611D01*
X17999490Y10811442D01*
X18199993Y10674444D01*
X18438000Y10626246D01*
X19962000Y10626246D01*
X20184346Y10668083D01*
X20388558Y10799490D01*
X20525556Y10999993D01*
X20573754Y11238000D01*
X20573754Y12762000D01*
X20551402Y12880793D01*
X22429425Y12880793D01*
X22582318Y12510765D01*
X22865176Y12227413D01*
X23234936Y12073875D01*
X23635307Y12073525D01*
X24005335Y12226418D01*
X24288687Y12509276D01*
X24442225Y12879036D01*
X24442575Y13279407D01*
X24309822Y13600693D01*
X25493425Y13600693D01*
X25646318Y13230665D01*
X25929176Y12947313D01*
X26298936Y12793775D01*
X26699307Y12793425D01*
X27069335Y12946318D01*
X27352687Y13229176D01*
X27506225Y13598936D01*
X27506575Y13999307D01*
X27353682Y14369335D01*
X27070824Y14652687D01*
X26701064Y14806225D01*
X26300693Y14806575D01*
X25930665Y14653682D01*
X25647313Y14370824D01*
X25493775Y14001064D01*
X25493425Y13600693D01*
X24309822Y13600693D01*
X24289682Y13649435D01*
X24006824Y13932787D01*
X23637064Y14086325D01*
X23236693Y14086675D01*
X22866665Y13933782D01*
X22583313Y13650924D01*
X22429775Y13281164D01*
X22429425Y12880793D01*
X20551402Y12880793D01*
X20531917Y12984346D01*
X20400510Y13188558D01*
X20200007Y13325556D01*
X19962000Y13373754D01*
X19944062Y13373754D01*
X19970503Y13384679D01*
X20353974Y13767482D01*
X20561763Y14267893D01*
X20562236Y14809730D01*
X20355321Y15310503D01*
X19972518Y15693974D01*
X19472107Y15901763D01*
X18930270Y15902236D01*
X18429497Y15695321D01*
X18046026Y15312518D01*
X17838237Y14812107D01*
X17837764Y14270270D01*
X18044679Y13769497D01*
X18427482Y13386026D01*
X18457036Y13373754D01*
X18438000Y13373754D01*
X18215654Y13331917D01*
X18011442Y13200510D01*
X17874444Y13000007D01*
X17826246Y12762000D01*
X17826246Y11946906D01*
X17620824Y12152687D01*
X17251064Y12306225D01*
X16850693Y12306575D01*
X16480665Y12153682D01*
X16197313Y11870824D01*
X16043775Y11501064D01*
X16043425Y11100693D01*
X16196318Y10730665D01*
X16259095Y10667779D01*
X15928265Y10531082D01*
X15644913Y10248224D01*
X15491375Y9878464D01*
X15491025Y9478093D01*
X7156226Y9478093D01*
X7156475Y9762907D01*
X7003582Y10132935D01*
X6720724Y10416287D01*
X6350964Y10569825D01*
X5950593Y10570175D01*
X5580565Y10417282D01*
X5297213Y10134424D01*
X5143675Y9764664D01*
X5143325Y9364293D01*
X2050934Y9364293D01*
X2051275Y9753307D01*
X1898382Y10123335D01*
X1615524Y10406687D01*
X1245764Y10560225D01*
X845393Y10560575D01*
X675000Y10490170D01*
X675000Y11809193D01*
X7165225Y11809193D01*
X7318118Y11439165D01*
X7600976Y11155813D01*
X7970736Y11002275D01*
X8371107Y11001925D01*
X8741135Y11154818D01*
X9024487Y11437676D01*
X9178025Y11807436D01*
X9178040Y11825693D01*
X10343425Y11825693D01*
X10496318Y11455665D01*
X10779176Y11172313D01*
X11148936Y11018775D01*
X11549307Y11018425D01*
X11919335Y11171318D01*
X12202687Y11454176D01*
X12356225Y11823936D01*
X12356575Y12224307D01*
X12203682Y12594335D01*
X11920824Y12877687D01*
X11551064Y13031225D01*
X11150693Y13031575D01*
X10780665Y12878682D01*
X10497313Y12595824D01*
X10343775Y12226064D01*
X10343425Y11825693D01*
X9178040Y11825693D01*
X9178329Y12155296D01*
X9452687Y12429176D01*
X9606225Y12798936D01*
X9606575Y13199307D01*
X9453682Y13569335D01*
X9170824Y13852687D01*
X8801064Y14006225D01*
X8400693Y14006575D01*
X8030665Y13853682D01*
X7747313Y13570824D01*
X7593775Y13201064D01*
X7593471Y12853204D01*
X7319113Y12579324D01*
X7165575Y12209564D01*
X7165225Y11809193D01*
X675000Y11809193D01*
X675000Y15950693D01*
X16293425Y15950693D01*
X16446318Y15580665D01*
X16729176Y15297313D01*
X17098936Y15143775D01*
X17499307Y15143425D01*
X17869335Y15296318D01*
X18152687Y15579176D01*
X18306225Y15948936D01*
X18306382Y16129393D01*
X21149125Y16129393D01*
X21302018Y15759365D01*
X21584876Y15476013D01*
X21954636Y15322475D01*
X22355007Y15322125D01*
X22725035Y15475018D01*
X23008387Y15757876D01*
X23161925Y16127636D01*
X23162275Y16528007D01*
X23009382Y16898035D01*
X22726524Y17181387D01*
X22356764Y17334925D01*
X21956393Y17335275D01*
X21586365Y17182382D01*
X21303013Y16899524D01*
X21149475Y16529764D01*
X21149125Y16129393D01*
X18306382Y16129393D01*
X18306575Y16349307D01*
X18153682Y16719335D01*
X17870824Y17002687D01*
X17501064Y17156225D01*
X17100693Y17156575D01*
X16730665Y17003682D01*
X16447313Y16720824D01*
X16293775Y16351064D01*
X16293425Y15950693D01*
X675000Y15950693D01*
X675000Y18594093D01*
X13669225Y18594093D01*
X13822118Y18224065D01*
X14104976Y17940713D01*
X14474736Y17787175D01*
X14875107Y17786825D01*
X15245135Y17939718D01*
X15528487Y18222576D01*
X15666901Y18555913D01*
X15666725Y18354693D01*
X15819618Y17984665D01*
X16102476Y17701313D01*
X16472236Y17547775D01*
X16872607Y17547425D01*
X17242635Y17700318D01*
X17254230Y17711893D01*
X24979425Y17711893D01*
X25132318Y17341865D01*
X25415176Y17058513D01*
X25784936Y16904975D01*
X26185307Y16904625D01*
X26275784Y16942010D01*
X26414718Y16605765D01*
X26697576Y16322413D01*
X27067336Y16168875D01*
X27467707Y16168525D01*
X27837735Y16321418D01*
X28121087Y16604276D01*
X28274625Y16974036D01*
X28274975Y17374407D01*
X28122082Y17744435D01*
X28077166Y17789429D01*
X28090935Y17795118D01*
X28374287Y18077976D01*
X28410213Y18164495D01*
X28604607Y18164325D01*
X28974635Y18317218D01*
X29142706Y18484996D01*
X29142525Y18277893D01*
X29295418Y17907865D01*
X29578276Y17624513D01*
X29948036Y17470975D01*
X30348407Y17470625D01*
X30718435Y17623518D01*
X30986061Y17890678D01*
X31129176Y17747313D01*
X31498936Y17593775D01*
X31899307Y17593425D01*
X32269335Y17746318D01*
X32552687Y18029176D01*
X32706225Y18398936D01*
X32706575Y18799307D01*
X32553682Y19169335D01*
X32270824Y19452687D01*
X32166444Y19496029D01*
X32285707Y19495925D01*
X32655735Y19648818D01*
X32939087Y19931676D01*
X33092625Y20301436D01*
X33092824Y20529487D01*
X33278407Y20529325D01*
X33648435Y20682218D01*
X33931787Y20965076D01*
X33958985Y21030576D01*
X33972445Y20998000D01*
X34365928Y20603830D01*
X34567673Y20520058D01*
X34368000Y20437555D01*
X33973830Y20044072D01*
X33760243Y19529699D01*
X33759757Y18972744D01*
X33972445Y18458000D01*
X34365928Y18063830D01*
X34567673Y17980058D01*
X34368000Y17897555D01*
X33973830Y17504072D01*
X33760243Y16989699D01*
X33759757Y16432744D01*
X33972445Y15918000D01*
X34365928Y15523830D01*
X34567673Y15440058D01*
X34368000Y15357555D01*
X33973830Y14964072D01*
X33760243Y14449699D01*
X33759757Y13892744D01*
X33972445Y13378000D01*
X34365928Y12983830D01*
X34880301Y12770243D01*
X35437256Y12769757D01*
X35952000Y12982445D01*
X36346170Y13375928D01*
X36559757Y13890301D01*
X36560243Y14447256D01*
X36347555Y14962000D01*
X35954072Y15356170D01*
X35752327Y15439942D01*
X35952000Y15522445D01*
X36346170Y15915928D01*
X36559757Y16430301D01*
X36560243Y16987256D01*
X36347555Y17502000D01*
X35954072Y17896170D01*
X35752327Y17979942D01*
X35952000Y18062445D01*
X36346170Y18455928D01*
X36559757Y18970301D01*
X36560243Y19527256D01*
X36347555Y20042000D01*
X36147161Y20242744D01*
X36299757Y20242744D01*
X36512445Y19728000D01*
X36905928Y19333830D01*
X37107673Y19250058D01*
X36908000Y19167555D01*
X36513830Y18774072D01*
X36300243Y18259699D01*
X36299757Y17702744D01*
X36512445Y17188000D01*
X36905928Y16793830D01*
X37107673Y16710058D01*
X36908000Y16627555D01*
X36513830Y16234072D01*
X36300243Y15719699D01*
X36299757Y15162744D01*
X36512445Y14648000D01*
X36905928Y14253830D01*
X37157304Y14149449D01*
X36929497Y14055321D01*
X36546026Y13672518D01*
X36338237Y13172107D01*
X36337764Y12630270D01*
X36544679Y12129497D01*
X36927482Y11746026D01*
X37427893Y11538237D01*
X37969730Y11537764D01*
X38470503Y11744679D01*
X38853974Y12127482D01*
X39061763Y12627893D01*
X39062236Y13169730D01*
X38855321Y13670503D01*
X38472518Y14053974D01*
X38242660Y14149420D01*
X38492000Y14252445D01*
X38509554Y14269969D01*
X47317820Y14269969D01*
X48110000Y13477789D01*
X48902180Y14269969D01*
X48824357Y14505229D01*
X48293452Y14683815D01*
X47734618Y14645637D01*
X47395643Y14505229D01*
X47317820Y14269969D01*
X38509554Y14269969D01*
X38886170Y14645928D01*
X39099757Y15160301D01*
X39100243Y15717256D01*
X38887555Y16232000D01*
X38619331Y16500693D01*
X40243425Y16500693D01*
X40396318Y16130665D01*
X40451735Y16075151D01*
X40397313Y16020824D01*
X40243775Y15651064D01*
X40243425Y15250693D01*
X40396318Y14880665D01*
X40679176Y14597313D01*
X41048936Y14443775D01*
X41449307Y14443425D01*
X41819335Y14596318D01*
X42102687Y14879176D01*
X42256225Y15248936D01*
X42256575Y15649307D01*
X42103682Y16019335D01*
X42048265Y16074849D01*
X42102687Y16129176D01*
X42256225Y16498936D01*
X42256575Y16899307D01*
X42103682Y17269335D01*
X41820824Y17552687D01*
X41451064Y17706225D01*
X41050693Y17706575D01*
X40680665Y17553682D01*
X40397313Y17270824D01*
X40243775Y16901064D01*
X40243425Y16500693D01*
X38619331Y16500693D01*
X38494072Y16626170D01*
X38292327Y16709942D01*
X38492000Y16792445D01*
X38886170Y17185928D01*
X39099757Y17700301D01*
X39100243Y18257256D01*
X38887555Y18772000D01*
X38494072Y19166170D01*
X38292327Y19249942D01*
X38492000Y19332445D01*
X38886170Y19725928D01*
X39099757Y20240301D01*
X39100243Y20797256D01*
X38887555Y21312000D01*
X38494072Y21706170D01*
X37979699Y21919757D01*
X37422744Y21920243D01*
X36908000Y21707555D01*
X36513830Y21314072D01*
X36300243Y20799699D01*
X36299757Y20242744D01*
X36147161Y20242744D01*
X35954072Y20436170D01*
X35752327Y20519942D01*
X35952000Y20602445D01*
X36346170Y20995928D01*
X36559757Y21510301D01*
X36560243Y22067256D01*
X36347555Y22582000D01*
X35954072Y22976170D01*
X35439699Y23189757D01*
X34882744Y23190243D01*
X34368000Y22977555D01*
X33973830Y22584072D01*
X33821350Y22216861D01*
X33649924Y22388587D01*
X33280164Y22542125D01*
X32879793Y22542475D01*
X32509765Y22389582D01*
X32226413Y22106724D01*
X32072875Y21736964D01*
X32072676Y21508913D01*
X31887093Y21509075D01*
X31517065Y21356182D01*
X31233713Y21073324D01*
X31080175Y20703564D01*
X31079825Y20303193D01*
X31232718Y19933165D01*
X31515576Y19649813D01*
X31619956Y19606471D01*
X31500693Y19606575D01*
X31130665Y19453682D01*
X30863039Y19186522D01*
X30719924Y19329887D01*
X30350164Y19483425D01*
X29949793Y19483775D01*
X29843542Y19439873D01*
X29867587Y19463876D01*
X30021125Y19833636D01*
X30021475Y20234007D01*
X29868582Y20604035D01*
X29585724Y20887387D01*
X29293038Y21008921D01*
X29395525Y21255736D01*
X29395875Y21656107D01*
X29242982Y22026135D01*
X28960124Y22309487D01*
X28917725Y22327093D01*
X29419625Y22327093D01*
X29572518Y21957065D01*
X29855376Y21673713D01*
X30225136Y21520175D01*
X30625507Y21519825D01*
X30995535Y21672718D01*
X31278887Y21955576D01*
X31432425Y22325336D01*
X31432775Y22725707D01*
X31279882Y23095735D01*
X30997024Y23379087D01*
X30627264Y23532625D01*
X30226893Y23532975D01*
X29856865Y23380082D01*
X29573513Y23097224D01*
X29419975Y22727464D01*
X29419625Y22327093D01*
X28917725Y22327093D01*
X28590364Y22463025D01*
X28189993Y22463375D01*
X27819965Y22310482D01*
X27536613Y22027624D01*
X27383075Y21657864D01*
X27382725Y21257493D01*
X27535618Y20887465D01*
X27818476Y20604113D01*
X28111162Y20482579D01*
X28008675Y20235764D01*
X28008553Y20095894D01*
X27835965Y20024582D01*
X27552613Y19741724D01*
X27516687Y19655205D01*
X27322293Y19655375D01*
X26952265Y19502482D01*
X26668913Y19219624D01*
X26515375Y18849864D01*
X26515315Y18781123D01*
X26187064Y18917425D01*
X25786693Y18917775D01*
X25416665Y18764882D01*
X25133313Y18482024D01*
X24979775Y18112264D01*
X24979425Y17711893D01*
X17254230Y17711893D01*
X17525987Y17983176D01*
X17679525Y18352936D01*
X17679875Y18753307D01*
X17526982Y19123335D01*
X17244124Y19406687D01*
X16874364Y19560225D01*
X16473993Y19560575D01*
X16103965Y19407682D01*
X15820613Y19124824D01*
X15682199Y18791487D01*
X15682375Y18992707D01*
X15529482Y19362735D01*
X15246624Y19646087D01*
X14876864Y19799625D01*
X14476493Y19799975D01*
X14106465Y19647082D01*
X13823113Y19364224D01*
X13669575Y18994464D01*
X13669225Y18594093D01*
X675000Y18594093D01*
X675000Y19650693D01*
X10243425Y19650693D01*
X10396318Y19280665D01*
X10679176Y18997313D01*
X11048936Y18843775D01*
X11449307Y18843425D01*
X11819335Y18996318D01*
X12102687Y19279176D01*
X12256225Y19648936D01*
X12256575Y20049307D01*
X12103682Y20419335D01*
X11820824Y20702687D01*
X11451064Y20856225D01*
X11050693Y20856575D01*
X10680665Y20703682D01*
X10397313Y20420824D01*
X10243775Y20051064D01*
X10243425Y19650693D01*
X675000Y19650693D01*
X675000Y22682793D01*
X11584325Y22682793D01*
X11737218Y22312765D01*
X12020076Y22029413D01*
X12389836Y21875875D01*
X12790207Y21875525D01*
X13160235Y22028418D01*
X13443587Y22311276D01*
X13597125Y22681036D01*
X13597475Y23081407D01*
X13444582Y23451435D01*
X13161724Y23734787D01*
X12791964Y23888325D01*
X12391593Y23888675D01*
X12021565Y23735782D01*
X11738213Y23452924D01*
X11584675Y23083164D01*
X11584325Y22682793D01*
X675000Y22682793D01*
X675000Y23501496D01*
X679176Y23497313D01*
X1048936Y23343775D01*
X1449307Y23343425D01*
X1819335Y23496318D01*
X2102687Y23779176D01*
X2256225Y24148936D01*
X2256575Y24549307D01*
X2103682Y24919335D01*
X1875024Y25148393D01*
X3403825Y25148393D01*
X3556718Y24778365D01*
X3839576Y24495013D01*
X4209336Y24341475D01*
X4609707Y24341125D01*
X4979735Y24494018D01*
X5180561Y24694494D01*
X5180225Y24310293D01*
X5333118Y23940265D01*
X5615976Y23656913D01*
X5985736Y23503375D01*
X6386107Y23503025D01*
X6756135Y23655918D01*
X7039487Y23938776D01*
X7193025Y24308536D01*
X7193375Y24708907D01*
X7040482Y25078935D01*
X6757624Y25362287D01*
X6387864Y25515825D01*
X5987493Y25516175D01*
X5617465Y25363282D01*
X5416639Y25162806D01*
X5416975Y25547007D01*
X5264082Y25917035D01*
X4981224Y26200387D01*
X4611464Y26353925D01*
X4211093Y26354275D01*
X3841065Y26201382D01*
X3557713Y25918524D01*
X3404175Y25548764D01*
X3403825Y25148393D01*
X1875024Y25148393D01*
X1820824Y25202687D01*
X1451064Y25356225D01*
X1050693Y25356575D01*
X680665Y25203682D01*
X675000Y25198027D01*
X675000Y29000693D01*
X8518425Y29000693D01*
X8671318Y28630665D01*
X8954176Y28347313D01*
X9323936Y28193775D01*
X9724307Y28193425D01*
X10094335Y28346318D01*
X10377687Y28629176D01*
X10459288Y28825693D01*
X13718425Y28825693D01*
X13871318Y28455665D01*
X14138019Y28188499D01*
X13948213Y27999024D01*
X13794675Y27629264D01*
X13794325Y27228893D01*
X13947218Y26858865D01*
X14230076Y26575513D01*
X14555268Y26440481D01*
X14554925Y26047793D01*
X14707818Y25677765D01*
X14822380Y25563003D01*
X14599913Y25340924D01*
X14446375Y24971164D01*
X14446025Y24570793D01*
X14598918Y24200765D01*
X14881776Y23917413D01*
X15251536Y23763875D01*
X15393655Y23763751D01*
X15393425Y23500693D01*
X15546318Y23130665D01*
X15829176Y22847313D01*
X16198936Y22693775D01*
X16599307Y22693425D01*
X16969335Y22846318D01*
X17252687Y23129176D01*
X17406225Y23498936D01*
X17406575Y23899307D01*
X17253682Y24269335D01*
X16970824Y24552687D01*
X16614387Y24700693D01*
X19043425Y24700693D01*
X19196318Y24330665D01*
X19479176Y24047313D01*
X19848936Y23893775D01*
X20249307Y23893425D01*
X20482251Y23989676D01*
X20427975Y23858964D01*
X20427625Y23458593D01*
X20580518Y23088565D01*
X20806064Y22862625D01*
X20701064Y22906225D01*
X20300693Y22906575D01*
X19930665Y22753682D01*
X19647313Y22470824D01*
X19493775Y22101064D01*
X19493425Y21700693D01*
X19646318Y21330665D01*
X19929176Y21047313D01*
X20298936Y20893775D01*
X20699307Y20893425D01*
X21069335Y21046318D01*
X21352687Y21329176D01*
X21491922Y21664493D01*
X21977325Y21664493D01*
X22130218Y21294465D01*
X22413076Y21011113D01*
X22637614Y20917876D01*
X22609613Y20889924D01*
X22456075Y20520164D01*
X22455725Y20119793D01*
X22608618Y19749765D01*
X22891476Y19466413D01*
X23261236Y19312875D01*
X23661607Y19312525D01*
X24031635Y19465418D01*
X24314987Y19748276D01*
X24468525Y20118036D01*
X24468841Y20479225D01*
X24469007Y20479225D01*
X24839035Y20632118D01*
X25122387Y20914976D01*
X25275925Y21284736D01*
X25276275Y21685107D01*
X25123382Y22055135D01*
X24840524Y22338487D01*
X24470764Y22492025D01*
X24070393Y22492375D01*
X23850625Y22401568D01*
X23837582Y22433135D01*
X23554724Y22716487D01*
X23430444Y22768093D01*
X25088225Y22768093D01*
X25241118Y22398065D01*
X25523976Y22114713D01*
X25893736Y21961175D01*
X26294107Y21960825D01*
X26664135Y22113718D01*
X26947487Y22396576D01*
X27101025Y22766336D01*
X27101351Y23139141D01*
X27163735Y23164918D01*
X27447087Y23447776D01*
X27572869Y23750693D01*
X30943425Y23750693D01*
X31096318Y23380665D01*
X31379176Y23097313D01*
X31748936Y22943775D01*
X32149307Y22943425D01*
X32519335Y23096318D01*
X32802687Y23379176D01*
X32933308Y23693745D01*
X33299307Y23693425D01*
X33669335Y23846318D01*
X33952687Y24129176D01*
X34106225Y24498936D01*
X34106248Y24525293D01*
X36554925Y24525293D01*
X36707818Y24155265D01*
X36990676Y23871913D01*
X37360436Y23718375D01*
X37760807Y23718025D01*
X38130835Y23870918D01*
X38414187Y24153776D01*
X38567725Y24523536D01*
X38567943Y24773137D01*
X39399723Y24773137D01*
X39642795Y24184857D01*
X40092489Y23734377D01*
X40680344Y23490278D01*
X41316863Y23489723D01*
X41694556Y23645782D01*
X41650417Y23539484D01*
X41649584Y22584705D01*
X42014192Y21702285D01*
X42688734Y21026565D01*
X43570516Y20660417D01*
X44525295Y20659584D01*
X45407715Y21024192D01*
X46083435Y21698734D01*
X46449583Y22580516D01*
X46450416Y23535295D01*
X46195000Y24153452D01*
X46686185Y24153452D01*
X46724363Y23594618D01*
X46864771Y23255643D01*
X47100031Y23177820D01*
X47892211Y23970000D01*
X47100031Y24762180D01*
X46864771Y24684357D01*
X46686185Y24153452D01*
X46195000Y24153452D01*
X46085808Y24417715D01*
X45524535Y24979969D01*
X47317820Y24979969D01*
X48110000Y24187789D01*
X48902180Y24979969D01*
X48824357Y25215229D01*
X48293452Y25393815D01*
X47734618Y25355637D01*
X47395643Y25215229D01*
X47317820Y24979969D01*
X45524535Y24979969D01*
X45411266Y25093435D01*
X44529484Y25459583D01*
X43574705Y25460416D01*
X42692285Y25095808D01*
X42599925Y25003609D01*
X42600277Y25406863D01*
X42357205Y25995143D01*
X41907511Y26445623D01*
X41319656Y26689722D01*
X40683137Y26690277D01*
X40094857Y26447205D01*
X39644377Y25997511D01*
X39400278Y25409656D01*
X39399723Y24773137D01*
X38567943Y24773137D01*
X38568075Y24923907D01*
X38415182Y25293935D01*
X38132324Y25577287D01*
X37762564Y25730825D01*
X37362193Y25731175D01*
X36992165Y25578282D01*
X36708813Y25295424D01*
X36555275Y24925664D01*
X36554925Y24525293D01*
X34106248Y24525293D01*
X34106575Y24899307D01*
X33953682Y25269335D01*
X33670824Y25552687D01*
X33301064Y25706225D01*
X32900693Y25706575D01*
X32530665Y25553682D01*
X32247313Y25270824D01*
X32116692Y24956255D01*
X31750693Y24956575D01*
X31380665Y24803682D01*
X31097313Y24520824D01*
X30943775Y24151064D01*
X30943425Y23750693D01*
X27572869Y23750693D01*
X27600625Y23817536D01*
X27600975Y24217907D01*
X27448082Y24587935D01*
X27165224Y24871287D01*
X26795464Y25024825D01*
X26395093Y25025175D01*
X26025065Y24872282D01*
X25741713Y24589424D01*
X25588175Y24219664D01*
X25587849Y23846859D01*
X25525465Y23821082D01*
X25242113Y23538224D01*
X25088575Y23168464D01*
X25088225Y22768093D01*
X23430444Y22768093D01*
X23184964Y22870025D01*
X22784593Y22870375D01*
X22414565Y22717482D01*
X22131213Y22434624D01*
X21977675Y22064864D01*
X21977325Y21664493D01*
X21491922Y21664493D01*
X21506225Y21698936D01*
X21506575Y22099307D01*
X21353682Y22469335D01*
X21128136Y22695275D01*
X21233136Y22651675D01*
X21633507Y22651325D01*
X22003535Y22804218D01*
X22286887Y23087076D01*
X22440425Y23456836D01*
X22440775Y23857207D01*
X22287882Y24227235D01*
X22005024Y24510587D01*
X21635264Y24664125D01*
X21234893Y24664475D01*
X21001949Y24568224D01*
X21056225Y24698936D01*
X21056575Y25099307D01*
X20903682Y25469335D01*
X20620824Y25752687D01*
X20251064Y25906225D01*
X19850693Y25906575D01*
X19480665Y25753682D01*
X19197313Y25470824D01*
X19043775Y25101064D01*
X19043425Y24700693D01*
X16614387Y24700693D01*
X16601064Y24706225D01*
X16458945Y24706349D01*
X16459175Y24969407D01*
X16306282Y25339435D01*
X16191720Y25454197D01*
X16414187Y25676276D01*
X16567725Y26046036D01*
X16568075Y26446407D01*
X16415182Y26816435D01*
X16132324Y27099787D01*
X15807132Y27234819D01*
X15807475Y27627507D01*
X15654582Y27997535D01*
X15387881Y28264701D01*
X15577687Y28454176D01*
X15731225Y28823936D01*
X15731442Y29072201D01*
X15791618Y28926565D01*
X16074476Y28643213D01*
X16444236Y28489675D01*
X16844607Y28489325D01*
X17114092Y28600674D01*
X17246318Y28280665D01*
X17529176Y27997313D01*
X17898936Y27843775D01*
X18299307Y27843425D01*
X18558914Y27950693D01*
X22293425Y27950693D01*
X22446318Y27580665D01*
X22729176Y27297313D01*
X23098936Y27143775D01*
X23326060Y27143576D01*
X23358418Y27065265D01*
X23641276Y26781913D01*
X24011036Y26628375D01*
X24304969Y26628118D01*
X24097313Y26420824D01*
X23943775Y26051064D01*
X23943425Y25650693D01*
X24096318Y25280665D01*
X24379176Y24997313D01*
X24748936Y24843775D01*
X25149307Y24843425D01*
X25519335Y24996318D01*
X25802687Y25279176D01*
X25884779Y25476875D01*
X25942407Y25476825D01*
X26160036Y25566748D01*
X26329176Y25397313D01*
X26698936Y25243775D01*
X27099307Y25243425D01*
X27469335Y25396318D01*
X27752687Y25679176D01*
X27906225Y26048936D01*
X27906575Y26449307D01*
X27753682Y26819335D01*
X27470824Y27102687D01*
X27101064Y27256225D01*
X26700693Y27256575D01*
X26483064Y27166652D01*
X26313924Y27336087D01*
X25944164Y27489625D01*
X25543793Y27489975D01*
X25179208Y27339331D01*
X25218325Y27433536D01*
X25218471Y27600693D01*
X33793425Y27600693D01*
X33946318Y27230665D01*
X34229176Y26947313D01*
X34598936Y26793775D01*
X34999307Y26793425D01*
X35369335Y26946318D01*
X35652687Y27229176D01*
X35806225Y27598936D01*
X35806575Y27999307D01*
X35653682Y28369335D01*
X35370824Y28652687D01*
X35001064Y28806225D01*
X34600693Y28806575D01*
X34230665Y28653682D01*
X33947313Y28370824D01*
X33793775Y28001064D01*
X33793425Y27600693D01*
X25218471Y27600693D01*
X25218675Y27833907D01*
X25065782Y28203935D01*
X25028010Y28241773D01*
X25154725Y28546936D01*
X25155075Y28947307D01*
X25002182Y29317335D01*
X24719324Y29600687D01*
X24349564Y29754225D01*
X23949193Y29754575D01*
X23579165Y29601682D01*
X23295813Y29318824D01*
X23228395Y29156463D01*
X23100693Y29156575D01*
X22730665Y29003682D01*
X22447313Y28720824D01*
X22293775Y28351064D01*
X22293425Y27950693D01*
X18558914Y27950693D01*
X18669335Y27996318D01*
X18952687Y28279176D01*
X19106225Y28648936D01*
X19106575Y29049307D01*
X18953682Y29419335D01*
X18840881Y29532333D01*
X18900078Y29556793D01*
X19679325Y29556793D01*
X19832218Y29186765D01*
X20115076Y28903413D01*
X20484836Y28749875D01*
X20885207Y28749525D01*
X21255235Y28902418D01*
X21538587Y29185276D01*
X21692125Y29555036D01*
X21692475Y29955407D01*
X21579597Y30228593D01*
X25236625Y30228593D01*
X25389518Y29858565D01*
X25672376Y29575213D01*
X26042136Y29421675D01*
X26442507Y29421325D01*
X26812535Y29574218D01*
X27095887Y29857076D01*
X27249425Y30226836D01*
X27249775Y30627207D01*
X27096882Y30997235D01*
X26814024Y31280587D01*
X26444264Y31434125D01*
X26043893Y31434475D01*
X25673865Y31281582D01*
X25390513Y30998724D01*
X25236975Y30628964D01*
X25236625Y30228593D01*
X21579597Y30228593D01*
X21539582Y30325435D01*
X21256724Y30608787D01*
X20886964Y30762325D01*
X20486593Y30762675D01*
X20116565Y30609782D01*
X19833213Y30326924D01*
X19679675Y29957164D01*
X19679325Y29556793D01*
X18900078Y29556793D01*
X18971535Y29586318D01*
X19254887Y29869176D01*
X19408425Y30238936D01*
X19408775Y30639307D01*
X19255882Y31009335D01*
X18973024Y31292687D01*
X18603264Y31446225D01*
X18473812Y31446338D01*
X18537425Y31599536D01*
X18537775Y31999907D01*
X18448449Y32216093D01*
X20223425Y32216093D01*
X20376318Y31846065D01*
X20659176Y31562713D01*
X21028936Y31409175D01*
X21429307Y31408825D01*
X21799335Y31561718D01*
X22082687Y31844576D01*
X22236225Y32214336D01*
X22236575Y32614707D01*
X22083682Y32984735D01*
X21875160Y33193621D01*
X22099307Y33193425D01*
X22469335Y33346318D01*
X22551553Y33428393D01*
X27814225Y33428393D01*
X27967118Y33058365D01*
X28249976Y32775013D01*
X28619736Y32621475D01*
X28876250Y32621251D01*
X28996318Y32330665D01*
X29279176Y32047313D01*
X29648936Y31893775D01*
X30049307Y31893425D01*
X30419335Y32046318D01*
X30702687Y32329176D01*
X30856225Y32698936D01*
X30856575Y33099307D01*
X30763034Y33325693D01*
X31068425Y33325693D01*
X31221318Y32955665D01*
X31504176Y32672313D01*
X31708474Y32587481D01*
X31505665Y32503682D01*
X31222313Y32220824D01*
X31068775Y31851064D01*
X31068425Y31450693D01*
X31221318Y31080665D01*
X31504176Y30797313D01*
X31873936Y30643775D01*
X32274307Y30643425D01*
X32644335Y30796318D01*
X32927687Y31079176D01*
X33081225Y31448936D01*
X33081257Y31485893D01*
X38296025Y31485893D01*
X38448918Y31115865D01*
X38731776Y30832513D01*
X39101536Y30678975D01*
X39501907Y30678625D01*
X39871935Y30831518D01*
X40155287Y31114376D01*
X40308825Y31484136D01*
X40308972Y31651996D01*
X40354176Y31606713D01*
X40723936Y31453175D01*
X41124307Y31452825D01*
X41494335Y31605718D01*
X41777687Y31888576D01*
X41931225Y32258336D01*
X41931249Y32285443D01*
X42054858Y31986285D01*
X42434288Y31606193D01*
X42930290Y31400235D01*
X43467353Y31399766D01*
X43963715Y31604858D01*
X44343807Y31984288D01*
X44549765Y32480290D01*
X44550234Y33017353D01*
X44345142Y33513715D01*
X43965712Y33893807D01*
X43469710Y34099765D01*
X42932647Y34100234D01*
X42436285Y33895142D01*
X42056193Y33515712D01*
X41850235Y33019710D01*
X41850092Y32855910D01*
X41778682Y33028735D01*
X41495824Y33312087D01*
X41126064Y33465625D01*
X40725693Y33465975D01*
X40355665Y33313082D01*
X40072313Y33030224D01*
X39918775Y32660464D01*
X39918628Y32492604D01*
X39873424Y32537887D01*
X39503664Y32691425D01*
X39103293Y32691775D01*
X38733265Y32538882D01*
X38449913Y32256024D01*
X38296375Y31886264D01*
X38296025Y31485893D01*
X33081257Y31485893D01*
X33081575Y31849307D01*
X32928682Y32219335D01*
X32747641Y32400693D01*
X33618425Y32400693D01*
X33771318Y32030665D01*
X34054176Y31747313D01*
X34423936Y31593775D01*
X34824307Y31593425D01*
X35194335Y31746318D01*
X35477687Y32029176D01*
X35631225Y32398936D01*
X35631575Y32799307D01*
X35478682Y33169335D01*
X35195824Y33452687D01*
X34826064Y33606225D01*
X34425693Y33606575D01*
X34055665Y33453682D01*
X33772313Y33170824D01*
X33618775Y32801064D01*
X33618425Y32400693D01*
X32747641Y32400693D01*
X32645824Y32502687D01*
X32441526Y32587519D01*
X32644335Y32671318D01*
X32927687Y32954176D01*
X33081225Y33323936D01*
X33081575Y33724307D01*
X32928682Y34094335D01*
X32645824Y34377687D01*
X32349594Y34500693D01*
X34793425Y34500693D01*
X34946318Y34130665D01*
X35229176Y33847313D01*
X35598936Y33693775D01*
X35999307Y33693425D01*
X36369335Y33846318D01*
X36652687Y34129176D01*
X36782607Y34442058D01*
X44149818Y34442058D01*
X44309334Y34056000D01*
X44604446Y33760372D01*
X44990226Y33600182D01*
X45407942Y33599818D01*
X45794000Y33759334D01*
X46089628Y34054446D01*
X46249818Y34440226D01*
X46250182Y34857942D01*
X46090666Y35244000D01*
X45795554Y35539628D01*
X45409774Y35699818D01*
X44992058Y35700182D01*
X44606000Y35540666D01*
X44310372Y35245554D01*
X44150182Y34859774D01*
X44149818Y34442058D01*
X36782607Y34442058D01*
X36806225Y34498936D01*
X36806575Y34899307D01*
X36653682Y35269335D01*
X36370824Y35552687D01*
X36001064Y35706225D01*
X35600693Y35706575D01*
X35230665Y35553682D01*
X34947313Y35270824D01*
X34793775Y34901064D01*
X34793425Y34500693D01*
X32349594Y34500693D01*
X32276064Y34531225D01*
X31875693Y34531575D01*
X31505665Y34378682D01*
X31222313Y34095824D01*
X31068775Y33726064D01*
X31068425Y33325693D01*
X30763034Y33325693D01*
X30703682Y33469335D01*
X30420824Y33752687D01*
X30051064Y33906225D01*
X29794550Y33906449D01*
X29674482Y34197035D01*
X29391624Y34480387D01*
X29021864Y34633925D01*
X28621493Y34634275D01*
X28251465Y34481382D01*
X27968113Y34198524D01*
X27814575Y33828764D01*
X27814225Y33428393D01*
X22551553Y33428393D01*
X22752687Y33629176D01*
X22906225Y33998936D01*
X22906575Y34399307D01*
X22753682Y34769335D01*
X22470824Y35052687D01*
X22101064Y35206225D01*
X21700693Y35206575D01*
X21330665Y35053682D01*
X21047313Y34770824D01*
X20893775Y34401064D01*
X20893425Y34000693D01*
X21046318Y33630665D01*
X21254840Y33421779D01*
X21030693Y33421975D01*
X20660665Y33269082D01*
X20377313Y32986224D01*
X20223775Y32616464D01*
X20223425Y32216093D01*
X18448449Y32216093D01*
X18384882Y32369935D01*
X18102024Y32653287D01*
X17732264Y32806825D01*
X17331893Y32807175D01*
X16961865Y32654282D01*
X16678513Y32371424D01*
X16524975Y32001664D01*
X16524625Y31601293D01*
X16677518Y31231265D01*
X16960376Y30947913D01*
X17330136Y30794375D01*
X17459588Y30794262D01*
X17395975Y30641064D01*
X17395625Y30240693D01*
X17446329Y30117980D01*
X17216124Y30348587D01*
X16846364Y30502125D01*
X16445993Y30502475D01*
X16075965Y30349582D01*
X15792613Y30066724D01*
X15639075Y29696964D01*
X15638858Y29448699D01*
X15578682Y29594335D01*
X15295824Y29877687D01*
X14926064Y30031225D01*
X14525693Y30031575D01*
X14155665Y29878682D01*
X13872313Y29595824D01*
X13718775Y29226064D01*
X13718425Y28825693D01*
X10459288Y28825693D01*
X10531225Y28998936D01*
X10531575Y29399307D01*
X10378682Y29769335D01*
X10095824Y30052687D01*
X9726064Y30206225D01*
X9325693Y30206575D01*
X8955665Y30053682D01*
X8672313Y29770824D01*
X8518775Y29401064D01*
X8518425Y29000693D01*
X675000Y29000693D01*
X675000Y30400693D01*
X2093425Y30400693D01*
X2246318Y30030665D01*
X2529176Y29747313D01*
X2898936Y29593775D01*
X3299307Y29593425D01*
X3669335Y29746318D01*
X3952687Y30029176D01*
X4106225Y30398936D01*
X4106575Y30799307D01*
X3953682Y31169335D01*
X3670824Y31452687D01*
X3301064Y31606225D01*
X2900693Y31606575D01*
X2530665Y31453682D01*
X2247313Y31170824D01*
X2093775Y30801064D01*
X2093425Y30400693D01*
X675000Y30400693D01*
X675000Y31589288D01*
X1130290Y31400235D01*
X1667353Y31399766D01*
X2163715Y31604858D01*
X2543807Y31984288D01*
X2749765Y32480290D01*
X2749767Y32482647D01*
X5349766Y32482647D01*
X5554858Y31986285D01*
X5934288Y31606193D01*
X6430290Y31400235D01*
X6967353Y31399766D01*
X7463715Y31604858D01*
X7843807Y31984288D01*
X8049765Y32480290D01*
X8050234Y33017353D01*
X8013899Y33105293D01*
X9164125Y33105293D01*
X9317018Y32735265D01*
X9599876Y32451913D01*
X9865911Y32341445D01*
X9865625Y32014393D01*
X10018518Y31644365D01*
X10301376Y31361013D01*
X10671136Y31207475D01*
X11071507Y31207125D01*
X11441535Y31360018D01*
X11724887Y31642876D01*
X11878425Y32012636D01*
X11878488Y32084416D01*
X12211507Y32084125D01*
X12581535Y32237018D01*
X12864887Y32519876D01*
X13018425Y32889636D01*
X13018775Y33290007D01*
X12984899Y33371993D01*
X13363125Y33371993D01*
X13516018Y33001965D01*
X13798876Y32718613D01*
X14168636Y32565075D01*
X14569007Y32564725D01*
X14939035Y32717618D01*
X15222387Y33000476D01*
X15375925Y33370236D01*
X15376275Y33770607D01*
X15232306Y34119038D01*
X15263776Y34087513D01*
X15633536Y33933975D01*
X16033907Y33933625D01*
X16403935Y34086518D01*
X16687287Y34369376D01*
X16840825Y34739136D01*
X16841175Y35139507D01*
X16688282Y35509535D01*
X16679140Y35518693D01*
X24093225Y35518693D01*
X24246118Y35148665D01*
X24528976Y34865313D01*
X24898736Y34711775D01*
X25299107Y34711425D01*
X25669135Y34864318D01*
X25952487Y35147176D01*
X26106025Y35516936D01*
X26106375Y35917307D01*
X25953482Y36287335D01*
X25769945Y36471193D01*
X34010225Y36471193D01*
X34163118Y36101165D01*
X34445976Y35817813D01*
X34815736Y35664275D01*
X35216107Y35663925D01*
X35586135Y35816818D01*
X35869487Y36099676D01*
X36023025Y36469436D01*
X36023375Y36869807D01*
X35870482Y37239835D01*
X35587624Y37523187D01*
X35217864Y37676725D01*
X34817493Y37677075D01*
X34447465Y37524182D01*
X34164113Y37241324D01*
X34010575Y36871564D01*
X34010225Y36471193D01*
X25769945Y36471193D01*
X25670624Y36570687D01*
X25300864Y36724225D01*
X24900493Y36724575D01*
X24530465Y36571682D01*
X24247113Y36288824D01*
X24093575Y35919064D01*
X24093225Y35518693D01*
X16679140Y35518693D01*
X16405424Y35792887D01*
X16035664Y35946425D01*
X15635293Y35946775D01*
X15265265Y35793882D01*
X14981913Y35511024D01*
X14828375Y35141264D01*
X14828025Y34740893D01*
X14971994Y34392462D01*
X14940524Y34423987D01*
X14570764Y34577525D01*
X14170393Y34577875D01*
X13800365Y34424982D01*
X13517013Y34142124D01*
X13363475Y33772364D01*
X13363125Y33371993D01*
X12984899Y33371993D01*
X12865882Y33660035D01*
X12583024Y33943387D01*
X12213264Y34096925D01*
X11812893Y34097275D01*
X11442865Y33944382D01*
X11159513Y33661524D01*
X11135772Y33604350D01*
X11024382Y33873935D01*
X10741524Y34157287D01*
X10371764Y34310825D01*
X9971393Y34311175D01*
X9601365Y34158282D01*
X9318013Y33875424D01*
X9164475Y33505664D01*
X9164125Y33105293D01*
X8013899Y33105293D01*
X7845142Y33513715D01*
X7465712Y33893807D01*
X6969710Y34099765D01*
X6432647Y34100234D01*
X5936285Y33895142D01*
X5556193Y33515712D01*
X5350235Y33019710D01*
X5349766Y32482647D01*
X2749767Y32482647D01*
X2750234Y33017353D01*
X2545142Y33513715D01*
X2165712Y33893807D01*
X1669710Y34099765D01*
X1132647Y34100234D01*
X675000Y33911139D01*
X675000Y34442058D01*
X3649818Y34442058D01*
X3809334Y34056000D01*
X4104446Y33760372D01*
X4490226Y33600182D01*
X4907942Y33599818D01*
X5294000Y33759334D01*
X5589628Y34054446D01*
X5749818Y34440226D01*
X5750182Y34857942D01*
X5590666Y35244000D01*
X5295554Y35539628D01*
X4909774Y35699818D01*
X4492058Y35700182D01*
X4106000Y35540666D01*
X3810372Y35245554D01*
X3650182Y34859774D01*
X3649818Y34442058D01*
X675000Y34442058D01*
X675000Y36600693D01*
X13118425Y36600693D01*
X13271318Y36230665D01*
X13554176Y35947313D01*
X13923936Y35793775D01*
X14324307Y35793425D01*
X14694335Y35946318D01*
X14977687Y36229176D01*
X15131225Y36598936D01*
X15131575Y36999307D01*
X14978682Y37369335D01*
X14722771Y37625693D01*
X23468425Y37625693D01*
X23621318Y37255665D01*
X23904176Y36972313D01*
X24273936Y36818775D01*
X24674307Y36818425D01*
X25044335Y36971318D01*
X25327687Y37254176D01*
X25481225Y37623936D01*
X25481503Y37942058D01*
X44149818Y37942058D01*
X44309334Y37556000D01*
X44604446Y37260372D01*
X44990226Y37100182D01*
X45407942Y37099818D01*
X45794000Y37259334D01*
X46089628Y37554446D01*
X46249818Y37940226D01*
X46250182Y38357942D01*
X46090666Y38744000D01*
X45795554Y39039628D01*
X45409774Y39199818D01*
X44992058Y39200182D01*
X44606000Y39040666D01*
X44310372Y38745554D01*
X44150182Y38359774D01*
X44149818Y37942058D01*
X25481503Y37942058D01*
X25481575Y38024307D01*
X25328682Y38394335D01*
X25045824Y38677687D01*
X24676064Y38831225D01*
X24275693Y38831575D01*
X23905665Y38678682D01*
X23622313Y38395824D01*
X23468775Y38026064D01*
X23468425Y37625693D01*
X14722771Y37625693D01*
X14695824Y37652687D01*
X14326064Y37806225D01*
X13925693Y37806575D01*
X13555665Y37653682D01*
X13272313Y37370824D01*
X13118775Y37001064D01*
X13118425Y36600693D01*
X675000Y36600693D01*
X675000Y37942058D01*
X3649818Y37942058D01*
X3809334Y37556000D01*
X4104446Y37260372D01*
X4490226Y37100182D01*
X4907942Y37099818D01*
X5294000Y37259334D01*
X5589628Y37554446D01*
X5749818Y37940226D01*
X5750182Y38357942D01*
X5656946Y38583593D01*
X12006425Y38583593D01*
X12159318Y38213565D01*
X12442176Y37930213D01*
X12811936Y37776675D01*
X13212307Y37776325D01*
X13582335Y37929218D01*
X13865687Y38212076D01*
X14019225Y38581836D01*
X14019575Y38982207D01*
X13866682Y39352235D01*
X13583824Y39635587D01*
X13214064Y39789125D01*
X12813693Y39789475D01*
X12443665Y39636582D01*
X12160313Y39353724D01*
X12006775Y38983964D01*
X12006425Y38583593D01*
X5656946Y38583593D01*
X5604374Y38710825D01*
X5723925Y38998736D01*
X5724028Y39116820D01*
X5934288Y38906193D01*
X6430290Y38700235D01*
X6967353Y38699766D01*
X7463715Y38904858D01*
X7843807Y39284288D01*
X8049765Y39780290D01*
X8049817Y39840031D01*
X15287820Y39840031D01*
X15365643Y39604771D01*
X15896548Y39426185D01*
X16455382Y39464363D01*
X16794357Y39604771D01*
X16872180Y39840031D01*
X16080000Y40632211D01*
X15287820Y39840031D01*
X8049817Y39840031D01*
X8050234Y40317353D01*
X7845142Y40813715D01*
X7625788Y41033452D01*
X14656185Y41033452D01*
X14694363Y40474618D01*
X14834771Y40135643D01*
X15070031Y40057820D01*
X15862211Y40850000D01*
X16297789Y40850000D01*
X17089969Y40057820D01*
X17325229Y40135643D01*
X17358947Y40235880D01*
X17432445Y40058000D01*
X17825928Y39663830D01*
X18340301Y39450243D01*
X18897256Y39449757D01*
X19412000Y39662445D01*
X19806170Y40055928D01*
X19889942Y40257673D01*
X19972445Y40058000D01*
X20365928Y39663830D01*
X20880301Y39450243D01*
X21437256Y39449757D01*
X21639549Y39533343D01*
X21639225Y39162593D01*
X21792118Y38792565D01*
X22074976Y38509213D01*
X22444736Y38355675D01*
X22845107Y38355325D01*
X23215135Y38508218D01*
X23498487Y38791076D01*
X23652025Y39160836D01*
X23652278Y39450041D01*
X23977256Y39449757D01*
X24492000Y39662445D01*
X24612411Y39782647D01*
X41849766Y39782647D01*
X42054858Y39286285D01*
X42434288Y38906193D01*
X42930290Y38700235D01*
X43467353Y38699766D01*
X43963715Y38904858D01*
X44343807Y39284288D01*
X44549765Y39780290D01*
X44550234Y40317353D01*
X44345142Y40813715D01*
X43965712Y41193807D01*
X43469710Y41399765D01*
X42932647Y41400234D01*
X42436285Y41195142D01*
X42056193Y40815712D01*
X41850235Y40319710D01*
X41849766Y39782647D01*
X24612411Y39782647D01*
X24886170Y40055928D01*
X25099757Y40570301D01*
X25100243Y41127256D01*
X24887555Y41642000D01*
X24494072Y42036170D01*
X23979699Y42249757D01*
X23422744Y42250243D01*
X22908000Y42037555D01*
X22513830Y41644072D01*
X22430058Y41442327D01*
X22347555Y41642000D01*
X21954072Y42036170D01*
X21439699Y42249757D01*
X20882744Y42250243D01*
X20368000Y42037555D01*
X19973830Y41644072D01*
X19890058Y41442327D01*
X19807555Y41642000D01*
X19414072Y42036170D01*
X18899699Y42249757D01*
X18342744Y42250243D01*
X17828000Y42037555D01*
X17433830Y41644072D01*
X17362933Y41473333D01*
X17325229Y41564357D01*
X17089969Y41642180D01*
X16297789Y40850000D01*
X15862211Y40850000D01*
X15070031Y41642180D01*
X14834771Y41564357D01*
X14656185Y41033452D01*
X7625788Y41033452D01*
X7465712Y41193807D01*
X6969710Y41399765D01*
X6432647Y41400234D01*
X5936285Y41195142D01*
X5556193Y40815712D01*
X5350235Y40319710D01*
X5349948Y39990956D01*
X5288524Y40052487D01*
X4918764Y40206025D01*
X4518393Y40206375D01*
X4148365Y40053482D01*
X3865013Y39770624D01*
X3711475Y39400864D01*
X3711125Y39000493D01*
X3814685Y38749859D01*
X3810372Y38745554D01*
X3650182Y38359774D01*
X3649818Y37942058D01*
X675000Y37942058D01*
X675000Y38889288D01*
X1130290Y38700235D01*
X1667353Y38699766D01*
X2163715Y38904858D01*
X2543807Y39284288D01*
X2749765Y39780290D01*
X2750234Y40317353D01*
X2545142Y40813715D01*
X2165712Y41193807D01*
X1669710Y41399765D01*
X1132647Y41400234D01*
X675000Y41211139D01*
X675000Y41859969D01*
X15287820Y41859969D01*
X16080000Y41067789D01*
X16872180Y41859969D01*
X16794357Y42095229D01*
X16263452Y42273815D01*
X15704618Y42235637D01*
X15365643Y42095229D01*
X15287820Y41859969D01*
X675000Y41859969D01*
X675000Y45662000D01*
X3326246Y45662000D01*
X3326246Y44138000D01*
X3368083Y43915654D01*
X3499490Y43711442D01*
X3699993Y43574444D01*
X3938000Y43526246D01*
X5462000Y43526246D01*
X5684346Y43568083D01*
X5888558Y43699490D01*
X6025556Y43899993D01*
X6073754Y44138000D01*
X6073754Y44155938D01*
X6084679Y44129497D01*
X6467482Y43746026D01*
X6967893Y43538237D01*
X7509730Y43537764D01*
X8010503Y43744679D01*
X8393974Y44127482D01*
X8510029Y44406972D01*
X8624679Y44129497D01*
X9007482Y43746026D01*
X9507893Y43538237D01*
X10049730Y43537764D01*
X10550503Y43744679D01*
X10933974Y44127482D01*
X11050029Y44406972D01*
X11164679Y44129497D01*
X11547482Y43746026D01*
X12047893Y43538237D01*
X12589730Y43537764D01*
X13090503Y43744679D01*
X13473974Y44127482D01*
X13590029Y44406972D01*
X13704679Y44129497D01*
X14087482Y43746026D01*
X14587893Y43538237D01*
X15129730Y43537764D01*
X15630503Y43744679D01*
X16013974Y44127482D01*
X16130029Y44406972D01*
X16244679Y44129497D01*
X16627482Y43746026D01*
X17127893Y43538237D01*
X17669730Y43537764D01*
X18170503Y43744679D01*
X18553974Y44127482D01*
X18670029Y44406972D01*
X18784679Y44129497D01*
X19167482Y43746026D01*
X19667893Y43538237D01*
X20209730Y43537764D01*
X20710503Y43744679D01*
X21093974Y44127482D01*
X21210029Y44406972D01*
X21324679Y44129497D01*
X21707482Y43746026D01*
X22207893Y43538237D01*
X22749730Y43537764D01*
X23250503Y43744679D01*
X23633974Y44127482D01*
X23750029Y44406972D01*
X23864679Y44129497D01*
X24247482Y43746026D01*
X24747893Y43538237D01*
X25289730Y43537764D01*
X25790503Y43744679D01*
X26173974Y44127482D01*
X26290029Y44406972D01*
X26404679Y44129497D01*
X26787482Y43746026D01*
X27287893Y43538237D01*
X27829730Y43537764D01*
X27884580Y43560427D01*
X27884425Y43383393D01*
X28037318Y43013365D01*
X28320176Y42730013D01*
X28689936Y42576475D01*
X29090307Y42576125D01*
X29460335Y42729018D01*
X29743687Y43011876D01*
X29897225Y43381636D01*
X29897362Y43538176D01*
X30369730Y43537764D01*
X30870503Y43744679D01*
X31253974Y44127482D01*
X31370029Y44406972D01*
X31484679Y44129497D01*
X31867482Y43746026D01*
X32367893Y43538237D01*
X32909730Y43537764D01*
X33410503Y43744679D01*
X33793974Y44127482D01*
X33910029Y44406972D01*
X34024679Y44129497D01*
X34407482Y43746026D01*
X34749964Y43603815D01*
X34689775Y43458864D01*
X34689425Y43058493D01*
X34842318Y42688465D01*
X35125176Y42405113D01*
X35131361Y42402545D01*
X34933965Y42320982D01*
X34650613Y42038124D01*
X34497075Y41668364D01*
X34496725Y41267993D01*
X34649618Y40897965D01*
X34932476Y40614613D01*
X35302236Y40461075D01*
X35702607Y40460725D01*
X36072635Y40613618D01*
X36355987Y40896476D01*
X36509525Y41266236D01*
X36509875Y41666607D01*
X36356982Y42036635D01*
X36074124Y42319987D01*
X36067939Y42322555D01*
X36265335Y42404118D01*
X36548687Y42686976D01*
X36702225Y43056736D01*
X36702575Y43457107D01*
X36549682Y43827135D01*
X36291843Y44085424D01*
X36333974Y44127482D01*
X36450029Y44406972D01*
X36564679Y44129497D01*
X36947482Y43746026D01*
X37447893Y43538237D01*
X37989730Y43537764D01*
X38490503Y43744679D01*
X38873974Y44127482D01*
X38990029Y44406972D01*
X39104679Y44129497D01*
X39487482Y43746026D01*
X39987893Y43538237D01*
X40529730Y43537764D01*
X41030503Y43744679D01*
X41413974Y44127482D01*
X41530029Y44406972D01*
X41644679Y44129497D01*
X42027482Y43746026D01*
X42527893Y43538237D01*
X43069730Y43537764D01*
X43570503Y43744679D01*
X43953974Y44127482D01*
X44070029Y44406972D01*
X44184679Y44129497D01*
X44567482Y43746026D01*
X45067893Y43538237D01*
X45609730Y43537764D01*
X46110503Y43744679D01*
X46493974Y44127482D01*
X46701763Y44627893D01*
X46702236Y45169730D01*
X46495321Y45670503D01*
X46112518Y46053974D01*
X45833028Y46170029D01*
X46110503Y46284679D01*
X46493974Y46667482D01*
X46701763Y47167893D01*
X46702236Y47709730D01*
X46495321Y48210503D01*
X46112518Y48593974D01*
X45612107Y48801763D01*
X45070270Y48802236D01*
X44569497Y48595321D01*
X44186026Y48212518D01*
X44069971Y47933028D01*
X43955321Y48210503D01*
X43572518Y48593974D01*
X43072107Y48801763D01*
X42530270Y48802236D01*
X42029497Y48595321D01*
X41646026Y48212518D01*
X41529971Y47933028D01*
X41415321Y48210503D01*
X41032518Y48593974D01*
X40532107Y48801763D01*
X39990270Y48802236D01*
X39489497Y48595321D01*
X39106026Y48212518D01*
X38989971Y47933028D01*
X38875321Y48210503D01*
X38492518Y48593974D01*
X37992107Y48801763D01*
X37450270Y48802236D01*
X36949497Y48595321D01*
X36566026Y48212518D01*
X36449971Y47933028D01*
X36335321Y48210503D01*
X35952518Y48593974D01*
X35452107Y48801763D01*
X34910270Y48802236D01*
X34409497Y48595321D01*
X34026026Y48212518D01*
X33909971Y47933028D01*
X33795321Y48210503D01*
X33412518Y48593974D01*
X32912107Y48801763D01*
X32370270Y48802236D01*
X31869497Y48595321D01*
X31486026Y48212518D01*
X31369971Y47933028D01*
X31255321Y48210503D01*
X30872518Y48593974D01*
X30372107Y48801763D01*
X29830270Y48802236D01*
X29329497Y48595321D01*
X28946026Y48212518D01*
X28829971Y47933028D01*
X28715321Y48210503D01*
X28332518Y48593974D01*
X27832107Y48801763D01*
X27290270Y48802236D01*
X26789497Y48595321D01*
X26406026Y48212518D01*
X26289971Y47933028D01*
X26175321Y48210503D01*
X25792518Y48593974D01*
X25292107Y48801763D01*
X24750270Y48802236D01*
X24249497Y48595321D01*
X23866026Y48212518D01*
X23749971Y47933028D01*
X23635321Y48210503D01*
X23252518Y48593974D01*
X22752107Y48801763D01*
X22210270Y48802236D01*
X21709497Y48595321D01*
X21326026Y48212518D01*
X21209971Y47933028D01*
X21095321Y48210503D01*
X20712518Y48593974D01*
X20212107Y48801763D01*
X19670270Y48802236D01*
X19169497Y48595321D01*
X18786026Y48212518D01*
X18669971Y47933028D01*
X18555321Y48210503D01*
X18172518Y48593974D01*
X17672107Y48801763D01*
X17130270Y48802236D01*
X16629497Y48595321D01*
X16246026Y48212518D01*
X16129971Y47933028D01*
X16015321Y48210503D01*
X15632518Y48593974D01*
X15132107Y48801763D01*
X14590270Y48802236D01*
X14089497Y48595321D01*
X13706026Y48212518D01*
X13589971Y47933028D01*
X13475321Y48210503D01*
X13092518Y48593974D01*
X12592107Y48801763D01*
X12050270Y48802236D01*
X11549497Y48595321D01*
X11166026Y48212518D01*
X11049971Y47933028D01*
X10935321Y48210503D01*
X10552518Y48593974D01*
X10052107Y48801763D01*
X9510270Y48802236D01*
X9009497Y48595321D01*
X8626026Y48212518D01*
X8509971Y47933028D01*
X8395321Y48210503D01*
X8012518Y48593974D01*
X7512107Y48801763D01*
X6970270Y48802236D01*
X6469497Y48595321D01*
X6086026Y48212518D01*
X5969971Y47933028D01*
X5855321Y48210503D01*
X5472518Y48593974D01*
X4972107Y48801763D01*
X4430270Y48802236D01*
X3929497Y48595321D01*
X3546026Y48212518D01*
X3338237Y47712107D01*
X3337764Y47170270D01*
X3544679Y46669497D01*
X3927482Y46286026D01*
X3957036Y46273754D01*
X3938000Y46273754D01*
X3715654Y46231917D01*
X3511442Y46100510D01*
X3374444Y45900007D01*
X3326246Y45662000D01*
X675000Y45662000D01*
X675000Y49325000D01*
X49325000Y49325000D01*
X49325000Y41134416D01*
X49325000Y41134416D01*
G37*
X49325000Y41134416D02*
X49265712Y41193807D01*
X48769710Y41399765D01*
X48232647Y41400234D01*
X47736285Y41195142D01*
X47356193Y40815712D01*
X47150235Y40319710D01*
X47149766Y39782647D01*
X47354858Y39286285D01*
X47734288Y38906193D01*
X48230290Y38700235D01*
X48767353Y38699766D01*
X49263715Y38904858D01*
X49325000Y38966036D01*
X49325000Y33834416D01*
X49265712Y33893807D01*
X48769710Y34099765D01*
X48232647Y34100234D01*
X47736285Y33895142D01*
X47356193Y33515712D01*
X47150235Y33019710D01*
X47149766Y32482647D01*
X47354858Y31986285D01*
X47734288Y31606193D01*
X48230290Y31400235D01*
X48767353Y31399766D01*
X49263715Y31604858D01*
X49325000Y31666036D01*
X49325000Y29998674D01*
X49295321Y30070503D01*
X48912518Y30453974D01*
X48412107Y30661763D01*
X47870270Y30662236D01*
X47369497Y30455321D01*
X46986026Y30072518D01*
X46973754Y30042964D01*
X46973754Y30062000D01*
X46931917Y30284346D01*
X46800510Y30488558D01*
X46600007Y30625556D01*
X46362000Y30673754D01*
X44838000Y30673754D01*
X44615654Y30631917D01*
X44411442Y30500510D01*
X44274444Y30300007D01*
X44226246Y30062000D01*
X44226246Y28538000D01*
X44268083Y28315654D01*
X44399490Y28111442D01*
X44599993Y27974444D01*
X44838000Y27926246D01*
X46362000Y27926246D01*
X46584346Y27968083D01*
X46788558Y28099490D01*
X46925556Y28299993D01*
X46973754Y28538000D01*
X46973754Y28555938D01*
X46984679Y28529497D01*
X47367482Y28146026D01*
X47867893Y27938237D01*
X48409730Y27937764D01*
X48910503Y28144679D01*
X49293974Y28527482D01*
X49325000Y28602201D01*
X49325000Y24694357D01*
X49119969Y24762180D01*
X48327789Y23970000D01*
X49119969Y23177820D01*
X49325000Y23245643D01*
X49325000Y22155578D01*
X49297555Y22222000D01*
X48904072Y22616170D01*
X48733333Y22687067D01*
X48824357Y22724771D01*
X48902180Y22960031D01*
X48110000Y23752211D01*
X47317820Y22960031D01*
X47395643Y22724771D01*
X47495880Y22691053D01*
X47318000Y22617555D01*
X46923830Y22224072D01*
X46710243Y21709699D01*
X46709757Y21152744D01*
X46922445Y20638000D01*
X47315928Y20243830D01*
X47830301Y20030243D01*
X48387256Y20029757D01*
X48902000Y20242445D01*
X49296170Y20635928D01*
X49325000Y20705358D01*
X49325000Y13984357D01*
X49119969Y14052180D01*
X48327789Y13260000D01*
X49119969Y12467820D01*
X49325000Y12535643D01*
X49325000Y11445578D01*
X49297555Y11512000D01*
X48904072Y11906170D01*
X48733333Y11977067D01*
X48824357Y12014771D01*
X48902180Y12250031D01*
X48110000Y13042211D01*
X47317820Y12250031D01*
X47395643Y12014771D01*
X47495880Y11981053D01*
X47318000Y11907555D01*
X46923830Y11514072D01*
X46710243Y10999699D01*
X46709757Y10442744D01*
X46922445Y9928000D01*
X47315928Y9533830D01*
X47830301Y9320243D01*
X48387256Y9319757D01*
X48902000Y9532445D01*
X49296170Y9925928D01*
X49325000Y9995358D01*
X49325000Y675000D01*
X32617302Y675000D01*
X32617575Y987207D01*
X32555238Y1138073D01*
X32909730Y1137764D01*
X33410503Y1344679D01*
X33793974Y1727482D01*
X33910029Y2006972D01*
X34024679Y1729497D01*
X34407482Y1346026D01*
X34907893Y1138237D01*
X35449730Y1137764D01*
X35950503Y1344679D01*
X36333974Y1727482D01*
X36450029Y2006972D01*
X36564679Y1729497D01*
X36947482Y1346026D01*
X37447893Y1138237D01*
X37989730Y1137764D01*
X38490503Y1344679D01*
X38873974Y1727482D01*
X38990029Y2006972D01*
X39104679Y1729497D01*
X39487482Y1346026D01*
X39987893Y1138237D01*
X40529730Y1137764D01*
X41030503Y1344679D01*
X41413974Y1727482D01*
X41530029Y2006972D01*
X41644679Y1729497D01*
X42027482Y1346026D01*
X42527893Y1138237D01*
X43069730Y1137764D01*
X43570503Y1344679D01*
X43953974Y1727482D01*
X44070029Y2006972D01*
X44184679Y1729497D01*
X44567482Y1346026D01*
X45067893Y1138237D01*
X45609730Y1137764D01*
X46110503Y1344679D01*
X46493974Y1727482D01*
X46701763Y2227893D01*
X46702236Y2769730D01*
X46495321Y3270503D01*
X46112518Y3653974D01*
X45833028Y3770029D01*
X46110503Y3884679D01*
X46493974Y4267482D01*
X46701763Y4767893D01*
X46702236Y5309730D01*
X46495321Y5810503D01*
X46112518Y6193974D01*
X45612107Y6401763D01*
X45070270Y6402236D01*
X44569497Y6195321D01*
X44186026Y5812518D01*
X44069971Y5533028D01*
X43955321Y5810503D01*
X43572518Y6193974D01*
X43072107Y6401763D01*
X42530270Y6402236D01*
X42029497Y6195321D01*
X41646026Y5812518D01*
X41529971Y5533028D01*
X41415321Y5810503D01*
X41032518Y6193974D01*
X40532107Y6401763D01*
X39990270Y6402236D01*
X39489497Y6195321D01*
X39106026Y5812518D01*
X38989971Y5533028D01*
X38875321Y5810503D01*
X38492518Y6193974D01*
X37992107Y6401763D01*
X37450270Y6402236D01*
X36949497Y6195321D01*
X36566026Y5812518D01*
X36449971Y5533028D01*
X36335321Y5810503D01*
X35952518Y6193974D01*
X35452107Y6401763D01*
X34910270Y6402236D01*
X34409497Y6195321D01*
X34026026Y5812518D01*
X33909971Y5533028D01*
X33795321Y5810503D01*
X33412518Y6193974D01*
X32912107Y6401763D01*
X32370270Y6402236D01*
X31869497Y6195321D01*
X31486026Y5812518D01*
X31369971Y5533028D01*
X31255321Y5810503D01*
X31000085Y6066184D01*
X31235487Y6301176D01*
X31389025Y6670936D01*
X31389375Y7071307D01*
X31283434Y7327704D01*
X31373707Y7327625D01*
X31743735Y7480518D01*
X32027087Y7763376D01*
X32180625Y8133136D01*
X32180779Y8309693D01*
X32879625Y8309693D01*
X33032518Y7939665D01*
X33315376Y7656313D01*
X33685136Y7502775D01*
X34085507Y7502425D01*
X34455535Y7655318D01*
X34738887Y7938176D01*
X34892425Y8307936D01*
X34892775Y8708307D01*
X34742225Y9072664D01*
X34963036Y8980975D01*
X35363407Y8980625D01*
X35733435Y9133518D01*
X35883315Y9283137D01*
X39399723Y9283137D01*
X39642795Y8694857D01*
X40092489Y8244377D01*
X40680344Y8000278D01*
X41316863Y7999723D01*
X41905143Y8242795D01*
X42355623Y8692489D01*
X42599722Y9280344D01*
X42600075Y9685379D01*
X42688734Y9596565D01*
X43570516Y9230417D01*
X44525295Y9229584D01*
X45407715Y9594192D01*
X46083435Y10268734D01*
X46449583Y11150516D01*
X46450416Y12105295D01*
X46085808Y12987715D01*
X45630866Y13443452D01*
X46686185Y13443452D01*
X46724363Y12884618D01*
X46864771Y12545643D01*
X47100031Y12467820D01*
X47892211Y13260000D01*
X47100031Y14052180D01*
X46864771Y13974357D01*
X46686185Y13443452D01*
X45630866Y13443452D01*
X45411266Y13663435D01*
X44529484Y14029583D01*
X43574705Y14030416D01*
X42692285Y13665808D01*
X42016565Y12991266D01*
X41650417Y12109484D01*
X41649584Y11154705D01*
X41695461Y11043674D01*
X41319656Y11199722D01*
X40683137Y11200277D01*
X40094857Y10957205D01*
X39644377Y10507511D01*
X39400278Y9919656D01*
X39399723Y9283137D01*
X35883315Y9283137D01*
X36016787Y9416376D01*
X36170325Y9786136D01*
X36170566Y10062269D01*
X36279835Y10107418D01*
X36563187Y10390276D01*
X36716725Y10760036D01*
X36717075Y11160407D01*
X36564182Y11530435D01*
X36281324Y11813787D01*
X35911564Y11967325D01*
X35511193Y11967675D01*
X35141165Y11814782D01*
X34857813Y11531924D01*
X34704275Y11162164D01*
X34704034Y10886031D01*
X34594765Y10840882D01*
X34311413Y10558024D01*
X34157875Y10188264D01*
X34157525Y9787893D01*
X34308075Y9423536D01*
X34087264Y9515225D01*
X33686893Y9515575D01*
X33316865Y9362682D01*
X33033513Y9079824D01*
X32879975Y8710064D01*
X32879625Y8309693D01*
X32180779Y8309693D01*
X32180975Y8533507D01*
X32028082Y8903535D01*
X31745224Y9186887D01*
X31375464Y9340425D01*
X30975093Y9340775D01*
X30605065Y9187882D01*
X30321713Y8905024D01*
X30168175Y8535264D01*
X30167825Y8134893D01*
X30273766Y7878496D01*
X30183493Y7878575D01*
X29813465Y7725682D01*
X29530113Y7442824D01*
X29376575Y7073064D01*
X29376225Y6672693D01*
X29529118Y6302665D01*
X29546689Y6285063D01*
X29329497Y6195321D01*
X28946026Y5812518D01*
X28829971Y5533028D01*
X28715321Y5810503D01*
X28332518Y6193974D01*
X28317981Y6200010D01*
X28458425Y6538236D01*
X28458775Y6938607D01*
X28333543Y7241690D01*
X28448936Y7193775D01*
X28849307Y7193425D01*
X29219335Y7346318D01*
X29502687Y7629176D01*
X29656225Y7998936D01*
X29656575Y8399307D01*
X29503682Y8769335D01*
X29220824Y9052687D01*
X28851064Y9206225D01*
X28556406Y9206483D01*
X28556575Y9399307D01*
X28403682Y9769335D01*
X28120824Y10052687D01*
X27751064Y10206225D01*
X27350693Y10206575D01*
X26980665Y10053682D01*
X26697313Y9770824D01*
X26543823Y9401179D01*
X26453682Y9619335D01*
X26170824Y9902687D01*
X25801064Y10056225D01*
X25400693Y10056575D01*
X25030665Y9903682D01*
X24747313Y9620824D01*
X24593775Y9251064D01*
X24593561Y9006363D01*
X24350693Y9006575D01*
X23980665Y8853682D01*
X23697313Y8570824D01*
X23543775Y8201064D01*
X23543425Y7800693D01*
X23696318Y7430665D01*
X23979176Y7147313D01*
X24348936Y6993775D01*
X24749307Y6993425D01*
X24927477Y7067044D01*
X24874875Y6940364D01*
X24874525Y6539993D01*
X24931511Y6402078D01*
X24750270Y6402236D01*
X24249497Y6195321D01*
X23866026Y5812518D01*
X23749971Y5533028D01*
X23635321Y5810503D01*
X23252518Y6193974D01*
X22752107Y6401763D01*
X22210270Y6402236D01*
X21709497Y6195321D01*
X21326026Y5812518D01*
X21209971Y5533028D01*
X21095321Y5810503D01*
X20712518Y6193974D01*
X20212107Y6401763D01*
X19670270Y6402236D01*
X19169497Y6195321D01*
X18786026Y5812518D01*
X18669971Y5533028D01*
X18555321Y5810503D01*
X18172518Y6193974D01*
X17672107Y6401763D01*
X17130270Y6402236D01*
X16629497Y6195321D01*
X16246026Y5812518D01*
X16129971Y5533028D01*
X16015321Y5810503D01*
X15632518Y6193974D01*
X15132107Y6401763D01*
X14590270Y6402236D01*
X14089497Y6195321D01*
X13706026Y5812518D01*
X13589971Y5533028D01*
X13475321Y5810503D01*
X13092518Y6193974D01*
X12592107Y6401763D01*
X12050270Y6402236D01*
X11549497Y6195321D01*
X11516613Y6162495D01*
X11588425Y6335436D01*
X11588775Y6735807D01*
X11528794Y6880973D01*
X11601036Y6850975D01*
X12001407Y6850625D01*
X12371435Y7003518D01*
X12654787Y7286376D01*
X12734062Y7477293D01*
X18193425Y7477293D01*
X18346318Y7107265D01*
X18629176Y6823913D01*
X18998936Y6670375D01*
X19399307Y6670025D01*
X19769335Y6822918D01*
X20052687Y7105776D01*
X20206225Y7475536D01*
X20206575Y7875907D01*
X20066509Y8214893D01*
X20980925Y8214893D01*
X21133818Y7844865D01*
X21186070Y7792522D01*
X21112175Y7614564D01*
X21111825Y7214193D01*
X21264718Y6844165D01*
X21547576Y6560813D01*
X21917336Y6407275D01*
X22317707Y6406925D01*
X22687735Y6559818D01*
X22971087Y6842676D01*
X23124625Y7212436D01*
X23124975Y7612807D01*
X22972082Y7982835D01*
X22919830Y8035178D01*
X22993725Y8213136D01*
X22994075Y8613507D01*
X22841182Y8983535D01*
X22558324Y9266887D01*
X22188564Y9420425D01*
X21788193Y9420775D01*
X21418165Y9267882D01*
X21134813Y8985024D01*
X20981275Y8615264D01*
X20980925Y8214893D01*
X20066509Y8214893D01*
X20053682Y8245935D01*
X19770824Y8529287D01*
X19401064Y8682825D01*
X19000693Y8683175D01*
X18630665Y8530282D01*
X18347313Y8247424D01*
X18193775Y7877664D01*
X18193425Y7477293D01*
X12734062Y7477293D01*
X12808325Y7656136D01*
X12808675Y8056507D01*
X12655782Y8426535D01*
X12372924Y8709887D01*
X12003164Y8863425D01*
X11602793Y8863775D01*
X11232765Y8710882D01*
X10949413Y8428024D01*
X10795875Y8058264D01*
X10795525Y7657893D01*
X10855506Y7512727D01*
X10783264Y7542725D01*
X10382893Y7543075D01*
X10012865Y7390182D01*
X9729513Y7107324D01*
X9575975Y6737564D01*
X9575682Y6402179D01*
X9510270Y6402236D01*
X9009497Y6195321D01*
X8626026Y5812518D01*
X8509971Y5533028D01*
X8395321Y5810503D01*
X8144262Y6062000D01*
X8469335Y6196318D01*
X8752687Y6479176D01*
X8906225Y6848936D01*
X8906575Y7249307D01*
X8753682Y7619335D01*
X8470824Y7902687D01*
X8101064Y8056225D01*
X7700693Y8056575D01*
X7330665Y7903682D01*
X7047313Y7620824D01*
X6893775Y7251064D01*
X6893425Y6850693D01*
X7046318Y6480665D01*
X7124745Y6402101D01*
X6970270Y6402236D01*
X6469497Y6195321D01*
X6086026Y5812518D01*
X5969971Y5533028D01*
X5855321Y5810503D01*
X5472518Y6193974D01*
X4972107Y6401763D01*
X4430270Y6402236D01*
X4251402Y6328329D01*
X4502687Y6579176D01*
X4656225Y6948936D01*
X4656575Y7349307D01*
X4503682Y7719335D01*
X4220824Y8002687D01*
X3851064Y8156225D01*
X3450693Y8156575D01*
X3080665Y8003682D01*
X2797313Y7720824D01*
X2643775Y7351064D01*
X2643425Y6950693D01*
X2796318Y6580665D01*
X3079176Y6297313D01*
X3448936Y6143775D01*
X3849307Y6143425D01*
X3897429Y6163309D01*
X3546026Y5812518D01*
X3338237Y5312107D01*
X3337764Y4770270D01*
X3544679Y4269497D01*
X3927482Y3886026D01*
X3957036Y3873754D01*
X3938000Y3873754D01*
X3715654Y3831917D01*
X3511442Y3700510D01*
X3374444Y3500007D01*
X3326246Y3262000D01*
X3326246Y1738000D01*
X3368083Y1515654D01*
X3499490Y1311442D01*
X3699993Y1174444D01*
X3938000Y1126246D01*
X5462000Y1126246D01*
X5684346Y1168083D01*
X5888558Y1299490D01*
X6025556Y1499993D01*
X6073754Y1738000D01*
X6073754Y1755938D01*
X6084679Y1729497D01*
X6467482Y1346026D01*
X6967893Y1138237D01*
X7509730Y1137764D01*
X8010503Y1344679D01*
X8393974Y1727482D01*
X8510029Y2006972D01*
X8624679Y1729497D01*
X9007482Y1346026D01*
X9507893Y1138237D01*
X9958197Y1137844D01*
X9992318Y1055265D01*
X10275176Y771913D01*
X10508568Y675000D01*
X675000Y675000D01*
X675000Y8617799D01*
X843636Y8547775D01*
X1244007Y8547425D01*
X1614035Y8700318D01*
X1897387Y8983176D01*
X2050925Y9352936D01*
X2050934Y9364293D01*
X5143325Y9364293D01*
X5296218Y8994265D01*
X5579076Y8710913D01*
X5948836Y8557375D01*
X6349207Y8557025D01*
X6719235Y8709918D01*
X7002587Y8992776D01*
X7156125Y9362536D01*
X7156226Y9478093D01*
X15491025Y9478093D01*
X15643918Y9108065D01*
X15926776Y8824713D01*
X16296536Y8671175D01*
X16696907Y8670825D01*
X17066935Y8823718D01*
X17350287Y9106576D01*
X17503825Y9476336D01*
X17504175Y9876707D01*
X17351282Y10246735D01*
X17288505Y10309621D01*
X17619335Y10446318D01*
X17902687Y10729176D01*
X17961416Y10870611D01*
X17999490Y10811442D01*
X18199993Y10674444D01*
X18438000Y10626246D01*
X19962000Y10626246D01*
X20184346Y10668083D01*
X20388558Y10799490D01*
X20525556Y10999993D01*
X20573754Y11238000D01*
X20573754Y12762000D01*
X20551402Y12880793D01*
X22429425Y12880793D01*
X22582318Y12510765D01*
X22865176Y12227413D01*
X23234936Y12073875D01*
X23635307Y12073525D01*
X24005335Y12226418D01*
X24288687Y12509276D01*
X24442225Y12879036D01*
X24442575Y13279407D01*
X24309822Y13600693D01*
X25493425Y13600693D01*
X25646318Y13230665D01*
X25929176Y12947313D01*
X26298936Y12793775D01*
X26699307Y12793425D01*
X27069335Y12946318D01*
X27352687Y13229176D01*
X27506225Y13598936D01*
X27506575Y13999307D01*
X27353682Y14369335D01*
X27070824Y14652687D01*
X26701064Y14806225D01*
X26300693Y14806575D01*
X25930665Y14653682D01*
X25647313Y14370824D01*
X25493775Y14001064D01*
X25493425Y13600693D01*
X24309822Y13600693D01*
X24289682Y13649435D01*
X24006824Y13932787D01*
X23637064Y14086325D01*
X23236693Y14086675D01*
X22866665Y13933782D01*
X22583313Y13650924D01*
X22429775Y13281164D01*
X22429425Y12880793D01*
X20551402Y12880793D01*
X20531917Y12984346D01*
X20400510Y13188558D01*
X20200007Y13325556D01*
X19962000Y13373754D01*
X19944062Y13373754D01*
X19970503Y13384679D01*
X20353974Y13767482D01*
X20561763Y14267893D01*
X20562236Y14809730D01*
X20355321Y15310503D01*
X19972518Y15693974D01*
X19472107Y15901763D01*
X18930270Y15902236D01*
X18429497Y15695321D01*
X18046026Y15312518D01*
X17838237Y14812107D01*
X17837764Y14270270D01*
X18044679Y13769497D01*
X18427482Y13386026D01*
X18457036Y13373754D01*
X18438000Y13373754D01*
X18215654Y13331917D01*
X18011442Y13200510D01*
X17874444Y13000007D01*
X17826246Y12762000D01*
X17826246Y11946906D01*
X17620824Y12152687D01*
X17251064Y12306225D01*
X16850693Y12306575D01*
X16480665Y12153682D01*
X16197313Y11870824D01*
X16043775Y11501064D01*
X16043425Y11100693D01*
X16196318Y10730665D01*
X16259095Y10667779D01*
X15928265Y10531082D01*
X15644913Y10248224D01*
X15491375Y9878464D01*
X15491025Y9478093D01*
X7156226Y9478093D01*
X7156475Y9762907D01*
X7003582Y10132935D01*
X6720724Y10416287D01*
X6350964Y10569825D01*
X5950593Y10570175D01*
X5580565Y10417282D01*
X5297213Y10134424D01*
X5143675Y9764664D01*
X5143325Y9364293D01*
X2050934Y9364293D01*
X2051275Y9753307D01*
X1898382Y10123335D01*
X1615524Y10406687D01*
X1245764Y10560225D01*
X845393Y10560575D01*
X675000Y10490170D01*
X675000Y11809193D01*
X7165225Y11809193D01*
X7318118Y11439165D01*
X7600976Y11155813D01*
X7970736Y11002275D01*
X8371107Y11001925D01*
X8741135Y11154818D01*
X9024487Y11437676D01*
X9178025Y11807436D01*
X9178040Y11825693D01*
X10343425Y11825693D01*
X10496318Y11455665D01*
X10779176Y11172313D01*
X11148936Y11018775D01*
X11549307Y11018425D01*
X11919335Y11171318D01*
X12202687Y11454176D01*
X12356225Y11823936D01*
X12356575Y12224307D01*
X12203682Y12594335D01*
X11920824Y12877687D01*
X11551064Y13031225D01*
X11150693Y13031575D01*
X10780665Y12878682D01*
X10497313Y12595824D01*
X10343775Y12226064D01*
X10343425Y11825693D01*
X9178040Y11825693D01*
X9178329Y12155296D01*
X9452687Y12429176D01*
X9606225Y12798936D01*
X9606575Y13199307D01*
X9453682Y13569335D01*
X9170824Y13852687D01*
X8801064Y14006225D01*
X8400693Y14006575D01*
X8030665Y13853682D01*
X7747313Y13570824D01*
X7593775Y13201064D01*
X7593471Y12853204D01*
X7319113Y12579324D01*
X7165575Y12209564D01*
X7165225Y11809193D01*
X675000Y11809193D01*
X675000Y15950693D01*
X16293425Y15950693D01*
X16446318Y15580665D01*
X16729176Y15297313D01*
X17098936Y15143775D01*
X17499307Y15143425D01*
X17869335Y15296318D01*
X18152687Y15579176D01*
X18306225Y15948936D01*
X18306382Y16129393D01*
X21149125Y16129393D01*
X21302018Y15759365D01*
X21584876Y15476013D01*
X21954636Y15322475D01*
X22355007Y15322125D01*
X22725035Y15475018D01*
X23008387Y15757876D01*
X23161925Y16127636D01*
X23162275Y16528007D01*
X23009382Y16898035D01*
X22726524Y17181387D01*
X22356764Y17334925D01*
X21956393Y17335275D01*
X21586365Y17182382D01*
X21303013Y16899524D01*
X21149475Y16529764D01*
X21149125Y16129393D01*
X18306382Y16129393D01*
X18306575Y16349307D01*
X18153682Y16719335D01*
X17870824Y17002687D01*
X17501064Y17156225D01*
X17100693Y17156575D01*
X16730665Y17003682D01*
X16447313Y16720824D01*
X16293775Y16351064D01*
X16293425Y15950693D01*
X675000Y15950693D01*
X675000Y18594093D01*
X13669225Y18594093D01*
X13822118Y18224065D01*
X14104976Y17940713D01*
X14474736Y17787175D01*
X14875107Y17786825D01*
X15245135Y17939718D01*
X15528487Y18222576D01*
X15666901Y18555913D01*
X15666725Y18354693D01*
X15819618Y17984665D01*
X16102476Y17701313D01*
X16472236Y17547775D01*
X16872607Y17547425D01*
X17242635Y17700318D01*
X17254230Y17711893D01*
X24979425Y17711893D01*
X25132318Y17341865D01*
X25415176Y17058513D01*
X25784936Y16904975D01*
X26185307Y16904625D01*
X26275784Y16942010D01*
X26414718Y16605765D01*
X26697576Y16322413D01*
X27067336Y16168875D01*
X27467707Y16168525D01*
X27837735Y16321418D01*
X28121087Y16604276D01*
X28274625Y16974036D01*
X28274975Y17374407D01*
X28122082Y17744435D01*
X28077166Y17789429D01*
X28090935Y17795118D01*
X28374287Y18077976D01*
X28410213Y18164495D01*
X28604607Y18164325D01*
X28974635Y18317218D01*
X29142706Y18484996D01*
X29142525Y18277893D01*
X29295418Y17907865D01*
X29578276Y17624513D01*
X29948036Y17470975D01*
X30348407Y17470625D01*
X30718435Y17623518D01*
X30986061Y17890678D01*
X31129176Y17747313D01*
X31498936Y17593775D01*
X31899307Y17593425D01*
X32269335Y17746318D01*
X32552687Y18029176D01*
X32706225Y18398936D01*
X32706575Y18799307D01*
X32553682Y19169335D01*
X32270824Y19452687D01*
X32166444Y19496029D01*
X32285707Y19495925D01*
X32655735Y19648818D01*
X32939087Y19931676D01*
X33092625Y20301436D01*
X33092824Y20529487D01*
X33278407Y20529325D01*
X33648435Y20682218D01*
X33931787Y20965076D01*
X33958985Y21030576D01*
X33972445Y20998000D01*
X34365928Y20603830D01*
X34567673Y20520058D01*
X34368000Y20437555D01*
X33973830Y20044072D01*
X33760243Y19529699D01*
X33759757Y18972744D01*
X33972445Y18458000D01*
X34365928Y18063830D01*
X34567673Y17980058D01*
X34368000Y17897555D01*
X33973830Y17504072D01*
X33760243Y16989699D01*
X33759757Y16432744D01*
X33972445Y15918000D01*
X34365928Y15523830D01*
X34567673Y15440058D01*
X34368000Y15357555D01*
X33973830Y14964072D01*
X33760243Y14449699D01*
X33759757Y13892744D01*
X33972445Y13378000D01*
X34365928Y12983830D01*
X34880301Y12770243D01*
X35437256Y12769757D01*
X35952000Y12982445D01*
X36346170Y13375928D01*
X36559757Y13890301D01*
X36560243Y14447256D01*
X36347555Y14962000D01*
X35954072Y15356170D01*
X35752327Y15439942D01*
X35952000Y15522445D01*
X36346170Y15915928D01*
X36559757Y16430301D01*
X36560243Y16987256D01*
X36347555Y17502000D01*
X35954072Y17896170D01*
X35752327Y17979942D01*
X35952000Y18062445D01*
X36346170Y18455928D01*
X36559757Y18970301D01*
X36560243Y19527256D01*
X36347555Y20042000D01*
X36147161Y20242744D01*
X36299757Y20242744D01*
X36512445Y19728000D01*
X36905928Y19333830D01*
X37107673Y19250058D01*
X36908000Y19167555D01*
X36513830Y18774072D01*
X36300243Y18259699D01*
X36299757Y17702744D01*
X36512445Y17188000D01*
X36905928Y16793830D01*
X37107673Y16710058D01*
X36908000Y16627555D01*
X36513830Y16234072D01*
X36300243Y15719699D01*
X36299757Y15162744D01*
X36512445Y14648000D01*
X36905928Y14253830D01*
X37157304Y14149449D01*
X36929497Y14055321D01*
X36546026Y13672518D01*
X36338237Y13172107D01*
X36337764Y12630270D01*
X36544679Y12129497D01*
X36927482Y11746026D01*
X37427893Y11538237D01*
X37969730Y11537764D01*
X38470503Y11744679D01*
X38853974Y12127482D01*
X39061763Y12627893D01*
X39062236Y13169730D01*
X38855321Y13670503D01*
X38472518Y14053974D01*
X38242660Y14149420D01*
X38492000Y14252445D01*
X38509554Y14269969D01*
X47317820Y14269969D01*
X48110000Y13477789D01*
X48902180Y14269969D01*
X48824357Y14505229D01*
X48293452Y14683815D01*
X47734618Y14645637D01*
X47395643Y14505229D01*
X47317820Y14269969D01*
X38509554Y14269969D01*
X38886170Y14645928D01*
X39099757Y15160301D01*
X39100243Y15717256D01*
X38887555Y16232000D01*
X38619331Y16500693D01*
X40243425Y16500693D01*
X40396318Y16130665D01*
X40451735Y16075151D01*
X40397313Y16020824D01*
X40243775Y15651064D01*
X40243425Y15250693D01*
X40396318Y14880665D01*
X40679176Y14597313D01*
X41048936Y14443775D01*
X41449307Y14443425D01*
X41819335Y14596318D01*
X42102687Y14879176D01*
X42256225Y15248936D01*
X42256575Y15649307D01*
X42103682Y16019335D01*
X42048265Y16074849D01*
X42102687Y16129176D01*
X42256225Y16498936D01*
X42256575Y16899307D01*
X42103682Y17269335D01*
X41820824Y17552687D01*
X41451064Y17706225D01*
X41050693Y17706575D01*
X40680665Y17553682D01*
X40397313Y17270824D01*
X40243775Y16901064D01*
X40243425Y16500693D01*
X38619331Y16500693D01*
X38494072Y16626170D01*
X38292327Y16709942D01*
X38492000Y16792445D01*
X38886170Y17185928D01*
X39099757Y17700301D01*
X39100243Y18257256D01*
X38887555Y18772000D01*
X38494072Y19166170D01*
X38292327Y19249942D01*
X38492000Y19332445D01*
X38886170Y19725928D01*
X39099757Y20240301D01*
X39100243Y20797256D01*
X38887555Y21312000D01*
X38494072Y21706170D01*
X37979699Y21919757D01*
X37422744Y21920243D01*
X36908000Y21707555D01*
X36513830Y21314072D01*
X36300243Y20799699D01*
X36299757Y20242744D01*
X36147161Y20242744D01*
X35954072Y20436170D01*
X35752327Y20519942D01*
X35952000Y20602445D01*
X36346170Y20995928D01*
X36559757Y21510301D01*
X36560243Y22067256D01*
X36347555Y22582000D01*
X35954072Y22976170D01*
X35439699Y23189757D01*
X34882744Y23190243D01*
X34368000Y22977555D01*
X33973830Y22584072D01*
X33821350Y22216861D01*
X33649924Y22388587D01*
X33280164Y22542125D01*
X32879793Y22542475D01*
X32509765Y22389582D01*
X32226413Y22106724D01*
X32072875Y21736964D01*
X32072676Y21508913D01*
X31887093Y21509075D01*
X31517065Y21356182D01*
X31233713Y21073324D01*
X31080175Y20703564D01*
X31079825Y20303193D01*
X31232718Y19933165D01*
X31515576Y19649813D01*
X31619956Y19606471D01*
X31500693Y19606575D01*
X31130665Y19453682D01*
X30863039Y19186522D01*
X30719924Y19329887D01*
X30350164Y19483425D01*
X29949793Y19483775D01*
X29843542Y19439873D01*
X29867587Y19463876D01*
X30021125Y19833636D01*
X30021475Y20234007D01*
X29868582Y20604035D01*
X29585724Y20887387D01*
X29293038Y21008921D01*
X29395525Y21255736D01*
X29395875Y21656107D01*
X29242982Y22026135D01*
X28960124Y22309487D01*
X28917725Y22327093D01*
X29419625Y22327093D01*
X29572518Y21957065D01*
X29855376Y21673713D01*
X30225136Y21520175D01*
X30625507Y21519825D01*
X30995535Y21672718D01*
X31278887Y21955576D01*
X31432425Y22325336D01*
X31432775Y22725707D01*
X31279882Y23095735D01*
X30997024Y23379087D01*
X30627264Y23532625D01*
X30226893Y23532975D01*
X29856865Y23380082D01*
X29573513Y23097224D01*
X29419975Y22727464D01*
X29419625Y22327093D01*
X28917725Y22327093D01*
X28590364Y22463025D01*
X28189993Y22463375D01*
X27819965Y22310482D01*
X27536613Y22027624D01*
X27383075Y21657864D01*
X27382725Y21257493D01*
X27535618Y20887465D01*
X27818476Y20604113D01*
X28111162Y20482579D01*
X28008675Y20235764D01*
X28008553Y20095894D01*
X27835965Y20024582D01*
X27552613Y19741724D01*
X27516687Y19655205D01*
X27322293Y19655375D01*
X26952265Y19502482D01*
X26668913Y19219624D01*
X26515375Y18849864D01*
X26515315Y18781123D01*
X26187064Y18917425D01*
X25786693Y18917775D01*
X25416665Y18764882D01*
X25133313Y18482024D01*
X24979775Y18112264D01*
X24979425Y17711893D01*
X17254230Y17711893D01*
X17525987Y17983176D01*
X17679525Y18352936D01*
X17679875Y18753307D01*
X17526982Y19123335D01*
X17244124Y19406687D01*
X16874364Y19560225D01*
X16473993Y19560575D01*
X16103965Y19407682D01*
X15820613Y19124824D01*
X15682199Y18791487D01*
X15682375Y18992707D01*
X15529482Y19362735D01*
X15246624Y19646087D01*
X14876864Y19799625D01*
X14476493Y19799975D01*
X14106465Y19647082D01*
X13823113Y19364224D01*
X13669575Y18994464D01*
X13669225Y18594093D01*
X675000Y18594093D01*
X675000Y19650693D01*
X10243425Y19650693D01*
X10396318Y19280665D01*
X10679176Y18997313D01*
X11048936Y18843775D01*
X11449307Y18843425D01*
X11819335Y18996318D01*
X12102687Y19279176D01*
X12256225Y19648936D01*
X12256575Y20049307D01*
X12103682Y20419335D01*
X11820824Y20702687D01*
X11451064Y20856225D01*
X11050693Y20856575D01*
X10680665Y20703682D01*
X10397313Y20420824D01*
X10243775Y20051064D01*
X10243425Y19650693D01*
X675000Y19650693D01*
X675000Y22682793D01*
X11584325Y22682793D01*
X11737218Y22312765D01*
X12020076Y22029413D01*
X12389836Y21875875D01*
X12790207Y21875525D01*
X13160235Y22028418D01*
X13443587Y22311276D01*
X13597125Y22681036D01*
X13597475Y23081407D01*
X13444582Y23451435D01*
X13161724Y23734787D01*
X12791964Y23888325D01*
X12391593Y23888675D01*
X12021565Y23735782D01*
X11738213Y23452924D01*
X11584675Y23083164D01*
X11584325Y22682793D01*
X675000Y22682793D01*
X675000Y23501496D01*
X679176Y23497313D01*
X1048936Y23343775D01*
X1449307Y23343425D01*
X1819335Y23496318D01*
X2102687Y23779176D01*
X2256225Y24148936D01*
X2256575Y24549307D01*
X2103682Y24919335D01*
X1875024Y25148393D01*
X3403825Y25148393D01*
X3556718Y24778365D01*
X3839576Y24495013D01*
X4209336Y24341475D01*
X4609707Y24341125D01*
X4979735Y24494018D01*
X5180561Y24694494D01*
X5180225Y24310293D01*
X5333118Y23940265D01*
X5615976Y23656913D01*
X5985736Y23503375D01*
X6386107Y23503025D01*
X6756135Y23655918D01*
X7039487Y23938776D01*
X7193025Y24308536D01*
X7193375Y24708907D01*
X7040482Y25078935D01*
X6757624Y25362287D01*
X6387864Y25515825D01*
X5987493Y25516175D01*
X5617465Y25363282D01*
X5416639Y25162806D01*
X5416975Y25547007D01*
X5264082Y25917035D01*
X4981224Y26200387D01*
X4611464Y26353925D01*
X4211093Y26354275D01*
X3841065Y26201382D01*
X3557713Y25918524D01*
X3404175Y25548764D01*
X3403825Y25148393D01*
X1875024Y25148393D01*
X1820824Y25202687D01*
X1451064Y25356225D01*
X1050693Y25356575D01*
X680665Y25203682D01*
X675000Y25198027D01*
X675000Y29000693D01*
X8518425Y29000693D01*
X8671318Y28630665D01*
X8954176Y28347313D01*
X9323936Y28193775D01*
X9724307Y28193425D01*
X10094335Y28346318D01*
X10377687Y28629176D01*
X10459288Y28825693D01*
X13718425Y28825693D01*
X13871318Y28455665D01*
X14138019Y28188499D01*
X13948213Y27999024D01*
X13794675Y27629264D01*
X13794325Y27228893D01*
X13947218Y26858865D01*
X14230076Y26575513D01*
X14555268Y26440481D01*
X14554925Y26047793D01*
X14707818Y25677765D01*
X14822380Y25563003D01*
X14599913Y25340924D01*
X14446375Y24971164D01*
X14446025Y24570793D01*
X14598918Y24200765D01*
X14881776Y23917413D01*
X15251536Y23763875D01*
X15393655Y23763751D01*
X15393425Y23500693D01*
X15546318Y23130665D01*
X15829176Y22847313D01*
X16198936Y22693775D01*
X16599307Y22693425D01*
X16969335Y22846318D01*
X17252687Y23129176D01*
X17406225Y23498936D01*
X17406575Y23899307D01*
X17253682Y24269335D01*
X16970824Y24552687D01*
X16614387Y24700693D01*
X19043425Y24700693D01*
X19196318Y24330665D01*
X19479176Y24047313D01*
X19848936Y23893775D01*
X20249307Y23893425D01*
X20482251Y23989676D01*
X20427975Y23858964D01*
X20427625Y23458593D01*
X20580518Y23088565D01*
X20806064Y22862625D01*
X20701064Y22906225D01*
X20300693Y22906575D01*
X19930665Y22753682D01*
X19647313Y22470824D01*
X19493775Y22101064D01*
X19493425Y21700693D01*
X19646318Y21330665D01*
X19929176Y21047313D01*
X20298936Y20893775D01*
X20699307Y20893425D01*
X21069335Y21046318D01*
X21352687Y21329176D01*
X21491922Y21664493D01*
X21977325Y21664493D01*
X22130218Y21294465D01*
X22413076Y21011113D01*
X22637614Y20917876D01*
X22609613Y20889924D01*
X22456075Y20520164D01*
X22455725Y20119793D01*
X22608618Y19749765D01*
X22891476Y19466413D01*
X23261236Y19312875D01*
X23661607Y19312525D01*
X24031635Y19465418D01*
X24314987Y19748276D01*
X24468525Y20118036D01*
X24468841Y20479225D01*
X24469007Y20479225D01*
X24839035Y20632118D01*
X25122387Y20914976D01*
X25275925Y21284736D01*
X25276275Y21685107D01*
X25123382Y22055135D01*
X24840524Y22338487D01*
X24470764Y22492025D01*
X24070393Y22492375D01*
X23850625Y22401568D01*
X23837582Y22433135D01*
X23554724Y22716487D01*
X23430444Y22768093D01*
X25088225Y22768093D01*
X25241118Y22398065D01*
X25523976Y22114713D01*
X25893736Y21961175D01*
X26294107Y21960825D01*
X26664135Y22113718D01*
X26947487Y22396576D01*
X27101025Y22766336D01*
X27101351Y23139141D01*
X27163735Y23164918D01*
X27447087Y23447776D01*
X27572869Y23750693D01*
X30943425Y23750693D01*
X31096318Y23380665D01*
X31379176Y23097313D01*
X31748936Y22943775D01*
X32149307Y22943425D01*
X32519335Y23096318D01*
X32802687Y23379176D01*
X32933308Y23693745D01*
X33299307Y23693425D01*
X33669335Y23846318D01*
X33952687Y24129176D01*
X34106225Y24498936D01*
X34106248Y24525293D01*
X36554925Y24525293D01*
X36707818Y24155265D01*
X36990676Y23871913D01*
X37360436Y23718375D01*
X37760807Y23718025D01*
X38130835Y23870918D01*
X38414187Y24153776D01*
X38567725Y24523536D01*
X38567943Y24773137D01*
X39399723Y24773137D01*
X39642795Y24184857D01*
X40092489Y23734377D01*
X40680344Y23490278D01*
X41316863Y23489723D01*
X41694556Y23645782D01*
X41650417Y23539484D01*
X41649584Y22584705D01*
X42014192Y21702285D01*
X42688734Y21026565D01*
X43570516Y20660417D01*
X44525295Y20659584D01*
X45407715Y21024192D01*
X46083435Y21698734D01*
X46449583Y22580516D01*
X46450416Y23535295D01*
X46195000Y24153452D01*
X46686185Y24153452D01*
X46724363Y23594618D01*
X46864771Y23255643D01*
X47100031Y23177820D01*
X47892211Y23970000D01*
X47100031Y24762180D01*
X46864771Y24684357D01*
X46686185Y24153452D01*
X46195000Y24153452D01*
X46085808Y24417715D01*
X45524535Y24979969D01*
X47317820Y24979969D01*
X48110000Y24187789D01*
X48902180Y24979969D01*
X48824357Y25215229D01*
X48293452Y25393815D01*
X47734618Y25355637D01*
X47395643Y25215229D01*
X47317820Y24979969D01*
X45524535Y24979969D01*
X45411266Y25093435D01*
X44529484Y25459583D01*
X43574705Y25460416D01*
X42692285Y25095808D01*
X42599925Y25003609D01*
X42600277Y25406863D01*
X42357205Y25995143D01*
X41907511Y26445623D01*
X41319656Y26689722D01*
X40683137Y26690277D01*
X40094857Y26447205D01*
X39644377Y25997511D01*
X39400278Y25409656D01*
X39399723Y24773137D01*
X38567943Y24773137D01*
X38568075Y24923907D01*
X38415182Y25293935D01*
X38132324Y25577287D01*
X37762564Y25730825D01*
X37362193Y25731175D01*
X36992165Y25578282D01*
X36708813Y25295424D01*
X36555275Y24925664D01*
X36554925Y24525293D01*
X34106248Y24525293D01*
X34106575Y24899307D01*
X33953682Y25269335D01*
X33670824Y25552687D01*
X33301064Y25706225D01*
X32900693Y25706575D01*
X32530665Y25553682D01*
X32247313Y25270824D01*
X32116692Y24956255D01*
X31750693Y24956575D01*
X31380665Y24803682D01*
X31097313Y24520824D01*
X30943775Y24151064D01*
X30943425Y23750693D01*
X27572869Y23750693D01*
X27600625Y23817536D01*
X27600975Y24217907D01*
X27448082Y24587935D01*
X27165224Y24871287D01*
X26795464Y25024825D01*
X26395093Y25025175D01*
X26025065Y24872282D01*
X25741713Y24589424D01*
X25588175Y24219664D01*
X25587849Y23846859D01*
X25525465Y23821082D01*
X25242113Y23538224D01*
X25088575Y23168464D01*
X25088225Y22768093D01*
X23430444Y22768093D01*
X23184964Y22870025D01*
X22784593Y22870375D01*
X22414565Y22717482D01*
X22131213Y22434624D01*
X21977675Y22064864D01*
X21977325Y21664493D01*
X21491922Y21664493D01*
X21506225Y21698936D01*
X21506575Y22099307D01*
X21353682Y22469335D01*
X21128136Y22695275D01*
X21233136Y22651675D01*
X21633507Y22651325D01*
X22003535Y22804218D01*
X22286887Y23087076D01*
X22440425Y23456836D01*
X22440775Y23857207D01*
X22287882Y24227235D01*
X22005024Y24510587D01*
X21635264Y24664125D01*
X21234893Y24664475D01*
X21001949Y24568224D01*
X21056225Y24698936D01*
X21056575Y25099307D01*
X20903682Y25469335D01*
X20620824Y25752687D01*
X20251064Y25906225D01*
X19850693Y25906575D01*
X19480665Y25753682D01*
X19197313Y25470824D01*
X19043775Y25101064D01*
X19043425Y24700693D01*
X16614387Y24700693D01*
X16601064Y24706225D01*
X16458945Y24706349D01*
X16459175Y24969407D01*
X16306282Y25339435D01*
X16191720Y25454197D01*
X16414187Y25676276D01*
X16567725Y26046036D01*
X16568075Y26446407D01*
X16415182Y26816435D01*
X16132324Y27099787D01*
X15807132Y27234819D01*
X15807475Y27627507D01*
X15654582Y27997535D01*
X15387881Y28264701D01*
X15577687Y28454176D01*
X15731225Y28823936D01*
X15731442Y29072201D01*
X15791618Y28926565D01*
X16074476Y28643213D01*
X16444236Y28489675D01*
X16844607Y28489325D01*
X17114092Y28600674D01*
X17246318Y28280665D01*
X17529176Y27997313D01*
X17898936Y27843775D01*
X18299307Y27843425D01*
X18558914Y27950693D01*
X22293425Y27950693D01*
X22446318Y27580665D01*
X22729176Y27297313D01*
X23098936Y27143775D01*
X23326060Y27143576D01*
X23358418Y27065265D01*
X23641276Y26781913D01*
X24011036Y26628375D01*
X24304969Y26628118D01*
X24097313Y26420824D01*
X23943775Y26051064D01*
X23943425Y25650693D01*
X24096318Y25280665D01*
X24379176Y24997313D01*
X24748936Y24843775D01*
X25149307Y24843425D01*
X25519335Y24996318D01*
X25802687Y25279176D01*
X25884779Y25476875D01*
X25942407Y25476825D01*
X26160036Y25566748D01*
X26329176Y25397313D01*
X26698936Y25243775D01*
X27099307Y25243425D01*
X27469335Y25396318D01*
X27752687Y25679176D01*
X27906225Y26048936D01*
X27906575Y26449307D01*
X27753682Y26819335D01*
X27470824Y27102687D01*
X27101064Y27256225D01*
X26700693Y27256575D01*
X26483064Y27166652D01*
X26313924Y27336087D01*
X25944164Y27489625D01*
X25543793Y27489975D01*
X25179208Y27339331D01*
X25218325Y27433536D01*
X25218471Y27600693D01*
X33793425Y27600693D01*
X33946318Y27230665D01*
X34229176Y26947313D01*
X34598936Y26793775D01*
X34999307Y26793425D01*
X35369335Y26946318D01*
X35652687Y27229176D01*
X35806225Y27598936D01*
X35806575Y27999307D01*
X35653682Y28369335D01*
X35370824Y28652687D01*
X35001064Y28806225D01*
X34600693Y28806575D01*
X34230665Y28653682D01*
X33947313Y28370824D01*
X33793775Y28001064D01*
X33793425Y27600693D01*
X25218471Y27600693D01*
X25218675Y27833907D01*
X25065782Y28203935D01*
X25028010Y28241773D01*
X25154725Y28546936D01*
X25155075Y28947307D01*
X25002182Y29317335D01*
X24719324Y29600687D01*
X24349564Y29754225D01*
X23949193Y29754575D01*
X23579165Y29601682D01*
X23295813Y29318824D01*
X23228395Y29156463D01*
X23100693Y29156575D01*
X22730665Y29003682D01*
X22447313Y28720824D01*
X22293775Y28351064D01*
X22293425Y27950693D01*
X18558914Y27950693D01*
X18669335Y27996318D01*
X18952687Y28279176D01*
X19106225Y28648936D01*
X19106575Y29049307D01*
X18953682Y29419335D01*
X18840881Y29532333D01*
X18900078Y29556793D01*
X19679325Y29556793D01*
X19832218Y29186765D01*
X20115076Y28903413D01*
X20484836Y28749875D01*
X20885207Y28749525D01*
X21255235Y28902418D01*
X21538587Y29185276D01*
X21692125Y29555036D01*
X21692475Y29955407D01*
X21579597Y30228593D01*
X25236625Y30228593D01*
X25389518Y29858565D01*
X25672376Y29575213D01*
X26042136Y29421675D01*
X26442507Y29421325D01*
X26812535Y29574218D01*
X27095887Y29857076D01*
X27249425Y30226836D01*
X27249775Y30627207D01*
X27096882Y30997235D01*
X26814024Y31280587D01*
X26444264Y31434125D01*
X26043893Y31434475D01*
X25673865Y31281582D01*
X25390513Y30998724D01*
X25236975Y30628964D01*
X25236625Y30228593D01*
X21579597Y30228593D01*
X21539582Y30325435D01*
X21256724Y30608787D01*
X20886964Y30762325D01*
X20486593Y30762675D01*
X20116565Y30609782D01*
X19833213Y30326924D01*
X19679675Y29957164D01*
X19679325Y29556793D01*
X18900078Y29556793D01*
X18971535Y29586318D01*
X19254887Y29869176D01*
X19408425Y30238936D01*
X19408775Y30639307D01*
X19255882Y31009335D01*
X18973024Y31292687D01*
X18603264Y31446225D01*
X18473812Y31446338D01*
X18537425Y31599536D01*
X18537775Y31999907D01*
X18448449Y32216093D01*
X20223425Y32216093D01*
X20376318Y31846065D01*
X20659176Y31562713D01*
X21028936Y31409175D01*
X21429307Y31408825D01*
X21799335Y31561718D01*
X22082687Y31844576D01*
X22236225Y32214336D01*
X22236575Y32614707D01*
X22083682Y32984735D01*
X21875160Y33193621D01*
X22099307Y33193425D01*
X22469335Y33346318D01*
X22551553Y33428393D01*
X27814225Y33428393D01*
X27967118Y33058365D01*
X28249976Y32775013D01*
X28619736Y32621475D01*
X28876250Y32621251D01*
X28996318Y32330665D01*
X29279176Y32047313D01*
X29648936Y31893775D01*
X30049307Y31893425D01*
X30419335Y32046318D01*
X30702687Y32329176D01*
X30856225Y32698936D01*
X30856575Y33099307D01*
X30763034Y33325693D01*
X31068425Y33325693D01*
X31221318Y32955665D01*
X31504176Y32672313D01*
X31708474Y32587481D01*
X31505665Y32503682D01*
X31222313Y32220824D01*
X31068775Y31851064D01*
X31068425Y31450693D01*
X31221318Y31080665D01*
X31504176Y30797313D01*
X31873936Y30643775D01*
X32274307Y30643425D01*
X32644335Y30796318D01*
X32927687Y31079176D01*
X33081225Y31448936D01*
X33081257Y31485893D01*
X38296025Y31485893D01*
X38448918Y31115865D01*
X38731776Y30832513D01*
X39101536Y30678975D01*
X39501907Y30678625D01*
X39871935Y30831518D01*
X40155287Y31114376D01*
X40308825Y31484136D01*
X40308972Y31651996D01*
X40354176Y31606713D01*
X40723936Y31453175D01*
X41124307Y31452825D01*
X41494335Y31605718D01*
X41777687Y31888576D01*
X41931225Y32258336D01*
X41931249Y32285443D01*
X42054858Y31986285D01*
X42434288Y31606193D01*
X42930290Y31400235D01*
X43467353Y31399766D01*
X43963715Y31604858D01*
X44343807Y31984288D01*
X44549765Y32480290D01*
X44550234Y33017353D01*
X44345142Y33513715D01*
X43965712Y33893807D01*
X43469710Y34099765D01*
X42932647Y34100234D01*
X42436285Y33895142D01*
X42056193Y33515712D01*
X41850235Y33019710D01*
X41850092Y32855910D01*
X41778682Y33028735D01*
X41495824Y33312087D01*
X41126064Y33465625D01*
X40725693Y33465975D01*
X40355665Y33313082D01*
X40072313Y33030224D01*
X39918775Y32660464D01*
X39918628Y32492604D01*
X39873424Y32537887D01*
X39503664Y32691425D01*
X39103293Y32691775D01*
X38733265Y32538882D01*
X38449913Y32256024D01*
X38296375Y31886264D01*
X38296025Y31485893D01*
X33081257Y31485893D01*
X33081575Y31849307D01*
X32928682Y32219335D01*
X32747641Y32400693D01*
X33618425Y32400693D01*
X33771318Y32030665D01*
X34054176Y31747313D01*
X34423936Y31593775D01*
X34824307Y31593425D01*
X35194335Y31746318D01*
X35477687Y32029176D01*
X35631225Y32398936D01*
X35631575Y32799307D01*
X35478682Y33169335D01*
X35195824Y33452687D01*
X34826064Y33606225D01*
X34425693Y33606575D01*
X34055665Y33453682D01*
X33772313Y33170824D01*
X33618775Y32801064D01*
X33618425Y32400693D01*
X32747641Y32400693D01*
X32645824Y32502687D01*
X32441526Y32587519D01*
X32644335Y32671318D01*
X32927687Y32954176D01*
X33081225Y33323936D01*
X33081575Y33724307D01*
X32928682Y34094335D01*
X32645824Y34377687D01*
X32349594Y34500693D01*
X34793425Y34500693D01*
X34946318Y34130665D01*
X35229176Y33847313D01*
X35598936Y33693775D01*
X35999307Y33693425D01*
X36369335Y33846318D01*
X36652687Y34129176D01*
X36782607Y34442058D01*
X44149818Y34442058D01*
X44309334Y34056000D01*
X44604446Y33760372D01*
X44990226Y33600182D01*
X45407942Y33599818D01*
X45794000Y33759334D01*
X46089628Y34054446D01*
X46249818Y34440226D01*
X46250182Y34857942D01*
X46090666Y35244000D01*
X45795554Y35539628D01*
X45409774Y35699818D01*
X44992058Y35700182D01*
X44606000Y35540666D01*
X44310372Y35245554D01*
X44150182Y34859774D01*
X44149818Y34442058D01*
X36782607Y34442058D01*
X36806225Y34498936D01*
X36806575Y34899307D01*
X36653682Y35269335D01*
X36370824Y35552687D01*
X36001064Y35706225D01*
X35600693Y35706575D01*
X35230665Y35553682D01*
X34947313Y35270824D01*
X34793775Y34901064D01*
X34793425Y34500693D01*
X32349594Y34500693D01*
X32276064Y34531225D01*
X31875693Y34531575D01*
X31505665Y34378682D01*
X31222313Y34095824D01*
X31068775Y33726064D01*
X31068425Y33325693D01*
X30763034Y33325693D01*
X30703682Y33469335D01*
X30420824Y33752687D01*
X30051064Y33906225D01*
X29794550Y33906449D01*
X29674482Y34197035D01*
X29391624Y34480387D01*
X29021864Y34633925D01*
X28621493Y34634275D01*
X28251465Y34481382D01*
X27968113Y34198524D01*
X27814575Y33828764D01*
X27814225Y33428393D01*
X22551553Y33428393D01*
X22752687Y33629176D01*
X22906225Y33998936D01*
X22906575Y34399307D01*
X22753682Y34769335D01*
X22470824Y35052687D01*
X22101064Y35206225D01*
X21700693Y35206575D01*
X21330665Y35053682D01*
X21047313Y34770824D01*
X20893775Y34401064D01*
X20893425Y34000693D01*
X21046318Y33630665D01*
X21254840Y33421779D01*
X21030693Y33421975D01*
X20660665Y33269082D01*
X20377313Y32986224D01*
X20223775Y32616464D01*
X20223425Y32216093D01*
X18448449Y32216093D01*
X18384882Y32369935D01*
X18102024Y32653287D01*
X17732264Y32806825D01*
X17331893Y32807175D01*
X16961865Y32654282D01*
X16678513Y32371424D01*
X16524975Y32001664D01*
X16524625Y31601293D01*
X16677518Y31231265D01*
X16960376Y30947913D01*
X17330136Y30794375D01*
X17459588Y30794262D01*
X17395975Y30641064D01*
X17395625Y30240693D01*
X17446329Y30117980D01*
X17216124Y30348587D01*
X16846364Y30502125D01*
X16445993Y30502475D01*
X16075965Y30349582D01*
X15792613Y30066724D01*
X15639075Y29696964D01*
X15638858Y29448699D01*
X15578682Y29594335D01*
X15295824Y29877687D01*
X14926064Y30031225D01*
X14525693Y30031575D01*
X14155665Y29878682D01*
X13872313Y29595824D01*
X13718775Y29226064D01*
X13718425Y28825693D01*
X10459288Y28825693D01*
X10531225Y28998936D01*
X10531575Y29399307D01*
X10378682Y29769335D01*
X10095824Y30052687D01*
X9726064Y30206225D01*
X9325693Y30206575D01*
X8955665Y30053682D01*
X8672313Y29770824D01*
X8518775Y29401064D01*
X8518425Y29000693D01*
X675000Y29000693D01*
X675000Y30400693D01*
X2093425Y30400693D01*
X2246318Y30030665D01*
X2529176Y29747313D01*
X2898936Y29593775D01*
X3299307Y29593425D01*
X3669335Y29746318D01*
X3952687Y30029176D01*
X4106225Y30398936D01*
X4106575Y30799307D01*
X3953682Y31169335D01*
X3670824Y31452687D01*
X3301064Y31606225D01*
X2900693Y31606575D01*
X2530665Y31453682D01*
X2247313Y31170824D01*
X2093775Y30801064D01*
X2093425Y30400693D01*
X675000Y30400693D01*
X675000Y31589288D01*
X1130290Y31400235D01*
X1667353Y31399766D01*
X2163715Y31604858D01*
X2543807Y31984288D01*
X2749765Y32480290D01*
X2749767Y32482647D01*
X5349766Y32482647D01*
X5554858Y31986285D01*
X5934288Y31606193D01*
X6430290Y31400235D01*
X6967353Y31399766D01*
X7463715Y31604858D01*
X7843807Y31984288D01*
X8049765Y32480290D01*
X8050234Y33017353D01*
X8013899Y33105293D01*
X9164125Y33105293D01*
X9317018Y32735265D01*
X9599876Y32451913D01*
X9865911Y32341445D01*
X9865625Y32014393D01*
X10018518Y31644365D01*
X10301376Y31361013D01*
X10671136Y31207475D01*
X11071507Y31207125D01*
X11441535Y31360018D01*
X11724887Y31642876D01*
X11878425Y32012636D01*
X11878488Y32084416D01*
X12211507Y32084125D01*
X12581535Y32237018D01*
X12864887Y32519876D01*
X13018425Y32889636D01*
X13018775Y33290007D01*
X12984899Y33371993D01*
X13363125Y33371993D01*
X13516018Y33001965D01*
X13798876Y32718613D01*
X14168636Y32565075D01*
X14569007Y32564725D01*
X14939035Y32717618D01*
X15222387Y33000476D01*
X15375925Y33370236D01*
X15376275Y33770607D01*
X15232306Y34119038D01*
X15263776Y34087513D01*
X15633536Y33933975D01*
X16033907Y33933625D01*
X16403935Y34086518D01*
X16687287Y34369376D01*
X16840825Y34739136D01*
X16841175Y35139507D01*
X16688282Y35509535D01*
X16679140Y35518693D01*
X24093225Y35518693D01*
X24246118Y35148665D01*
X24528976Y34865313D01*
X24898736Y34711775D01*
X25299107Y34711425D01*
X25669135Y34864318D01*
X25952487Y35147176D01*
X26106025Y35516936D01*
X26106375Y35917307D01*
X25953482Y36287335D01*
X25769945Y36471193D01*
X34010225Y36471193D01*
X34163118Y36101165D01*
X34445976Y35817813D01*
X34815736Y35664275D01*
X35216107Y35663925D01*
X35586135Y35816818D01*
X35869487Y36099676D01*
X36023025Y36469436D01*
X36023375Y36869807D01*
X35870482Y37239835D01*
X35587624Y37523187D01*
X35217864Y37676725D01*
X34817493Y37677075D01*
X34447465Y37524182D01*
X34164113Y37241324D01*
X34010575Y36871564D01*
X34010225Y36471193D01*
X25769945Y36471193D01*
X25670624Y36570687D01*
X25300864Y36724225D01*
X24900493Y36724575D01*
X24530465Y36571682D01*
X24247113Y36288824D01*
X24093575Y35919064D01*
X24093225Y35518693D01*
X16679140Y35518693D01*
X16405424Y35792887D01*
X16035664Y35946425D01*
X15635293Y35946775D01*
X15265265Y35793882D01*
X14981913Y35511024D01*
X14828375Y35141264D01*
X14828025Y34740893D01*
X14971994Y34392462D01*
X14940524Y34423987D01*
X14570764Y34577525D01*
X14170393Y34577875D01*
X13800365Y34424982D01*
X13517013Y34142124D01*
X13363475Y33772364D01*
X13363125Y33371993D01*
X12984899Y33371993D01*
X12865882Y33660035D01*
X12583024Y33943387D01*
X12213264Y34096925D01*
X11812893Y34097275D01*
X11442865Y33944382D01*
X11159513Y33661524D01*
X11135772Y33604350D01*
X11024382Y33873935D01*
X10741524Y34157287D01*
X10371764Y34310825D01*
X9971393Y34311175D01*
X9601365Y34158282D01*
X9318013Y33875424D01*
X9164475Y33505664D01*
X9164125Y33105293D01*
X8013899Y33105293D01*
X7845142Y33513715D01*
X7465712Y33893807D01*
X6969710Y34099765D01*
X6432647Y34100234D01*
X5936285Y33895142D01*
X5556193Y33515712D01*
X5350235Y33019710D01*
X5349766Y32482647D01*
X2749767Y32482647D01*
X2750234Y33017353D01*
X2545142Y33513715D01*
X2165712Y33893807D01*
X1669710Y34099765D01*
X1132647Y34100234D01*
X675000Y33911139D01*
X675000Y34442058D01*
X3649818Y34442058D01*
X3809334Y34056000D01*
X4104446Y33760372D01*
X4490226Y33600182D01*
X4907942Y33599818D01*
X5294000Y33759334D01*
X5589628Y34054446D01*
X5749818Y34440226D01*
X5750182Y34857942D01*
X5590666Y35244000D01*
X5295554Y35539628D01*
X4909774Y35699818D01*
X4492058Y35700182D01*
X4106000Y35540666D01*
X3810372Y35245554D01*
X3650182Y34859774D01*
X3649818Y34442058D01*
X675000Y34442058D01*
X675000Y36600693D01*
X13118425Y36600693D01*
X13271318Y36230665D01*
X13554176Y35947313D01*
X13923936Y35793775D01*
X14324307Y35793425D01*
X14694335Y35946318D01*
X14977687Y36229176D01*
X15131225Y36598936D01*
X15131575Y36999307D01*
X14978682Y37369335D01*
X14722771Y37625693D01*
X23468425Y37625693D01*
X23621318Y37255665D01*
X23904176Y36972313D01*
X24273936Y36818775D01*
X24674307Y36818425D01*
X25044335Y36971318D01*
X25327687Y37254176D01*
X25481225Y37623936D01*
X25481503Y37942058D01*
X44149818Y37942058D01*
X44309334Y37556000D01*
X44604446Y37260372D01*
X44990226Y37100182D01*
X45407942Y37099818D01*
X45794000Y37259334D01*
X46089628Y37554446D01*
X46249818Y37940226D01*
X46250182Y38357942D01*
X46090666Y38744000D01*
X45795554Y39039628D01*
X45409774Y39199818D01*
X44992058Y39200182D01*
X44606000Y39040666D01*
X44310372Y38745554D01*
X44150182Y38359774D01*
X44149818Y37942058D01*
X25481503Y37942058D01*
X25481575Y38024307D01*
X25328682Y38394335D01*
X25045824Y38677687D01*
X24676064Y38831225D01*
X24275693Y38831575D01*
X23905665Y38678682D01*
X23622313Y38395824D01*
X23468775Y38026064D01*
X23468425Y37625693D01*
X14722771Y37625693D01*
X14695824Y37652687D01*
X14326064Y37806225D01*
X13925693Y37806575D01*
X13555665Y37653682D01*
X13272313Y37370824D01*
X13118775Y37001064D01*
X13118425Y36600693D01*
X675000Y36600693D01*
X675000Y37942058D01*
X3649818Y37942058D01*
X3809334Y37556000D01*
X4104446Y37260372D01*
X4490226Y37100182D01*
X4907942Y37099818D01*
X5294000Y37259334D01*
X5589628Y37554446D01*
X5749818Y37940226D01*
X5750182Y38357942D01*
X5656946Y38583593D01*
X12006425Y38583593D01*
X12159318Y38213565D01*
X12442176Y37930213D01*
X12811936Y37776675D01*
X13212307Y37776325D01*
X13582335Y37929218D01*
X13865687Y38212076D01*
X14019225Y38581836D01*
X14019575Y38982207D01*
X13866682Y39352235D01*
X13583824Y39635587D01*
X13214064Y39789125D01*
X12813693Y39789475D01*
X12443665Y39636582D01*
X12160313Y39353724D01*
X12006775Y38983964D01*
X12006425Y38583593D01*
X5656946Y38583593D01*
X5604374Y38710825D01*
X5723925Y38998736D01*
X5724028Y39116820D01*
X5934288Y38906193D01*
X6430290Y38700235D01*
X6967353Y38699766D01*
X7463715Y38904858D01*
X7843807Y39284288D01*
X8049765Y39780290D01*
X8049817Y39840031D01*
X15287820Y39840031D01*
X15365643Y39604771D01*
X15896548Y39426185D01*
X16455382Y39464363D01*
X16794357Y39604771D01*
X16872180Y39840031D01*
X16080000Y40632211D01*
X15287820Y39840031D01*
X8049817Y39840031D01*
X8050234Y40317353D01*
X7845142Y40813715D01*
X7625788Y41033452D01*
X14656185Y41033452D01*
X14694363Y40474618D01*
X14834771Y40135643D01*
X15070031Y40057820D01*
X15862211Y40850000D01*
X16297789Y40850000D01*
X17089969Y40057820D01*
X17325229Y40135643D01*
X17358947Y40235880D01*
X17432445Y40058000D01*
X17825928Y39663830D01*
X18340301Y39450243D01*
X18897256Y39449757D01*
X19412000Y39662445D01*
X19806170Y40055928D01*
X19889942Y40257673D01*
X19972445Y40058000D01*
X20365928Y39663830D01*
X20880301Y39450243D01*
X21437256Y39449757D01*
X21639549Y39533343D01*
X21639225Y39162593D01*
X21792118Y38792565D01*
X22074976Y38509213D01*
X22444736Y38355675D01*
X22845107Y38355325D01*
X23215135Y38508218D01*
X23498487Y38791076D01*
X23652025Y39160836D01*
X23652278Y39450041D01*
X23977256Y39449757D01*
X24492000Y39662445D01*
X24612411Y39782647D01*
X41849766Y39782647D01*
X42054858Y39286285D01*
X42434288Y38906193D01*
X42930290Y38700235D01*
X43467353Y38699766D01*
X43963715Y38904858D01*
X44343807Y39284288D01*
X44549765Y39780290D01*
X44550234Y40317353D01*
X44345142Y40813715D01*
X43965712Y41193807D01*
X43469710Y41399765D01*
X42932647Y41400234D01*
X42436285Y41195142D01*
X42056193Y40815712D01*
X41850235Y40319710D01*
X41849766Y39782647D01*
X24612411Y39782647D01*
X24886170Y40055928D01*
X25099757Y40570301D01*
X25100243Y41127256D01*
X24887555Y41642000D01*
X24494072Y42036170D01*
X23979699Y42249757D01*
X23422744Y42250243D01*
X22908000Y42037555D01*
X22513830Y41644072D01*
X22430058Y41442327D01*
X22347555Y41642000D01*
X21954072Y42036170D01*
X21439699Y42249757D01*
X20882744Y42250243D01*
X20368000Y42037555D01*
X19973830Y41644072D01*
X19890058Y41442327D01*
X19807555Y41642000D01*
X19414072Y42036170D01*
X18899699Y42249757D01*
X18342744Y42250243D01*
X17828000Y42037555D01*
X17433830Y41644072D01*
X17362933Y41473333D01*
X17325229Y41564357D01*
X17089969Y41642180D01*
X16297789Y40850000D01*
X15862211Y40850000D01*
X15070031Y41642180D01*
X14834771Y41564357D01*
X14656185Y41033452D01*
X7625788Y41033452D01*
X7465712Y41193807D01*
X6969710Y41399765D01*
X6432647Y41400234D01*
X5936285Y41195142D01*
X5556193Y40815712D01*
X5350235Y40319710D01*
X5349948Y39990956D01*
X5288524Y40052487D01*
X4918764Y40206025D01*
X4518393Y40206375D01*
X4148365Y40053482D01*
X3865013Y39770624D01*
X3711475Y39400864D01*
X3711125Y39000493D01*
X3814685Y38749859D01*
X3810372Y38745554D01*
X3650182Y38359774D01*
X3649818Y37942058D01*
X675000Y37942058D01*
X675000Y38889288D01*
X1130290Y38700235D01*
X1667353Y38699766D01*
X2163715Y38904858D01*
X2543807Y39284288D01*
X2749765Y39780290D01*
X2750234Y40317353D01*
X2545142Y40813715D01*
X2165712Y41193807D01*
X1669710Y41399765D01*
X1132647Y41400234D01*
X675000Y41211139D01*
X675000Y41859969D01*
X15287820Y41859969D01*
X16080000Y41067789D01*
X16872180Y41859969D01*
X16794357Y42095229D01*
X16263452Y42273815D01*
X15704618Y42235637D01*
X15365643Y42095229D01*
X15287820Y41859969D01*
X675000Y41859969D01*
X675000Y45662000D01*
X3326246Y45662000D01*
X3326246Y44138000D01*
X3368083Y43915654D01*
X3499490Y43711442D01*
X3699993Y43574444D01*
X3938000Y43526246D01*
X5462000Y43526246D01*
X5684346Y43568083D01*
X5888558Y43699490D01*
X6025556Y43899993D01*
X6073754Y44138000D01*
X6073754Y44155938D01*
X6084679Y44129497D01*
X6467482Y43746026D01*
X6967893Y43538237D01*
X7509730Y43537764D01*
X8010503Y43744679D01*
X8393974Y44127482D01*
X8510029Y44406972D01*
X8624679Y44129497D01*
X9007482Y43746026D01*
X9507893Y43538237D01*
X10049730Y43537764D01*
X10550503Y43744679D01*
X10933974Y44127482D01*
X11050029Y44406972D01*
X11164679Y44129497D01*
X11547482Y43746026D01*
X12047893Y43538237D01*
X12589730Y43537764D01*
X13090503Y43744679D01*
X13473974Y44127482D01*
X13590029Y44406972D01*
X13704679Y44129497D01*
X14087482Y43746026D01*
X14587893Y43538237D01*
X15129730Y43537764D01*
X15630503Y43744679D01*
X16013974Y44127482D01*
X16130029Y44406972D01*
X16244679Y44129497D01*
X16627482Y43746026D01*
X17127893Y43538237D01*
X17669730Y43537764D01*
X18170503Y43744679D01*
X18553974Y44127482D01*
X18670029Y44406972D01*
X18784679Y44129497D01*
X19167482Y43746026D01*
X19667893Y43538237D01*
X20209730Y43537764D01*
X20710503Y43744679D01*
X21093974Y44127482D01*
X21210029Y44406972D01*
X21324679Y44129497D01*
X21707482Y43746026D01*
X22207893Y43538237D01*
X22749730Y43537764D01*
X23250503Y43744679D01*
X23633974Y44127482D01*
X23750029Y44406972D01*
X23864679Y44129497D01*
X24247482Y43746026D01*
X24747893Y43538237D01*
X25289730Y43537764D01*
X25790503Y43744679D01*
X26173974Y44127482D01*
X26290029Y44406972D01*
X26404679Y44129497D01*
X26787482Y43746026D01*
X27287893Y43538237D01*
X27829730Y43537764D01*
X27884580Y43560427D01*
X27884425Y43383393D01*
X28037318Y43013365D01*
X28320176Y42730013D01*
X28689936Y42576475D01*
X29090307Y42576125D01*
X29460335Y42729018D01*
X29743687Y43011876D01*
X29897225Y43381636D01*
X29897362Y43538176D01*
X30369730Y43537764D01*
X30870503Y43744679D01*
X31253974Y44127482D01*
X31370029Y44406972D01*
X31484679Y44129497D01*
X31867482Y43746026D01*
X32367893Y43538237D01*
X32909730Y43537764D01*
X33410503Y43744679D01*
X33793974Y44127482D01*
X33910029Y44406972D01*
X34024679Y44129497D01*
X34407482Y43746026D01*
X34749964Y43603815D01*
X34689775Y43458864D01*
X34689425Y43058493D01*
X34842318Y42688465D01*
X35125176Y42405113D01*
X35131361Y42402545D01*
X34933965Y42320982D01*
X34650613Y42038124D01*
X34497075Y41668364D01*
X34496725Y41267993D01*
X34649618Y40897965D01*
X34932476Y40614613D01*
X35302236Y40461075D01*
X35702607Y40460725D01*
X36072635Y40613618D01*
X36355987Y40896476D01*
X36509525Y41266236D01*
X36509875Y41666607D01*
X36356982Y42036635D01*
X36074124Y42319987D01*
X36067939Y42322555D01*
X36265335Y42404118D01*
X36548687Y42686976D01*
X36702225Y43056736D01*
X36702575Y43457107D01*
X36549682Y43827135D01*
X36291843Y44085424D01*
X36333974Y44127482D01*
X36450029Y44406972D01*
X36564679Y44129497D01*
X36947482Y43746026D01*
X37447893Y43538237D01*
X37989730Y43537764D01*
X38490503Y43744679D01*
X38873974Y44127482D01*
X38990029Y44406972D01*
X39104679Y44129497D01*
X39487482Y43746026D01*
X39987893Y43538237D01*
X40529730Y43537764D01*
X41030503Y43744679D01*
X41413974Y44127482D01*
X41530029Y44406972D01*
X41644679Y44129497D01*
X42027482Y43746026D01*
X42527893Y43538237D01*
X43069730Y43537764D01*
X43570503Y43744679D01*
X43953974Y44127482D01*
X44070029Y44406972D01*
X44184679Y44129497D01*
X44567482Y43746026D01*
X45067893Y43538237D01*
X45609730Y43537764D01*
X46110503Y43744679D01*
X46493974Y44127482D01*
X46701763Y44627893D01*
X46702236Y45169730D01*
X46495321Y45670503D01*
X46112518Y46053974D01*
X45833028Y46170029D01*
X46110503Y46284679D01*
X46493974Y46667482D01*
X46701763Y47167893D01*
X46702236Y47709730D01*
X46495321Y48210503D01*
X46112518Y48593974D01*
X45612107Y48801763D01*
X45070270Y48802236D01*
X44569497Y48595321D01*
X44186026Y48212518D01*
X44069971Y47933028D01*
X43955321Y48210503D01*
X43572518Y48593974D01*
X43072107Y48801763D01*
X42530270Y48802236D01*
X42029497Y48595321D01*
X41646026Y48212518D01*
X41529971Y47933028D01*
X41415321Y48210503D01*
X41032518Y48593974D01*
X40532107Y48801763D01*
X39990270Y48802236D01*
X39489497Y48595321D01*
X39106026Y48212518D01*
X38989971Y47933028D01*
X38875321Y48210503D01*
X38492518Y48593974D01*
X37992107Y48801763D01*
X37450270Y48802236D01*
X36949497Y48595321D01*
X36566026Y48212518D01*
X36449971Y47933028D01*
X36335321Y48210503D01*
X35952518Y48593974D01*
X35452107Y48801763D01*
X34910270Y48802236D01*
X34409497Y48595321D01*
X34026026Y48212518D01*
X33909971Y47933028D01*
X33795321Y48210503D01*
X33412518Y48593974D01*
X32912107Y48801763D01*
X32370270Y48802236D01*
X31869497Y48595321D01*
X31486026Y48212518D01*
X31369971Y47933028D01*
X31255321Y48210503D01*
X30872518Y48593974D01*
X30372107Y48801763D01*
X29830270Y48802236D01*
X29329497Y48595321D01*
X28946026Y48212518D01*
X28829971Y47933028D01*
X28715321Y48210503D01*
X28332518Y48593974D01*
X27832107Y48801763D01*
X27290270Y48802236D01*
X26789497Y48595321D01*
X26406026Y48212518D01*
X26289971Y47933028D01*
X26175321Y48210503D01*
X25792518Y48593974D01*
X25292107Y48801763D01*
X24750270Y48802236D01*
X24249497Y48595321D01*
X23866026Y48212518D01*
X23749971Y47933028D01*
X23635321Y48210503D01*
X23252518Y48593974D01*
X22752107Y48801763D01*
X22210270Y48802236D01*
X21709497Y48595321D01*
X21326026Y48212518D01*
X21209971Y47933028D01*
X21095321Y48210503D01*
X20712518Y48593974D01*
X20212107Y48801763D01*
X19670270Y48802236D01*
X19169497Y48595321D01*
X18786026Y48212518D01*
X18669971Y47933028D01*
X18555321Y48210503D01*
X18172518Y48593974D01*
X17672107Y48801763D01*
X17130270Y48802236D01*
X16629497Y48595321D01*
X16246026Y48212518D01*
X16129971Y47933028D01*
X16015321Y48210503D01*
X15632518Y48593974D01*
X15132107Y48801763D01*
X14590270Y48802236D01*
X14089497Y48595321D01*
X13706026Y48212518D01*
X13589971Y47933028D01*
X13475321Y48210503D01*
X13092518Y48593974D01*
X12592107Y48801763D01*
X12050270Y48802236D01*
X11549497Y48595321D01*
X11166026Y48212518D01*
X11049971Y47933028D01*
X10935321Y48210503D01*
X10552518Y48593974D01*
X10052107Y48801763D01*
X9510270Y48802236D01*
X9009497Y48595321D01*
X8626026Y48212518D01*
X8509971Y47933028D01*
X8395321Y48210503D01*
X8012518Y48593974D01*
X7512107Y48801763D01*
X6970270Y48802236D01*
X6469497Y48595321D01*
X6086026Y48212518D01*
X5969971Y47933028D01*
X5855321Y48210503D01*
X5472518Y48593974D01*
X4972107Y48801763D01*
X4430270Y48802236D01*
X3929497Y48595321D01*
X3546026Y48212518D01*
X3338237Y47712107D01*
X3337764Y47170270D01*
X3544679Y46669497D01*
X3927482Y46286026D01*
X3957036Y46273754D01*
X3938000Y46273754D01*
X3715654Y46231917D01*
X3511442Y46100510D01*
X3374444Y45900007D01*
X3326246Y45662000D01*
X675000Y45662000D01*
X675000Y49325000D01*
X49325000Y49325000D01*
X49325000Y41134416D01*
M02*
