G04 #@! TF.FileFunction,Soldermask,Top*
%FSLAX46Y46*%
G04 Gerber Fmt 4.6, Leading zero omitted, Abs format (unit mm)*
G04 Created by KiCad (PCBNEW 4.0.7) date 01/23/18 17:02:15*
%MOMM*%
%LPD*%
G01*
G04 APERTURE LIST*
%ADD10C,0.100000*%
%ADD11R,1.400000X1.100000*%
%ADD12C,1.924000*%
%ADD13C,2.000000*%
%ADD14C,4.000000*%
%ADD15C,2.400000*%
%ADD16R,2.400000X0.900000*%
%ADD17C,1.300000*%
%ADD18C,1.900000*%
%ADD19R,1.924000X1.924000*%
%ADD20R,1.300000X1.000000*%
%ADD21R,1.400000X1.400000*%
%ADD22R,1.900000X3.600000*%
%ADD23R,2.000000X2.000000*%
%ADD24C,2.940000*%
%ADD25R,1.000000X1.300000*%
G04 APERTURE END LIST*
D10*
G36*
X7556497Y21424264D02*
X8475736Y22343503D01*
X9182843Y21636396D01*
X8263604Y20717157D01*
X7556497Y21424264D01*
X7556497Y21424264D01*
G37*
G36*
X8617157Y20363604D02*
X9536396Y21282843D01*
X10243503Y20575736D01*
X9324264Y19656497D01*
X8617157Y20363604D01*
X8617157Y20363604D01*
G37*
G36*
X12243503Y18575736D02*
X11324264Y17656497D01*
X10617157Y18363604D01*
X11536396Y19282843D01*
X12243503Y18575736D01*
X12243503Y18575736D01*
G37*
G36*
X11182843Y19636396D02*
X10263604Y18717157D01*
X9556497Y19424264D01*
X10475736Y20343503D01*
X11182843Y19636396D01*
X11182843Y19636396D01*
G37*
D11*
X36600000Y37050000D03*
X36600000Y36100000D03*
X36600000Y35150000D03*
X39000000Y35150000D03*
X39000000Y36100000D03*
X39000000Y37050000D03*
X13300000Y35650000D03*
X13300000Y36600000D03*
X13300000Y37550000D03*
X10900000Y37550000D03*
X10900000Y36600000D03*
X10900000Y35650000D03*
D12*
X37700000Y12900000D03*
D13*
X35160000Y14170000D03*
X37700000Y15440000D03*
X35160000Y16710000D03*
X37700000Y17980000D03*
X35160000Y19250000D03*
X37700000Y20520000D03*
X35160000Y21790000D03*
X48110000Y10720000D03*
X48110000Y13260000D03*
X48110000Y21430000D03*
X48110000Y23970000D03*
D14*
X44050000Y11630000D03*
X44050000Y23060000D03*
D15*
X41000000Y9600000D03*
X41000000Y25090000D03*
D16*
X42950000Y36400000D03*
X42950000Y37200000D03*
X42950000Y38000000D03*
X42950000Y34800000D03*
X42950000Y35600000D03*
D17*
X45200000Y34650000D03*
X45200000Y38150000D03*
D18*
X43200000Y32750000D03*
X43200000Y40050000D03*
X48500000Y32750000D03*
X48500000Y40050000D03*
D16*
X6950000Y36400000D03*
X6950000Y35600000D03*
X6950000Y34800000D03*
X6950000Y38000000D03*
X6950000Y37200000D03*
D17*
X4700000Y38150000D03*
X4700000Y34650000D03*
D18*
X6700000Y40050000D03*
X6700000Y32750000D03*
X1400000Y40050000D03*
X1400000Y32750000D03*
D10*
G36*
X10655619Y25381282D02*
X9312116Y24037779D01*
X8852497Y24497398D01*
X10196000Y25840901D01*
X10655619Y25381282D01*
X10655619Y25381282D01*
G37*
G36*
X11009173Y25027728D02*
X9665670Y23684225D01*
X9206051Y24143844D01*
X10549554Y25487347D01*
X11009173Y25027728D01*
X11009173Y25027728D01*
G37*
G36*
X11362726Y24674175D02*
X10019223Y23330672D01*
X9559604Y23790291D01*
X10903107Y25133794D01*
X11362726Y24674175D01*
X11362726Y24674175D01*
G37*
G36*
X11716280Y24320622D02*
X10372777Y22977119D01*
X9913158Y23436738D01*
X11256661Y24780241D01*
X11716280Y24320622D01*
X11716280Y24320622D01*
G37*
G36*
X12069833Y23967068D02*
X10726330Y22623565D01*
X10266711Y23083184D01*
X11610214Y24426687D01*
X12069833Y23967068D01*
X12069833Y23967068D01*
G37*
G36*
X12423386Y23613515D02*
X11079883Y22270012D01*
X10620264Y22729631D01*
X11963767Y24073134D01*
X12423386Y23613515D01*
X12423386Y23613515D01*
G37*
G36*
X12776940Y23259961D02*
X11433437Y21916458D01*
X10973818Y22376077D01*
X12317321Y23719580D01*
X12776940Y23259961D01*
X12776940Y23259961D01*
G37*
G36*
X13130493Y22906408D02*
X11786990Y21562905D01*
X11327371Y22022524D01*
X12670874Y23366027D01*
X13130493Y22906408D01*
X13130493Y22906408D01*
G37*
G36*
X13484047Y22552855D02*
X12140544Y21209352D01*
X11680925Y21668971D01*
X13024428Y23012474D01*
X13484047Y22552855D01*
X13484047Y22552855D01*
G37*
G36*
X13837600Y22199301D02*
X12494097Y20855798D01*
X12034478Y21315417D01*
X13377981Y22658920D01*
X13837600Y22199301D01*
X13837600Y22199301D01*
G37*
G36*
X14191153Y21845748D02*
X12847650Y20502245D01*
X12388031Y20961864D01*
X13731534Y22305367D01*
X14191153Y21845748D01*
X14191153Y21845748D01*
G37*
G36*
X14544707Y21492195D02*
X13201204Y20148692D01*
X12741585Y20608311D01*
X14085088Y21951814D01*
X14544707Y21492195D01*
X14544707Y21492195D01*
G37*
G36*
X14898260Y21138641D02*
X13554757Y19795138D01*
X13095138Y20254757D01*
X14438641Y21598260D01*
X14898260Y21138641D01*
X14898260Y21138641D01*
G37*
G36*
X15251814Y20785088D02*
X13908311Y19441585D01*
X13448692Y19901204D01*
X14792195Y21244707D01*
X15251814Y20785088D01*
X15251814Y20785088D01*
G37*
G36*
X15605367Y20431534D02*
X14261864Y19088031D01*
X13802245Y19547650D01*
X15145748Y20891153D01*
X15605367Y20431534D01*
X15605367Y20431534D01*
G37*
G36*
X15958920Y20077981D02*
X14615417Y18734478D01*
X14155798Y19194097D01*
X15499301Y20537600D01*
X15958920Y20077981D01*
X15958920Y20077981D01*
G37*
G36*
X16312474Y19724428D02*
X14968971Y18380925D01*
X14509352Y18840544D01*
X15852855Y20184047D01*
X16312474Y19724428D01*
X16312474Y19724428D01*
G37*
G36*
X16666027Y19370874D02*
X15322524Y18027371D01*
X14862905Y18486990D01*
X16206408Y19830493D01*
X16666027Y19370874D01*
X16666027Y19370874D01*
G37*
G36*
X17019580Y19017321D02*
X15676077Y17673818D01*
X15216458Y18133437D01*
X16559961Y19476940D01*
X17019580Y19017321D01*
X17019580Y19017321D01*
G37*
G36*
X17373134Y18663767D02*
X16029631Y17320264D01*
X15570012Y17779883D01*
X16913515Y19123386D01*
X17373134Y18663767D01*
X17373134Y18663767D01*
G37*
G36*
X17726687Y18310214D02*
X16383184Y16966711D01*
X15923565Y17426330D01*
X17267068Y18769833D01*
X17726687Y18310214D01*
X17726687Y18310214D01*
G37*
G36*
X18080241Y17956661D02*
X16736738Y16613158D01*
X16277119Y17072777D01*
X17620622Y18416280D01*
X18080241Y17956661D01*
X18080241Y17956661D01*
G37*
G36*
X18433794Y17603107D02*
X17090291Y16259604D01*
X16630672Y16719223D01*
X17974175Y18062726D01*
X18433794Y17603107D01*
X18433794Y17603107D01*
G37*
G36*
X18787347Y17249554D02*
X17443844Y15906051D01*
X16984225Y16365670D01*
X18327728Y17709173D01*
X18787347Y17249554D01*
X18787347Y17249554D01*
G37*
G36*
X19140901Y16896000D02*
X17797398Y15552497D01*
X17337779Y16012116D01*
X18681282Y17355619D01*
X19140901Y16896000D01*
X19140901Y16896000D01*
G37*
G36*
X20802602Y15552497D02*
X19459099Y16896000D01*
X19918718Y17355619D01*
X21262221Y16012116D01*
X20802602Y15552497D01*
X20802602Y15552497D01*
G37*
G36*
X21156156Y15906051D02*
X19812653Y17249554D01*
X20272272Y17709173D01*
X21615775Y16365670D01*
X21156156Y15906051D01*
X21156156Y15906051D01*
G37*
G36*
X21509709Y16259604D02*
X20166206Y17603107D01*
X20625825Y18062726D01*
X21969328Y16719223D01*
X21509709Y16259604D01*
X21509709Y16259604D01*
G37*
G36*
X21863262Y16613158D02*
X20519759Y17956661D01*
X20979378Y18416280D01*
X22322881Y17072777D01*
X21863262Y16613158D01*
X21863262Y16613158D01*
G37*
G36*
X22216816Y16966711D02*
X20873313Y18310214D01*
X21332932Y18769833D01*
X22676435Y17426330D01*
X22216816Y16966711D01*
X22216816Y16966711D01*
G37*
G36*
X22570369Y17320264D02*
X21226866Y18663767D01*
X21686485Y19123386D01*
X23029988Y17779883D01*
X22570369Y17320264D01*
X22570369Y17320264D01*
G37*
G36*
X22923923Y17673818D02*
X21580420Y19017321D01*
X22040039Y19476940D01*
X23383542Y18133437D01*
X22923923Y17673818D01*
X22923923Y17673818D01*
G37*
G36*
X23277476Y18027371D02*
X21933973Y19370874D01*
X22393592Y19830493D01*
X23737095Y18486990D01*
X23277476Y18027371D01*
X23277476Y18027371D01*
G37*
G36*
X23631029Y18380925D02*
X22287526Y19724428D01*
X22747145Y20184047D01*
X24090648Y18840544D01*
X23631029Y18380925D01*
X23631029Y18380925D01*
G37*
G36*
X23984583Y18734478D02*
X22641080Y20077981D01*
X23100699Y20537600D01*
X24444202Y19194097D01*
X23984583Y18734478D01*
X23984583Y18734478D01*
G37*
G36*
X24338136Y19088031D02*
X22994633Y20431534D01*
X23454252Y20891153D01*
X24797755Y19547650D01*
X24338136Y19088031D01*
X24338136Y19088031D01*
G37*
G36*
X24691689Y19441585D02*
X23348186Y20785088D01*
X23807805Y21244707D01*
X25151308Y19901204D01*
X24691689Y19441585D01*
X24691689Y19441585D01*
G37*
G36*
X25045243Y19795138D02*
X23701740Y21138641D01*
X24161359Y21598260D01*
X25504862Y20254757D01*
X25045243Y19795138D01*
X25045243Y19795138D01*
G37*
G36*
X25398796Y20148692D02*
X24055293Y21492195D01*
X24514912Y21951814D01*
X25858415Y20608311D01*
X25398796Y20148692D01*
X25398796Y20148692D01*
G37*
G36*
X25752350Y20502245D02*
X24408847Y21845748D01*
X24868466Y22305367D01*
X26211969Y20961864D01*
X25752350Y20502245D01*
X25752350Y20502245D01*
G37*
G36*
X26105903Y20855798D02*
X24762400Y22199301D01*
X25222019Y22658920D01*
X26565522Y21315417D01*
X26105903Y20855798D01*
X26105903Y20855798D01*
G37*
G36*
X26459456Y21209352D02*
X25115953Y22552855D01*
X25575572Y23012474D01*
X26919075Y21668971D01*
X26459456Y21209352D01*
X26459456Y21209352D01*
G37*
G36*
X26813010Y21562905D02*
X25469507Y22906408D01*
X25929126Y23366027D01*
X27272629Y22022524D01*
X26813010Y21562905D01*
X26813010Y21562905D01*
G37*
G36*
X27166563Y21916458D02*
X25823060Y23259961D01*
X26282679Y23719580D01*
X27626182Y22376077D01*
X27166563Y21916458D01*
X27166563Y21916458D01*
G37*
G36*
X27520117Y22270012D02*
X26176614Y23613515D01*
X26636233Y24073134D01*
X27979736Y22729631D01*
X27520117Y22270012D01*
X27520117Y22270012D01*
G37*
G36*
X27873670Y22623565D02*
X26530167Y23967068D01*
X26989786Y24426687D01*
X28333289Y23083184D01*
X27873670Y22623565D01*
X27873670Y22623565D01*
G37*
G36*
X28227223Y22977119D02*
X26883720Y24320622D01*
X27343339Y24780241D01*
X28686842Y23436738D01*
X28227223Y22977119D01*
X28227223Y22977119D01*
G37*
G36*
X28580777Y23330672D02*
X27237274Y24674175D01*
X27696893Y25133794D01*
X29040396Y23790291D01*
X28580777Y23330672D01*
X28580777Y23330672D01*
G37*
G36*
X28934330Y23684225D02*
X27590827Y25027728D01*
X28050446Y25487347D01*
X29393949Y24143844D01*
X28934330Y23684225D01*
X28934330Y23684225D01*
G37*
G36*
X29287884Y24037779D02*
X27944381Y25381282D01*
X28404000Y25840901D01*
X29747503Y24497398D01*
X29287884Y24037779D01*
X29287884Y24037779D01*
G37*
G36*
X29747503Y27502602D02*
X28404000Y26159099D01*
X27944381Y26618718D01*
X29287884Y27962221D01*
X29747503Y27502602D01*
X29747503Y27502602D01*
G37*
G36*
X29393949Y27856156D02*
X28050446Y26512653D01*
X27590827Y26972272D01*
X28934330Y28315775D01*
X29393949Y27856156D01*
X29393949Y27856156D01*
G37*
G36*
X29040396Y28209709D02*
X27696893Y26866206D01*
X27237274Y27325825D01*
X28580777Y28669328D01*
X29040396Y28209709D01*
X29040396Y28209709D01*
G37*
G36*
X28686842Y28563262D02*
X27343339Y27219759D01*
X26883720Y27679378D01*
X28227223Y29022881D01*
X28686842Y28563262D01*
X28686842Y28563262D01*
G37*
G36*
X28333289Y28916816D02*
X26989786Y27573313D01*
X26530167Y28032932D01*
X27873670Y29376435D01*
X28333289Y28916816D01*
X28333289Y28916816D01*
G37*
G36*
X27979736Y29270369D02*
X26636233Y27926866D01*
X26176614Y28386485D01*
X27520117Y29729988D01*
X27979736Y29270369D01*
X27979736Y29270369D01*
G37*
G36*
X27626182Y29623923D02*
X26282679Y28280420D01*
X25823060Y28740039D01*
X27166563Y30083542D01*
X27626182Y29623923D01*
X27626182Y29623923D01*
G37*
G36*
X27272629Y29977476D02*
X25929126Y28633973D01*
X25469507Y29093592D01*
X26813010Y30437095D01*
X27272629Y29977476D01*
X27272629Y29977476D01*
G37*
G36*
X26919075Y30331029D02*
X25575572Y28987526D01*
X25115953Y29447145D01*
X26459456Y30790648D01*
X26919075Y30331029D01*
X26919075Y30331029D01*
G37*
G36*
X26565522Y30684583D02*
X25222019Y29341080D01*
X24762400Y29800699D01*
X26105903Y31144202D01*
X26565522Y30684583D01*
X26565522Y30684583D01*
G37*
G36*
X26211969Y31038136D02*
X24868466Y29694633D01*
X24408847Y30154252D01*
X25752350Y31497755D01*
X26211969Y31038136D01*
X26211969Y31038136D01*
G37*
G36*
X25858415Y31391689D02*
X24514912Y30048186D01*
X24055293Y30507805D01*
X25398796Y31851308D01*
X25858415Y31391689D01*
X25858415Y31391689D01*
G37*
G36*
X25504862Y31745243D02*
X24161359Y30401740D01*
X23701740Y30861359D01*
X25045243Y32204862D01*
X25504862Y31745243D01*
X25504862Y31745243D01*
G37*
G36*
X25151308Y32098796D02*
X23807805Y30755293D01*
X23348186Y31214912D01*
X24691689Y32558415D01*
X25151308Y32098796D01*
X25151308Y32098796D01*
G37*
G36*
X24797755Y32452350D02*
X23454252Y31108847D01*
X22994633Y31568466D01*
X24338136Y32911969D01*
X24797755Y32452350D01*
X24797755Y32452350D01*
G37*
G36*
X24444202Y32805903D02*
X23100699Y31462400D01*
X22641080Y31922019D01*
X23984583Y33265522D01*
X24444202Y32805903D01*
X24444202Y32805903D01*
G37*
G36*
X24090648Y33159456D02*
X22747145Y31815953D01*
X22287526Y32275572D01*
X23631029Y33619075D01*
X24090648Y33159456D01*
X24090648Y33159456D01*
G37*
G36*
X23737095Y33513010D02*
X22393592Y32169507D01*
X21933973Y32629126D01*
X23277476Y33972629D01*
X23737095Y33513010D01*
X23737095Y33513010D01*
G37*
G36*
X23383542Y33866563D02*
X22040039Y32523060D01*
X21580420Y32982679D01*
X22923923Y34326182D01*
X23383542Y33866563D01*
X23383542Y33866563D01*
G37*
G36*
X23029988Y34220117D02*
X21686485Y32876614D01*
X21226866Y33336233D01*
X22570369Y34679736D01*
X23029988Y34220117D01*
X23029988Y34220117D01*
G37*
G36*
X22676435Y34573670D02*
X21332932Y33230167D01*
X20873313Y33689786D01*
X22216816Y35033289D01*
X22676435Y34573670D01*
X22676435Y34573670D01*
G37*
G36*
X22322881Y34927223D02*
X20979378Y33583720D01*
X20519759Y34043339D01*
X21863262Y35386842D01*
X22322881Y34927223D01*
X22322881Y34927223D01*
G37*
G36*
X21969328Y35280777D02*
X20625825Y33937274D01*
X20166206Y34396893D01*
X21509709Y35740396D01*
X21969328Y35280777D01*
X21969328Y35280777D01*
G37*
G36*
X21615775Y35634330D02*
X20272272Y34290827D01*
X19812653Y34750446D01*
X21156156Y36093949D01*
X21615775Y35634330D01*
X21615775Y35634330D01*
G37*
G36*
X21262221Y35987884D02*
X19918718Y34644381D01*
X19459099Y35104000D01*
X20802602Y36447503D01*
X21262221Y35987884D01*
X21262221Y35987884D01*
G37*
G36*
X18681282Y34644381D02*
X17337779Y35987884D01*
X17797398Y36447503D01*
X19140901Y35104000D01*
X18681282Y34644381D01*
X18681282Y34644381D01*
G37*
G36*
X18327728Y34290827D02*
X16984225Y35634330D01*
X17443844Y36093949D01*
X18787347Y34750446D01*
X18327728Y34290827D01*
X18327728Y34290827D01*
G37*
G36*
X17974175Y33937274D02*
X16630672Y35280777D01*
X17090291Y35740396D01*
X18433794Y34396893D01*
X17974175Y33937274D01*
X17974175Y33937274D01*
G37*
G36*
X17620622Y33583720D02*
X16277119Y34927223D01*
X16736738Y35386842D01*
X18080241Y34043339D01*
X17620622Y33583720D01*
X17620622Y33583720D01*
G37*
G36*
X17267068Y33230167D02*
X15923565Y34573670D01*
X16383184Y35033289D01*
X17726687Y33689786D01*
X17267068Y33230167D01*
X17267068Y33230167D01*
G37*
G36*
X16913515Y32876614D02*
X15570012Y34220117D01*
X16029631Y34679736D01*
X17373134Y33336233D01*
X16913515Y32876614D01*
X16913515Y32876614D01*
G37*
G36*
X16559961Y32523060D02*
X15216458Y33866563D01*
X15676077Y34326182D01*
X17019580Y32982679D01*
X16559961Y32523060D01*
X16559961Y32523060D01*
G37*
G36*
X16206408Y32169507D02*
X14862905Y33513010D01*
X15322524Y33972629D01*
X16666027Y32629126D01*
X16206408Y32169507D01*
X16206408Y32169507D01*
G37*
G36*
X15852855Y31815953D02*
X14509352Y33159456D01*
X14968971Y33619075D01*
X16312474Y32275572D01*
X15852855Y31815953D01*
X15852855Y31815953D01*
G37*
G36*
X15499301Y31462400D02*
X14155798Y32805903D01*
X14615417Y33265522D01*
X15958920Y31922019D01*
X15499301Y31462400D01*
X15499301Y31462400D01*
G37*
G36*
X15145748Y31108847D02*
X13802245Y32452350D01*
X14261864Y32911969D01*
X15605367Y31568466D01*
X15145748Y31108847D01*
X15145748Y31108847D01*
G37*
G36*
X14792195Y30755293D02*
X13448692Y32098796D01*
X13908311Y32558415D01*
X15251814Y31214912D01*
X14792195Y30755293D01*
X14792195Y30755293D01*
G37*
G36*
X14438641Y30401740D02*
X13095138Y31745243D01*
X13554757Y32204862D01*
X14898260Y30861359D01*
X14438641Y30401740D01*
X14438641Y30401740D01*
G37*
G36*
X14085088Y30048186D02*
X12741585Y31391689D01*
X13201204Y31851308D01*
X14544707Y30507805D01*
X14085088Y30048186D01*
X14085088Y30048186D01*
G37*
G36*
X13731534Y29694633D02*
X12388031Y31038136D01*
X12847650Y31497755D01*
X14191153Y30154252D01*
X13731534Y29694633D01*
X13731534Y29694633D01*
G37*
G36*
X13377981Y29341080D02*
X12034478Y30684583D01*
X12494097Y31144202D01*
X13837600Y29800699D01*
X13377981Y29341080D01*
X13377981Y29341080D01*
G37*
G36*
X13024428Y28987526D02*
X11680925Y30331029D01*
X12140544Y30790648D01*
X13484047Y29447145D01*
X13024428Y28987526D01*
X13024428Y28987526D01*
G37*
G36*
X12670874Y28633973D02*
X11327371Y29977476D01*
X11786990Y30437095D01*
X13130493Y29093592D01*
X12670874Y28633973D01*
X12670874Y28633973D01*
G37*
G36*
X12317321Y28280420D02*
X10973818Y29623923D01*
X11433437Y30083542D01*
X12776940Y28740039D01*
X12317321Y28280420D01*
X12317321Y28280420D01*
G37*
G36*
X11963767Y27926866D02*
X10620264Y29270369D01*
X11079883Y29729988D01*
X12423386Y28386485D01*
X11963767Y27926866D01*
X11963767Y27926866D01*
G37*
G36*
X11610214Y27573313D02*
X10266711Y28916816D01*
X10726330Y29376435D01*
X12069833Y28032932D01*
X11610214Y27573313D01*
X11610214Y27573313D01*
G37*
G36*
X11256661Y27219759D02*
X9913158Y28563262D01*
X10372777Y29022881D01*
X11716280Y27679378D01*
X11256661Y27219759D01*
X11256661Y27219759D01*
G37*
G36*
X10903107Y26866206D02*
X9559604Y28209709D01*
X10019223Y28669328D01*
X11362726Y27325825D01*
X10903107Y26866206D01*
X10903107Y26866206D01*
G37*
G36*
X10549554Y26512653D02*
X9206051Y27856156D01*
X9665670Y28315775D01*
X11009173Y26972272D01*
X10549554Y26512653D01*
X10549554Y26512653D01*
G37*
G36*
X10196000Y26159099D02*
X8852497Y27502602D01*
X9312116Y27962221D01*
X10655619Y26618718D01*
X10196000Y26159099D01*
X10196000Y26159099D01*
G37*
G36*
X27475807Y11508974D02*
X27023259Y11056426D01*
X26386863Y11692822D01*
X26839411Y12145370D01*
X27475807Y11508974D01*
X27475807Y11508974D01*
G37*
G36*
X27829361Y11862527D02*
X27376813Y11409979D01*
X26740417Y12046375D01*
X27192965Y12498923D01*
X27829361Y11862527D01*
X27829361Y11862527D01*
G37*
G36*
X28182914Y12216081D02*
X27730366Y11763533D01*
X27093970Y12399929D01*
X27546518Y12852477D01*
X28182914Y12216081D01*
X28182914Y12216081D01*
G37*
G36*
X28536467Y12569634D02*
X28083919Y12117086D01*
X27447523Y12753482D01*
X27900071Y13206030D01*
X28536467Y12569634D01*
X28536467Y12569634D01*
G37*
G36*
X28890021Y12923187D02*
X28437473Y12470639D01*
X27801077Y13107035D01*
X28253625Y13559583D01*
X28890021Y12923187D01*
X28890021Y12923187D01*
G37*
G36*
X29243574Y13276741D02*
X28791026Y12824193D01*
X28154630Y13460589D01*
X28607178Y13913137D01*
X29243574Y13276741D01*
X29243574Y13276741D01*
G37*
G36*
X28791026Y14775807D02*
X29243574Y14323259D01*
X28607178Y13686863D01*
X28154630Y14139411D01*
X28791026Y14775807D01*
X28791026Y14775807D01*
G37*
G36*
X28437473Y15129361D02*
X28890021Y14676813D01*
X28253625Y14040417D01*
X27801077Y14492965D01*
X28437473Y15129361D01*
X28437473Y15129361D01*
G37*
G36*
X28083919Y15482914D02*
X28536467Y15030366D01*
X27900071Y14393970D01*
X27447523Y14846518D01*
X28083919Y15482914D01*
X28083919Y15482914D01*
G37*
G36*
X27730366Y15836467D02*
X28182914Y15383919D01*
X27546518Y14747523D01*
X27093970Y15200071D01*
X27730366Y15836467D01*
X27730366Y15836467D01*
G37*
G36*
X27376813Y16190021D02*
X27829361Y15737473D01*
X27192965Y15101077D01*
X26740417Y15553625D01*
X27376813Y16190021D01*
X27376813Y16190021D01*
G37*
G36*
X27023259Y16543574D02*
X27475807Y16091026D01*
X26839411Y15454630D01*
X26386863Y15907178D01*
X27023259Y16543574D01*
X27023259Y16543574D01*
G37*
G36*
X26613137Y15907178D02*
X26160589Y15454630D01*
X25524193Y16091026D01*
X25976741Y16543574D01*
X26613137Y15907178D01*
X26613137Y15907178D01*
G37*
G36*
X26259583Y15553625D02*
X25807035Y15101077D01*
X25170639Y15737473D01*
X25623187Y16190021D01*
X26259583Y15553625D01*
X26259583Y15553625D01*
G37*
G36*
X25906030Y15200071D02*
X25453482Y14747523D01*
X24817086Y15383919D01*
X25269634Y15836467D01*
X25906030Y15200071D01*
X25906030Y15200071D01*
G37*
G36*
X25552477Y14846518D02*
X25099929Y14393970D01*
X24463533Y15030366D01*
X24916081Y15482914D01*
X25552477Y14846518D01*
X25552477Y14846518D01*
G37*
G36*
X25198923Y14492965D02*
X24746375Y14040417D01*
X24109979Y14676813D01*
X24562527Y15129361D01*
X25198923Y14492965D01*
X25198923Y14492965D01*
G37*
G36*
X24845370Y14139411D02*
X24392822Y13686863D01*
X23756426Y14323259D01*
X24208974Y14775807D01*
X24845370Y14139411D01*
X24845370Y14139411D01*
G37*
G36*
X24392822Y13913137D02*
X24845370Y13460589D01*
X24208974Y12824193D01*
X23756426Y13276741D01*
X24392822Y13913137D01*
X24392822Y13913137D01*
G37*
G36*
X24746375Y13559583D02*
X25198923Y13107035D01*
X24562527Y12470639D01*
X24109979Y12923187D01*
X24746375Y13559583D01*
X24746375Y13559583D01*
G37*
G36*
X25099929Y13206030D02*
X25552477Y12753482D01*
X24916081Y12117086D01*
X24463533Y12569634D01*
X25099929Y13206030D01*
X25099929Y13206030D01*
G37*
G36*
X25453482Y12852477D02*
X25906030Y12399929D01*
X25269634Y11763533D01*
X24817086Y12216081D01*
X25453482Y12852477D01*
X25453482Y12852477D01*
G37*
G36*
X25807035Y12498923D02*
X26259583Y12046375D01*
X25623187Y11409979D01*
X25170639Y11862527D01*
X25807035Y12498923D01*
X25807035Y12498923D01*
G37*
G36*
X26160589Y12145370D02*
X26613137Y11692822D01*
X25976741Y11056426D01*
X25524193Y11508974D01*
X26160589Y12145370D01*
X26160589Y12145370D01*
G37*
G36*
X26500000Y15921320D02*
X28621320Y13800000D01*
X26500000Y11678680D01*
X24378680Y13800000D01*
X26500000Y15921320D01*
X26500000Y15921320D01*
G37*
D11*
X30900000Y37150000D03*
X30900000Y36200000D03*
X30900000Y35250000D03*
X33300000Y35250000D03*
X33300000Y36200000D03*
X33300000Y37150000D03*
D10*
G36*
X5286862Y19267731D02*
X7132269Y21113138D01*
X8313138Y19932269D01*
X6467731Y18086862D01*
X5286862Y19267731D01*
X5286862Y19267731D01*
G37*
G36*
X8160544Y16394049D02*
X10005951Y18239456D01*
X11186820Y17058587D01*
X9341413Y15213180D01*
X8160544Y16394049D01*
X8160544Y16394049D01*
G37*
D12*
X4700000Y5040000D03*
D19*
X4700000Y2500000D03*
D12*
X7240000Y5040000D03*
X7240000Y2500000D03*
X9780000Y5040000D03*
X9780000Y2500000D03*
X12320000Y5040000D03*
X12320000Y2500000D03*
X14860000Y5040000D03*
X14860000Y2500000D03*
X17400000Y5040000D03*
X17400000Y2500000D03*
X19940000Y5040000D03*
X19940000Y2500000D03*
X22480000Y5040000D03*
X22480000Y2500000D03*
X25020000Y5040000D03*
X25020000Y2500000D03*
X27560000Y5040000D03*
X27560000Y2500000D03*
X30100000Y5040000D03*
X30100000Y2500000D03*
X32640000Y5040000D03*
X32640000Y2500000D03*
X35180000Y5040000D03*
X35180000Y2500000D03*
X37720000Y5040000D03*
X37720000Y2500000D03*
X40260000Y5040000D03*
X40260000Y2500000D03*
X42800000Y5040000D03*
X42800000Y2500000D03*
X45340000Y5040000D03*
X45340000Y2500000D03*
X4700000Y47440000D03*
D19*
X4700000Y44900000D03*
D12*
X7240000Y47440000D03*
X7240000Y44900000D03*
X9780000Y47440000D03*
X9780000Y44900000D03*
X12320000Y47440000D03*
X12320000Y44900000D03*
X14860000Y47440000D03*
X14860000Y44900000D03*
X17400000Y47440000D03*
X17400000Y44900000D03*
X19940000Y47440000D03*
X19940000Y44900000D03*
X22480000Y47440000D03*
X22480000Y44900000D03*
X25020000Y47440000D03*
X25020000Y44900000D03*
X27560000Y47440000D03*
X27560000Y44900000D03*
X30100000Y47440000D03*
X30100000Y44900000D03*
X32640000Y47440000D03*
X32640000Y44900000D03*
X35180000Y47440000D03*
X35180000Y44900000D03*
X37720000Y47440000D03*
X37720000Y44900000D03*
X40260000Y47440000D03*
X40260000Y44900000D03*
X42800000Y47440000D03*
X42800000Y44900000D03*
X45340000Y47440000D03*
X45340000Y44900000D03*
D10*
G36*
X12656497Y14224264D02*
X13575736Y15143503D01*
X14282843Y14436396D01*
X13363604Y13517157D01*
X12656497Y14224264D01*
X12656497Y14224264D01*
G37*
G36*
X13717157Y13163604D02*
X14636396Y14082843D01*
X15343503Y13375736D01*
X14424264Y12456497D01*
X13717157Y13163604D01*
X13717157Y13163604D01*
G37*
G36*
X13756497Y15324264D02*
X14675736Y16243503D01*
X15382843Y15536396D01*
X14463604Y14617157D01*
X13756497Y15324264D01*
X13756497Y15324264D01*
G37*
G36*
X14817157Y14263604D02*
X15736396Y15182843D01*
X16443503Y14475736D01*
X15524264Y13556497D01*
X14817157Y14263604D01*
X14817157Y14263604D01*
G37*
D20*
X3200000Y14650000D03*
X3200000Y13150000D03*
X1400000Y14650000D03*
X1400000Y13150000D03*
D21*
X36400000Y29300000D03*
X33400000Y29300000D03*
D22*
X38300000Y29300000D03*
X42500000Y29300000D03*
D10*
G36*
X14243503Y12275736D02*
X13324264Y11356497D01*
X12617157Y12063604D01*
X13536396Y12982843D01*
X14243503Y12275736D01*
X14243503Y12275736D01*
G37*
G36*
X13182843Y13336396D02*
X12263604Y12417157D01*
X11556497Y13124264D01*
X12475736Y14043503D01*
X13182843Y13336396D01*
X13182843Y13336396D01*
G37*
D12*
X18660000Y13250000D03*
D19*
X21200000Y13250000D03*
D12*
X48140000Y29300000D03*
D19*
X45600000Y29300000D03*
D10*
G36*
X30724264Y18493503D02*
X31643503Y17574264D01*
X30936396Y16867157D01*
X30017157Y17786396D01*
X30724264Y18493503D01*
X30724264Y18493503D01*
G37*
G36*
X29663604Y17432843D02*
X30582843Y16513604D01*
X29875736Y15806497D01*
X28956497Y16725736D01*
X29663604Y17432843D01*
X29663604Y17432843D01*
G37*
G36*
X9768629Y13652691D02*
X10758578Y12662742D01*
X9980761Y11884925D01*
X8990812Y12874874D01*
X9768629Y13652691D01*
X9768629Y13652691D01*
G37*
G36*
X9096878Y12980939D02*
X10086827Y11990990D01*
X9309010Y11213173D01*
X8319061Y12203122D01*
X9096878Y12980939D01*
X9096878Y12980939D01*
G37*
G36*
X8425126Y12309188D02*
X9415075Y11319239D01*
X8637258Y10541422D01*
X7647309Y11531371D01*
X8425126Y12309188D01*
X8425126Y12309188D01*
G37*
G36*
X10122183Y10612132D02*
X11112132Y9622183D01*
X10334315Y8844366D01*
X9344366Y9834315D01*
X10122183Y10612132D01*
X10122183Y10612132D01*
G37*
G36*
X10793934Y11283883D02*
X11783883Y10293934D01*
X11006066Y9516117D01*
X10016117Y10506066D01*
X10793934Y11283883D01*
X10793934Y11283883D01*
G37*
G36*
X11465685Y11955634D02*
X12455634Y10965685D01*
X11677817Y10187868D01*
X10687868Y11177817D01*
X11465685Y11955634D01*
X11465685Y11955634D01*
G37*
D13*
X23700000Y40850000D03*
X21160000Y40850000D03*
X18620000Y40850000D03*
X16080000Y40850000D03*
D23*
X5950000Y30550000D03*
X5950000Y22550000D03*
X1450000Y30550000D03*
X1450000Y22550000D03*
D24*
X1500000Y1500000D03*
X48500000Y48500000D03*
D25*
X37050000Y33400000D03*
X38550000Y33400000D03*
X12950000Y39200000D03*
X11450000Y39200000D03*
X12750000Y33900000D03*
X11250000Y33900000D03*
X38950000Y38700000D03*
X37450000Y38700000D03*
M02*
