G04 #@! TF.FileFunction,Legend,Bot*
%FSLAX46Y46*%
G04 Gerber Fmt 4.6, Leading zero omitted, Abs format (unit mm)*
G04 Created by KiCad (PCBNEW 4.0.7) date 01/23/18 17:02:15*
%MOMM*%
%LPD*%
G01*
G04 APERTURE LIST*
%ADD10C,0.100000*%
%ADD11C,0.200000*%
%ADD12C,0.381000*%
%ADD13C,0.127000*%
%ADD14C,0.150000*%
%ADD15C,0.250000*%
%ADD16C,0.097500*%
G04 APERTURE END LIST*
D10*
D11*
X16724264Y29143503D02*
X14956497Y27375736D01*
X14956497Y27375736D02*
X15875736Y26456497D01*
X15875736Y26456497D02*
X17643503Y28224264D01*
X17643503Y28224264D02*
X16724264Y29143503D01*
X20175736Y22156497D02*
X21943503Y23924264D01*
X21943503Y23924264D02*
X21024264Y24843503D01*
X21024264Y24843503D02*
X19256497Y23075736D01*
X19256497Y23075736D02*
X20175736Y22156497D01*
D12*
X19348528Y28131371D02*
G75*
G03X19348528Y28131371I-200000J0D01*
G01*
D13*
X18724264Y23040202D02*
X21128427Y25444365D01*
X21128427Y25444365D02*
X18300000Y28272792D01*
X18300000Y28272792D02*
X15825126Y25797918D01*
X15825126Y25797918D02*
X18653553Y22969491D01*
X18653553Y22969491D02*
X18794975Y23110913D01*
D11*
X39250000Y13550000D02*
X41750000Y13550000D01*
X41750000Y13550000D02*
X41750000Y14850000D01*
X41750000Y14850000D02*
X39250000Y14850000D01*
X39250000Y14850000D02*
X39250000Y13550000D01*
X24624264Y10743503D02*
X22856497Y8975736D01*
X22856497Y8975736D02*
X23775736Y8056497D01*
X23775736Y8056497D02*
X25543503Y9824264D01*
X25543503Y9824264D02*
X24624264Y10743503D01*
X23424264Y11943503D02*
X21656497Y10175736D01*
X21656497Y10175736D02*
X22575736Y9256497D01*
X22575736Y9256497D02*
X24343503Y11024264D01*
X24343503Y11024264D02*
X23424264Y11943503D01*
X39250000Y17300000D02*
X41750000Y17300000D01*
X41750000Y17300000D02*
X41750000Y18600000D01*
X41750000Y18600000D02*
X39250000Y18600000D01*
X39250000Y18600000D02*
X39250000Y17300000D01*
X28856497Y11174264D02*
X30624264Y9406497D01*
X30624264Y9406497D02*
X31543503Y10325736D01*
X31543503Y10325736D02*
X29775736Y12093503D01*
X29775736Y12093503D02*
X28856497Y11174264D01*
X27656497Y10024264D02*
X29424264Y8256497D01*
X29424264Y8256497D02*
X30343503Y9175736D01*
X30343503Y9175736D02*
X28575736Y10943503D01*
X28575736Y10943503D02*
X27656497Y10024264D01*
X14993503Y22825736D02*
X13225736Y24593503D01*
X13225736Y24593503D02*
X12306497Y23674264D01*
X12306497Y23674264D02*
X14074264Y21906497D01*
X14074264Y21906497D02*
X14993503Y22825736D01*
X19656497Y37024264D02*
X21424264Y35256497D01*
X21424264Y35256497D02*
X22343503Y36175736D01*
X22343503Y36175736D02*
X20575736Y37943503D01*
X20575736Y37943503D02*
X19656497Y37024264D01*
X7574264Y28193503D02*
X5806497Y26425736D01*
X5806497Y26425736D02*
X6725736Y25506497D01*
X6725736Y25506497D02*
X8493503Y27274264D01*
X8493503Y27274264D02*
X7574264Y28193503D01*
X24525736Y16306497D02*
X26293503Y18074264D01*
X26293503Y18074264D02*
X25374264Y18993503D01*
X25374264Y18993503D02*
X23606497Y17225736D01*
X23606497Y17225736D02*
X24525736Y16306497D01*
X16093503Y23925736D02*
X14325736Y25693503D01*
X14325736Y25693503D02*
X13406497Y24774264D01*
X13406497Y24774264D02*
X15174264Y23006497D01*
X15174264Y23006497D02*
X16093503Y23925736D01*
X20856497Y38224264D02*
X22624264Y36456497D01*
X22624264Y36456497D02*
X23543503Y37375736D01*
X23543503Y37375736D02*
X21775736Y39143503D01*
X21775736Y39143503D02*
X20856497Y38224264D01*
X8774264Y27043503D02*
X7006497Y25275736D01*
X7006497Y25275736D02*
X7925736Y24356497D01*
X7925736Y24356497D02*
X9693503Y26124264D01*
X9693503Y26124264D02*
X8774264Y27043503D01*
X23325736Y17456497D02*
X25093503Y19224264D01*
X25093503Y19224264D02*
X24174264Y20143503D01*
X24174264Y20143503D02*
X22406497Y18375736D01*
X22406497Y18375736D02*
X23325736Y17456497D01*
X26175736Y24056497D02*
X27943503Y25824264D01*
X27943503Y25824264D02*
X27024264Y26743503D01*
X27024264Y26743503D02*
X25256497Y24975736D01*
X25256497Y24975736D02*
X26175736Y24056497D01*
X21143503Y32775736D02*
X19375736Y34543503D01*
X19375736Y34543503D02*
X18456497Y33624264D01*
X18456497Y33624264D02*
X20224264Y31856497D01*
X20224264Y31856497D02*
X21143503Y32775736D01*
X32743503Y11475736D02*
X30975736Y13243503D01*
X30975736Y13243503D02*
X30056497Y12324264D01*
X30056497Y12324264D02*
X31824264Y10556497D01*
X31824264Y10556497D02*
X32743503Y11475736D01*
X46100000Y14950000D02*
X48600000Y14950000D01*
X48600000Y14950000D02*
X48600000Y16250000D01*
X48600000Y16250000D02*
X46100000Y16250000D01*
X46100000Y16250000D02*
X46100000Y14950000D01*
X46100000Y18550000D02*
X48600000Y18550000D01*
X48600000Y18550000D02*
X48600000Y19850000D01*
X48600000Y19850000D02*
X46100000Y19850000D01*
X46100000Y19850000D02*
X46100000Y18550000D01*
D14*
X2200000Y15600000D02*
X2200000Y17800000D01*
X16400000Y20600000D02*
X16400000Y22600000D01*
X16400000Y22600000D02*
X2600000Y22600000D01*
X800000Y20000000D02*
X800000Y19200000D01*
X800000Y19200000D02*
G75*
G02X2200000Y17800000I0J-1400000D01*
G01*
X800000Y21300000D02*
X800000Y20000000D01*
X2200000Y15600000D02*
X2200000Y10300000D01*
X16400000Y20600000D02*
X16400000Y17500000D01*
X16400000Y11800000D02*
X16400000Y15300000D01*
X3900000Y8600000D02*
X16400000Y8600000D01*
X16400000Y8600000D02*
X16400000Y9500000D01*
D11*
X3450000Y25600000D02*
X950000Y25600000D01*
X950000Y25600000D02*
X950000Y24300000D01*
X950000Y24300000D02*
X3450000Y24300000D01*
X3450000Y24300000D02*
X3450000Y25600000D01*
X12124264Y27593503D02*
X10356497Y25825736D01*
X10356497Y25825736D02*
X11275736Y24906497D01*
X11275736Y24906497D02*
X13043503Y26674264D01*
X13043503Y26674264D02*
X12124264Y27593503D01*
X13275736Y26856497D02*
X15043503Y28624264D01*
X15043503Y28624264D02*
X14124264Y29543503D01*
X14124264Y29543503D02*
X12356497Y27775736D01*
X12356497Y27775736D02*
X13275736Y26856497D01*
X24643503Y29375736D02*
X22875736Y31143503D01*
X22875736Y31143503D02*
X21956497Y30224264D01*
X21956497Y30224264D02*
X23724264Y28456497D01*
X23724264Y28456497D02*
X24643503Y29375736D01*
X24056497Y28124264D02*
X25824264Y26356497D01*
X25824264Y26356497D02*
X26743503Y27275736D01*
X26743503Y27275736D02*
X24975736Y29043503D01*
X24975736Y29043503D02*
X24056497Y28124264D01*
X950000Y25950000D02*
X3450000Y25950000D01*
X3450000Y25950000D02*
X3450000Y27250000D01*
X3450000Y27250000D02*
X950000Y27250000D01*
X950000Y27250000D02*
X950000Y25950000D01*
D15*
X40700000Y28600000D02*
X40700000Y30000000D01*
D16*
X15140754Y26412454D02*
X15184526Y26412454D01*
X15272073Y26456227D01*
X15315847Y26500000D01*
X15359619Y26587547D01*
X15359619Y26675094D01*
X15337733Y26740753D01*
X15272073Y26850186D01*
X15206413Y26915846D01*
X15096980Y26981506D01*
X15031320Y27003393D01*
X14943773Y27003393D01*
X14856227Y26959619D01*
X14812454Y26915846D01*
X14768680Y26828300D01*
X14768680Y26784527D01*
X14571701Y26675093D02*
X14287175Y26390567D01*
X14615474Y26368680D01*
X14549814Y26303020D01*
X14527927Y26237361D01*
X14527927Y26193587D01*
X14549814Y26127927D01*
X14659247Y26018494D01*
X14724907Y25996607D01*
X14768680Y25996608D01*
X14834340Y26018494D01*
X14965661Y26149814D01*
X14987546Y26215474D01*
X14987547Y26259247D01*
X19340754Y22112454D02*
X19384526Y22112454D01*
X19472073Y22156227D01*
X19515847Y22200000D01*
X19559619Y22287547D01*
X19559619Y22375094D01*
X19537733Y22440753D01*
X19472073Y22550186D01*
X19406413Y22615846D01*
X19296980Y22681506D01*
X19231320Y22703393D01*
X19143773Y22703393D01*
X19056227Y22659619D01*
X19012454Y22615846D01*
X18968680Y22528300D01*
X18968680Y22484527D01*
X18684154Y21981134D02*
X18990567Y21674721D01*
X18618494Y22265661D02*
X19056227Y22046793D01*
X18771701Y21762268D01*
D10*
X21519734Y26661105D02*
X20635850Y26484328D01*
X21166180Y27014658D02*
X20989404Y26130775D01*
X20938896Y27140928D02*
X20938896Y27191435D01*
X20913642Y27267196D01*
X20787373Y27393465D01*
X20711612Y27418719D01*
X20661104Y27418719D01*
X20585342Y27393466D01*
X20534835Y27342959D01*
X20484328Y27241943D01*
X20484327Y26635851D01*
X20156027Y26964151D01*
D16*
X40608334Y12667857D02*
X40639286Y12636905D01*
X40732143Y12605952D01*
X40794048Y12605952D01*
X40886905Y12636905D01*
X40948810Y12698810D01*
X40979762Y12760714D01*
X41010714Y12884524D01*
X41010714Y12977381D01*
X40979762Y13101190D01*
X40948810Y13163095D01*
X40886905Y13225000D01*
X40794048Y13255952D01*
X40732143Y13255952D01*
X40639286Y13225000D01*
X40608334Y13194048D01*
X40020238Y13255952D02*
X40329762Y13255952D01*
X40360714Y12946429D01*
X40329762Y12977381D01*
X40267857Y13008333D01*
X40113095Y13008333D01*
X40051191Y12977381D01*
X40020238Y12946429D01*
X39989286Y12884524D01*
X39989286Y12729762D01*
X40020238Y12667857D01*
X40051191Y12636905D01*
X40113095Y12605952D01*
X40267857Y12605952D01*
X40329762Y12636905D01*
X40360714Y12667857D01*
X25854968Y10726668D02*
X25898740Y10726668D01*
X25986287Y10770441D01*
X26030061Y10814214D01*
X26073833Y10901761D01*
X26073833Y10989308D01*
X26051947Y11054967D01*
X25986287Y11164400D01*
X25920627Y11230060D01*
X25811194Y11295720D01*
X25745534Y11317607D01*
X25657987Y11317607D01*
X25570441Y11273833D01*
X25526668Y11230060D01*
X25482894Y11142514D01*
X25482894Y11098741D01*
X25045162Y10748554D02*
X25132708Y10836100D01*
X25198368Y10857987D01*
X25242141Y10857987D01*
X25351575Y10836100D01*
X25461007Y10770441D01*
X25636100Y10595347D01*
X25657987Y10529688D01*
X25657987Y10485915D01*
X25636101Y10420254D01*
X25548554Y10332708D01*
X25482894Y10310822D01*
X25439121Y10310821D01*
X25373461Y10332708D01*
X25264028Y10442141D01*
X25242141Y10507801D01*
X25242141Y10551575D01*
X25264028Y10617234D01*
X25351575Y10704781D01*
X25417235Y10726668D01*
X25461007Y10726668D01*
X25526667Y10704781D01*
X24654968Y11926668D02*
X24698740Y11926668D01*
X24786287Y11970441D01*
X24830061Y12014214D01*
X24873833Y12101761D01*
X24873833Y12189308D01*
X24851947Y12254967D01*
X24786287Y12364400D01*
X24720627Y12430060D01*
X24611194Y12495720D01*
X24545534Y12517607D01*
X24457987Y12517607D01*
X24370441Y12473833D01*
X24326668Y12430060D01*
X24282894Y12342514D01*
X24282894Y12298741D01*
X24085915Y12189307D02*
X23779502Y11882894D01*
X24436101Y11620254D01*
X40608334Y16417857D02*
X40639286Y16386905D01*
X40732143Y16355952D01*
X40794048Y16355952D01*
X40886905Y16386905D01*
X40948810Y16448810D01*
X40979762Y16510714D01*
X41010714Y16634524D01*
X41010714Y16727381D01*
X40979762Y16851190D01*
X40948810Y16913095D01*
X40886905Y16975000D01*
X40794048Y17005952D01*
X40732143Y17005952D01*
X40639286Y16975000D01*
X40608334Y16944048D01*
X40236905Y16727381D02*
X40298810Y16758333D01*
X40329762Y16789286D01*
X40360714Y16851190D01*
X40360714Y16882143D01*
X40329762Y16944048D01*
X40298810Y16975000D01*
X40236905Y17005952D01*
X40113095Y17005952D01*
X40051191Y16975000D01*
X40020238Y16944048D01*
X39989286Y16882143D01*
X39989286Y16851190D01*
X40020238Y16789286D01*
X40051191Y16758333D01*
X40113095Y16727381D01*
X40236905Y16727381D01*
X40298810Y16696429D01*
X40329762Y16665476D01*
X40360714Y16603571D01*
X40360714Y16479762D01*
X40329762Y16417857D01*
X40298810Y16386905D01*
X40236905Y16355952D01*
X40113095Y16355952D01*
X40051191Y16386905D01*
X40020238Y16417857D01*
X39989286Y16479762D01*
X39989286Y16603571D01*
X40020238Y16665476D01*
X40051191Y16696429D01*
X40113095Y16727381D01*
X32131320Y8690380D02*
X32131320Y8646607D01*
X32175093Y8559060D01*
X32218867Y8515287D01*
X32306413Y8471514D01*
X32393960Y8471514D01*
X32459619Y8493400D01*
X32569053Y8559061D01*
X32634712Y8624721D01*
X32700372Y8734153D01*
X32722259Y8799813D01*
X32722259Y8887360D01*
X32678486Y8974906D01*
X32634712Y9018680D01*
X32547166Y9062453D01*
X32503394Y9062453D01*
X31649814Y9084339D02*
X31912453Y8821700D01*
X31781133Y8953020D02*
X32240753Y9412639D01*
X32218867Y9303206D01*
X32218867Y9215659D01*
X32240753Y9150000D01*
X31212081Y9522073D02*
X31474720Y9259433D01*
X31343400Y9390753D02*
X31803020Y9850372D01*
X31781133Y9740939D01*
X31781133Y9653392D01*
X31803020Y9587733D01*
X27931320Y8140380D02*
X27931320Y8096607D01*
X27975093Y8009060D01*
X28018867Y7965287D01*
X28106413Y7921514D01*
X28193960Y7921514D01*
X28259619Y7943400D01*
X28369053Y8009061D01*
X28434712Y8074721D01*
X28500372Y8184153D01*
X28522259Y8249813D01*
X28522259Y8337360D01*
X28478486Y8424906D01*
X28434712Y8468680D01*
X28347166Y8512453D01*
X28303394Y8512453D01*
X27449814Y8534339D02*
X27712453Y8271700D01*
X27581133Y8403020D02*
X28040753Y8862639D01*
X28018867Y8753206D01*
X28018867Y8665659D01*
X28040753Y8600000D01*
X27690567Y9125280D02*
X27690567Y9169053D01*
X27668680Y9234712D01*
X27559246Y9344146D01*
X27493587Y9366032D01*
X27449814Y9366033D01*
X27384154Y9344146D01*
X27340381Y9300372D01*
X27296607Y9212826D01*
X27296607Y8687546D01*
X27012081Y8972073D01*
X12781320Y21390380D02*
X12781320Y21346607D01*
X12825093Y21259060D01*
X12868867Y21215287D01*
X12956413Y21171514D01*
X13043960Y21171514D01*
X13109619Y21193400D01*
X13219053Y21259061D01*
X13284712Y21324721D01*
X13350372Y21434153D01*
X13372259Y21499813D01*
X13372259Y21587360D01*
X13328486Y21674906D01*
X13284712Y21718680D01*
X13197166Y21762453D01*
X13153394Y21762453D01*
X12299814Y21784339D02*
X12562453Y21521700D01*
X12431133Y21653020D02*
X12890753Y22112639D01*
X12868867Y22003206D01*
X12868867Y21915659D01*
X12890753Y21850000D01*
X12606227Y22397166D02*
X12321700Y22681692D01*
X12299814Y22353392D01*
X12234153Y22419053D01*
X12168494Y22440939D01*
X12124721Y22440940D01*
X12059061Y22419053D01*
X11949628Y22309619D01*
X11927741Y22243960D01*
X11927741Y22200186D01*
X11949627Y22134526D01*
X12080947Y22003206D01*
X12146607Y21981320D01*
X12190381Y21981320D01*
X22831320Y34340380D02*
X22831320Y34296607D01*
X22875093Y34209060D01*
X22918867Y34165287D01*
X23006413Y34121514D01*
X23093960Y34121514D01*
X23159619Y34143400D01*
X23269053Y34209061D01*
X23334712Y34274721D01*
X23400372Y34384153D01*
X23422259Y34449813D01*
X23422259Y34537360D01*
X23378486Y34624906D01*
X23334712Y34668680D01*
X23247166Y34712453D01*
X23203394Y34712453D01*
X22349814Y34734339D02*
X22612453Y34471700D01*
X22481133Y34603020D02*
X22940753Y35062639D01*
X22918867Y34953206D01*
X22918867Y34865659D01*
X22940753Y34800000D01*
X22262268Y35434712D02*
X21955854Y35128299D01*
X22546794Y35500372D02*
X22327927Y35062640D01*
X22043401Y35347166D01*
X6809620Y28031321D02*
X6853393Y28031321D01*
X6940940Y28075094D01*
X6984713Y28118868D01*
X7028486Y28206414D01*
X7028486Y28293961D01*
X7006600Y28359620D01*
X6940939Y28469054D01*
X6875279Y28534713D01*
X6765847Y28600373D01*
X6700187Y28622260D01*
X6612640Y28622260D01*
X6525094Y28578487D01*
X6481320Y28534713D01*
X6437547Y28447167D01*
X6437547Y28403395D01*
X6415661Y27549815D02*
X6678300Y27812454D01*
X6546980Y27681134D02*
X6087361Y28140754D01*
X6196794Y28118868D01*
X6284341Y28118868D01*
X6350000Y28140754D01*
X5540194Y27593588D02*
X5759061Y27812454D01*
X5999813Y27615475D01*
X5956040Y27615475D01*
X5890381Y27593588D01*
X5780947Y27484154D01*
X5759061Y27418495D01*
X5759060Y27374722D01*
X5780947Y27309062D01*
X5890381Y27199629D01*
X5956040Y27177742D01*
X5999814Y27177742D01*
X6065474Y27199628D01*
X6174907Y27309061D01*
X6196793Y27374722D01*
X6196793Y27418495D01*
X27209620Y19431320D02*
X27253393Y19431320D01*
X27340940Y19475093D01*
X27384713Y19518867D01*
X27428486Y19606413D01*
X27428486Y19693960D01*
X27406600Y19759619D01*
X27340939Y19869053D01*
X27275279Y19934712D01*
X27165847Y20000372D01*
X27100187Y20022259D01*
X27012640Y20022259D01*
X26925094Y19978486D01*
X26881320Y19934712D01*
X26837547Y19847166D01*
X26837547Y19803394D01*
X26815661Y18949814D02*
X27078300Y19212453D01*
X26946980Y19081133D02*
X26487361Y19540753D01*
X26596794Y19518867D01*
X26684341Y19518867D01*
X26750000Y19540753D01*
X26202834Y19256227D02*
X25896422Y18949814D01*
X26553021Y18687174D01*
X15881320Y24990380D02*
X15881320Y24946607D01*
X15925093Y24859060D01*
X15968867Y24815287D01*
X16056413Y24771514D01*
X16143960Y24771514D01*
X16209619Y24793400D01*
X16319053Y24859061D01*
X16384712Y24924721D01*
X16450372Y25034153D01*
X16472259Y25099813D01*
X16472259Y25187360D01*
X16428486Y25274906D01*
X16384712Y25318680D01*
X16297166Y25362453D01*
X16253394Y25362453D01*
X15399814Y25384339D02*
X15662453Y25121700D01*
X15531133Y25253020D02*
X15990753Y25712639D01*
X15968867Y25603206D01*
X15968867Y25515659D01*
X15990753Y25450000D01*
X15399814Y25909619D02*
X15465474Y25887732D01*
X15509247Y25887733D01*
X15574906Y25909619D01*
X15596793Y25931506D01*
X15618680Y25997166D01*
X15618680Y26040939D01*
X15596793Y26106599D01*
X15509246Y26194146D01*
X15443587Y26216032D01*
X15399814Y26216033D01*
X15334154Y26194146D01*
X15312267Y26172259D01*
X15290381Y26106600D01*
X15290381Y26062825D01*
X15312267Y25997166D01*
X15399814Y25909619D01*
X15421701Y25843960D01*
X15421700Y25800186D01*
X15399813Y25734526D01*
X15312267Y25646980D01*
X15246607Y25625093D01*
X15202834Y25625093D01*
X15137174Y25646979D01*
X15049627Y25734526D01*
X15027741Y25800186D01*
X15027741Y25843960D01*
X15049628Y25909619D01*
X15137174Y25997166D01*
X15202834Y26019053D01*
X15246608Y26019053D01*
X15312267Y25997166D01*
X24131320Y35440380D02*
X24131320Y35396607D01*
X24175093Y35309060D01*
X24218867Y35265287D01*
X24306413Y35221514D01*
X24393960Y35221514D01*
X24459619Y35243400D01*
X24569053Y35309061D01*
X24634712Y35374721D01*
X24700372Y35484153D01*
X24722259Y35549813D01*
X24722259Y35637360D01*
X24678486Y35724906D01*
X24634712Y35768680D01*
X24547166Y35812453D01*
X24503394Y35812453D01*
X23649814Y35834339D02*
X23912453Y35571700D01*
X23781133Y35703020D02*
X24240753Y36162639D01*
X24218867Y36053206D01*
X24218867Y35965659D01*
X24240753Y35900000D01*
X23430947Y36053206D02*
X23343400Y36140753D01*
X23321514Y36206413D01*
X23321514Y36250186D01*
X23343400Y36359619D01*
X23409061Y36469053D01*
X23584154Y36644146D01*
X23649814Y36666033D01*
X23693587Y36666032D01*
X23759246Y36644146D01*
X23846793Y36556599D01*
X23868680Y36490939D01*
X23868680Y36447166D01*
X23846793Y36381506D01*
X23737360Y36272073D01*
X23671700Y36250186D01*
X23627927Y36250186D01*
X23562267Y36272073D01*
X23474720Y36359619D01*
X23452834Y36425279D01*
X23452834Y36469053D01*
X23474721Y36534712D01*
X9759620Y24931319D02*
X9803393Y24931319D01*
X9890940Y24975092D01*
X9934713Y25018866D01*
X9978486Y25106412D01*
X9978486Y25193959D01*
X9956600Y25259618D01*
X9890939Y25369052D01*
X9825279Y25434711D01*
X9715847Y25500371D01*
X9650187Y25522258D01*
X9562640Y25522258D01*
X9475094Y25478485D01*
X9431320Y25434711D01*
X9387547Y25347165D01*
X9387547Y25303393D01*
X9212453Y25128299D02*
X9168680Y25128299D01*
X9103021Y25106412D01*
X8993587Y24996978D01*
X8971701Y24931319D01*
X8971700Y24887546D01*
X8993587Y24821886D01*
X9037361Y24778113D01*
X9124907Y24734339D01*
X9650187Y24734339D01*
X9365661Y24449813D01*
X8621515Y24624906D02*
X8577741Y24581132D01*
X8555854Y24515473D01*
X8555854Y24471700D01*
X8577741Y24406039D01*
X8643401Y24296606D01*
X8752834Y24187173D01*
X8862267Y24121513D01*
X8927927Y24099627D01*
X8971700Y24099627D01*
X9037361Y24121513D01*
X9081134Y24165287D01*
X9103020Y24230946D01*
X9103021Y24274720D01*
X9081133Y24340380D01*
X9015474Y24449812D01*
X8906040Y24559245D01*
X8796607Y24624906D01*
X8730947Y24646793D01*
X8687174Y24646792D01*
X8621515Y24624906D01*
X25909620Y20581320D02*
X25953393Y20581320D01*
X26040940Y20625093D01*
X26084713Y20668867D01*
X26128486Y20756413D01*
X26128486Y20843960D01*
X26106600Y20909619D01*
X26040939Y21019053D01*
X25975279Y21084712D01*
X25865847Y21150372D01*
X25800187Y21172259D01*
X25712640Y21172259D01*
X25625094Y21128486D01*
X25581320Y21084712D01*
X25537547Y20997166D01*
X25537547Y20953394D01*
X25362453Y20778300D02*
X25318680Y20778300D01*
X25253021Y20756413D01*
X25143587Y20646979D01*
X25121701Y20581320D01*
X25121700Y20537547D01*
X25143587Y20471887D01*
X25187361Y20428114D01*
X25274907Y20384340D01*
X25800187Y20384340D01*
X25515661Y20099814D01*
X24924720Y20340567D02*
X24880947Y20340567D01*
X24815288Y20318680D01*
X24705854Y20209246D01*
X24683968Y20143587D01*
X24683967Y20099814D01*
X24705854Y20034154D01*
X24749628Y19990381D01*
X24837174Y19946607D01*
X25362454Y19946607D01*
X25077927Y19662081D01*
X25259620Y23831320D02*
X25303393Y23831320D01*
X25390940Y23875093D01*
X25434713Y23918867D01*
X25478486Y24006413D01*
X25478486Y24093960D01*
X25456600Y24159619D01*
X25390939Y24269053D01*
X25325279Y24334712D01*
X25215847Y24400372D01*
X25150187Y24422259D01*
X25062640Y24422259D01*
X24975094Y24378486D01*
X24931320Y24334712D01*
X24887547Y24247166D01*
X24887547Y24203394D01*
X24712453Y24028300D02*
X24668680Y24028300D01*
X24603021Y24006413D01*
X24493587Y23896979D01*
X24471701Y23831320D01*
X24471700Y23787547D01*
X24493587Y23721887D01*
X24537361Y23678114D01*
X24624907Y23634340D01*
X25150187Y23634340D01*
X24865661Y23349814D01*
X24252834Y23656227D02*
X23968308Y23371700D01*
X24296608Y23349814D01*
X24230947Y23284153D01*
X24209061Y23218494D01*
X24209060Y23174721D01*
X24230947Y23109061D01*
X24340381Y22999628D01*
X24406040Y22977741D01*
X24449814Y22977741D01*
X24515474Y22999627D01*
X24646794Y23130947D01*
X24668680Y23196607D01*
X24668680Y23240381D01*
X18131320Y34540380D02*
X18131320Y34496607D01*
X18175093Y34409060D01*
X18218867Y34365287D01*
X18306413Y34321514D01*
X18393960Y34321514D01*
X18459619Y34343400D01*
X18569053Y34409061D01*
X18634712Y34474721D01*
X18700372Y34584153D01*
X18722259Y34649813D01*
X18722259Y34737360D01*
X18678486Y34824906D01*
X18634712Y34868680D01*
X18547166Y34912453D01*
X18503394Y34912453D01*
X18328300Y35087547D02*
X18328300Y35131320D01*
X18306413Y35196979D01*
X18196979Y35306413D01*
X18131320Y35328299D01*
X18087547Y35328300D01*
X18021887Y35306413D01*
X17978114Y35262639D01*
X17934340Y35175093D01*
X17934340Y34649813D01*
X17649814Y34934339D01*
X17562268Y35634712D02*
X17255854Y35328299D01*
X17846794Y35700372D02*
X17627927Y35262640D01*
X17343401Y35547166D01*
X32068680Y12815475D02*
X32287546Y12596608D01*
X32747166Y13056228D01*
X32353207Y13362641D02*
X32353207Y13406414D01*
X32331320Y13472074D01*
X32221886Y13581507D01*
X32156227Y13603393D01*
X32112454Y13603394D01*
X32046794Y13581507D01*
X32003021Y13537733D01*
X31959247Y13450187D01*
X31959247Y12924907D01*
X31674721Y13209434D01*
X45158334Y15305952D02*
X45375000Y15615476D01*
X45529762Y15305952D02*
X45529762Y15955952D01*
X45282143Y15955952D01*
X45220238Y15925000D01*
X45189286Y15894048D01*
X45158334Y15832143D01*
X45158334Y15739286D01*
X45189286Y15677381D01*
X45220238Y15646429D01*
X45282143Y15615476D01*
X45529762Y15615476D01*
X44910714Y15894048D02*
X44879762Y15925000D01*
X44817857Y15955952D01*
X44663095Y15955952D01*
X44601191Y15925000D01*
X44570238Y15894048D01*
X44539286Y15832143D01*
X44539286Y15770238D01*
X44570238Y15677381D01*
X44941667Y15305952D01*
X44539286Y15305952D01*
X45058334Y18905952D02*
X45275000Y19215476D01*
X45429762Y18905952D02*
X45429762Y19555952D01*
X45182143Y19555952D01*
X45120238Y19525000D01*
X45089286Y19494048D01*
X45058334Y19432143D01*
X45058334Y19339286D01*
X45089286Y19277381D01*
X45120238Y19246429D01*
X45182143Y19215476D01*
X45429762Y19215476D01*
X44841667Y19555952D02*
X44439286Y19555952D01*
X44655953Y19308333D01*
X44563095Y19308333D01*
X44501191Y19277381D01*
X44470238Y19246429D01*
X44439286Y19184524D01*
X44439286Y19029762D01*
X44470238Y18967857D01*
X44501191Y18936905D01*
X44563095Y18905952D01*
X44748810Y18905952D01*
X44810714Y18936905D01*
X44841667Y18967857D01*
D10*
X544048Y9416667D02*
X1008333Y9416667D01*
X1101190Y9447619D01*
X1163095Y9509524D01*
X1194048Y9602381D01*
X1194048Y9664286D01*
X605952Y9138095D02*
X575000Y9107143D01*
X544048Y9045238D01*
X544048Y8890476D01*
X575000Y8828572D01*
X605952Y8797619D01*
X667857Y8766667D01*
X729762Y8766667D01*
X822619Y8797619D01*
X1194048Y9169048D01*
X1194048Y8766667D01*
D16*
X5267858Y24667857D02*
X5298810Y24636905D01*
X5391667Y24605952D01*
X5453572Y24605952D01*
X5546429Y24636905D01*
X5608334Y24698810D01*
X5639286Y24760714D01*
X5670238Y24884524D01*
X5670238Y24977381D01*
X5639286Y25101190D01*
X5608334Y25163095D01*
X5546429Y25225000D01*
X5453572Y25255952D01*
X5391667Y25255952D01*
X5298810Y25225000D01*
X5267858Y25194048D01*
X5020238Y25194048D02*
X4989286Y25225000D01*
X4927381Y25255952D01*
X4772619Y25255952D01*
X4710715Y25225000D01*
X4679762Y25194048D01*
X4648810Y25132143D01*
X4648810Y25070238D01*
X4679762Y24977381D01*
X5051191Y24605952D01*
X4648810Y24605952D01*
X4060714Y25255952D02*
X4370238Y25255952D01*
X4401190Y24946429D01*
X4370238Y24977381D01*
X4308333Y25008333D01*
X4153571Y25008333D01*
X4091667Y24977381D01*
X4060714Y24946429D01*
X4029762Y24884524D01*
X4029762Y24729762D01*
X4060714Y24667857D01*
X4091667Y24636905D01*
X4153571Y24605952D01*
X4308333Y24605952D01*
X4370238Y24636905D01*
X4401190Y24667857D01*
X11184527Y27018681D02*
X11118867Y27390754D01*
X11447166Y27281321D02*
X10987547Y27740940D01*
X10812454Y27565847D01*
X10790567Y27500187D01*
X10790567Y27456414D01*
X10812454Y27390755D01*
X10878114Y27325095D01*
X10943773Y27303208D01*
X10987546Y27303208D01*
X11053207Y27325094D01*
X11228300Y27500187D01*
X10484154Y26931135D02*
X10790567Y26624722D01*
X10418494Y27215662D02*
X10856227Y26996794D01*
X10571701Y26712269D01*
X13084526Y29168680D02*
X13018866Y29540753D01*
X13347165Y29431320D02*
X12887546Y29890939D01*
X12712453Y29715846D01*
X12690566Y29650186D01*
X12690566Y29606413D01*
X12712453Y29540754D01*
X12778113Y29475094D01*
X12843772Y29453207D01*
X12887545Y29453207D01*
X12953206Y29475093D01*
X13128299Y29650186D01*
X12209060Y29212453D02*
X12427926Y29431320D01*
X12668679Y29234340D01*
X12624906Y29234340D01*
X12559246Y29212453D01*
X12449813Y29103020D01*
X12427926Y29037361D01*
X12427926Y28993587D01*
X12449813Y28927927D01*
X12559246Y28818494D01*
X12624906Y28796607D01*
X12668679Y28796608D01*
X12734339Y28818494D01*
X12843772Y28927927D01*
X12865659Y28993587D01*
X12865659Y29037360D01*
X24168680Y30465473D02*
X24540753Y30531133D01*
X24431320Y30202834D02*
X24890939Y30662453D01*
X24715846Y30837546D01*
X24650186Y30859433D01*
X24606413Y30859433D01*
X24540754Y30837546D01*
X24475094Y30771886D01*
X24453207Y30706227D01*
X24453207Y30662454D01*
X24475093Y30596793D01*
X24650186Y30421700D01*
X24234340Y31319052D02*
X24321886Y31231506D01*
X24343773Y31165846D01*
X24343773Y31122073D01*
X24321886Y31012639D01*
X24256227Y30903207D01*
X24081133Y30728114D01*
X24015474Y30706227D01*
X23971701Y30706227D01*
X23906040Y30728113D01*
X23818494Y30815660D01*
X23796608Y30881320D01*
X23796607Y30925093D01*
X23818494Y30990753D01*
X23927927Y31100186D01*
X23993587Y31122073D01*
X24037361Y31122073D01*
X24103020Y31100186D01*
X24190567Y31012639D01*
X24212454Y30946979D01*
X24212454Y30903207D01*
X24190567Y30837547D01*
X26118680Y28365473D02*
X26490753Y28431133D01*
X26381320Y28102834D02*
X26840939Y28562453D01*
X26665846Y28737546D01*
X26600186Y28759433D01*
X26556413Y28759433D01*
X26490754Y28737546D01*
X26425094Y28671886D01*
X26403207Y28606227D01*
X26403207Y28562454D01*
X26425093Y28496793D01*
X26600186Y28321700D01*
X26425093Y28978299D02*
X26118680Y29284712D01*
X25856040Y28628113D01*
X4608334Y26355952D02*
X4825000Y26665476D01*
X4979762Y26355952D02*
X4979762Y27005952D01*
X4732143Y27005952D01*
X4670238Y26975000D01*
X4639286Y26944048D01*
X4608334Y26882143D01*
X4608334Y26789286D01*
X4639286Y26727381D01*
X4670238Y26696429D01*
X4732143Y26665476D01*
X4979762Y26665476D01*
X4236905Y26727381D02*
X4298810Y26758333D01*
X4329762Y26789286D01*
X4360714Y26851190D01*
X4360714Y26882143D01*
X4329762Y26944048D01*
X4298810Y26975000D01*
X4236905Y27005952D01*
X4113095Y27005952D01*
X4051191Y26975000D01*
X4020238Y26944048D01*
X3989286Y26882143D01*
X3989286Y26851190D01*
X4020238Y26789286D01*
X4051191Y26758333D01*
X4113095Y26727381D01*
X4236905Y26727381D01*
X4298810Y26696429D01*
X4329762Y26665476D01*
X4360714Y26603571D01*
X4360714Y26479762D01*
X4329762Y26417857D01*
X4298810Y26386905D01*
X4236905Y26355952D01*
X4113095Y26355952D01*
X4051191Y26386905D01*
X4020238Y26417857D01*
X3989286Y26479762D01*
X3989286Y26603571D01*
X4020238Y26665476D01*
X4051191Y26696429D01*
X4113095Y26727381D01*
D10*
X40653572Y30560714D02*
X40653572Y31310714D01*
X40475000Y31310714D01*
X40367857Y31275000D01*
X40296429Y31203571D01*
X40260714Y31132143D01*
X40225000Y30989286D01*
X40225000Y30882143D01*
X40260714Y30739286D01*
X40296429Y30667857D01*
X40367857Y30596429D01*
X40475000Y30560714D01*
X40653572Y30560714D01*
X39582143Y31060714D02*
X39582143Y30560714D01*
X39760714Y31346429D02*
X39939286Y30810714D01*
X39475000Y30810714D01*
M02*
