G04 #@! TF.FileFunction,Soldermask,Bot*
%FSLAX46Y46*%
G04 Gerber Fmt 4.6, Leading zero omitted, Abs format (unit mm)*
G04 Created by KiCad (PCBNEW 4.0.7) date 01/23/18 17:02:15*
%MOMM*%
%LPD*%
G01*
G04 APERTURE LIST*
%ADD10C,0.100000*%
%ADD11C,1.924000*%
%ADD12C,2.000000*%
%ADD13C,4.000000*%
%ADD14C,2.400000*%
%ADD15C,1.300000*%
%ADD16C,1.900000*%
%ADD17R,1.924000X1.924000*%
%ADD18R,1.000000X1.300000*%
%ADD19R,2.300000X1.800000*%
%ADD20R,1.900000X1.200000*%
%ADD21R,1.500000X2.200000*%
%ADD22R,1.900000X1.900000*%
%ADD23C,2.940000*%
G04 APERTURE END LIST*
D10*
G36*
X16724264Y29143503D02*
X17643503Y28224264D01*
X16936396Y27517157D01*
X16017157Y28436396D01*
X16724264Y29143503D01*
X16724264Y29143503D01*
G37*
G36*
X15663604Y28082843D02*
X16582843Y27163604D01*
X15875736Y26456497D01*
X14956497Y27375736D01*
X15663604Y28082843D01*
X15663604Y28082843D01*
G37*
G36*
X20175736Y22156497D02*
X19256497Y23075736D01*
X19963604Y23782843D01*
X20882843Y22863604D01*
X20175736Y22156497D01*
X20175736Y22156497D01*
G37*
G36*
X21236396Y23217157D02*
X20317157Y24136396D01*
X21024264Y24843503D01*
X21943503Y23924264D01*
X21236396Y23217157D01*
X21236396Y23217157D01*
G37*
D11*
X37700000Y12900000D03*
D12*
X35160000Y14170000D03*
X37700000Y15440000D03*
X35160000Y16710000D03*
X37700000Y17980000D03*
X35160000Y19250000D03*
X37700000Y20520000D03*
X35160000Y21790000D03*
X48110000Y10720000D03*
X48110000Y13260000D03*
X48110000Y21430000D03*
X48110000Y23970000D03*
D13*
X44050000Y11630000D03*
X44050000Y23060000D03*
D14*
X41000000Y9600000D03*
X41000000Y25090000D03*
D15*
X45200000Y34650000D03*
X45200000Y38150000D03*
D16*
X43200000Y32750000D03*
X43200000Y40050000D03*
X48500000Y32750000D03*
X48500000Y40050000D03*
D15*
X4700000Y38150000D03*
X4700000Y34650000D03*
D16*
X6700000Y40050000D03*
X6700000Y32750000D03*
X1400000Y40050000D03*
X1400000Y32750000D03*
D10*
G36*
X17101171Y27071842D02*
X18228158Y28198829D01*
X19498829Y26928158D01*
X18371842Y25801171D01*
X17101171Y27071842D01*
X17101171Y27071842D01*
G37*
G36*
X18663736Y25509277D02*
X19790723Y26636264D01*
X21061394Y25365593D01*
X19934407Y24238606D01*
X18663736Y25509277D01*
X18663736Y25509277D01*
G37*
G36*
X17460381Y24305923D02*
X18587368Y25432910D01*
X19858039Y24162239D01*
X18731052Y23035252D01*
X17460381Y24305923D01*
X17460381Y24305923D01*
G37*
G36*
X15897817Y25868488D02*
X17024804Y26995475D01*
X18295475Y25724804D01*
X17168488Y24597817D01*
X15897817Y25868488D01*
X15897817Y25868488D01*
G37*
D11*
X4700000Y5040000D03*
D17*
X4700000Y2500000D03*
D11*
X7240000Y5040000D03*
X7240000Y2500000D03*
X9780000Y5040000D03*
X9780000Y2500000D03*
X12320000Y5040000D03*
X12320000Y2500000D03*
X14860000Y5040000D03*
X14860000Y2500000D03*
X17400000Y5040000D03*
X17400000Y2500000D03*
X19940000Y5040000D03*
X19940000Y2500000D03*
X22480000Y5040000D03*
X22480000Y2500000D03*
X25020000Y5040000D03*
X25020000Y2500000D03*
X27560000Y5040000D03*
X27560000Y2500000D03*
X30100000Y5040000D03*
X30100000Y2500000D03*
X32640000Y5040000D03*
X32640000Y2500000D03*
X35180000Y5040000D03*
X35180000Y2500000D03*
X37720000Y5040000D03*
X37720000Y2500000D03*
X40260000Y5040000D03*
X40260000Y2500000D03*
X42800000Y5040000D03*
X42800000Y2500000D03*
X45340000Y5040000D03*
X45340000Y2500000D03*
X4700000Y47440000D03*
D17*
X4700000Y44900000D03*
D11*
X7240000Y47440000D03*
X7240000Y44900000D03*
X9780000Y47440000D03*
X9780000Y44900000D03*
X12320000Y47440000D03*
X12320000Y44900000D03*
X14860000Y47440000D03*
X14860000Y44900000D03*
X17400000Y47440000D03*
X17400000Y44900000D03*
X19940000Y47440000D03*
X19940000Y44900000D03*
X22480000Y47440000D03*
X22480000Y44900000D03*
X25020000Y47440000D03*
X25020000Y44900000D03*
X27560000Y47440000D03*
X27560000Y44900000D03*
X30100000Y47440000D03*
X30100000Y44900000D03*
X32640000Y47440000D03*
X32640000Y44900000D03*
X35180000Y47440000D03*
X35180000Y44900000D03*
X37720000Y47440000D03*
X37720000Y44900000D03*
X40260000Y47440000D03*
X40260000Y44900000D03*
X42800000Y47440000D03*
X42800000Y44900000D03*
X45340000Y47440000D03*
X45340000Y44900000D03*
D18*
X39750000Y14200000D03*
X41250000Y14200000D03*
D10*
G36*
X24624264Y10743503D02*
X25543503Y9824264D01*
X24836396Y9117157D01*
X23917157Y10036396D01*
X24624264Y10743503D01*
X24624264Y10743503D01*
G37*
G36*
X23563604Y9682843D02*
X24482843Y8763604D01*
X23775736Y8056497D01*
X22856497Y8975736D01*
X23563604Y9682843D01*
X23563604Y9682843D01*
G37*
G36*
X23424264Y11943503D02*
X24343503Y11024264D01*
X23636396Y10317157D01*
X22717157Y11236396D01*
X23424264Y11943503D01*
X23424264Y11943503D01*
G37*
G36*
X22363604Y10882843D02*
X23282843Y9963604D01*
X22575736Y9256497D01*
X21656497Y10175736D01*
X22363604Y10882843D01*
X22363604Y10882843D01*
G37*
D18*
X39750000Y17950000D03*
X41250000Y17950000D03*
D10*
G36*
X28856497Y11174264D02*
X29775736Y12093503D01*
X30482843Y11386396D01*
X29563604Y10467157D01*
X28856497Y11174264D01*
X28856497Y11174264D01*
G37*
G36*
X29917157Y10113604D02*
X30836396Y11032843D01*
X31543503Y10325736D01*
X30624264Y9406497D01*
X29917157Y10113604D01*
X29917157Y10113604D01*
G37*
G36*
X27656497Y10024264D02*
X28575736Y10943503D01*
X29282843Y10236396D01*
X28363604Y9317157D01*
X27656497Y10024264D01*
X27656497Y10024264D01*
G37*
G36*
X28717157Y8963604D02*
X29636396Y9882843D01*
X30343503Y9175736D01*
X29424264Y8256497D01*
X28717157Y8963604D01*
X28717157Y8963604D01*
G37*
G36*
X14993503Y22825736D02*
X14074264Y21906497D01*
X13367157Y22613604D01*
X14286396Y23532843D01*
X14993503Y22825736D01*
X14993503Y22825736D01*
G37*
G36*
X13932843Y23886396D02*
X13013604Y22967157D01*
X12306497Y23674264D01*
X13225736Y24593503D01*
X13932843Y23886396D01*
X13932843Y23886396D01*
G37*
G36*
X19656497Y37024264D02*
X20575736Y37943503D01*
X21282843Y37236396D01*
X20363604Y36317157D01*
X19656497Y37024264D01*
X19656497Y37024264D01*
G37*
G36*
X20717157Y35963604D02*
X21636396Y36882843D01*
X22343503Y36175736D01*
X21424264Y35256497D01*
X20717157Y35963604D01*
X20717157Y35963604D01*
G37*
G36*
X7574264Y28193503D02*
X8493503Y27274264D01*
X7786396Y26567157D01*
X6867157Y27486396D01*
X7574264Y28193503D01*
X7574264Y28193503D01*
G37*
G36*
X6513604Y27132843D02*
X7432843Y26213604D01*
X6725736Y25506497D01*
X5806497Y26425736D01*
X6513604Y27132843D01*
X6513604Y27132843D01*
G37*
G36*
X24525736Y16306497D02*
X23606497Y17225736D01*
X24313604Y17932843D01*
X25232843Y17013604D01*
X24525736Y16306497D01*
X24525736Y16306497D01*
G37*
G36*
X25586396Y17367157D02*
X24667157Y18286396D01*
X25374264Y18993503D01*
X26293503Y18074264D01*
X25586396Y17367157D01*
X25586396Y17367157D01*
G37*
G36*
X16093503Y23925736D02*
X15174264Y23006497D01*
X14467157Y23713604D01*
X15386396Y24632843D01*
X16093503Y23925736D01*
X16093503Y23925736D01*
G37*
G36*
X15032843Y24986396D02*
X14113604Y24067157D01*
X13406497Y24774264D01*
X14325736Y25693503D01*
X15032843Y24986396D01*
X15032843Y24986396D01*
G37*
G36*
X20856497Y38224264D02*
X21775736Y39143503D01*
X22482843Y38436396D01*
X21563604Y37517157D01*
X20856497Y38224264D01*
X20856497Y38224264D01*
G37*
G36*
X21917157Y37163604D02*
X22836396Y38082843D01*
X23543503Y37375736D01*
X22624264Y36456497D01*
X21917157Y37163604D01*
X21917157Y37163604D01*
G37*
G36*
X8774264Y27043503D02*
X9693503Y26124264D01*
X8986396Y25417157D01*
X8067157Y26336396D01*
X8774264Y27043503D01*
X8774264Y27043503D01*
G37*
G36*
X7713604Y25982843D02*
X8632843Y25063604D01*
X7925736Y24356497D01*
X7006497Y25275736D01*
X7713604Y25982843D01*
X7713604Y25982843D01*
G37*
G36*
X23325736Y17456497D02*
X22406497Y18375736D01*
X23113604Y19082843D01*
X24032843Y18163604D01*
X23325736Y17456497D01*
X23325736Y17456497D01*
G37*
G36*
X24386396Y18517157D02*
X23467157Y19436396D01*
X24174264Y20143503D01*
X25093503Y19224264D01*
X24386396Y18517157D01*
X24386396Y18517157D01*
G37*
G36*
X26175736Y24056497D02*
X25256497Y24975736D01*
X25963604Y25682843D01*
X26882843Y24763604D01*
X26175736Y24056497D01*
X26175736Y24056497D01*
G37*
G36*
X27236396Y25117157D02*
X26317157Y26036396D01*
X27024264Y26743503D01*
X27943503Y25824264D01*
X27236396Y25117157D01*
X27236396Y25117157D01*
G37*
G36*
X21143503Y32775736D02*
X20224264Y31856497D01*
X19517157Y32563604D01*
X20436396Y33482843D01*
X21143503Y32775736D01*
X21143503Y32775736D01*
G37*
G36*
X20082843Y33836396D02*
X19163604Y32917157D01*
X18456497Y33624264D01*
X19375736Y34543503D01*
X20082843Y33836396D01*
X20082843Y33836396D01*
G37*
G36*
X32743503Y11475736D02*
X31824264Y10556497D01*
X31117157Y11263604D01*
X32036396Y12182843D01*
X32743503Y11475736D01*
X32743503Y11475736D01*
G37*
G36*
X31682843Y12536396D02*
X30763604Y11617157D01*
X30056497Y12324264D01*
X30975736Y13243503D01*
X31682843Y12536396D01*
X31682843Y12536396D01*
G37*
D11*
X18660000Y13250000D03*
D17*
X21200000Y13250000D03*
D11*
X48140000Y29300000D03*
D17*
X45600000Y29300000D03*
D18*
X46600000Y15600000D03*
X48100000Y15600000D03*
X46600000Y19200000D03*
X48100000Y19200000D03*
D12*
X23700000Y40850000D03*
X21160000Y40850000D03*
X18620000Y40850000D03*
X16080000Y40850000D03*
D19*
X2900000Y9300000D03*
X1500000Y22200000D03*
D20*
X5700000Y10100000D03*
X5700000Y11200000D03*
X5500000Y12300000D03*
X5700000Y13400000D03*
X5500000Y14500000D03*
X5700000Y15600000D03*
X6100000Y16700000D03*
X5700000Y17800000D03*
D21*
X16000000Y10650000D03*
X16000000Y16350000D03*
D18*
X2950000Y24950000D03*
X1450000Y24950000D03*
D10*
G36*
X12124264Y27593503D02*
X13043503Y26674264D01*
X12336396Y25967157D01*
X11417157Y26886396D01*
X12124264Y27593503D01*
X12124264Y27593503D01*
G37*
G36*
X11063604Y26532843D02*
X11982843Y25613604D01*
X11275736Y24906497D01*
X10356497Y25825736D01*
X11063604Y26532843D01*
X11063604Y26532843D01*
G37*
G36*
X13275736Y26856497D02*
X12356497Y27775736D01*
X13063604Y28482843D01*
X13982843Y27563604D01*
X13275736Y26856497D01*
X13275736Y26856497D01*
G37*
G36*
X14336396Y27917157D02*
X13417157Y28836396D01*
X14124264Y29543503D01*
X15043503Y28624264D01*
X14336396Y27917157D01*
X14336396Y27917157D01*
G37*
G36*
X24643503Y29375736D02*
X23724264Y28456497D01*
X23017157Y29163604D01*
X23936396Y30082843D01*
X24643503Y29375736D01*
X24643503Y29375736D01*
G37*
G36*
X23582843Y30436396D02*
X22663604Y29517157D01*
X21956497Y30224264D01*
X22875736Y31143503D01*
X23582843Y30436396D01*
X23582843Y30436396D01*
G37*
G36*
X24056497Y28124264D02*
X24975736Y29043503D01*
X25682843Y28336396D01*
X24763604Y27417157D01*
X24056497Y28124264D01*
X24056497Y28124264D01*
G37*
G36*
X25117157Y27063604D02*
X26036396Y27982843D01*
X26743503Y27275736D01*
X25824264Y26356497D01*
X25117157Y27063604D01*
X25117157Y27063604D01*
G37*
D18*
X1450000Y26600000D03*
X2950000Y26600000D03*
D22*
X38250000Y29300000D03*
X41750000Y29300000D03*
D23*
X1500000Y1500000D03*
X48500000Y48500000D03*
M02*
