G04 #@! TF.FileFunction,Copper,L4,Bot,Signal*
%FSLAX46Y46*%
G04 Gerber Fmt 4.6, Leading zero omitted, Abs format (unit mm)*
G04 Created by KiCad (PCBNEW 4.0.7) date 01/23/18 17:02:15*
%MOMM*%
%LPD*%
G01*
G04 APERTURE LIST*
%ADD10C,0.100000*%
%ADD11C,0.203200*%
%ADD12C,1.524000*%
%ADD13C,1.600000*%
%ADD14C,3.600000*%
%ADD15C,2.000000*%
%ADD16C,1.500000*%
%ADD17R,1.524000X1.524000*%
%ADD18R,0.600000X0.900000*%
%ADD19R,1.900000X1.400000*%
%ADD20R,1.500000X0.800000*%
%ADD21R,1.100000X1.800000*%
%ADD22R,1.500000X1.500000*%
%ADD23C,0.812800*%
%ADD24C,0.177800*%
%ADD25C,0.254000*%
%ADD26C,0.304800*%
%ADD27C,0.609600*%
G04 APERTURE END LIST*
D10*
D11*
X1296800Y1296800D02*
X484000Y1296800D01*
X1296800Y1296800D02*
X1296800Y484000D01*
X1703200Y1703200D02*
X1703200Y2516000D01*
X1703200Y1703200D02*
X2516000Y1703200D01*
X1703200Y1296800D02*
X1703200Y484000D01*
X1703200Y1296800D02*
X2516000Y1296800D01*
X1296800Y1703200D02*
X484000Y1703200D01*
X1296800Y1703200D02*
X1296800Y2516000D01*
X48296800Y48296800D02*
X47484000Y48296800D01*
X48296800Y48296800D02*
X48296800Y47484000D01*
X48703200Y48703200D02*
X48703200Y49516000D01*
X48703200Y48703200D02*
X49516000Y48703200D01*
X48703200Y48296800D02*
X48703200Y47484000D01*
X48703200Y48296800D02*
X49516000Y48296800D01*
X48296800Y48703200D02*
X47484000Y48703200D01*
X48296800Y48703200D02*
X48296800Y49516000D01*
D10*
G36*
X16724264Y28860660D02*
X17360660Y28224264D01*
X16936396Y27800000D01*
X16300000Y28436396D01*
X16724264Y28860660D01*
X16724264Y28860660D01*
G37*
G36*
X15663604Y27800000D02*
X16300000Y27163604D01*
X15875736Y26739340D01*
X15239340Y27375736D01*
X15663604Y27800000D01*
X15663604Y27800000D01*
G37*
G36*
X20175736Y22439340D02*
X19539340Y23075736D01*
X19963604Y23500000D01*
X20600000Y22863604D01*
X20175736Y22439340D01*
X20175736Y22439340D01*
G37*
G36*
X21236396Y23500000D02*
X20600000Y24136396D01*
X21024264Y24560660D01*
X21660660Y23924264D01*
X21236396Y23500000D01*
X21236396Y23500000D01*
G37*
D12*
X37700000Y12900000D03*
D13*
X35160000Y14170000D03*
X37700000Y15440000D03*
X35160000Y16710000D03*
X37700000Y17980000D03*
X35160000Y19250000D03*
X37700000Y20520000D03*
X35160000Y21790000D03*
X48110000Y10720000D03*
X48110000Y13260000D03*
X48110000Y21430000D03*
X48110000Y23970000D03*
D14*
X44050000Y11630000D03*
X44050000Y23060000D03*
D15*
X41000000Y9600000D03*
X41000000Y25090000D03*
D16*
X43200000Y32750000D03*
X43200000Y40050000D03*
X48500000Y32750000D03*
X48500000Y40050000D03*
X6700000Y40050000D03*
X6700000Y32750000D03*
X1400000Y40050000D03*
X1400000Y32750000D03*
D10*
G36*
X17384014Y27071842D02*
X18228158Y27915986D01*
X19215986Y26928158D01*
X18371842Y26084014D01*
X17384014Y27071842D01*
X17384014Y27071842D01*
G37*
G36*
X18946579Y25509277D02*
X19790723Y26353421D01*
X20778551Y25365593D01*
X19934407Y24521449D01*
X18946579Y25509277D01*
X18946579Y25509277D01*
G37*
G36*
X17743224Y24305923D02*
X18587368Y25150067D01*
X19575196Y24162239D01*
X18731052Y23318095D01*
X17743224Y24305923D01*
X17743224Y24305923D01*
G37*
G36*
X16180660Y25868488D02*
X17024804Y26712632D01*
X18012632Y25724804D01*
X17168488Y24880660D01*
X16180660Y25868488D01*
X16180660Y25868488D01*
G37*
D12*
X4700000Y5040000D03*
D17*
X4700000Y2500000D03*
D12*
X7240000Y5040000D03*
X7240000Y2500000D03*
X9780000Y5040000D03*
X9780000Y2500000D03*
X12320000Y5040000D03*
X12320000Y2500000D03*
X14860000Y5040000D03*
X14860000Y2500000D03*
X17400000Y5040000D03*
X17400000Y2500000D03*
X19940000Y5040000D03*
X19940000Y2500000D03*
X22480000Y5040000D03*
X22480000Y2500000D03*
X25020000Y5040000D03*
X25020000Y2500000D03*
X27560000Y5040000D03*
X27560000Y2500000D03*
X30100000Y5040000D03*
X30100000Y2500000D03*
X32640000Y5040000D03*
X32640000Y2500000D03*
X35180000Y5040000D03*
X35180000Y2500000D03*
X37720000Y5040000D03*
X37720000Y2500000D03*
X40260000Y5040000D03*
X40260000Y2500000D03*
X42800000Y5040000D03*
X42800000Y2500000D03*
X45340000Y5040000D03*
X45340000Y2500000D03*
X4700000Y47440000D03*
D17*
X4700000Y44900000D03*
D12*
X7240000Y47440000D03*
X7240000Y44900000D03*
X9780000Y47440000D03*
X9780000Y44900000D03*
X12320000Y47440000D03*
X12320000Y44900000D03*
X14860000Y47440000D03*
X14860000Y44900000D03*
X17400000Y47440000D03*
X17400000Y44900000D03*
X19940000Y47440000D03*
X19940000Y44900000D03*
X22480000Y47440000D03*
X22480000Y44900000D03*
X25020000Y47440000D03*
X25020000Y44900000D03*
X27560000Y47440000D03*
X27560000Y44900000D03*
X30100000Y47440000D03*
X30100000Y44900000D03*
X32640000Y47440000D03*
X32640000Y44900000D03*
X35180000Y47440000D03*
X35180000Y44900000D03*
X37720000Y47440000D03*
X37720000Y44900000D03*
X40260000Y47440000D03*
X40260000Y44900000D03*
X42800000Y47440000D03*
X42800000Y44900000D03*
X45340000Y47440000D03*
X45340000Y44900000D03*
D18*
X39750000Y14200000D03*
X41250000Y14200000D03*
D10*
G36*
X24624264Y10460660D02*
X25260660Y9824264D01*
X24836396Y9400000D01*
X24200000Y10036396D01*
X24624264Y10460660D01*
X24624264Y10460660D01*
G37*
G36*
X23563604Y9400000D02*
X24200000Y8763604D01*
X23775736Y8339340D01*
X23139340Y8975736D01*
X23563604Y9400000D01*
X23563604Y9400000D01*
G37*
G36*
X23424264Y11660660D02*
X24060660Y11024264D01*
X23636396Y10600000D01*
X23000000Y11236396D01*
X23424264Y11660660D01*
X23424264Y11660660D01*
G37*
G36*
X22363604Y10600000D02*
X23000000Y9963604D01*
X22575736Y9539340D01*
X21939340Y10175736D01*
X22363604Y10600000D01*
X22363604Y10600000D01*
G37*
D18*
X39750000Y17950000D03*
X41250000Y17950000D03*
D10*
G36*
X29139340Y11174264D02*
X29775736Y11810660D01*
X30200000Y11386396D01*
X29563604Y10750000D01*
X29139340Y11174264D01*
X29139340Y11174264D01*
G37*
G36*
X30200000Y10113604D02*
X30836396Y10750000D01*
X31260660Y10325736D01*
X30624264Y9689340D01*
X30200000Y10113604D01*
X30200000Y10113604D01*
G37*
G36*
X27939340Y10024264D02*
X28575736Y10660660D01*
X29000000Y10236396D01*
X28363604Y9600000D01*
X27939340Y10024264D01*
X27939340Y10024264D01*
G37*
G36*
X29000000Y8963604D02*
X29636396Y9600000D01*
X30060660Y9175736D01*
X29424264Y8539340D01*
X29000000Y8963604D01*
X29000000Y8963604D01*
G37*
G36*
X14710660Y22825736D02*
X14074264Y22189340D01*
X13650000Y22613604D01*
X14286396Y23250000D01*
X14710660Y22825736D01*
X14710660Y22825736D01*
G37*
G36*
X13650000Y23886396D02*
X13013604Y23250000D01*
X12589340Y23674264D01*
X13225736Y24310660D01*
X13650000Y23886396D01*
X13650000Y23886396D01*
G37*
G36*
X19939340Y37024264D02*
X20575736Y37660660D01*
X21000000Y37236396D01*
X20363604Y36600000D01*
X19939340Y37024264D01*
X19939340Y37024264D01*
G37*
G36*
X21000000Y35963604D02*
X21636396Y36600000D01*
X22060660Y36175736D01*
X21424264Y35539340D01*
X21000000Y35963604D01*
X21000000Y35963604D01*
G37*
G36*
X7574264Y27910660D02*
X8210660Y27274264D01*
X7786396Y26850000D01*
X7150000Y27486396D01*
X7574264Y27910660D01*
X7574264Y27910660D01*
G37*
G36*
X6513604Y26850000D02*
X7150000Y26213604D01*
X6725736Y25789340D01*
X6089340Y26425736D01*
X6513604Y26850000D01*
X6513604Y26850000D01*
G37*
G36*
X24525736Y16589340D02*
X23889340Y17225736D01*
X24313604Y17650000D01*
X24950000Y17013604D01*
X24525736Y16589340D01*
X24525736Y16589340D01*
G37*
G36*
X25586396Y17650000D02*
X24950000Y18286396D01*
X25374264Y18710660D01*
X26010660Y18074264D01*
X25586396Y17650000D01*
X25586396Y17650000D01*
G37*
G36*
X15810660Y23925736D02*
X15174264Y23289340D01*
X14750000Y23713604D01*
X15386396Y24350000D01*
X15810660Y23925736D01*
X15810660Y23925736D01*
G37*
G36*
X14750000Y24986396D02*
X14113604Y24350000D01*
X13689340Y24774264D01*
X14325736Y25410660D01*
X14750000Y24986396D01*
X14750000Y24986396D01*
G37*
G36*
X21139340Y38224264D02*
X21775736Y38860660D01*
X22200000Y38436396D01*
X21563604Y37800000D01*
X21139340Y38224264D01*
X21139340Y38224264D01*
G37*
G36*
X22200000Y37163604D02*
X22836396Y37800000D01*
X23260660Y37375736D01*
X22624264Y36739340D01*
X22200000Y37163604D01*
X22200000Y37163604D01*
G37*
G36*
X8774264Y26760660D02*
X9410660Y26124264D01*
X8986396Y25700000D01*
X8350000Y26336396D01*
X8774264Y26760660D01*
X8774264Y26760660D01*
G37*
G36*
X7713604Y25700000D02*
X8350000Y25063604D01*
X7925736Y24639340D01*
X7289340Y25275736D01*
X7713604Y25700000D01*
X7713604Y25700000D01*
G37*
G36*
X23325736Y17739340D02*
X22689340Y18375736D01*
X23113604Y18800000D01*
X23750000Y18163604D01*
X23325736Y17739340D01*
X23325736Y17739340D01*
G37*
G36*
X24386396Y18800000D02*
X23750000Y19436396D01*
X24174264Y19860660D01*
X24810660Y19224264D01*
X24386396Y18800000D01*
X24386396Y18800000D01*
G37*
G36*
X26175736Y24339340D02*
X25539340Y24975736D01*
X25963604Y25400000D01*
X26600000Y24763604D01*
X26175736Y24339340D01*
X26175736Y24339340D01*
G37*
G36*
X27236396Y25400000D02*
X26600000Y26036396D01*
X27024264Y26460660D01*
X27660660Y25824264D01*
X27236396Y25400000D01*
X27236396Y25400000D01*
G37*
G36*
X20860660Y32775736D02*
X20224264Y32139340D01*
X19800000Y32563604D01*
X20436396Y33200000D01*
X20860660Y32775736D01*
X20860660Y32775736D01*
G37*
G36*
X19800000Y33836396D02*
X19163604Y33200000D01*
X18739340Y33624264D01*
X19375736Y34260660D01*
X19800000Y33836396D01*
X19800000Y33836396D01*
G37*
G36*
X32460660Y11475736D02*
X31824264Y10839340D01*
X31400000Y11263604D01*
X32036396Y11900000D01*
X32460660Y11475736D01*
X32460660Y11475736D01*
G37*
G36*
X31400000Y12536396D02*
X30763604Y11900000D01*
X30339340Y12324264D01*
X30975736Y12960660D01*
X31400000Y12536396D01*
X31400000Y12536396D01*
G37*
D12*
X18660000Y13250000D03*
D17*
X21200000Y13250000D03*
D12*
X48140000Y29300000D03*
D17*
X45600000Y29300000D03*
D18*
X46600000Y15600000D03*
X48100000Y15600000D03*
X46600000Y19200000D03*
X48100000Y19200000D03*
D13*
X23700000Y40850000D03*
X21160000Y40850000D03*
X18620000Y40850000D03*
X16080000Y40850000D03*
D19*
X2900000Y9300000D03*
X1500000Y22200000D03*
D20*
X5700000Y10100000D03*
X5700000Y11200000D03*
X5500000Y12300000D03*
X5700000Y13400000D03*
X5500000Y14500000D03*
X5700000Y15600000D03*
X6100000Y16700000D03*
X5700000Y17800000D03*
D21*
X16000000Y10650000D03*
X16000000Y16350000D03*
D18*
X2950000Y24950000D03*
X1450000Y24950000D03*
D10*
G36*
X12124264Y27310660D02*
X12760660Y26674264D01*
X12336396Y26250000D01*
X11700000Y26886396D01*
X12124264Y27310660D01*
X12124264Y27310660D01*
G37*
G36*
X11063604Y26250000D02*
X11700000Y25613604D01*
X11275736Y25189340D01*
X10639340Y25825736D01*
X11063604Y26250000D01*
X11063604Y26250000D01*
G37*
G36*
X13275736Y27139340D02*
X12639340Y27775736D01*
X13063604Y28200000D01*
X13700000Y27563604D01*
X13275736Y27139340D01*
X13275736Y27139340D01*
G37*
G36*
X14336396Y28200000D02*
X13700000Y28836396D01*
X14124264Y29260660D01*
X14760660Y28624264D01*
X14336396Y28200000D01*
X14336396Y28200000D01*
G37*
G36*
X24360660Y29375736D02*
X23724264Y28739340D01*
X23300000Y29163604D01*
X23936396Y29800000D01*
X24360660Y29375736D01*
X24360660Y29375736D01*
G37*
G36*
X23300000Y30436396D02*
X22663604Y29800000D01*
X22239340Y30224264D01*
X22875736Y30860660D01*
X23300000Y30436396D01*
X23300000Y30436396D01*
G37*
G36*
X24339340Y28124264D02*
X24975736Y28760660D01*
X25400000Y28336396D01*
X24763604Y27700000D01*
X24339340Y28124264D01*
X24339340Y28124264D01*
G37*
G36*
X25400000Y27063604D02*
X26036396Y27700000D01*
X26460660Y27275736D01*
X25824264Y26639340D01*
X25400000Y27063604D01*
X25400000Y27063604D01*
G37*
D18*
X1450000Y26600000D03*
X2950000Y26600000D03*
D22*
X38250000Y29300000D03*
X41750000Y29300000D03*
D23*
X2900000Y7750000D03*
X3250000Y12050000D03*
X1450000Y20650000D03*
X12450000Y25100000D03*
X15050000Y25650000D03*
X16000000Y13150000D03*
X17700000Y19150000D03*
X10050000Y11250000D03*
X24550000Y8000000D03*
X26500000Y13800000D03*
X42350000Y17950000D03*
X42350000Y14200000D03*
X34950000Y36100000D03*
X8950000Y19050000D03*
X30400000Y23800000D03*
X18500000Y33000000D03*
X14700000Y36600000D03*
X34800000Y29300000D03*
X20714300Y26289100D03*
X31563200Y16947400D03*
X26232300Y18720700D03*
X30147000Y8361000D03*
X6250700Y25415400D03*
X20348200Y15416200D03*
X19350000Y28050000D03*
X17650000Y23250000D03*
X23291400Y35651400D03*
X20475100Y39390300D03*
X21312000Y31826600D03*
X21262200Y42257200D03*
X12535000Y42257200D03*
X13636300Y34707500D03*
X25104800Y33913300D03*
X5729100Y49293300D03*
X15364200Y34838200D03*
X10179600Y33178700D03*
X15572300Y35996500D03*
X8273300Y39917100D03*
X13843200Y39917100D03*
X14563800Y37785300D03*
X17316600Y36542100D03*
X7120000Y14963400D03*
X7473100Y23339300D03*
X6158400Y8661600D03*
X8864300Y17655200D03*
X13258900Y17497000D03*
X12493000Y6862700D03*
X20300000Y18471600D03*
X19529600Y7482200D03*
X18941000Y11643400D03*
X22145300Y21910300D03*
X6509200Y27549200D03*
X9756300Y30933300D03*
X21803200Y20919200D03*
X23469600Y21622200D03*
X37432600Y6686600D03*
X30421400Y20028600D03*
X24449300Y22433500D03*
X33348800Y6712600D03*
X27765300Y19919400D03*
X29748000Y21704100D03*
X25834400Y23836900D03*
X27182800Y16991400D03*
X28492300Y22403900D03*
X14050000Y26850000D03*
X13150000Y25900000D03*
X21162600Y28026900D03*
X21840600Y26016800D03*
X10715500Y22082800D03*
X16062000Y29594800D03*
X9425900Y41760200D03*
X8643600Y32443100D03*
X17206400Y31161000D03*
X24061000Y38913800D03*
X19066800Y30441600D03*
X6838600Y42866500D03*
X9012300Y34645000D03*
X16609800Y31970500D03*
X17950600Y37812200D03*
X17726500Y32158200D03*
X23900000Y27300000D03*
X32004400Y37363200D03*
X22950000Y28350000D03*
X30490500Y34198300D03*
X25620500Y19603800D03*
X24250100Y23899800D03*
X22298500Y14975500D03*
X19458900Y20320600D03*
X22582800Y22960500D03*
X27927300Y18380700D03*
X21242700Y7325300D03*
X22351200Y6529100D03*
X21624500Y27046600D03*
X29400000Y23000000D03*
X19400000Y31800000D03*
X25600000Y9100000D03*
X27800000Y10750000D03*
X1450000Y27750000D03*
X3150000Y15800000D03*
X15050000Y29550000D03*
X8550000Y28250000D03*
X16050000Y24500000D03*
X14250000Y11350000D03*
X11150000Y8850000D03*
X12450000Y10150000D03*
X37800000Y36150000D03*
X21850000Y29400000D03*
X25050000Y26300000D03*
X29500000Y25600000D03*
X19600000Y36200000D03*
X12100000Y36600000D03*
X39700000Y29300000D03*
X25119200Y16282900D03*
X19587000Y17573300D03*
X34430500Y37375700D03*
X31930300Y10226500D03*
X26531000Y7401900D03*
X21461400Y1542100D03*
X26300000Y8396300D03*
X4306000Y30550000D03*
X27357100Y21030700D03*
D24*
X1450000Y22250000D02*
X1500000Y22200000D01*
X1450000Y24950000D02*
X1450000Y22250000D01*
X2900000Y9300000D02*
X2900000Y7750000D01*
X3500000Y12300000D02*
X3250000Y12050000D01*
X5500000Y12300000D02*
X3500000Y12300000D01*
X1500000Y20700000D02*
X1500000Y22200000D01*
X1450000Y20650000D02*
X1500000Y20700000D01*
X14280300Y24880000D02*
X14219700Y24880000D01*
X15050000Y25650000D02*
X14280300Y24880000D01*
X16000000Y17450000D02*
X16000000Y16350000D01*
X17700000Y19150000D02*
X16000000Y17450000D01*
X23680300Y8870000D02*
X24550000Y8000000D01*
X23669700Y8870000D02*
X23680300Y8870000D01*
D25*
X41250000Y17950000D02*
X42350000Y17950000D01*
X41250000Y14200000D02*
X42350000Y14200000D01*
X19269700Y33730000D02*
X19269700Y33730300D01*
X19230300Y33730000D02*
X19269700Y33730000D01*
X18500000Y33000000D02*
X19230300Y33730000D01*
X19269700Y33809000D02*
X21530300Y36070000D01*
X19269700Y33730300D02*
X19269700Y33809000D01*
X21130300Y24030000D02*
X21130300Y24030300D01*
X15769700Y27270000D02*
X15769700Y27269700D01*
D24*
X16000000Y16350000D02*
X16000000Y13150000D01*
X16000000Y13150000D02*
X16000000Y10650000D01*
D25*
X15769700Y27124000D02*
X16146300Y26746700D01*
X15769700Y27269700D02*
X15769700Y27124000D01*
D24*
X15050000Y25650000D02*
X16146300Y26746700D01*
X16150000Y26750000D02*
X16150000Y26743000D01*
X16146600Y26747000D02*
X16150000Y26750000D01*
X16146300Y26746700D02*
X16146600Y26747000D01*
D25*
X16146300Y26746700D02*
X16150000Y26743000D01*
X19871300Y25428700D02*
X19871300Y25428300D01*
X19862600Y25437400D02*
X19871300Y25428700D01*
X21130300Y24170000D02*
X19871300Y25428300D01*
X21130300Y24030300D02*
X21130300Y24170000D01*
X19871300Y25428300D02*
X19862600Y25437000D01*
X6619700Y26319700D02*
X6619700Y26320000D01*
X25480300Y18180300D02*
X25480300Y18180000D01*
X30730300Y10219700D02*
X30730300Y10220000D01*
X16150000Y26743000D02*
X16623300Y26270000D01*
X16623300Y26270000D02*
X17096600Y25797000D01*
X17096600Y25796700D02*
X17096600Y25796600D01*
X16623300Y26270000D02*
X17096600Y25796700D01*
X20714300Y26289100D02*
X19862600Y25437400D01*
X27130300Y25930000D02*
X27130600Y25930000D01*
X29300000Y23800000D02*
X30400000Y23800000D01*
X27169700Y25930000D02*
X29300000Y23800000D01*
X27130600Y25930000D02*
X27169700Y25930000D01*
X27130600Y25930000D02*
X27130300Y25930300D01*
X24280300Y19330000D02*
X24280300Y19330300D01*
X6669700Y26320000D02*
X7819700Y25170000D01*
X6619700Y26320000D02*
X6669700Y26320000D01*
X7819700Y25170000D02*
X7819700Y25169700D01*
D26*
X22730300Y37270000D02*
X22130300Y36670000D01*
D25*
X22130600Y36670000D02*
X22730300Y37269700D01*
X22130300Y36670000D02*
X22130600Y36670000D01*
X14219700Y24880000D02*
X14219700Y24880300D01*
X25971000Y18720700D02*
X25430300Y18180000D01*
X26232300Y18720700D02*
X25971000Y18720700D01*
X25480300Y18180000D02*
X25430300Y18180000D01*
X25430300Y18180000D02*
X24280300Y19330000D01*
D26*
X22130300Y36670000D02*
X21530300Y36070000D01*
D25*
X21530300Y36070000D02*
X21530300Y36069700D01*
X14219700Y24880000D02*
X13669700Y24330000D01*
X13669700Y24330000D02*
X13119700Y23780000D01*
X13669400Y24330000D02*
X13119700Y23780300D01*
X13669700Y24330000D02*
X13669400Y24330000D01*
X30680300Y10220000D02*
X29530300Y9070000D01*
X30730300Y10220000D02*
X30680300Y10220000D01*
X29530300Y9070000D02*
X29530300Y9069700D01*
X22469700Y10070000D02*
X23069700Y9470000D01*
X23069400Y9470000D02*
X22469700Y10069700D01*
X23069700Y9470000D02*
X23069400Y9470000D01*
X23069700Y9470000D02*
X23669700Y8870000D01*
X23669700Y8870000D02*
X23669700Y8869700D01*
X6619700Y25784400D02*
X6619700Y26319700D01*
X6250700Y25415400D02*
X6619700Y25784400D01*
X29530300Y8977700D02*
X30147000Y8361000D01*
X29530300Y9069700D02*
X29530300Y8977700D01*
D24*
X19350000Y28050000D02*
X18300000Y27000000D01*
X16830300Y28330000D02*
X16830600Y28330000D01*
X16969700Y28330000D02*
X18300000Y27000000D01*
X16830600Y28330000D02*
X16969700Y28330000D01*
X16830600Y28330000D02*
X16830300Y28330300D01*
X18634100Y24234000D02*
X17650000Y23250000D01*
X18659200Y24234000D02*
X18634100Y24234000D01*
X19291400Y23602000D02*
X18659200Y24234000D01*
X19291300Y23602000D02*
X18659200Y24234100D01*
X19291400Y23602000D02*
X19291300Y23602000D01*
X20069700Y22970000D02*
X20069400Y22970000D01*
X19923600Y22970000D02*
X19291400Y23602000D01*
X20069400Y22970000D02*
X19923600Y22970000D01*
X20069400Y22970000D02*
X20069700Y22969700D01*
X23580200Y35940200D02*
X23291400Y35651400D01*
X23580200Y37510200D02*
X23580200Y35940200D01*
X21700100Y39390300D02*
X23580200Y37510200D01*
X20475100Y39390300D02*
X21700100Y39390300D01*
X22304100Y41215300D02*
X21262200Y42257200D01*
X22304100Y40728200D02*
X22304100Y41215300D01*
X23249400Y39782900D02*
X22304100Y40728200D01*
X24144900Y39782900D02*
X23249400Y39782900D01*
X24768000Y39159800D02*
X24144900Y39782900D01*
X24768000Y35282600D02*
X24768000Y39159800D01*
X21312000Y31826600D02*
X24768000Y35282600D01*
X12535000Y39075200D02*
X12535000Y42257200D01*
X13169800Y38440400D02*
X12535000Y39075200D01*
X13169800Y35174000D02*
X13169800Y38440400D01*
X13636300Y34707500D02*
X13169800Y35174000D01*
X24821700Y33913300D02*
X25104800Y33913300D01*
X20411100Y29502700D02*
X24821700Y33913300D01*
X20411100Y27672900D02*
X20411100Y29502700D01*
X14622200Y21884000D02*
X20411100Y27672900D01*
X13000200Y21884000D02*
X14622200Y21884000D01*
X12098600Y22785600D02*
X13000200Y21884000D01*
X10422700Y22785600D02*
X12098600Y22785600D01*
X8190800Y20553700D02*
X10422700Y22785600D01*
X8190800Y12082200D02*
X8190800Y20553700D01*
X6208600Y10100000D02*
X8190800Y12082200D01*
X5700000Y10100000D02*
X6208600Y10100000D01*
X5729100Y42709500D02*
X5729100Y49293300D01*
X277100Y37257500D02*
X5729100Y42709500D01*
X277100Y14052200D02*
X277100Y37257500D01*
X3129300Y11200000D02*
X277100Y14052200D01*
X5700000Y11200000D02*
X3129300Y11200000D01*
X15364200Y31529900D02*
X15364200Y34838200D01*
X16767000Y30127100D02*
X15364200Y31529900D01*
X16767000Y29337400D02*
X16767000Y30127100D01*
X14723500Y27293900D02*
X16767000Y29337400D01*
X14723500Y26357600D02*
X14723500Y27293900D01*
X12440800Y24074900D02*
X14723500Y26357600D01*
X11168600Y24074900D02*
X12440800Y24074900D01*
X7834900Y20741200D02*
X11168600Y24074900D01*
X7834900Y14725900D02*
X7834900Y20741200D01*
X6509000Y13400000D02*
X7834900Y14725900D01*
X5700000Y13400000D02*
X6509000Y13400000D01*
X10179600Y32675400D02*
X10179600Y33178700D01*
X5568900Y28064700D02*
X10179600Y32675400D01*
X5568900Y23395900D02*
X5568900Y28064700D01*
X7117100Y21847700D02*
X5568900Y23395900D01*
X7117100Y16155900D02*
X7117100Y21847700D01*
X6561200Y15600000D02*
X7117100Y16155900D01*
X5700000Y15600000D02*
X6561200Y15600000D01*
X15448900Y35873100D02*
X15572300Y35996500D01*
X14459100Y35873100D02*
X15448900Y35873100D01*
X13872200Y36460000D02*
X14459100Y35873100D01*
X13872200Y38241500D02*
X13872200Y36460000D01*
X13169700Y38944000D02*
X13872200Y38241500D01*
X13169700Y40874100D02*
X13169700Y38944000D01*
X13400500Y41104900D02*
X13169700Y40874100D01*
X13400500Y45276200D02*
X13400500Y41104900D01*
X12506700Y46170000D02*
X13400500Y45276200D01*
X12131800Y46170000D02*
X12506700Y46170000D01*
X11291000Y47010800D02*
X12131800Y46170000D01*
X11291000Y47393100D02*
X11291000Y47010800D01*
X10176500Y48507600D02*
X11291000Y47393100D01*
X6848600Y48507600D02*
X10176500Y48507600D01*
X6160700Y47819700D02*
X6848600Y48507600D01*
X6160700Y41151900D02*
X6160700Y47819700D01*
X2417100Y37408300D02*
X6160700Y41151900D01*
X2417100Y32097000D02*
X2417100Y37408300D01*
X2357300Y32037200D02*
X2417100Y32097000D01*
X2357300Y23722800D02*
X2357300Y32037200D01*
X4305800Y21774300D02*
X2357300Y23722800D01*
X4305800Y17623000D02*
X4305800Y21774300D01*
X5228800Y16700000D02*
X4305800Y17623000D01*
X6100000Y16700000D02*
X5228800Y16700000D01*
X8273300Y36994500D02*
X8273300Y39917100D01*
X5212900Y33934100D02*
X8273300Y36994500D01*
X5212900Y18287100D02*
X5212900Y33934100D01*
X5700000Y17800000D02*
X5212900Y18287100D01*
X14563800Y39196500D02*
X13843200Y39917100D01*
X14563800Y37785300D02*
X14563800Y39196500D01*
X18624000Y40846000D02*
X18620000Y40850000D01*
X18624000Y37533200D02*
X18624000Y40846000D01*
X17632900Y36542100D02*
X18624000Y37533200D01*
X17316600Y36542100D02*
X17632900Y36542100D01*
X9736100Y7536100D02*
X7240000Y5040000D01*
X14743600Y7536100D02*
X9736100Y7536100D01*
X17911700Y10704200D02*
X14743600Y7536100D01*
X17911700Y12501700D02*
X17911700Y10704200D01*
X18660000Y13250000D02*
X17911700Y12501700D01*
X7473100Y15316500D02*
X7473100Y23339300D01*
X7120000Y14963400D02*
X7473100Y15316500D01*
X8864300Y11367500D02*
X8864300Y17655200D01*
X6158400Y8661600D02*
X8864300Y11367500D01*
X11770900Y16009000D02*
X13258900Y17497000D01*
X11770900Y9739800D02*
X11770900Y16009000D01*
X11850700Y9660000D02*
X11770900Y9739800D01*
X11850700Y8533700D02*
X11850700Y9660000D01*
X11209100Y7892100D02*
X11850700Y8533700D01*
X9275600Y7892100D02*
X11209100Y7892100D01*
X8117800Y6734300D02*
X9275600Y7892100D01*
X7434800Y6734300D02*
X8117800Y6734300D01*
X6205300Y5504800D02*
X7434800Y6734300D01*
X6205300Y4617000D02*
X6205300Y5504800D01*
X7052300Y3770000D02*
X6205300Y4617000D01*
X8510000Y3770000D02*
X7052300Y3770000D01*
X9780000Y2500000D02*
X8510000Y3770000D01*
X14315700Y5040000D02*
X12493000Y6862700D01*
X14860000Y5040000D02*
X14315700Y5040000D01*
X20300000Y17333900D02*
X20300000Y18471600D01*
X19674800Y16708700D02*
X20300000Y17333900D01*
X19674800Y15137300D02*
X19674800Y16708700D01*
X19940000Y14872100D02*
X19674800Y15137300D01*
X19940000Y8480700D02*
X19940000Y14872100D01*
X20203000Y8217700D02*
X19940000Y8480700D01*
X20203000Y5303000D02*
X20203000Y8217700D01*
X19940000Y5040000D02*
X20203000Y5303000D01*
X18941000Y8070800D02*
X19529600Y7482200D01*
X18941000Y11643400D02*
X18941000Y8070800D01*
X21816000Y21910300D02*
X22145300Y21910300D01*
X21098800Y21193100D02*
X21816000Y21910300D01*
X21098800Y19778700D02*
X21098800Y21193100D01*
X21447200Y19430300D02*
X21098800Y19778700D01*
X21447200Y16653300D02*
X21447200Y19430300D01*
X21572900Y16527600D02*
X21447200Y16653300D01*
X21698800Y16527600D02*
X21572900Y16527600D01*
X22971900Y15254500D02*
X21698800Y16527600D01*
X22971900Y12803700D02*
X22971900Y15254500D01*
X20559000Y10390800D02*
X22971900Y12803700D01*
X20559000Y6288400D02*
X20559000Y10390800D01*
X20978600Y5868800D02*
X20559000Y6288400D01*
X20978600Y3538600D02*
X20978600Y5868800D01*
X19940000Y2500000D02*
X20978600Y3538600D01*
X6509200Y27686200D02*
X6509200Y27549200D01*
X9756300Y30933300D02*
X6509200Y27686200D01*
X23515400Y3535400D02*
X22480000Y2500000D01*
X23515400Y6317300D02*
X23515400Y3535400D01*
X21668800Y8163900D02*
X23515400Y6317300D01*
X21668800Y10745700D02*
X21668800Y8163900D01*
X23327800Y12404700D02*
X21668800Y10745700D01*
X23327800Y15401900D02*
X23327800Y12404700D01*
X21803300Y16926400D02*
X23327800Y15401900D01*
X21803200Y16926400D02*
X21803300Y16926400D01*
X21803200Y20919200D02*
X21803200Y16926400D01*
X22386300Y20538900D02*
X23469600Y21622200D01*
X22386300Y17828400D02*
X22386300Y20538900D01*
X23683700Y16531000D02*
X22386300Y17828400D01*
X23683700Y12489400D02*
X23683700Y16531000D01*
X27560000Y8613100D02*
X23683700Y12489400D01*
X27560000Y5040000D02*
X27560000Y8613100D01*
X33786700Y16663300D02*
X30421400Y20028600D01*
X33786700Y13773400D02*
X33786700Y16663300D01*
X37432600Y10127500D02*
X33786700Y13773400D01*
X37432600Y6686600D02*
X37432600Y10127500D01*
X24449300Y21621500D02*
X24449300Y22433500D01*
X23469600Y20641800D02*
X24449300Y21621500D01*
X23469600Y19080400D02*
X23469600Y20641800D01*
X27182800Y15367200D02*
X23469600Y19080400D01*
X27182800Y12113900D02*
X27182800Y15367200D01*
X26720000Y11651100D02*
X27182800Y12113900D01*
X26720000Y9960000D02*
X26720000Y11651100D01*
X30100000Y6580000D02*
X26720000Y9960000D01*
X30100000Y5040000D02*
X30100000Y6580000D01*
X27844300Y19919400D02*
X27765300Y19919400D01*
X29464000Y18299700D02*
X27844300Y19919400D01*
X29464000Y15937600D02*
X29464000Y18299700D01*
X33348800Y12052800D02*
X29464000Y15937600D01*
X33348800Y6712600D02*
X33348800Y12052800D01*
X29748000Y19749700D02*
X29748000Y21704100D01*
X33430800Y16066900D02*
X29748000Y19749700D01*
X33430800Y13626000D02*
X33430800Y16066900D01*
X36260200Y10796600D02*
X33430800Y13626000D01*
X36260200Y2011200D02*
X36260200Y10796600D01*
X35668900Y1419900D02*
X36260200Y2011200D01*
X31180100Y1419900D02*
X35668900Y1419900D01*
X30100000Y2500000D02*
X31180100Y1419900D01*
X28136400Y21534900D02*
X25834400Y23836900D01*
X28136400Y20500700D02*
X28136400Y21534900D01*
X29036200Y19600900D02*
X28136400Y20500700D01*
X29036200Y19454900D02*
X29036200Y19600900D01*
X29819900Y18671200D02*
X29036200Y19454900D01*
X29819900Y16085000D02*
X29819900Y18671200D01*
X34022200Y11882700D02*
X29819900Y16085000D01*
X34022200Y3657800D02*
X34022200Y11882700D01*
X35180000Y2500000D02*
X34022200Y3657800D01*
X27538700Y16635500D02*
X27182800Y16991400D01*
X27538700Y11788700D02*
X27538700Y16635500D01*
X27076000Y11326000D02*
X27538700Y11788700D01*
X27076000Y10358800D02*
X27076000Y11326000D01*
X31370000Y6064800D02*
X27076000Y10358800D01*
X31370000Y3770000D02*
X31370000Y6064800D01*
X32640000Y2500000D02*
X31370000Y3770000D01*
X28492300Y20648100D02*
X28492300Y22403900D01*
X29392100Y19748300D02*
X28492300Y20648100D01*
X29392100Y19602300D02*
X29392100Y19748300D01*
X30306300Y18688100D02*
X29392100Y19602300D01*
X30306300Y16247200D02*
X30306300Y18688100D01*
X35180000Y11373500D02*
X30306300Y16247200D01*
X35180000Y5040000D02*
X35180000Y11373500D01*
X13170000Y27670000D02*
X13169700Y27670000D01*
X13230300Y27670000D02*
X13170000Y27670000D01*
X14050000Y26850000D02*
X13230300Y27670000D01*
X13170000Y27670000D02*
X13169700Y27669700D01*
X8510000Y46170000D02*
X7240000Y47440000D01*
X8510000Y44675200D02*
X8510000Y46170000D01*
X11359700Y41825500D02*
X8510000Y44675200D01*
X11359700Y29480000D02*
X11359700Y41825500D01*
X13169700Y27670000D02*
X11359700Y29480000D01*
X12269700Y26780000D02*
X12250000Y26780000D01*
X13150000Y25900000D02*
X12269700Y26780000D01*
X12250000Y26780000D02*
X12230300Y26780000D01*
X12249800Y26780300D02*
X12230300Y26780300D01*
X12249800Y26780200D02*
X12249800Y26780300D01*
X12250000Y26780000D02*
X12249800Y26780200D01*
X10961200Y41178800D02*
X7240000Y44900000D01*
X10961200Y28049400D02*
X10961200Y41178800D01*
X12230300Y26780300D02*
X10961200Y28049400D01*
X11308500Y21489800D02*
X10715500Y22082800D01*
X19675600Y21489800D02*
X11308500Y21489800D01*
X22001600Y23815800D02*
X19675600Y21489800D01*
X22001600Y25855800D02*
X22001600Y23815800D01*
X21840600Y26016800D02*
X22001600Y25855800D01*
X46600000Y25829100D02*
X46600000Y19200000D01*
X42836300Y29592800D02*
X46600000Y25829100D01*
X42836300Y30617400D02*
X42836300Y29592800D01*
X38980300Y34473400D02*
X42836300Y30617400D01*
X38980300Y40874800D02*
X38980300Y34473400D01*
X36690900Y43164200D02*
X38980300Y40874800D01*
X36690900Y47390800D02*
X36690900Y43164200D01*
X35562100Y48519600D02*
X36690900Y47390800D01*
X26290000Y48519600D02*
X35562100Y48519600D01*
X25913700Y48895900D02*
X26290000Y48519600D01*
X13775900Y48895900D02*
X25913700Y48895900D01*
X12320000Y47440000D02*
X13775900Y48895900D01*
X21162600Y29728300D02*
X21162600Y28026900D01*
X23636200Y32201900D02*
X21162600Y29728300D01*
X24364700Y32201900D02*
X23636200Y32201900D01*
X26290000Y34127200D02*
X24364700Y32201900D01*
X26290000Y48519600D02*
X26290000Y34127200D01*
X12813800Y32843000D02*
X16062000Y29594800D01*
X12813800Y38115300D02*
X12813800Y32843000D01*
X11861600Y39067500D02*
X12813800Y38115300D01*
X11861600Y44441600D02*
X11861600Y39067500D01*
X12320000Y44900000D02*
X11861600Y44441600D01*
X9685700Y41500400D02*
X9425900Y41760200D01*
X9685700Y34350500D02*
X9685700Y41500400D01*
X8643600Y33308400D02*
X9685700Y34350500D01*
X8643600Y32443100D02*
X8643600Y33308400D01*
X16130000Y46170000D02*
X17400000Y47440000D01*
X16130000Y42466800D02*
X16130000Y46170000D01*
X14989600Y41326400D02*
X16130000Y42466800D01*
X14989600Y39464500D02*
X14989600Y41326400D01*
X16245700Y38208400D02*
X14989600Y39464500D01*
X16245700Y34264000D02*
X16245700Y38208400D01*
X15876700Y33895000D02*
X16245700Y34264000D01*
X15876700Y31739800D02*
X15876700Y33895000D01*
X16455500Y31161000D02*
X15876700Y31739800D01*
X17206400Y31161000D02*
X16455500Y31161000D01*
X20638600Y32013400D02*
X19066800Y30441600D01*
X20638600Y32105500D02*
X20638600Y32013400D01*
X21033100Y32500000D02*
X20638600Y32105500D01*
X21125200Y32500000D02*
X21033100Y32500000D01*
X24061000Y35435800D02*
X21125200Y32500000D01*
X24061000Y38913800D02*
X24061000Y35435800D01*
X9012300Y40692800D02*
X9012300Y34645000D01*
X6838600Y42866500D02*
X9012300Y40692800D01*
X21010500Y45970500D02*
X19940000Y44900000D01*
X21010500Y47870800D02*
X21010500Y45970500D01*
X20386300Y48495000D02*
X21010500Y47870800D01*
X19468200Y48495000D02*
X20386300Y48495000D01*
X18440000Y47466800D02*
X19468200Y48495000D01*
X18440000Y43231900D02*
X18440000Y47466800D01*
X17171900Y41963800D02*
X18440000Y43231900D01*
X17171900Y37785100D02*
X17171900Y41963800D01*
X16609800Y37223000D02*
X17171900Y37785100D01*
X16609800Y31970500D02*
X16609800Y37223000D01*
X17552900Y38209900D02*
X17950600Y37812200D01*
X17552900Y41307900D02*
X17552900Y38209900D01*
X19417200Y43172200D02*
X17552900Y41307900D01*
X19670100Y43172200D02*
X19417200Y43172200D01*
X21210000Y44712100D02*
X19670100Y43172200D01*
X21210000Y45666500D02*
X21210000Y44712100D01*
X22480000Y46936500D02*
X21210000Y45666500D01*
X22480000Y47440000D02*
X22480000Y46936500D01*
X19801700Y42221700D02*
X22480000Y44900000D01*
X19801700Y38207600D02*
X19801700Y42221700D01*
X18472200Y36878100D02*
X19801700Y38207600D01*
X18472200Y33963000D02*
X18472200Y36878100D01*
X17726500Y33217300D02*
X18472200Y33963000D01*
X17726500Y32158200D02*
X17726500Y33217300D01*
X24830300Y28230000D02*
X24869400Y28230000D01*
X23900000Y27300000D02*
X24830300Y28230000D01*
X24869400Y28230000D02*
X24869700Y28230000D01*
X24869400Y28230000D02*
X24869700Y28230300D01*
X36211900Y46408100D02*
X35180000Y47440000D01*
X36211900Y41570700D02*
X36211900Y46408100D01*
X32004400Y37363200D02*
X36211900Y41570700D01*
X32004400Y34759800D02*
X32004400Y37363200D01*
X25474900Y28230300D02*
X32004400Y34759800D01*
X24869700Y28230300D02*
X25474900Y28230300D01*
X23830300Y29230000D02*
X23830300Y29269700D01*
X22950000Y28350000D02*
X23830300Y29230000D01*
X23830300Y29269700D02*
X23830300Y29270000D01*
X30416800Y40136800D02*
X35180000Y44900000D01*
X30416800Y34272000D02*
X30416800Y40136800D01*
X25414800Y29270000D02*
X30416800Y34272000D01*
X23830300Y29270000D02*
X25414800Y29270000D01*
X30416800Y34272000D02*
X30490500Y34198300D01*
X25620500Y22529400D02*
X25620500Y19603800D01*
X24250100Y23899800D02*
X25620500Y22529400D01*
X21010000Y18769500D02*
X19458900Y20320600D01*
X21010000Y16264000D02*
X21010000Y18769500D01*
X22298500Y14975500D02*
X21010000Y16264000D01*
X22582800Y23195700D02*
X22582800Y22960500D01*
X24006300Y24619200D02*
X22582800Y23195700D01*
X24510300Y24619200D02*
X24006300Y24619200D01*
X25015800Y24113700D02*
X24510300Y24619200D01*
X25015800Y23637700D02*
X25015800Y24113700D01*
X26294000Y22359500D02*
X25015800Y23637700D01*
X26294000Y19934900D02*
X26294000Y22359500D01*
X27848200Y18380700D02*
X26294000Y19934900D01*
X27927300Y18380700D02*
X27848200Y18380700D01*
X22038900Y6529100D02*
X21242700Y7325300D01*
X22351200Y6529100D02*
X22038900Y6529100D01*
X49500000Y12110000D02*
X48110000Y10720000D01*
X49500000Y14800000D02*
X49500000Y12110000D01*
X48700000Y15600000D02*
X49500000Y14800000D01*
X48100000Y15600000D02*
X48700000Y15600000D01*
X48100000Y21420000D02*
X48110000Y21430000D01*
X48100000Y19200000D02*
X48100000Y21420000D01*
D25*
X39641900Y19275500D02*
X39641900Y26831700D01*
X40355200Y18562200D02*
X39641900Y19275500D01*
X40355200Y11535000D02*
X40355200Y18562200D01*
X39148700Y10328500D02*
X40355200Y11535000D01*
X39148700Y3611300D02*
X39148700Y10328500D01*
X40260000Y2500000D02*
X39148700Y3611300D01*
X39641900Y27191900D02*
X41750000Y29300000D01*
X39641900Y26831700D02*
X39641900Y27191900D01*
X21817100Y27046600D02*
X21624500Y27046600D01*
X23275300Y25588400D02*
X21817100Y27046600D01*
X25450300Y25588400D02*
X23275300Y25588400D01*
X26693600Y26831700D02*
X25450300Y25588400D01*
X39641900Y26831700D02*
X26693600Y26831700D01*
X26339300Y24600000D02*
X26204500Y24735000D01*
X27800000Y24600000D02*
X26339300Y24600000D01*
X29400000Y23000000D02*
X27800000Y24600000D01*
X26204500Y24735000D02*
X26069700Y24870000D01*
X26204400Y24735000D02*
X26069700Y24869700D01*
X26204500Y24735000D02*
X26204400Y24735000D01*
X20269700Y32670000D02*
X20330000Y32670000D01*
X19400000Y31800000D02*
X20269700Y32670000D01*
X20330000Y32670000D02*
X20330300Y32670000D01*
X20330000Y32670000D02*
X20330300Y32669700D01*
D24*
X35190000Y14200000D02*
X35160000Y14170000D01*
X39750000Y14200000D02*
X35190000Y14200000D01*
X23530300Y11130000D02*
X23530300Y11130300D01*
X24730300Y9930000D02*
X24730600Y9930000D01*
X23530300Y11130000D02*
X24730300Y9930000D01*
X24769700Y9930000D02*
X25600000Y9100000D01*
X24730600Y9930000D02*
X24769700Y9930000D01*
X24730600Y9930000D02*
X24730300Y9930300D01*
X37730000Y17950000D02*
X37700000Y17980000D01*
X39750000Y17950000D02*
X37730000Y17950000D01*
D25*
X30869700Y12430000D02*
X30869400Y12430000D01*
X30869400Y12430000D02*
X30869700Y12430300D01*
X28419700Y10130000D02*
X27800000Y10750000D01*
X28469400Y10130000D02*
X28419700Y10130000D01*
X28469400Y10130000D02*
X28469700Y10130300D01*
X29669700Y11280000D02*
X29669400Y11280000D01*
X30819700Y12430000D02*
X29669700Y11280000D01*
X30869400Y12430000D02*
X30819700Y12430000D01*
X28469700Y10130000D02*
X28469400Y10130000D01*
X29619700Y11280000D02*
X28469700Y10130000D01*
X29669400Y11280000D02*
X29619700Y11280000D01*
X29669400Y11280000D02*
X29669700Y11280300D01*
D24*
X1450000Y26600000D02*
X1450000Y27750000D01*
X4450000Y14500000D02*
X3150000Y15800000D01*
X5500000Y14500000D02*
X4450000Y14500000D01*
X8550000Y28250000D02*
X7680300Y27380000D01*
D27*
X39700000Y29300000D02*
X38250000Y29300000D01*
D25*
X25930300Y27170000D02*
X25930000Y27170000D01*
X25919700Y27170000D02*
X25050000Y26300000D01*
X25930000Y27170000D02*
X25919700Y27170000D01*
X25930000Y27170000D02*
X25930300Y27169700D01*
X22769700Y30320000D02*
X21850000Y29400000D01*
X22769700Y30330000D02*
X22769700Y30320000D01*
X22769700Y30330000D02*
X22769700Y30330300D01*
D24*
X14230300Y28730000D02*
X14640200Y29140000D01*
D25*
X14640000Y29140000D02*
X14230300Y28730300D01*
X14640200Y29140000D02*
X14640000Y29140000D01*
D24*
X14640200Y29140000D02*
X15050000Y29550000D01*
X8639300Y28250000D02*
X9904500Y26985000D01*
X8550000Y28250000D02*
X8639300Y28250000D01*
X9904500Y26985000D02*
X11169700Y25720000D01*
D25*
X11169700Y25719800D02*
X11169700Y25719700D01*
X9904500Y26985000D02*
X11169700Y25719800D01*
X31930300Y11369700D02*
X31930300Y10226500D01*
X24369700Y17120000D02*
X23794700Y17695000D01*
X24419700Y17120000D02*
X24369700Y17120000D01*
X23794700Y17695000D02*
X23219700Y18270000D01*
X23794400Y17695000D02*
X23219700Y18269700D01*
X23794700Y17695000D02*
X23794400Y17695000D01*
X8305300Y26805000D02*
X8880300Y26230000D01*
X8305600Y26805000D02*
X8880300Y26230300D01*
X8305300Y26805000D02*
X8305600Y26805000D01*
D26*
X21669700Y38330000D02*
X20469700Y37130000D01*
D25*
X21669700Y38330000D02*
X21669700Y38330300D01*
D24*
X15280600Y23820000D02*
X15280300Y23820000D01*
X15369700Y23820000D02*
X15280600Y23820000D01*
X16050000Y24500000D02*
X15369700Y23820000D01*
D25*
X15280600Y23820000D02*
X15280300Y23819700D01*
X24419700Y17119700D02*
X24419700Y17120000D01*
X7680300Y27380000D02*
X7680600Y27380000D01*
X7730300Y27380000D02*
X8305300Y26805000D01*
X7680600Y27380000D02*
X7730300Y27380000D01*
X7680600Y27380000D02*
X7680300Y27380300D01*
X20469700Y37130000D02*
X20469700Y37130300D01*
X20469700Y37070000D02*
X20469700Y37130000D01*
X19600000Y36200000D02*
X20469700Y37070000D01*
X15280300Y23820000D02*
X14180300Y22720000D01*
X14180300Y22720000D02*
X14180300Y22719700D01*
X24419700Y16982400D02*
X25119200Y16282900D01*
X24419700Y17119700D02*
X24419700Y16982400D01*
D24*
X26531000Y4567900D02*
X26531000Y7401900D01*
X27569800Y3529100D02*
X26531000Y4567900D01*
X28042500Y3529100D02*
X27569800Y3529100D01*
X28830100Y2741500D02*
X28042500Y3529100D01*
X28830100Y2295000D02*
X28830100Y2741500D01*
X30095600Y1029500D02*
X28830100Y2295000D01*
X40337100Y1029500D02*
X30095600Y1029500D01*
X41530000Y2222400D02*
X40337100Y1029500D01*
X41530000Y6047600D02*
X41530000Y2222400D01*
X46600000Y11117600D02*
X41530000Y6047600D01*
X46600000Y15600000D02*
X46600000Y11117600D01*
X21566100Y1437400D02*
X21461400Y1542100D01*
X22927900Y1437400D02*
X21566100Y1437400D01*
X23876500Y2386000D02*
X22927900Y1437400D01*
X23876500Y5972800D02*
X23876500Y2386000D01*
X26300000Y8396300D02*
X23876500Y5972800D01*
X2950000Y24950000D02*
X2950000Y25775000D01*
X2950000Y25775000D02*
X2950000Y26600000D01*
X4306000Y27131000D02*
X2950000Y25775000D01*
X4306000Y30550000D02*
X4306000Y27131000D01*
X27091900Y20765500D02*
X27357100Y21030700D01*
X27091900Y19640500D02*
X27091900Y20765500D01*
X27678300Y19054100D02*
X27091900Y19640500D01*
X28206300Y19054100D02*
X27678300Y19054100D01*
X28713600Y18546800D02*
X28206300Y19054100D01*
X28713600Y16182500D02*
X28713600Y18546800D01*
X32752800Y12143300D02*
X28713600Y16182500D01*
X32752800Y8682500D02*
X32752800Y12143300D01*
X32640000Y8569700D02*
X32752800Y8682500D01*
X32640000Y5040000D02*
X32640000Y8569700D01*
M02*
